<svg xmlns="http://www.w3.org/2000/svg" xmlns:xlink="http://www.w3.org/1999/xlink" width="600" zoomAndPan="magnify" viewBox="0 0 450 374.999991" height="500" preserveAspectRatio="xMidYMid meet" version="1.0"><defs><clipPath id="09b3bb1d9e"><path d="M 10 0 L 375 0 L 375 371.25 L 10 371.25 Z M 10 0 " clip-rule="nonzero"/></clipPath></defs><rect x="-45" width="540" fill="#ffffff" y="-37.499999" height="449.999989" fill-opacity="1"/><rect x="-45" width="540" fill="#ffffff" y="-37.499999" height="449.999989" fill-opacity="1"/><path fill="#000000" d="M 351.140625 149.390625 C 353.035156 149.390625 353.980469 150.238281 354.25 152.140625 C 355.21875 158.675781 356.191406 165.214844 357.105469 171.769531 C 357.238281 172.726562 357.617188 173.140625 358.582031 173.371094 C 365.71875 175.074219 372.46875 177.832031 378.78125 181.59375 C 379.292969 181.898438 380.46875 181.859375 380.957031 181.503906 C 386.121094 177.5 391.351562 173.542969 396.546875 169.601562 C 398.152344 168.390625 399.621094 168.449219 401.0625 169.855469 C 406.203125 174.871094 411.328125 179.914062 416.480469 184.980469 C 418.109375 186.546875 418.203125 187.71875 416.871094 189.527344 C 412.957031 194.882812 409.082031 200.222656 405.148438 205.542969 C 404.675781 206.1875 404.667969 206.605469 405.078125 207.257812 C 409.320312 214.054688 412.445312 221.332031 414.273438 229.152344 C 414.5 230.148438 415.058594 230.332031 415.902344 230.453125 C 422.433594 231.414062 428.976562 232.367188 435.527344 233.324219 C 437.355469 233.59375 438.230469 234.554688 438.230469 236.371094 C 438.234375 243.78125 438.234375 251.214844 438.230469 258.628906 C 438.230469 260.4375 437.371094 261.40625 435.539062 261.679688 C 429.03125 262.636719 422.527344 263.589844 416.003906 264.503906 C 414.984375 264.640625 414.492188 265 414.238281 266.070312 C 412.515625 273.289062 409.671875 280.066406 405.855469 286.425781 C 405.46875 287.082031 405.453125 287.507812 405.929688 288.128906 C 409.988281 293.382812 413.976562 298.652344 417.972656 303.910156 C 419.351562 305.691406 419.292969 306.894531 417.714844 308.492188 C 412.699219 313.613281 407.703125 318.710938 402.671875 323.824219 C 401.164062 325.351562 399.738281 325.5 398.003906 324.222656 C 392.644531 320.308594 387.308594 316.433594 381.972656 312.503906 C 381.628906 312.25 380.746094 312.210938 380.378906 312.449219 C 373.546875 316.714844 366.234375 319.828125 358.394531 321.675781 C 357.414062 321.910156 357.234375 322.417969 357.113281 323.210938 C 356.167969 329.796875 355.214844 336.378906 354.25 342.957031 C 353.976562 344.757812 352.996094 345.609375 351.144531 345.609375 C 343.753906 345.609375 336.398438 345.609375 328.996094 345.609375 C 327.105469 345.609375 326.160156 344.761719 325.875 342.851562 C 324.921875 336.316406 323.964844 329.785156 323.042969 323.226562 C 322.90625 322.273438 322.527344 321.859375 321.574219 321.621094 C 314.417969 319.921875 307.675781 317.167969 301.375 313.398438 C 300.867188 313.097656 299.660156 313.125 299.191406 313.488281 C 294.019531 317.496094 288.800781 321.449219 283.589844 325.394531 C 281.988281 326.609375 280.535156 326.546875 279.082031 325.144531 C 273.9375 320.121094 268.789062 315.085938 263.65625 310.042969 C 262.035156 308.449219 261.9375 307.277344 263.277344 305.460938 C 267.183594 300.105469 271.058594 294.746094 274.988281 289.453125 C 275.464844 288.808594 275.480469 288.386719 275.070312 287.738281 C 270.816406 280.9375 267.703125 273.652344 265.859375 265.84375 C 265.621094 264.847656 265.09375 264.636719 264.234375 264.535156 C 257.703125 263.582031 251.164062 262.628906 244.613281 261.671875 C 242.71875 261.402344 241.902344 260.433594 241.902344 258.5 C 241.902344 251.148438 241.902344 243.839844 241.902344 236.492188 C 241.902344 234.554688 242.75 233.589844 244.605469 233.320312 C 251.140625 232.363281 257.671875 231.410156 264.234375 230.449219 C 265.066406 230.339844 265.617188 230.164062 265.859375 229.15625 C 267.5625 221.851562 270.4375 215.003906 274.265625 208.566406 C 274.636719 207.917969 274.683594 207.488281 274.207031 206.871094 C 270.140625 201.617188 266.167969 196.359375 262.144531 191.089844 C 260.777344 189.304688 260.84375 188.105469 262.421875 186.507812 C 267.484375 181.34375 272.535156 176.144531 277.613281 171.019531 C 278.992188 169.648438 280.464844 169.609375 282.019531 170.71875 C 287.386719 174.597656 292.722656 178.5 298.039062 182.433594 C 298.433594 182.726562 299.433594 182.765625 299.851562 182.488281 C 306.605469 178.265625 313.882812 175.203125 321.652344 173.347656 C 322.566406 173.121094 322.898438 172.695312 323.035156 171.78125 C 323.960938 165.195312 324.921875 158.636719 325.871094 152.039062 C 326.144531 150.238281 327.132812 149.390625 328.988281 149.390625 C 336.378906 149.390625 343.742188 149.390625 351.140625 149.390625 M 340.066406 294.347656 C 365.964844 294.347656 386.949219 273.371094 386.949219 247.5 C 386.949219 221.628906 365.964844 200.652344 340.066406 200.652344 C 314.195312 200.652344 293.195312 221.628906 293.195312 247.5 C 293.195312 273.371094 314.195312 294.347656 340.066406 294.347656 M 351.140625 137.5 L 328.996094 137.5 C 321.246094 137.5 315.261719 142.621094 314.113281 150.261719 C 313.464844 154.734375 312.796875 159.203125 312.171875 163.679688 C 307.910156 165.078125 303.742188 166.820312 299.714844 168.890625 C 296.347656 166.421875 292.800781 163.839844 289.003906 161.085938 C 282.777344 156.566406 274.675781 157.171875 269.230469 162.585938 C 265.675781 166.175781 253.917969 178.183594 253.917969 178.183594 C 248.25 183.949219 247.761719 191.855469 252.703125 198.308594 C 252.703125 198.308594 259.121094 206.75 260.644531 208.742188 C 258.898438 212.28125 257.414062 215.914062 256.199219 219.601562 C 251.757812 220.253906 247.324219 220.902344 242.867188 221.554688 C 235.191406 222.664062 230.007812 228.664062 230.007812 236.496094 L 230.007812 258.503906 C 230.007812 266.351562 235.203125 272.347656 242.945312 273.453125 C 247.328125 274.09375 251.761719 274.742188 256.195312 275.382812 C 257.59375 279.625 259.34375 283.777344 261.429688 287.8125 C 259.644531 290.242188 253.65625 298.46875 253.65625 298.46875 C 248.808594 305.03125 249.425781 312.746094 255.316406 318.53125 C 260.453125 323.582031 265.609375 328.617188 270.761719 333.65625 C 276.4375 339.117188 284.617188 339.644531 290.859375 334.8125 C 290.859375 334.8125 298.207031 329.246094 301.292969 326.886719 C 304.8125 328.628906 308.453125 330.113281 312.171875 331.320312 C 312.613281 334.457031 314.097656 344.5625 314.097656 344.5625 C 315.253906 352.328125 321.242188 357.503906 328.996094 357.503906 L 351.144531 357.503906 C 358.882812 357.503906 364.855469 352.375 366.015625 344.734375 C 366.671875 340.246094 367.324219 335.785156 367.96875 331.324219 C 372.214844 329.929688 376.367188 328.183594 380.40625 326.109375 C 382.378906 327.546875 390.964844 333.820312 390.976562 333.828125 C 397.480469 338.578125 405.640625 337.863281 411.226562 332.09375 C 416.1875 327.039062 421.195312 321.9375 426.207031 316.816406 C 431.886719 311.074219 432.382812 303.164062 427.433594 296.695312 C 427.433594 296.695312 421.105469 288.375 419.488281 286.257812 C 421.238281 282.71875 422.714844 279.089844 423.941406 275.386719 C 428.378906 274.753906 432.832031 274.101562 437.273438 273.449219 C 444.953125 272.324219 450.121094 266.371094 450.121094 258.632812 C 450.125 251.222656 450.125 243.789062 450.121094 236.371094 C 450.121094 228.640625 444.945312 222.6875 437.238281 221.558594 C 432.804688 220.914062 428.363281 220.265625 423.925781 219.613281 C 422.53125 215.363281 420.785156 211.214844 418.703125 207.1875 C 420.433594 204.824219 426.472656 196.542969 426.472656 196.542969 C 431.292969 190.011719 430.628906 182.09375 424.730469 176.414062 C 419.667969 171.433594 414.519531 166.390625 409.367188 161.351562 C 403.738281 155.878906 395.539062 155.390625 389.304688 160.160156 C 386.703125 162.152344 379.058594 168.222656 378.835938 168.109375 C 375.308594 166.382812 371.683594 164.902344 367.960938 163.683594 C 367.324219 159.257812 366.675781 154.832031 366.015625 150.40625 C 364.921875 142.703125 358.933594 137.5 351.140625 137.5 Z M 340.066406 282.445312 C 320.789062 282.445312 305.105469 266.769531 305.105469 247.5 C 305.105469 228.230469 320.789062 212.554688 340.066406 212.554688 C 359.359375 212.554688 375.046875 228.230469 375.046875 247.5 C 375.046875 266.769531 359.359375 282.445312 340.066406 282.445312 Z M 340.066406 282.445312 " fill-opacity="1" fill-rule="nonzero"/><g clip-path="url(#09b3bb1d9e)"><path fill="#000000" d="M 261.425781 343.738281 C 253.871094 347.1875 233.152344 352.988281 233.152344 352.988281 L 238.621094 346.085938 C 242.117188 341.671875 245.441406 336.65625 248.613281 331.210938 C 247.636719 330.253906 241.207031 323.164062 239.738281 320.296875 C 230.179688 338.566406 218.773438 350.535156 206.265625 354.988281 L 202.433594 356.351562 L 202.433594 265.550781 C 202.433594 265.550781 213.449219 266.324219 217.410156 266.820312 C 216.660156 264.199219 216.25 252.269531 216.25 252.269531 C 212.570312 251.863281 202.445312 251.207031 202.445312 251.207031 L 202.425781 192.433594 L 235.8125 192.433594 C 235.21875 187.832031 235.789062 183.171875 237.472656 178.792969 L 202.429688 178.792969 L 202.429688 106.492188 L 205.15625 106.355469 C 221.621094 105.527344 237.878906 102.511719 253.464844 97.410156 L 256.417969 96.445312 L 257.148438 99.460938 C 260.828125 114.675781 263.5 131.296875 265.085938 148.5 C 269.296875 145.914062 274 144.421875 278.851562 144.230469 L 279.007812 144.226562 C 277.148438 126.574219 274.105469 109.496094 269.972656 93.757812 L 269.351562 91.410156 L 271.574219 90.414062 C 286.511719 83.722656 300.523438 75.039062 313.226562 64.605469 L 315.246094 62.953125 L 317.085938 64.796875 C 334.058594 81.847656 347.066406 102.070312 355.550781 124.085938 C 363.324219 125.207031 369.957031 129.265625 374.339844 135.28125 C 352.839844 59.472656 284.273438 3.082031 202.796875 0.160156 L 188.773438 0.125 C 91.914062 3.753906 13.519531 82.058594 10.054688 178.410156 L 10.003906 192.441406 C 11.671875 236.644531 29.097656 278.820312 59.078125 311.449219 C 92.945312 348.121094 138.871094 369.300781 188.382812 371.066406 L 189.730469 371.25 L 202.5 371.097656 C 229.273438 370.140625 254.996094 363.464844 278.371094 351.804688 C 272.171875 351.113281 266.257812 348.3125 261.425781 343.738281 Z M 241.65625 20.605469 C 263.242188 26.625 283.988281 37.148438 301.648438 51.046875 L 304.515625 53.296875 L 301.652344 55.550781 C 291.304688 63.710938 280.015625 70.671875 268.101562 76.234375 L 265.210938 77.585938 L 264.167969 74.5625 C 257.339844 54.75 248.503906 37.660156 238.628906 25.140625 L 233.175781 18.238281 Z M 202.429688 14.875 L 206.277344 16.261719 C 224.25 22.753906 240.359375 45.363281 251.640625 79.910156 L 252.527344 82.621094 L 249.820312 83.527344 C 235.507812 88.296875 220.585938 91.140625 205.464844 92 L 202.433594 92.171875 L 202.433594 14.875 Z M 184.949219 16.257812 L 188.792969 14.871094 L 188.792969 92.171875 L 185.761719 92 C 170.648438 91.140625 155.722656 88.296875 141.40625 83.519531 L 138.699219 82.613281 L 139.585938 79.90625 C 150.875 45.339844 166.992188 22.738281 184.949219 16.257812 Z M 89.585938 51.046875 C 109.96875 35.003906 133.261719 25.160156 158.078125 18.238281 C 144.464844 35.472656 134.246094 53.738281 127.066406 74.566406 L 126.023438 77.589844 L 123.128906 76.238281 C 111.210938 70.667969 99.917969 63.707031 89.582031 55.554688 L 86.722656 53.300781 Z M 24.523438 175.769531 C 26.890625 133.964844 44.511719 94.558594 74.140625 64.808594 L 75.980469 62.953125 L 77.996094 64.609375 C 90.679688 75.011719 104.695312 83.699219 119.65625 90.410156 L 121.875 91.40625 L 121.257812 93.761719 C 115.925781 113.296875 112.976562 133.398438 111.390625 153.5625 C 111.25 155.355469 110.070312 178.796875 110.121094 178.796875 L 24.351562 178.796875 Z M 68.90625 300.984375 L 66.984375 298.800781 C 42.570312 271.109375 27.664062 235.832031 24.773438 199.109375 C 24.679688 197.898438 24.351562 192.4375 24.351562 192.4375 L 110.121094 192.4375 L 110.191406 195.238281 C 110.761719 219.753906 113.515625 243.363281 118.367188 265.40625 L 118.863281 267.648438 L 116.785156 268.621094 C 100.132812 276.421875 84.753906 286.652344 71.0625 299.03125 Z M 149.574219 350.632812 C 124.464844 343.628906 100.890625 330.726562 81.398438 313.308594 L 79.003906 311.164062 L 81.398438 309.03125 C 92.867188 298.785156 105.625 290.125 119.324219 283.316406 L 122.394531 281.789062 L 123.359375 285.078125 C 130.683594 310.085938 140.796875 331.183594 152.601562 346.09375 L 158.070312 353.003906 Z M 188.796875 356.363281 L 184.964844 354.988281 C 164.609375 347.734375 147.1875 320.71875 135.910156 278.921875 L 135.21875 276.363281 L 137.710938 275.472656 C 153.125 269.9375 169.296875 266.65625 185.769531 265.722656 L 188.800781 265.550781 L 188.800781 356.363281 Z M 188.796875 251.207031 L 186.074219 251.347656 C 168.605469 252.238281 151.429688 255.5625 135.035156 261.234375 L 131.914062 262.3125 L 131.277344 259.074219 C 127.316406 238.984375 125.046875 217.550781 124.535156 195.371094 L 124.460938 192.433594 L 188.792969 192.433594 L 188.792969 251.207031 Z M 124.460938 178.792969 C 124.128906 178.792969 126.824219 128.261719 134.0625 99.476562 L 134.792969 96.457031 L 137.742188 97.425781 C 153.339844 102.511719 169.59375 105.519531 186.058594 106.359375 L 188.78125 106.5 L 188.796875 178.792969 Z M 124.460938 178.792969 " fill-opacity="1" fill-rule="nonzero"/></g></svg>