<svg xmlns="http://www.w3.org/2000/svg" xmlns:xlink="http://www.w3.org/1999/xlink" width="527" zoomAndPan="magnify" viewBox="0 0 395.25 129.750003" height="173" preserveAspectRatio="xMidYMid meet" version="1.0"><defs><g/><clipPath id="789c3364c6"><path d="M 20.632812 94.578125 L 367.964844 94.578125 L 367.964844 108 L 20.632812 108 Z M 20.632812 94.578125 " clip-rule="nonzero"/></clipPath></defs><g fill="#ffffff" fill-opacity="1"><g transform="translate(18.934195, 86.632946)"><g><path d="M 28.015625 -10.140625 C 30.367188 -10.140625 32.671875 -10.675781 34.921875 -11.75 C 37.179688 -12.832031 39.460938 -14.648438 41.765625 -17.203125 L 48.96875 -10.375 C 46.082031 -6.644531 42.785156 -3.820312 39.078125 -1.90625 C 35.378906 0 31.566406 0.953125 27.640625 0.953125 C 24.117188 0.953125 20.8125 0.234375 17.71875 -1.203125 C 14.632812 -2.648438 11.953125 -4.597656 9.671875 -7.046875 C 7.390625 -9.503906 5.597656 -12.363281 4.296875 -15.625 C 3.003906 -18.882812 2.359375 -22.351562 2.359375 -26.03125 C 2.359375 -29.707031 3.03125 -33.160156 4.375 -36.390625 C 5.71875 -39.628906 7.539062 -42.472656 9.84375 -44.921875 C 12.15625 -47.378906 14.878906 -49.316406 18.015625 -50.734375 C 21.148438 -52.160156 24.484375 -52.875 28.015625 -52.875 C 31.296875 -52.875 34.421875 -52.257812 37.390625 -51.03125 C 40.359375 -49.800781 43.265625 -47.765625 46.109375 -44.921875 L 39.640625 -37.0625 C 37.578125 -38.96875 35.625 -40.25 33.78125 -40.90625 C 31.945312 -41.570312 30.023438 -41.90625 28.015625 -41.90625 C 26.003906 -41.90625 24.101562 -41.488281 22.3125 -40.65625 C 20.53125 -39.820312 18.972656 -38.691406 17.640625 -37.265625 C 16.316406 -35.847656 15.273438 -34.171875 14.515625 -32.234375 C 13.753906 -30.304688 13.375 -28.238281 13.375 -26.03125 C 13.375 -23.820312 13.753906 -21.757812 14.515625 -19.84375 C 15.273438 -17.9375 16.316406 -16.257812 17.640625 -14.8125 C 18.972656 -13.363281 20.53125 -12.222656 22.3125 -11.390625 C 24.101562 -10.554688 26.003906 -10.140625 28.015625 -10.140625 Z M 28.015625 -10.140625 "/></g></g></g><g fill="#ffffff" fill-opacity="1"><g transform="translate(65.260199, 86.632946)"><g><path d="M 21.25 -37.5 C 23.84375 -37.5 26.289062 -36.992188 28.59375 -35.984375 C 30.90625 -34.984375 32.914062 -33.613281 34.625 -31.875 C 36.34375 -30.132812 37.703125 -28.097656 38.703125 -25.765625 C 39.710938 -23.441406 40.21875 -20.957031 40.21875 -18.3125 C 40.21875 -15.664062 39.710938 -13.175781 38.703125 -10.84375 C 37.703125 -8.519531 36.34375 -6.484375 34.625 -4.734375 C 32.914062 -2.992188 30.90625 -1.625 28.59375 -0.625 C 26.289062 0.375 23.84375 0.875 21.25 0.875 C 18.601562 0.875 16.128906 0.375 13.828125 -0.625 C 11.523438 -1.625 9.515625 -2.992188 7.796875 -4.734375 C 6.078125 -6.484375 4.710938 -8.519531 3.703125 -10.84375 C 2.703125 -13.175781 2.203125 -15.664062 2.203125 -18.3125 C 2.203125 -20.957031 2.703125 -23.441406 3.703125 -25.765625 C 4.710938 -28.097656 6.078125 -30.132812 7.796875 -31.875 C 9.515625 -33.613281 11.523438 -34.984375 13.828125 -35.984375 C 16.128906 -36.992188 18.601562 -37.5 21.25 -37.5 Z M 21.25 -8.015625 C 22.476562 -8.015625 23.617188 -8.257812 24.671875 -8.75 C 25.722656 -9.238281 26.648438 -9.910156 27.453125 -10.765625 C 28.265625 -11.628906 28.90625 -12.660156 29.375 -13.859375 C 29.84375 -15.054688 30.078125 -16.394531 30.078125 -17.875 C 30.078125 -19.34375 29.84375 -20.710938 29.375 -21.984375 C 28.90625 -23.253906 28.265625 -24.367188 27.453125 -25.328125 C 26.648438 -26.285156 25.722656 -27.046875 24.671875 -27.609375 C 23.617188 -28.171875 22.476562 -28.453125 21.25 -28.453125 C 20.019531 -28.453125 18.863281 -28.171875 17.78125 -27.609375 C 16.707031 -27.046875 15.765625 -26.285156 14.953125 -25.328125 C 14.148438 -24.367188 13.515625 -23.253906 13.046875 -21.984375 C 12.585938 -20.710938 12.359375 -19.34375 12.359375 -17.875 C 12.359375 -16.394531 12.585938 -15.054688 13.046875 -13.859375 C 13.515625 -12.660156 14.148438 -11.628906 14.953125 -10.765625 C 15.765625 -9.910156 16.707031 -9.238281 17.78125 -8.75 C 18.863281 -8.257812 20.019531 -8.015625 21.25 -8.015625 Z M 21.25 -8.015625 "/></g></g></g><g fill="#ffffff" fill-opacity="1"><g transform="translate(102.688571, 86.632946)"><g><path d="M 22.28125 -36.46875 C 23.65625 -36.46875 25.175781 -36.269531 26.84375 -35.875 C 28.507812 -35.488281 30.078125 -34.753906 31.546875 -33.671875 C 33.015625 -32.597656 34.25 -31.101562 35.25 -29.1875 C 36.257812 -27.28125 36.765625 -24.804688 36.765625 -21.765625 L 36.765625 0 L 26.546875 0 L 26.546875 -21.390625 C 26.546875 -22.523438 26.359375 -23.484375 25.984375 -24.265625 C 25.617188 -25.046875 25.128906 -25.671875 24.515625 -26.140625 C 23.910156 -26.609375 23.210938 -26.953125 22.421875 -27.171875 C 21.640625 -27.390625 20.859375 -27.5 20.078125 -27.5 C 19.441406 -27.5 18.742188 -27.390625 17.984375 -27.171875 C 17.222656 -26.953125 16.507812 -26.597656 15.84375 -26.109375 C 15.1875 -25.617188 14.632812 -24.976562 14.1875 -24.1875 C 13.75 -23.40625 13.53125 -22.472656 13.53125 -21.390625 L 13.53125 0 L 3.375 0 L 3.375 -36.46875 L 12.0625 -36.46875 L 13.53125 -33.671875 C 14.707031 -34.503906 16.03125 -35.175781 17.5 -35.6875 C 18.96875 -36.207031 20.5625 -36.46875 22.28125 -36.46875 Z M 22.28125 -36.46875 "/></g></g></g><g fill="#ffffff" fill-opacity="1"><g transform="translate(137.690319, 86.632946)"><g><path d="M 16.765625 -13.09375 C 16.765625 -11.375 17.289062 -10.046875 18.34375 -9.109375 C 19.394531 -8.179688 20.78125 -7.71875 22.5 -7.71875 C 23.875 -7.71875 25.25 -7.988281 26.625 -8.53125 L 26.625 0 C 25.394531 0.394531 24.09375 0.722656 22.71875 0.984375 C 21.34375 1.253906 19.972656 1.390625 18.609375 1.390625 C 17.035156 1.390625 15.535156 1.191406 14.109375 0.796875 C 12.691406 0.410156 11.421875 -0.253906 10.296875 -1.203125 C 9.171875 -2.160156 8.273438 -3.4375 7.609375 -5.03125 C 6.953125 -6.625 6.625 -8.597656 6.625 -10.953125 L 6.625 -27.421875 L 1.390625 -27.421875 L 1.390625 -34.265625 L 6.625 -36.46875 L 6.625 -44.640625 L 16.765625 -44.640625 L 16.765625 -36.46875 L 26.625 -36.46875 L 26.625 -27.421875 L 16.765625 -27.421875 Z M 16.765625 -13.09375 "/></g></g></g><g fill="#ffffff" fill-opacity="1"><g transform="translate(161.073678, 86.632946)"><g><path d="M 41.46875 -36.46875 L 41.46875 0 L 32.71875 0 L 31.6875 -3.890625 C 30.269531 -1.984375 28.566406 -0.710938 26.578125 -0.078125 C 24.597656 0.554688 22.53125 0.875 20.375 0.875 C 17.769531 0.875 15.375 0.375 13.1875 -0.625 C 11.007812 -1.625 9.113281 -2.992188 7.5 -4.734375 C 5.882812 -6.484375 4.625 -8.519531 3.71875 -10.84375 C 2.8125 -13.175781 2.359375 -15.664062 2.359375 -18.3125 C 2.359375 -20.957031 2.8125 -23.441406 3.71875 -25.765625 C 4.625 -28.097656 5.882812 -30.132812 7.5 -31.875 C 9.113281 -33.613281 11.007812 -34.984375 13.1875 -35.984375 C 15.375 -36.992188 17.769531 -37.5 20.375 -37.5 C 22.71875 -37.5 24.867188 -37.128906 26.828125 -36.390625 C 28.796875 -35.660156 30.414062 -34.488281 31.6875 -32.875 L 32.71875 -36.46875 Z M 31.328125 -18.15625 C 31.328125 -20.070312 31.066406 -21.675781 30.546875 -22.96875 C 30.035156 -24.269531 29.347656 -25.328125 28.484375 -26.140625 C 27.628906 -26.953125 26.625 -27.539062 25.46875 -27.90625 C 24.320312 -28.269531 23.085938 -28.453125 21.765625 -28.453125 C 20.441406 -28.453125 19.203125 -28.179688 18.046875 -27.640625 C 16.898438 -27.109375 15.882812 -26.390625 15 -25.484375 C 14.113281 -24.578125 13.425781 -23.5 12.9375 -22.25 C 12.445312 -21 12.203125 -19.6875 12.203125 -18.3125 C 12.203125 -16.882812 12.445312 -15.554688 12.9375 -14.328125 C 13.425781 -13.109375 14.113281 -12.046875 15 -11.140625 C 15.882812 -10.234375 16.898438 -9.507812 18.046875 -8.96875 C 19.203125 -8.425781 20.441406 -8.15625 21.765625 -8.15625 C 24.410156 -8.15625 26.648438 -8.976562 28.484375 -10.625 C 30.328125 -12.269531 31.273438 -14.78125 31.328125 -18.15625 Z M 31.328125 -18.15625 "/></g></g></g><g fill="#ffffff" fill-opacity="1"><g transform="translate(201.002221, 86.632946)"><g><path d="M 21.25 -28.453125 C 20.019531 -28.453125 18.863281 -28.171875 17.78125 -27.609375 C 16.707031 -27.046875 15.765625 -26.285156 14.953125 -25.328125 C 14.148438 -24.367188 13.515625 -23.253906 13.046875 -21.984375 C 12.585938 -20.710938 12.359375 -19.34375 12.359375 -17.875 C 12.359375 -16.394531 12.585938 -15.054688 13.046875 -13.859375 C 13.515625 -12.660156 14.148438 -11.628906 14.953125 -10.765625 C 15.765625 -9.910156 16.707031 -9.238281 17.78125 -8.75 C 18.863281 -8.257812 20.019531 -8.015625 21.25 -8.015625 C 22.769531 -8.015625 24.253906 -8.367188 25.703125 -9.078125 C 27.148438 -9.785156 28.382812 -10.78125 29.40625 -12.0625 L 35.65625 -5.875 C 33.945312 -3.820312 31.84375 -2.179688 29.34375 -0.953125 C 26.84375 0.265625 24.144531 0.875 21.25 0.875 C 18.601562 0.875 16.128906 0.375 13.828125 -0.625 C 11.523438 -1.625 9.515625 -2.992188 7.796875 -4.734375 C 6.078125 -6.484375 4.710938 -8.519531 3.703125 -10.84375 C 2.703125 -13.175781 2.203125 -15.664062 2.203125 -18.3125 C 2.203125 -20.957031 2.703125 -23.441406 3.703125 -25.765625 C 4.710938 -28.097656 6.078125 -30.132812 7.796875 -31.875 C 9.515625 -33.613281 11.523438 -34.984375 13.828125 -35.984375 C 16.128906 -36.992188 18.601562 -37.5 21.25 -37.5 C 24.238281 -37.5 27.007812 -36.859375 29.5625 -35.578125 C 32.113281 -34.304688 34.269531 -32.570312 36.03125 -30.375 L 28.96875 -24.921875 C 27.550781 -26.242188 26.265625 -27.160156 25.109375 -27.671875 C 23.960938 -28.191406 22.675781 -28.453125 21.25 -28.453125 Z M 21.25 -28.453125 "/></g></g></g><g fill="#ffffff" fill-opacity="1"><g transform="translate(234.092078, 86.632946)"><g><path d="M 16.765625 -13.09375 C 16.765625 -11.375 17.289062 -10.046875 18.34375 -9.109375 C 19.394531 -8.179688 20.78125 -7.71875 22.5 -7.71875 C 23.875 -7.71875 25.25 -7.988281 26.625 -8.53125 L 26.625 0 C 25.394531 0.394531 24.09375 0.722656 22.71875 0.984375 C 21.34375 1.253906 19.972656 1.390625 18.609375 1.390625 C 17.035156 1.390625 15.535156 1.191406 14.109375 0.796875 C 12.691406 0.410156 11.421875 -0.253906 10.296875 -1.203125 C 9.171875 -2.160156 8.273438 -3.4375 7.609375 -5.03125 C 6.953125 -6.625 6.625 -8.597656 6.625 -10.953125 L 6.625 -27.421875 L 1.390625 -27.421875 L 1.390625 -34.265625 L 6.625 -36.46875 L 6.625 -44.640625 L 16.765625 -44.640625 L 16.765625 -36.46875 L 26.625 -36.46875 L 26.625 -27.421875 L 16.765625 -27.421875 Z M 16.765625 -13.09375 "/></g></g></g><g fill="#5271ff" fill-opacity="1"><g transform="translate(257.478474, 86.632946)"><g/></g></g><g fill="#5271ff" fill-opacity="1"><g transform="translate(272.920146, 86.632946)"><g><path d="M 49.125 -52.140625 L 59.640625 -52.140625 L 59.640625 0 L 48.53125 0 L 48.53125 -34.40625 L 36.109375 -16.984375 L 27.203125 -16.984375 L 14.625 -33.890625 L 14.625 0 L 3.453125 0 L 3.453125 -52.140625 L 14.046875 -52.140625 L 31.6875 -28.09375 Z M 49.125 -52.140625 "/></g></g></g><g fill="#5271ff" fill-opacity="1"><g transform="translate(331.232203, 86.632946)"><g><path d="M 21.328125 -37.5 C 24.066406 -37.5 26.5625 -36.945312 28.8125 -35.84375 C 31.070312 -34.738281 33.007812 -33.289062 34.625 -31.5 C 36.25 -29.71875 37.5 -27.660156 38.375 -25.328125 C 39.257812 -23.003906 39.703125 -20.613281 39.703125 -18.15625 C 39.703125 -16.6875 39.507812 -15.117188 39.125 -13.453125 L 13.09375 -13.453125 C 14.070312 -11.785156 15.46875 -10.375 17.28125 -9.21875 C 19.09375 -8.070312 21.050781 -7.5 23.15625 -7.5 C 25.269531 -7.5 27.125 -7.671875 28.71875 -8.015625 C 30.3125 -8.359375 31.816406 -8.800781 33.234375 -9.34375 L 36.625 -3.09375 C 34.800781 -1.8125 32.722656 -0.828125 30.390625 -0.140625 C 28.066406 0.535156 25.582031 0.875 22.9375 0.875 C 20.050781 0.875 17.359375 0.375 14.859375 -0.625 C 12.359375 -1.625 10.175781 -2.984375 8.3125 -4.703125 C 6.445312 -6.421875 4.972656 -8.457031 3.890625 -10.8125 C 2.816406 -13.164062 2.28125 -15.664062 2.28125 -18.3125 C 2.28125 -20.90625 2.769531 -23.363281 3.75 -25.6875 C 4.726562 -28.019531 6.085938 -30.054688 7.828125 -31.796875 C 9.566406 -33.535156 11.585938 -34.921875 13.890625 -35.953125 C 16.203125 -36.984375 18.679688 -37.5 21.328125 -37.5 Z M 29.640625 -21.328125 C 29.046875 -23.429688 27.988281 -25.144531 26.46875 -26.46875 C 24.945312 -27.789062 23.234375 -28.453125 21.328125 -28.453125 C 19.359375 -28.453125 17.578125 -27.789062 15.984375 -26.46875 C 14.398438 -25.144531 13.3125 -23.429688 12.71875 -21.328125 Z M 29.640625 -21.328125 "/></g></g></g><g clip-path="url(#789c3364c6)"><path fill="#ffffff" d="M 342.523438 102.289062 C 344.261719 102.773438 345.929688 103.398438 347.734375 103.679688 C 353.78125 104.71875 359.824219 105.625 365.871094 106.597656 C 365.800781 107.011719 365.800781 107.359375 365.730469 107.777344 C 361.074219 107.359375 356.488281 106.945312 351.835938 106.386719 C 344.402344 105.554688 336.96875 104.582031 329.464844 103.746094 C 328.492188 103.609375 327.03125 103.46875 326.613281 104.027344 C 324.390625 106.527344 321.75 105.625 319.179688 105.34375 C 291.390625 102.707031 263.460938 102.289062 235.597656 102.289062 C 216.699219 102.289062 197.871094 103.054688 178.972656 103.679688 C 164.3125 104.164062 149.65625 105.066406 134.996094 105.554688 C 131.171875 105.691406 127.351562 104.71875 123.601562 104.71875 C 115.402344 104.71875 107.273438 105 99.074219 105.136719 C 92.890625 105.277344 86.707031 105.484375 80.523438 105.625 C 67.808594 105.972656 55.164062 106.316406 42.449219 106.664062 C 41.617188 106.664062 40.78125 106.804688 39.949219 106.875 C 38.003906 107.082031 35.988281 108.402344 34.320312 105.761719 C 33.835938 105.066406 31.542969 105.484375 30.015625 105.136719 C 41.6875 102.148438 53.773438 102.011719 65.585938 99.925781 C 58.777344 99.71875 51.96875 99.441406 45.160156 99.230469 C 39.808594 99.023438 34.460938 98.675781 29.179688 98.746094 C 26.402344 98.746094 23.550781 99.371094 20.632812 99.71875 C 20.914062 97.285156 22.925781 96.660156 25.148438 96.589844 C 30.5 96.382812 35.851562 96.242188 41.199219 96.3125 C 47.523438 96.3125 53.914062 96.660156 60.238281 96.660156 C 67.949219 96.730469 75.589844 96.730469 83.304688 96.660156 C 128.949219 96.175781 174.527344 95.6875 220.105469 95.203125 C 234.488281 95.0625 248.867188 94.644531 263.179688 94.714844 C 280.066406 94.785156 296.949219 95.203125 313.761719 95.6875 C 328.421875 96.175781 343.082031 96.9375 357.742188 97.703125 C 360.9375 97.84375 364.339844 97.84375 368.023438 100.761719 C 362.605469 100.96875 358.574219 103.332031 353.917969 102.773438 C 350.097656 102.289062 346.277344 102.496094 342.457031 102.425781 C 340.578125 102.148438 338.632812 101.941406 336.757812 101.664062 C 336.757812 102.011719 336.757812 102.425781 336.6875 102.773438 C 338.632812 102.636719 340.578125 102.425781 342.523438 102.289062 Z M 72.464844 102.359375 C 72.464844 102.707031 72.464844 102.984375 72.464844 103.332031 C 93.378906 102.566406 114.289062 101.800781 135.203125 101.039062 C 135.203125 100.761719 135.203125 100.550781 135.203125 100.273438 C 114.222656 100.96875 93.378906 101.664062 72.464844 102.359375 Z M 153.824219 100.34375 C 153.824219 100.203125 153.824219 100.066406 153.824219 99.925781 C 150.140625 99.925781 146.457031 99.925781 142.777344 99.925781 C 142.777344 100.066406 142.777344 100.203125 142.777344 100.34375 C 146.457031 100.34375 150.140625 100.34375 153.824219 100.34375 Z M 162.230469 99.789062 C 162.160156 99.855469 162.089844 99.925781 162.023438 99.996094 C 165.007812 99.996094 167.996094 99.996094 171.054688 99.996094 C 171.054688 99.925781 171.054688 99.855469 171.054688 99.789062 C 168.066406 99.789062 165.148438 99.789062 162.230469 99.789062 Z M 136.941406 104.441406 C 137.007812 104.304688 137.007812 104.09375 137.078125 103.957031 C 135.203125 103.957031 133.257812 103.957031 131.382812 103.957031 C 131.382812 104.09375 131.382812 104.304688 131.382812 104.441406 C 133.1875 104.441406 135.0625 104.441406 136.941406 104.441406 Z M 66.003906 103.46875 C 65.933594 103.261719 65.933594 102.984375 65.863281 102.773438 C 64.683594 102.84375 63.433594 102.914062 62.25 102.914062 C 62.25 103.121094 62.25 103.261719 62.25 103.46875 C 63.570312 103.46875 64.820312 103.46875 66.003906 103.46875 Z M 66.003906 103.46875 " fill-opacity="1" fill-rule="nonzero"/></g></svg>