<svg xmlns="http://www.w3.org/2000/svg" xmlns:xlink="http://www.w3.org/1999/xlink" width="250" zoomAndPan="magnify" viewBox="0 0 187.5 187.499992" height="250" preserveAspectRatio="xMidYMid meet" version="1.0"><defs><clipPath id="a8560323d2"><path d="M 50 7.492188 L 137 7.492188 L 137 141 L 50 141 Z M 50 7.492188 " clip-rule="nonzero"/></clipPath><clipPath id="e6b5fbc3db"><path d="M 7.492188 114 L 179.53125 114 L 179.53125 179.53125 L 7.492188 179.53125 Z M 7.492188 114 " clip-rule="nonzero"/></clipPath></defs><g clip-path="url(#a8560323d2)"><path fill="#ffffff" d="M 101.078125 114.222656 L 101.078125 15.066406 C 101.078125 13.0625 100.296875 11.136719 98.867188 9.703125 C 97.433594 8.308594 95.507812 7.492188 93.5 7.492188 C 91.492188 7.492188 89.566406 8.308594 88.132812 9.703125 C 86.699219 11.136719 85.921875 13.0625 85.921875 15.066406 L 85.921875 114.222656 C 85.921875 114.222656 71.464844 99.765625 63.398438 91.699219 C 61.964844 90.265625 60.039062 89.484375 58.03125 89.484375 C 56.023438 89.484375 54.101562 90.265625 52.667969 91.699219 C 49.71875 94.648438 49.71875 99.4375 52.667969 102.386719 L 88.421875 138.144531 C 89.773438 139.496094 91.574219 140.230469 93.5 140.230469 C 95.425781 140.230469 97.226562 139.496094 98.578125 138.144531 L 134.332031 102.386719 C 137.28125 99.4375 137.28125 94.648438 134.332031 91.699219 C 132.898438 90.265625 130.976562 89.484375 128.96875 89.484375 C 126.960938 89.484375 125.035156 90.265625 123.601562 91.699219 C 115.492188 99.765625 101.078125 114.222656 101.078125 114.222656 Z M 101.078125 114.222656 " fill-opacity="1" fill-rule="evenodd"/></g><g clip-path="url(#e6b5fbc3db)"><path fill="#ffffff" d="M 7.492188 165.175781 C 7.492188 168.984375 9.007812 172.628906 11.710938 175.289062 C 14.414062 177.992188 18.058594 179.507812 21.824219 179.507812 L 165.175781 179.507812 C 168.984375 179.507812 172.628906 177.992188 175.289062 175.289062 C 177.992188 172.585938 179.507812 168.941406 179.507812 165.175781 L 179.507812 121.800781 C 179.507812 117.625 176.109375 114.222656 171.933594 114.222656 C 169.925781 114.222656 168 115.042969 166.566406 116.4375 C 165.132812 117.867188 164.355469 119.792969 164.355469 121.800781 L 164.355469 157.226562 C 164.355469 161.203125 161.160156 164.394531 157.1875 164.394531 L 29.8125 164.394531 C 25.839844 164.394531 22.644531 161.203125 22.644531 157.226562 L 22.644531 121.800781 C 22.644531 119.792969 21.824219 117.867188 20.433594 116.4375 C 19 115.003906 17.074219 114.222656 15.066406 114.222656 C 10.890625 114.222656 7.492188 117.625 7.492188 121.800781 Z M 7.492188 165.175781 " fill-opacity="1" fill-rule="evenodd"/></g></svg>