<svg xmlns="http://www.w3.org/2000/svg" xmlns:xlink="http://www.w3.org/1999/xlink" width="210" zoomAndPan="magnify" viewBox="0 0 157.5 59.249999" height="79" preserveAspectRatio="xMidYMid meet" version="1.0"><defs><g/><clipPath id="977f1570bd"><path d="M 0.738281 0 L 156.269531 0 L 156.269531 58.507812 L 0.738281 58.507812 Z M 0.738281 0 " clip-rule="nonzero"/></clipPath><clipPath id="de799ae540"><path d="M 8.898438 41.660156 L 144.429688 41.660156 L 144.429688 46.84375 L 8.898438 46.84375 Z M 8.898438 41.660156 " clip-rule="nonzero"/></clipPath></defs><g clip-path="url(#977f1570bd)"><path fill="#ffffff" d="M 0.738281 0 L 156.269531 0 L 156.269531 58.507812 L 0.738281 58.507812 Z M 0.738281 0 " fill-opacity="1" fill-rule="nonzero"/></g><g fill="#5271ff" fill-opacity="1"><g transform="translate(12.578604, 38.518925)"><g><path d="M 1.546875 -23.296875 L 16.09375 -23.296875 L 16.09375 -18.765625 L 6.53125 -18.765625 L 6.53125 -14.5625 L 14.953125 -14.5625 L 14.953125 -10.015625 L 6.53125 -10.015625 L 6.53125 0 L 1.546875 0 Z M 1.546875 -23.296875 "/></g></g></g><g fill="#5271ff" fill-opacity="1"><g transform="translate(26.968054, 38.518925)"><g><path d="M 5.953125 -14.03125 C 6.171875 -14.382812 6.421875 -14.71875 6.703125 -15.03125 C 6.984375 -15.351562 7.320312 -15.640625 7.71875 -15.890625 C 8.113281 -16.140625 8.5625 -16.335938 9.0625 -16.484375 C 9.570312 -16.640625 10.144531 -16.71875 10.78125 -16.71875 C 11.519531 -16.71875 12.382812 -16.585938 13.375 -16.328125 L 12.953125 -12.296875 C 12.703125 -12.335938 12.457031 -12.390625 12.21875 -12.453125 C 12.019531 -12.492188 11.800781 -12.53125 11.5625 -12.5625 C 11.320312 -12.601562 11.101562 -12.625 10.90625 -12.625 C 10.207031 -12.625 9.554688 -12.523438 8.953125 -12.328125 C 8.347656 -12.128906 7.828125 -11.851562 7.390625 -11.5 C 6.953125 -11.144531 6.601562 -10.722656 6.34375 -10.234375 C 6.082031 -9.742188 5.953125 -9.210938 5.953125 -8.640625 L 5.953125 0 L 1.40625 0 L 1.40625 -16.296875 L 5.515625 -16.296875 Z M 5.953125 -14.03125 "/></g></g></g><g fill="#5271ff" fill-opacity="1"><g transform="translate(38.367814, 38.518925)"><g><path d="M 9.5 -16.765625 C 10.65625 -16.765625 11.75 -16.535156 12.78125 -16.078125 C 13.8125 -15.628906 14.707031 -15.015625 15.46875 -14.234375 C 16.238281 -13.460938 16.847656 -12.554688 17.296875 -11.515625 C 17.742188 -10.472656 17.96875 -9.363281 17.96875 -8.1875 C 17.96875 -7 17.742188 -5.882812 17.296875 -4.84375 C 16.847656 -3.800781 16.238281 -2.890625 15.46875 -2.109375 C 14.707031 -1.335938 13.8125 -0.726562 12.78125 -0.28125 C 11.75 0.164062 10.65625 0.390625 9.5 0.390625 C 8.3125 0.390625 7.203125 0.164062 6.171875 -0.28125 C 5.148438 -0.726562 4.253906 -1.335938 3.484375 -2.109375 C 2.710938 -2.890625 2.101562 -3.800781 1.65625 -4.84375 C 1.207031 -5.882812 0.984375 -7 0.984375 -8.1875 C 0.984375 -9.363281 1.207031 -10.472656 1.65625 -11.515625 C 2.101562 -12.554688 2.710938 -13.460938 3.484375 -14.234375 C 4.253906 -15.015625 5.148438 -15.628906 6.171875 -16.078125 C 7.203125 -16.535156 8.3125 -16.765625 9.5 -16.765625 Z M 9.5 -3.578125 C 10.039062 -3.578125 10.546875 -3.6875 11.015625 -3.90625 C 11.492188 -4.125 11.910156 -4.425781 12.265625 -4.8125 C 12.628906 -5.195312 12.914062 -5.65625 13.125 -6.1875 C 13.332031 -6.726562 13.4375 -7.328125 13.4375 -7.984375 C 13.4375 -8.640625 13.332031 -9.25 13.125 -9.8125 C 12.914062 -10.382812 12.628906 -10.882812 12.265625 -11.3125 C 11.910156 -11.738281 11.492188 -12.078125 11.015625 -12.328125 C 10.546875 -12.585938 10.039062 -12.71875 9.5 -12.71875 C 8.945312 -12.71875 8.429688 -12.585938 7.953125 -12.328125 C 7.472656 -12.078125 7.050781 -11.738281 6.6875 -11.3125 C 6.320312 -10.882812 6.035156 -10.382812 5.828125 -9.8125 C 5.617188 -9.25 5.515625 -8.640625 5.515625 -7.984375 C 5.515625 -7.328125 5.617188 -6.726562 5.828125 -6.1875 C 6.035156 -5.65625 6.320312 -5.195312 6.6875 -4.8125 C 7.050781 -4.425781 7.472656 -4.125 7.953125 -3.90625 C 8.429688 -3.6875 8.945312 -3.578125 9.5 -3.578125 Z M 9.5 -3.578125 "/></g></g></g><g fill="#5271ff" fill-opacity="1"><g transform="translate(55.089879, 38.518925)"><g><path d="M 9.953125 -16.296875 C 10.566406 -16.296875 11.242188 -16.207031 11.984375 -16.03125 C 12.734375 -15.851562 13.4375 -15.523438 14.09375 -15.046875 C 14.75 -14.566406 15.300781 -13.898438 15.75 -13.046875 C 16.195312 -12.191406 16.421875 -11.082031 16.421875 -9.71875 L 16.421875 0 L 11.859375 0 L 11.859375 -9.5625 C 11.859375 -10.0625 11.773438 -10.488281 11.609375 -10.84375 C 11.453125 -11.195312 11.234375 -11.476562 10.953125 -11.6875 C 10.679688 -11.894531 10.367188 -12.046875 10.015625 -12.140625 C 9.671875 -12.242188 9.320312 -12.296875 8.96875 -12.296875 C 8.6875 -12.296875 8.375 -12.242188 8.03125 -12.140625 C 7.695312 -12.046875 7.378906 -11.890625 7.078125 -11.671875 C 6.785156 -11.453125 6.539062 -11.164062 6.34375 -10.8125 C 6.144531 -10.457031 6.046875 -10.039062 6.046875 -9.5625 L 6.046875 0 L 1.515625 0 L 1.515625 -16.296875 L 5.390625 -16.296875 L 6.046875 -15.046875 C 6.566406 -15.421875 7.15625 -15.722656 7.8125 -15.953125 C 8.476562 -16.179688 9.191406 -16.296875 9.953125 -16.296875 Z M 9.953125 -16.296875 "/></g></g></g><g fill="#5271ff" fill-opacity="1"><g transform="translate(70.727766, 38.518925)"><g><path d="M 7.484375 -5.84375 C 7.484375 -5.082031 7.71875 -4.492188 8.1875 -4.078125 C 8.664062 -3.660156 9.289062 -3.453125 10.0625 -3.453125 C 10.664062 -3.453125 11.273438 -3.570312 11.890625 -3.8125 L 11.890625 0 C 11.347656 0.175781 10.769531 0.320312 10.15625 0.4375 C 9.539062 0.5625 8.925781 0.625 8.3125 0.625 C 7.613281 0.625 6.945312 0.535156 6.3125 0.359375 C 5.675781 0.179688 5.101562 -0.117188 4.59375 -0.546875 C 4.09375 -0.972656 3.691406 -1.539062 3.390625 -2.25 C 3.097656 -2.957031 2.953125 -3.835938 2.953125 -4.890625 L 2.953125 -12.25 L 0.625 -12.25 L 0.625 -15.3125 L 2.953125 -16.296875 L 2.953125 -19.953125 L 7.484375 -19.953125 L 7.484375 -16.296875 L 11.890625 -16.296875 L 11.890625 -12.25 L 7.484375 -12.25 Z M 7.484375 -5.84375 "/></g></g></g><g fill="#242424" fill-opacity="1"><g transform="translate(81.17899, 38.518925)"><g><path d="M 11.234375 -7.484375 L 1.578125 -7.484375 L 1.578125 -10.578125 L 11.234375 -10.578125 Z M 11.234375 -7.484375 "/></g></g></g><g fill="#242424" fill-opacity="1"><g transform="translate(91.823117, 38.518925)"><g><path d="M 9.53125 -16.765625 C 10.757812 -16.765625 11.875 -16.515625 12.875 -16.015625 C 13.882812 -15.523438 14.75 -14.878906 15.46875 -14.078125 C 16.195312 -13.273438 16.757812 -12.351562 17.15625 -11.3125 C 17.550781 -10.28125 17.75 -9.210938 17.75 -8.109375 C 17.75 -7.453125 17.660156 -6.753906 17.484375 -6.015625 L 5.84375 -6.015625 C 6.28125 -5.265625 6.90625 -4.632812 7.71875 -4.125 C 8.53125 -3.613281 9.40625 -3.359375 10.34375 -3.359375 C 11.289062 -3.359375 12.117188 -3.429688 12.828125 -3.578125 C 13.546875 -3.734375 14.222656 -3.929688 14.859375 -4.171875 L 16.359375 -1.375 C 15.546875 -0.8125 14.617188 -0.375 13.578125 -0.0625 C 12.546875 0.238281 11.4375 0.390625 10.25 0.390625 C 8.957031 0.390625 7.753906 0.164062 6.640625 -0.28125 C 5.523438 -0.726562 4.550781 -1.332031 3.71875 -2.09375 C 2.882812 -2.863281 2.222656 -3.773438 1.734375 -4.828125 C 1.253906 -5.878906 1.015625 -7 1.015625 -8.1875 C 1.015625 -9.34375 1.234375 -10.441406 1.671875 -11.484375 C 2.109375 -12.523438 2.71875 -13.429688 3.5 -14.203125 C 4.28125 -14.984375 5.179688 -15.601562 6.203125 -16.0625 C 7.234375 -16.53125 8.34375 -16.765625 9.53125 -16.765625 Z M 13.25 -9.53125 C 12.976562 -10.46875 12.503906 -11.234375 11.828125 -11.828125 C 11.148438 -12.421875 10.382812 -12.71875 9.53125 -12.71875 C 8.65625 -12.71875 7.859375 -12.421875 7.140625 -11.828125 C 6.429688 -11.234375 5.945312 -10.46875 5.6875 -9.53125 Z M 13.25 -9.53125 "/></g></g></g><g fill="#242424" fill-opacity="1"><g transform="translate(109.23511, 38.518925)"><g><path d="M 9.953125 -16.296875 C 10.566406 -16.296875 11.242188 -16.207031 11.984375 -16.03125 C 12.734375 -15.851562 13.4375 -15.523438 14.09375 -15.046875 C 14.75 -14.566406 15.300781 -13.898438 15.75 -13.046875 C 16.195312 -12.191406 16.421875 -11.082031 16.421875 -9.71875 L 16.421875 0 L 11.859375 0 L 11.859375 -9.5625 C 11.859375 -10.0625 11.773438 -10.488281 11.609375 -10.84375 C 11.453125 -11.195312 11.234375 -11.476562 10.953125 -11.6875 C 10.679688 -11.894531 10.367188 -12.046875 10.015625 -12.140625 C 9.671875 -12.242188 9.320312 -12.296875 8.96875 -12.296875 C 8.6875 -12.296875 8.375 -12.242188 8.03125 -12.140625 C 7.695312 -12.046875 7.378906 -11.890625 7.078125 -11.671875 C 6.785156 -11.453125 6.539062 -11.164062 6.34375 -10.8125 C 6.144531 -10.457031 6.046875 -10.039062 6.046875 -9.5625 L 6.046875 0 L 1.515625 0 L 1.515625 -16.296875 L 5.390625 -16.296875 L 6.046875 -15.046875 C 6.566406 -15.421875 7.15625 -15.722656 7.8125 -15.953125 C 8.476562 -16.179688 9.191406 -16.296875 9.953125 -16.296875 Z M 9.953125 -16.296875 "/></g></g></g><g fill="#242424" fill-opacity="1"><g transform="translate(124.872998, 38.518925)"><g><path d="M 17.90625 -23.984375 L 17.90625 0 L 14.03125 0 L 13.375 -1.40625 C 12.875 -0.882812 12.175781 -0.453125 11.28125 -0.109375 C 10.394531 0.222656 9.472656 0.390625 8.515625 0.390625 C 7.347656 0.390625 6.269531 0.164062 5.28125 -0.28125 C 4.300781 -0.726562 3.453125 -1.335938 2.734375 -2.109375 C 2.023438 -2.890625 1.46875 -3.800781 1.0625 -4.84375 C 0.65625 -5.882812 0.453125 -7 0.453125 -8.1875 C 0.453125 -9.363281 0.65625 -10.472656 1.0625 -11.515625 C 1.46875 -12.554688 2.023438 -13.460938 2.734375 -14.234375 C 3.453125 -15.015625 4.300781 -15.628906 5.28125 -16.078125 C 6.269531 -16.535156 7.347656 -16.765625 8.515625 -16.765625 C 9.546875 -16.765625 10.457031 -16.640625 11.25 -16.390625 C 12.050781 -16.148438 12.757812 -15.75 13.375 -15.1875 L 13.375 -23.984375 Z M 13.375 -8.109375 C 13.375 -8.960938 13.265625 -9.679688 13.046875 -10.265625 C 12.828125 -10.847656 12.519531 -11.316406 12.125 -11.671875 C 11.726562 -12.035156 11.269531 -12.300781 10.75 -12.46875 C 10.238281 -12.632812 9.691406 -12.71875 9.109375 -12.71875 C 8.515625 -12.71875 7.957031 -12.597656 7.4375 -12.359375 C 6.925781 -12.117188 6.476562 -11.796875 6.09375 -11.390625 C 5.707031 -10.984375 5.40625 -10.5 5.1875 -9.9375 C 4.96875 -9.382812 4.859375 -8.800781 4.859375 -8.1875 C 4.859375 -7.550781 4.96875 -6.957031 5.1875 -6.40625 C 5.40625 -5.863281 5.707031 -5.390625 6.09375 -4.984375 C 6.476562 -4.578125 6.925781 -4.25 7.4375 -4 C 7.957031 -3.757812 8.515625 -3.640625 9.109375 -3.640625 C 10.285156 -3.640625 11.285156 -4.003906 12.109375 -4.734375 C 12.929688 -5.472656 13.351562 -6.597656 13.375 -8.109375 Z M 13.375 -8.109375 "/></g></g></g><g clip-path="url(#de799ae540)"><path fill="#242424" d="M 134.546875 44.664062 C 135.226562 44.855469 135.875 45.097656 136.582031 45.207031 C 138.941406 45.613281 141.300781 45.964844 143.660156 46.347656 C 143.632812 46.507812 143.632812 46.644531 143.605469 46.808594 C 141.789062 46.644531 140 46.480469 138.179688 46.265625 C 135.28125 45.9375 132.378906 45.558594 129.449219 45.234375 C 129.070312 45.179688 128.5 45.125 128.335938 45.34375 C 127.46875 46.320312 126.4375 45.964844 125.433594 45.859375 C 114.585938 44.828125 103.683594 44.664062 92.808594 44.664062 C 85.429688 44.664062 78.082031 44.964844 70.703125 45.207031 C 64.980469 45.398438 59.261719 45.75 53.539062 45.9375 C 52.046875 45.992188 50.554688 45.613281 49.089844 45.613281 C 45.890625 45.613281 42.714844 45.722656 39.515625 45.777344 C 37.101562 45.832031 34.6875 45.914062 32.273438 45.964844 C 27.3125 46.101562 22.375 46.238281 17.414062 46.375 C 17.085938 46.375 16.761719 46.425781 16.4375 46.453125 C 15.675781 46.535156 14.890625 47.050781 14.238281 46.019531 C 14.050781 45.75 13.15625 45.914062 12.558594 45.777344 C 17.113281 44.609375 21.832031 44.554688 26.445312 43.742188 C 23.785156 43.660156 21.128906 43.550781 18.46875 43.472656 C 16.382812 43.390625 14.292969 43.253906 12.230469 43.28125 C 11.148438 43.28125 10.035156 43.527344 8.898438 43.660156 C 9.003906 42.710938 9.792969 42.46875 10.660156 42.441406 C 12.746094 42.359375 14.835938 42.304688 16.925781 42.332031 C 19.390625 42.332031 21.886719 42.46875 24.355469 42.46875 C 27.367188 42.496094 30.347656 42.496094 33.359375 42.46875 C 51.179688 42.277344 68.96875 42.089844 86.761719 41.898438 C 92.375 41.84375 97.988281 41.679688 103.574219 41.707031 C 110.164062 41.734375 116.753906 41.898438 123.320312 42.089844 C 129.042969 42.277344 134.765625 42.578125 140.488281 42.875 C 141.734375 42.929688 143.0625 42.929688 144.5 44.066406 C 142.386719 44.148438 140.8125 45.070312 138.996094 44.855469 C 137.503906 44.664062 136.011719 44.746094 134.519531 44.71875 C 133.789062 44.609375 133.027344 44.527344 132.296875 44.421875 C 132.296875 44.554688 132.296875 44.71875 132.269531 44.855469 C 133.027344 44.800781 133.789062 44.71875 134.546875 44.664062 Z M 29.128906 44.691406 C 29.128906 44.828125 29.128906 44.9375 29.128906 45.070312 C 37.292969 44.773438 45.457031 44.476562 53.617188 44.175781 C 53.617188 44.066406 53.617188 43.988281 53.617188 43.878906 C 45.429688 44.148438 37.292969 44.421875 29.128906 44.691406 Z M 60.886719 43.90625 C 60.886719 43.851562 60.886719 43.796875 60.886719 43.742188 C 59.449219 43.742188 58.011719 43.742188 56.574219 43.742188 C 56.574219 43.796875 56.574219 43.851562 56.574219 43.90625 C 58.011719 43.90625 59.449219 43.90625 60.886719 43.90625 Z M 64.167969 43.6875 C 64.140625 43.714844 64.113281 43.742188 64.085938 43.769531 C 65.253906 43.769531 66.417969 43.769531 67.613281 43.769531 C 67.613281 43.742188 67.613281 43.714844 67.613281 43.6875 C 66.445312 43.6875 65.308594 43.6875 64.167969 43.6875 Z M 54.296875 45.503906 C 54.324219 45.449219 54.324219 45.371094 54.351562 45.316406 C 53.617188 45.316406 52.859375 45.316406 52.128906 45.316406 C 52.128906 45.371094 52.128906 45.449219 52.128906 45.503906 C 52.832031 45.503906 53.566406 45.503906 54.296875 45.503906 Z M 26.605469 45.125 C 26.578125 45.042969 26.578125 44.9375 26.550781 44.855469 C 26.089844 44.882812 25.601562 44.910156 25.140625 44.910156 C 25.140625 44.988281 25.140625 45.042969 25.140625 45.125 C 25.65625 45.125 26.144531 45.125 26.605469 45.125 Z M 26.605469 45.125 " fill-opacity="1" fill-rule="nonzero"/></g></svg>