<svg xmlns="http://www.w3.org/2000/svg" xmlns:xlink="http://www.w3.org/1999/xlink" width="500" zoomAndPan="magnify" viewBox="0 0 375 374.999991" height="500" preserveAspectRatio="xMidYMid meet" version="1.0"><defs><clipPath id="d9aa38e279"><path d="M 23.058594 23.058594 L 352 23.058594 L 352 352 L 23.058594 352 Z M 23.058594 23.058594 " clip-rule="nonzero"/></clipPath><clipPath id="96ecc60eaa"><path d="M 23.058594 36.558594 L 23.058594 338.441406 C 23.058594 345.894531 29.105469 351.941406 36.558594 351.941406 L 338.441406 351.941406 C 345.894531 351.941406 351.941406 345.894531 351.941406 338.441406 L 351.941406 36.558594 C 351.941406 29.105469 345.894531 23.058594 338.441406 23.058594 L 36.558594 23.058594 C 29.105469 23.058594 23.058594 29.105469 23.058594 36.558594 Z M 23.058594 36.558594 " clip-rule="nonzero"/></clipPath><clipPath id="e26eb248bb"><path d="M 103 115 L 154 115 L 154 165 L 103 165 Z M 103 115 " clip-rule="nonzero"/></clipPath><clipPath id="bc8658e9a8"><path d="M 23.058594 36.558594 L 23.058594 338.441406 C 23.058594 345.894531 29.105469 351.941406 36.558594 351.941406 L 338.441406 351.941406 C 345.894531 351.941406 351.941406 345.894531 351.941406 338.441406 L 351.941406 36.558594 C 351.941406 29.105469 345.894531 23.058594 338.441406 23.058594 L 36.558594 23.058594 C 29.105469 23.058594 23.058594 29.105469 23.058594 36.558594 Z M 23.058594 36.558594 " clip-rule="nonzero"/></clipPath><clipPath id="5d60fa3ee9"><path d="M 107 183 L 150 183 L 150 319 L 107 319 Z M 107 183 " clip-rule="nonzero"/></clipPath><clipPath id="14af67d528"><path d="M 23.058594 36.558594 L 23.058594 338.441406 C 23.058594 345.894531 29.105469 351.941406 36.558594 351.941406 L 338.441406 351.941406 C 345.894531 351.941406 351.941406 345.894531 351.941406 338.441406 L 351.941406 36.558594 C 351.941406 29.105469 345.894531 23.058594 338.441406 23.058594 L 36.558594 23.058594 C 29.105469 23.058594 23.058594 29.105469 23.058594 36.558594 Z M 23.058594 36.558594 " clip-rule="nonzero"/></clipPath><clipPath id="7c46e5dbcd"><path d="M 176 183 L 217 183 L 217 319 L 176 319 Z M 176 183 " clip-rule="nonzero"/></clipPath><clipPath id="f9beefd80c"><path d="M 23.058594 36.558594 L 23.058594 338.441406 C 23.058594 345.894531 29.105469 351.941406 36.558594 351.941406 L 338.441406 351.941406 C 345.894531 351.941406 351.941406 345.894531 351.941406 338.441406 L 351.941406 36.558594 C 351.941406 29.105469 345.894531 23.058594 338.441406 23.058594 L 36.558594 23.058594 C 29.105469 23.058594 23.058594 29.105469 23.058594 36.558594 Z M 23.058594 36.558594 " clip-rule="nonzero"/></clipPath><clipPath id="38d6ee1d92"><path d="M 177 255 L 219 255 L 219 319 L 177 319 Z M 177 255 " clip-rule="nonzero"/></clipPath><clipPath id="5f9416ab7b"><path d="M 23.058594 36.558594 L 23.058594 338.441406 C 23.058594 345.894531 29.105469 351.941406 36.558594 351.941406 L 338.441406 351.941406 C 345.894531 351.941406 351.941406 345.894531 351.941406 338.441406 L 351.941406 36.558594 C 351.941406 29.105469 345.894531 23.058594 338.441406 23.058594 L 36.558594 23.058594 C 29.105469 23.058594 23.058594 29.105469 23.058594 36.558594 Z M 23.058594 36.558594 " clip-rule="nonzero"/></clipPath><clipPath id="aba971e4a6"><path d="M 204 179 L 308 179 L 308 319 L 204 319 Z M 204 179 " clip-rule="nonzero"/></clipPath><clipPath id="deb7f85e00"><path d="M 23.058594 36.558594 L 23.058594 338.441406 C 23.058594 345.894531 29.105469 351.941406 36.558594 351.941406 L 338.441406 351.941406 C 345.894531 351.941406 351.941406 345.894531 351.941406 338.441406 L 351.941406 36.558594 C 351.941406 29.105469 345.894531 23.058594 338.441406 23.058594 L 36.558594 23.058594 C 29.105469 23.058594 23.058594 29.105469 23.058594 36.558594 Z M 23.058594 36.558594 " clip-rule="nonzero"/></clipPath></defs><g clip-path="url(#d9aa38e279)"><g clip-path="url(#96ecc60eaa)"><path fill="#000000" d="M 351.9375 301.929688 C 351.9375 329.527344 329.5625 351.902344 301.960938 351.902344 L 73.046875 351.902344 C 45.445312 351.902344 23.074219 329.527344 23.074219 301.929688 L 23.074219 73.011719 C 23.074219 45.414062 45.445312 23.039062 73.046875 23.039062 L 301.960938 23.039062 C 329.5625 23.039062 351.9375 45.414062 351.9375 73.011719 Z M 351.9375 301.929688 " fill-opacity="1" fill-rule="nonzero"/></g></g><g clip-path="url(#e26eb248bb)"><g clip-path="url(#bc8658e9a8)"><path fill="#ffffff" d="M 153.113281 140.371094 C 153.113281 141.175781 153.074219 141.976562 152.992188 142.777344 C 152.914062 143.578125 152.796875 144.375 152.640625 145.164062 C 152.484375 145.953125 152.289062 146.730469 152.054688 147.5 C 151.820312 148.269531 151.550781 149.027344 151.242188 149.769531 C 150.933594 150.515625 150.589844 151.242188 150.210938 151.949219 C 149.832031 152.660156 149.417969 153.347656 148.972656 154.019531 C 148.523438 154.6875 148.046875 155.332031 147.535156 155.953125 C 147.023438 156.578125 146.484375 157.171875 145.917969 157.742188 C 145.347656 158.308594 144.753906 158.851562 144.128906 159.359375 C 143.507812 159.871094 142.863281 160.347656 142.195312 160.796875 C 141.523438 161.242188 140.835938 161.65625 140.125 162.035156 C 139.417969 162.414062 138.691406 162.757812 137.945312 163.066406 C 137.203125 163.375 136.445312 163.644531 135.675781 163.878906 C 134.90625 164.113281 134.125 164.308594 133.335938 164.464844 C 132.546875 164.621094 131.753906 164.738281 130.953125 164.816406 C 130.152344 164.898438 129.347656 164.9375 128.546875 164.9375 C 127.742188 164.9375 126.9375 164.898438 126.136719 164.816406 C 125.335938 164.738281 124.542969 164.621094 123.753906 164.464844 C 122.964844 164.308594 122.183594 164.113281 121.414062 163.878906 C 120.644531 163.644531 119.886719 163.375 119.144531 163.066406 C 118.398438 162.757812 117.671875 162.414062 116.964844 162.035156 C 116.253906 161.65625 115.566406 161.242188 114.894531 160.796875 C 114.226562 160.347656 113.582031 159.871094 112.960938 159.359375 C 112.335938 158.851562 111.742188 158.308594 111.171875 157.742188 C 110.605469 157.171875 110.066406 156.578125 109.554688 155.953125 C 109.042969 155.332031 108.566406 154.6875 108.117188 154.019531 C 107.671875 153.347656 107.257812 152.660156 106.878906 151.949219 C 106.5 151.242188 106.15625 150.515625 105.847656 149.769531 C 105.539062 149.027344 105.269531 148.269531 105.035156 147.5 C 104.800781 146.730469 104.605469 145.953125 104.449219 145.164062 C 104.292969 144.375 104.175781 143.578125 104.097656 142.777344 C 104.015625 141.976562 103.976562 141.175781 103.976562 140.371094 C 103.976562 139.566406 104.015625 138.761719 104.097656 137.960938 C 104.175781 137.160156 104.292969 136.367188 104.449219 135.578125 C 104.605469 134.789062 104.800781 134.007812 105.035156 133.238281 C 105.269531 132.46875 105.539062 131.710938 105.847656 130.96875 C 106.15625 130.226562 106.5 129.5 106.878906 128.789062 C 107.257812 128.078125 107.671875 127.390625 108.117188 126.722656 C 108.566406 126.050781 109.042969 125.40625 109.554688 124.785156 C 110.066406 124.164062 110.605469 123.566406 111.171875 122.996094 C 111.742188 122.429688 112.335938 121.890625 112.960938 121.378906 C 113.582031 120.867188 114.226562 120.390625 114.894531 119.941406 C 115.566406 119.496094 116.253906 119.082031 116.964844 118.703125 C 117.671875 118.324219 118.398438 117.980469 119.144531 117.671875 C 119.886719 117.363281 120.644531 117.09375 121.414062 116.859375 C 122.183594 116.625 122.964844 116.429688 123.753906 116.273438 C 124.542969 116.117188 125.335938 116 126.136719 115.921875 C 126.9375 115.84375 127.742188 115.800781 128.546875 115.800781 C 129.347656 115.800781 130.152344 115.84375 130.953125 115.921875 C 131.753906 116 132.546875 116.117188 133.335938 116.273438 C 134.125 116.429688 134.90625 116.625 135.675781 116.859375 C 136.445312 117.09375 137.203125 117.363281 137.945312 117.671875 C 138.691406 117.980469 139.417969 118.324219 140.125 118.703125 C 140.835938 119.082031 141.523438 119.496094 142.195312 119.941406 C 142.863281 120.390625 143.507812 120.867188 144.128906 121.378906 C 144.753906 121.890625 145.347656 122.429688 145.917969 122.996094 C 146.484375 123.566406 147.023438 124.164062 147.535156 124.785156 C 148.046875 125.40625 148.523438 126.050781 148.972656 126.722656 C 149.417969 127.390625 149.832031 128.078125 150.210938 128.789062 C 150.589844 129.5 150.933594 130.226562 151.242188 130.96875 C 151.550781 131.710938 151.820312 132.46875 152.054688 133.238281 C 152.289062 134.007812 152.484375 134.789062 152.640625 135.578125 C 152.796875 136.367188 152.914062 137.160156 152.992188 137.960938 C 153.074219 138.761719 153.113281 139.566406 153.113281 140.371094 Z M 153.113281 140.371094 " fill-opacity="1" fill-rule="nonzero"/></g></g><g clip-path="url(#5d60fa3ee9)"><g clip-path="url(#14af67d528)"><path fill="#ffffff" d="M 107.367188 183.046875 L 149.570312 183.046875 L 149.570312 318.824219 L 107.367188 318.824219 Z M 107.367188 183.046875 " fill-opacity="1" fill-rule="nonzero"/></g></g><g clip-path="url(#7c46e5dbcd)"><g clip-path="url(#f9beefd80c)"><path fill="#ffffff" d="M 176.117188 183.046875 L 216.289062 183.046875 L 216.289062 318.824219 L 176.117188 318.824219 Z M 176.117188 183.046875 " fill-opacity="1" fill-rule="nonzero"/></g></g><g clip-path="url(#38d6ee1d92)"><g clip-path="url(#5f9416ab7b)"><path fill="#ffffff" d="M 177.851562 255.339844 L 218.023438 255.339844 L 218.023438 318.824219 L 177.851562 318.824219 Z M 177.851562 255.339844 " fill-opacity="1" fill-rule="nonzero"/></g></g><g clip-path="url(#aba971e4a6)"><g clip-path="url(#deb7f85e00)"><path fill="#ffffff" d="M 218.023438 255.339844 C 218.023438 255.339844 217.394531 237.726562 222.039062 228.570312 C 222.039062 228.570312 226.683594 217.296875 241.28125 217.226562 C 241.28125 217.226562 258.40625 214.238281 263.3125 231.226562 C 263.3125 231.226562 265.171875 240.648438 265.171875 244.632812 C 265.171875 248.617188 265.304688 318.824219 265.304688 318.824219 L 307.378906 318.824219 L 307.378906 241.050781 C 307.378906 241.050781 310.429688 197.117188 284.0625 185.082031 C 284.0625 185.082031 240.707031 165.617188 217.175781 201.363281 C 217.175781 201.363281 212.042969 204.902344 211.332031 194.992188 C 210.625 185.082031 204.609375 210.210938 204.429688 210.742188 C 204.253906 211.273438 211.332031 260.824219 211.332031 260.824219 Z M 218.023438 255.339844 " fill-opacity="1" fill-rule="nonzero"/></g></g></svg>