<svg xmlns="http://www.w3.org/2000/svg" xmlns:xlink="http://www.w3.org/1999/xlink" width="500" zoomAndPan="magnify" viewBox="0 0 375 374.999991" height="500" preserveAspectRatio="xMidYMid meet" version="1.0"><defs><clipPath id="7e4a739892"><path d="M 12.96875 12.96875 L 361.71875 12.96875 L 361.71875 361.71875 L 12.96875 361.71875 Z M 12.96875 12.96875 " clip-rule="nonzero"/></clipPath></defs><g clip-path="url(#7e4a739892)"><path fill="#000000" d="M 187.34375 12.96875 C 91.039062 12.96875 12.96875 91.039062 12.96875 187.34375 C 12.96875 283.644531 91.039062 361.71875 187.34375 361.71875 C 283.644531 361.71875 361.71875 283.644531 361.71875 187.34375 C 361.71875 91.039062 283.644531 12.96875 187.34375 12.96875 Z M 81.0625 103.933594 L 293.398438 103.933594 C 293.636719 103.933594 293.859375 104 294.058594 104.132812 C 294.257812 104.269531 294.402344 104.449219 294.492188 104.671875 C 294.582031 104.894531 294.601562 105.125 294.550781 105.359375 C 294.5 105.59375 294.386719 105.792969 294.210938 105.960938 L 222.832031 173.703125 L 222.714844 173.820312 L 201.398438 194.046875 C 200.890625 194.53125 200.363281 194.988281 199.8125 195.421875 C 199.257812 195.855469 198.6875 196.261719 198.097656 196.640625 C 197.503906 197.019531 196.898438 197.367188 196.273438 197.6875 C 195.648438 198.007812 195.011719 198.300781 194.359375 198.558594 C 193.707031 198.816406 193.042969 199.046875 192.371094 199.242188 C 191.695312 199.4375 191.015625 199.597656 190.324219 199.730469 C 189.636719 199.859375 188.941406 199.957031 188.242188 200.019531 C 187.542969 200.082031 186.84375 200.113281 186.140625 200.109375 C 185.441406 200.105469 184.738281 200.066406 184.042969 199.996094 C 183.34375 199.925781 182.648438 199.820312 181.960938 199.683594 C 181.273438 199.546875 180.59375 199.378906 179.921875 199.175781 C 179.25 198.972656 178.589844 198.738281 177.941406 198.472656 C 177.289062 198.207031 176.65625 197.910156 176.035156 197.582031 C 175.414062 197.253906 174.808594 196.898438 174.222656 196.515625 C 173.636719 196.128906 173.070312 195.71875 172.523438 195.277344 C 171.976562 194.839844 171.449219 194.375 170.949219 193.882812 L 151.214844 174.75 C 151.179688 174.71875 151.148438 174.6875 151.113281 174.65625 L 80.238281 105.949219 C 80.066406 105.785156 79.957031 105.582031 79.910156 105.347656 C 79.859375 105.113281 79.878906 104.886719 79.972656 104.664062 C 80.0625 104.445312 80.207031 104.265625 80.40625 104.132812 C 80.605469 104 80.824219 103.933594 81.0625 103.933594 Z M 71.054688 259.03125 L 71.054688 113.308594 C 71.054688 113.070312 71.117188 112.855469 71.25 112.660156 C 71.378906 112.464844 71.550781 112.320312 71.769531 112.226562 C 71.984375 112.136719 72.210938 112.109375 72.441406 112.152344 C 72.671875 112.199219 72.875 112.300781 73.042969 112.464844 L 140.394531 177.765625 C 140.613281 177.980469 140.730469 178.238281 140.746094 178.546875 C 140.761719 178.855469 140.671875 179.125 140.476562 179.359375 L 73.125 259.789062 C 72.96875 259.980469 72.769531 260.105469 72.53125 260.171875 C 72.292969 260.234375 72.054688 260.222656 71.824219 260.140625 C 71.59375 260.054688 71.40625 259.910156 71.265625 259.707031 C 71.121094 259.503906 71.050781 259.28125 71.054688 259.03125 Z M 295.585938 270.75 L 79.097656 270.75 C 78.871094 270.75 78.660156 270.6875 78.46875 270.566406 C 78.277344 270.441406 78.132812 270.277344 78.035156 270.070312 C 77.941406 269.863281 77.90625 269.648438 77.9375 269.421875 C 77.964844 269.195312 78.054688 268.996094 78.199219 268.820312 L 147.339844 186.257812 C 147.445312 186.132812 147.570312 186.03125 147.71875 185.960938 C 147.863281 185.886719 148.015625 185.847656 148.179688 185.839844 C 148.34375 185.832031 148.5 185.855469 148.652344 185.914062 C 148.804688 185.96875 148.941406 186.054688 149.058594 186.167969 L 164.1875 200.839844 C 165.640625 202.253906 167.214844 203.511719 168.910156 204.621094 C 170.601562 205.734375 172.386719 206.671875 174.261719 207.4375 C 176.136719 208.203125 178.070312 208.78125 180.058594 209.175781 C 182.042969 209.570312 184.050781 209.769531 186.074219 209.777344 L 186.25 209.777344 C 188.261719 209.78125 190.253906 209.59375 192.230469 209.214844 C 194.203125 208.835938 196.125 208.273438 197.996094 207.527344 C 199.863281 206.785156 201.644531 205.867188 203.335938 204.78125 C 205.027344 203.695312 206.601562 202.460938 208.058594 201.070312 L 224.804688 185.175781 C 224.921875 185.0625 225.058594 184.980469 225.210938 184.921875 C 225.363281 184.867188 225.519531 184.84375 225.679688 184.855469 C 225.84375 184.863281 225.996094 184.902344 226.140625 184.976562 C 226.285156 185.050781 226.410156 185.148438 226.511719 185.273438 L 296.480469 268.820312 C 296.625 268.996094 296.714844 269.195312 296.742188 269.421875 C 296.773438 269.648438 296.738281 269.863281 296.644531 270.070312 C 296.546875 270.277344 296.40625 270.441406 296.214844 270.5625 C 296.023438 270.6875 295.8125 270.746094 295.585938 270.75 Z M 303.628906 259.03125 C 303.628906 259.28125 303.558594 259.503906 303.417969 259.707031 C 303.277344 259.90625 303.089844 260.050781 302.859375 260.136719 C 302.625 260.21875 302.390625 260.230469 302.152344 260.164062 C 301.914062 260.101562 301.714844 259.972656 301.558594 259.785156 L 233.46875 178.476562 C 233.269531 178.238281 233.179688 177.964844 233.195312 177.65625 C 233.214844 177.34375 233.335938 177.082031 233.558594 176.871094 L 301.652344 112.25 C 301.824219 112.089844 302.023438 111.988281 302.253906 111.949219 C 302.484375 111.90625 302.707031 111.933594 302.921875 112.027344 C 303.136719 112.117188 303.308594 112.261719 303.4375 112.457031 C 303.566406 112.652344 303.628906 112.867188 303.628906 113.101562 Z M 303.628906 259.03125 " fill-opacity="1" fill-rule="nonzero"/></g></svg>