<svg xmlns="http://www.w3.org/2000/svg" xmlns:xlink="http://www.w3.org/1999/xlink" width="600" zoomAndPan="magnify" viewBox="0 0 450 374.999991" height="500" preserveAspectRatio="xMidYMid meet" version="1.0"><defs><clipPath id="f0a297beb6"><path d="M 43.148438 5.648438 L 406.898438 5.648438 L 406.898438 369.398438 L 43.148438 369.398438 Z M 43.148438 5.648438 " clip-rule="nonzero"/></clipPath></defs><rect x="-45" width="540" fill="#ffffff" y="-37.499999" height="449.999989" fill-opacity="1"/><rect x="-45" width="540" fill="#ffffff" y="-37.499999" height="449.999989" fill-opacity="1"/><path fill="#000000" d="M 109.429688 160.472656 C 116.046875 167.085938 126.199219 157.066406 119.515625 150.382812 L 96.03125 126.898438 L 119.515625 103.414062 C 122.300781 100.628906 122.300781 96.109375 119.515625 93.324219 C 116.730469 90.539062 112.214844 90.539062 109.429688 93.324219 L 80.898438 121.855469 C 78.113281 124.640625 78.113281 129.15625 80.898438 131.941406 Z M 109.429688 160.472656 " fill-opacity="1" fill-rule="nonzero"/><path fill="#000000" d="M 190.839844 160.472656 L 219.367188 131.941406 C 222.152344 129.15625 222.152344 124.640625 219.367188 121.855469 L 190.839844 93.324219 C 188.054688 90.539062 183.539062 90.539062 180.75 93.324219 C 177.964844 96.109375 177.964844 100.625 180.75 103.414062 L 204.238281 126.898438 L 180.75 150.386719 C 174.066406 157.070312 184.238281 167.066406 190.839844 160.472656 Z M 190.839844 160.472656 " fill-opacity="1" fill-rule="nonzero"/><path fill="#000000" d="M 143.007812 162.5625 C 146.203125 162.5625 149.109375 160.398438 149.921875 157.160156 L 164.183594 100.097656 C 165.140625 96.277344 162.816406 92.40625 158.996094 91.449219 C 155.171875 90.496094 151.304688 92.820312 150.347656 96.640625 L 136.082031 153.699219 C 134.957031 158.191406 138.359375 162.5625 143.007812 162.5625 Z M 143.007812 162.5625 " fill-opacity="1" fill-rule="nonzero"/><path fill="#000000" d="M 221.457031 205.355469 C 217.519531 205.355469 214.324219 208.546875 214.324219 212.488281 C 214.324219 216.425781 217.519531 219.621094 221.457031 219.621094 L 364.105469 219.621094 C 368.042969 219.621094 371.238281 216.425781 371.238281 212.488281 C 371.238281 208.546875 368.042969 205.355469 364.105469 205.355469 L 356.972656 205.355469 L 356.972656 148.296875 C 356.972656 144.355469 353.777344 141.164062 349.839844 141.164062 C 345.902344 141.164062 342.707031 144.355469 342.707031 148.296875 L 342.707031 205.355469 L 328.441406 205.355469 L 328.441406 134.03125 C 328.441406 130.09375 325.25 126.898438 321.308594 126.898438 C 317.371094 126.898438 314.179688 130.09375 314.179688 134.03125 L 314.179688 205.355469 L 299.914062 205.355469 L 299.914062 176.824219 C 299.914062 172.886719 296.71875 169.691406 292.78125 169.691406 C 288.84375 169.691406 285.648438 172.886719 285.648438 176.824219 L 285.648438 205.355469 L 271.382812 205.355469 L 271.382812 162.558594 C 271.382812 158.621094 268.191406 155.429688 264.25 155.429688 C 260.3125 155.429688 257.121094 158.621094 257.121094 162.558594 L 257.121094 205.355469 L 242.855469 205.355469 L 242.855469 183.957031 C 242.855469 180.019531 239.660156 176.824219 235.722656 176.824219 C 231.785156 176.824219 228.589844 180.019531 228.589844 183.957031 L 228.589844 205.355469 Z M 221.457031 205.355469 " fill-opacity="1" fill-rule="nonzero"/><path fill="#000000" d="M 235.722656 55.574219 L 364.105469 55.574219 C 368.042969 55.574219 371.238281 52.382812 371.238281 48.441406 C 371.238281 44.503906 368.042969 41.308594 364.105469 41.308594 L 235.722656 41.308594 C 231.785156 41.308594 228.589844 44.503906 228.589844 48.441406 C 228.589844 52.382812 231.785156 55.574219 235.722656 55.574219 Z M 235.722656 55.574219 " fill-opacity="1" fill-rule="nonzero"/><path fill="#000000" d="M 235.722656 84.105469 L 321.308594 84.105469 C 325.25 84.105469 328.441406 80.910156 328.441406 76.972656 C 328.441406 73.035156 325.25 69.839844 321.308594 69.839844 L 235.722656 69.839844 C 231.785156 69.839844 228.589844 73.035156 228.589844 76.972656 C 228.589844 80.910156 231.785156 84.105469 235.722656 84.105469 Z M 235.722656 84.105469 " fill-opacity="1" fill-rule="nonzero"/><path fill="#000000" d="M 371.238281 276.679688 C 371.238281 277.144531 371.191406 277.609375 371.101562 278.070312 C 371.007812 278.527344 370.875 278.976562 370.695312 279.40625 C 370.515625 279.839844 370.296875 280.25 370.035156 280.640625 C 369.773438 281.03125 369.480469 281.390625 369.148438 281.722656 C 368.816406 282.050781 368.457031 282.347656 368.066406 282.609375 C 367.675781 282.867188 367.265625 283.089844 366.832031 283.265625 C 366.402344 283.445312 365.957031 283.582031 365.496094 283.671875 C 365.035156 283.765625 364.574219 283.808594 364.105469 283.808594 C 363.636719 283.808594 363.171875 283.765625 362.714844 283.671875 C 362.253906 283.582031 361.808594 283.445312 361.375 283.265625 C 360.941406 283.089844 360.53125 282.867188 360.140625 282.609375 C 359.753906 282.347656 359.390625 282.050781 359.0625 281.722656 C 358.730469 281.390625 358.433594 281.03125 358.175781 280.640625 C 357.914062 280.25 357.695312 279.839844 357.515625 279.40625 C 357.335938 278.976562 357.199219 278.527344 357.109375 278.070312 C 357.019531 277.609375 356.972656 277.144531 356.972656 276.679688 C 356.972656 276.210938 357.019531 275.746094 357.109375 275.285156 C 357.199219 274.828125 357.335938 274.382812 357.515625 273.949219 C 357.695312 273.515625 357.914062 273.105469 358.175781 272.714844 C 358.433594 272.328125 358.730469 271.964844 359.0625 271.632812 C 359.390625 271.304688 359.753906 271.007812 360.140625 270.746094 C 360.53125 270.488281 360.941406 270.269531 361.375 270.089844 C 361.808594 269.910156 362.253906 269.773438 362.714844 269.683594 C 363.171875 269.589844 363.636719 269.546875 364.105469 269.546875 C 364.574219 269.546875 365.035156 269.589844 365.496094 269.683594 C 365.957031 269.773438 366.402344 269.910156 366.832031 270.089844 C 367.265625 270.269531 367.675781 270.488281 368.066406 270.746094 C 368.457031 271.007812 368.816406 271.304688 369.148438 271.632812 C 369.480469 271.964844 369.773438 272.328125 370.035156 272.714844 C 370.296875 273.105469 370.515625 273.515625 370.695312 273.949219 C 370.875 274.382812 371.007812 274.828125 371.101562 275.285156 C 371.191406 275.746094 371.238281 276.210938 371.238281 276.679688 Z M 371.238281 276.679688 " fill-opacity="1" fill-rule="nonzero"/><path fill="#000000" d="M 335.574219 269.546875 L 328.441406 269.546875 C 324.503906 269.546875 321.308594 272.738281 321.308594 276.679688 C 321.308594 280.617188 324.503906 283.808594 328.441406 283.808594 L 335.574219 283.808594 C 339.511719 283.808594 342.707031 280.617188 342.707031 276.679688 C 342.707031 272.738281 339.511719 269.546875 335.574219 269.546875 Z M 335.574219 269.546875 " fill-opacity="1" fill-rule="nonzero"/><path fill="#000000" d="M 299.914062 269.546875 L 292.78125 269.546875 C 288.84375 269.546875 285.648438 272.738281 285.648438 276.679688 C 285.648438 280.617188 288.84375 283.808594 292.78125 283.808594 L 299.914062 283.808594 C 303.851562 283.808594 307.046875 280.617188 307.046875 276.679688 C 307.046875 272.738281 303.851562 269.546875 299.914062 269.546875 Z M 299.914062 269.546875 " fill-opacity="1" fill-rule="nonzero"/><g clip-path="url(#f0a297beb6)"><path fill="#000000" d="M 367.726562 5.648438 L 82.320312 5.648438 C 60.71875 5.648438 43.148438 23.21875 43.148438 44.820312 L 43.148438 273.167969 C 43.148438 294.769531 60.71875 312.339844 82.320312 312.339844 L 189.363281 312.339844 L 189.363281 326.605469 L 182.230469 326.605469 C 162.566406 326.605469 146.566406 342.601562 146.566406 362.265625 C 146.566406 366.203125 149.761719 369.398438 153.699219 369.398438 L 296.347656 369.398438 C 300.285156 369.398438 303.480469 366.203125 303.480469 362.265625 C 303.480469 342.601562 287.480469 326.605469 267.816406 326.605469 L 260.683594 326.605469 L 260.683594 312.339844 L 367.726562 312.339844 C 389.328125 312.339844 406.898438 294.769531 406.898438 273.167969 L 406.898438 44.820312 C 406.898438 23.21875 389.328125 5.648438 367.726562 5.648438 Z M 82.320312 19.914062 L 367.726562 19.914062 C 381.460938 19.914062 392.632812 31.085938 392.632812 44.820312 L 392.632812 241.015625 L 57.414062 241.015625 L 57.414062 44.820312 C 57.414062 31.085938 68.585938 19.914062 82.320312 19.914062 Z M 287.992188 355.132812 L 162.054688 355.132812 C 165 346.832031 172.929688 340.871094 182.230469 340.871094 L 267.816406 340.871094 C 277.117188 340.871094 285.050781 346.832031 287.992188 355.132812 Z M 246.421875 326.605469 L 203.625 326.605469 L 203.625 312.339844 L 246.421875 312.339844 Z M 367.726562 298.074219 L 82.320312 298.074219 C 68.585938 298.074219 57.414062 286.902344 57.414062 273.167969 L 57.414062 255.28125 L 392.632812 255.28125 L 392.632812 273.167969 C 392.632812 286.902344 381.460938 298.074219 367.726562 298.074219 Z M 367.726562 298.074219 " fill-opacity="1" fill-rule="nonzero"/></g></svg>