<svg xmlns="http://www.w3.org/2000/svg" xmlns:xlink="http://www.w3.org/1999/xlink" width="500" zoomAndPan="magnify" viewBox="0 0 375 374.999991" height="500" preserveAspectRatio="xMidYMid meet" version="1.0"><defs><clipPath id="4393496b60"><path d="M 9.050781 9.050781 L 366.050781 9.050781 L 366.050781 366.050781 L 9.050781 366.050781 Z M 9.050781 9.050781 " clip-rule="nonzero"/></clipPath></defs><g clip-path="url(#4393496b60)"><path fill="#000000" d="M 366.050781 187.550781 C 366.050781 190.472656 365.980469 193.390625 365.835938 196.308594 C 365.691406 199.226562 365.476562 202.140625 365.191406 205.046875 C 364.90625 207.953125 364.546875 210.851562 364.121094 213.742188 C 363.691406 216.632812 363.191406 219.511719 362.621094 222.375 C 362.050781 225.242188 361.410156 228.089844 360.703125 230.921875 C 359.992188 233.757812 359.214844 236.570312 358.367188 239.367188 C 357.515625 242.164062 356.601562 244.9375 355.617188 247.6875 C 354.632812 250.4375 353.582031 253.160156 352.464844 255.859375 C 351.347656 258.558594 350.164062 261.230469 348.914062 263.871094 C 347.664062 266.511719 346.351562 269.121094 344.972656 271.695312 C 343.597656 274.273438 342.15625 276.8125 340.65625 279.320312 C 339.15625 281.824219 337.59375 284.292969 335.96875 286.722656 C 334.347656 289.148438 332.664062 291.539062 330.925781 293.882812 C 329.183594 296.230469 327.386719 298.53125 325.535156 300.789062 C 323.679688 303.050781 321.773438 305.261719 319.8125 307.425781 C 317.851562 309.589844 315.835938 311.703125 313.769531 313.769531 C 311.703125 315.835938 309.589844 317.851562 307.425781 319.8125 C 305.261719 321.773438 303.050781 323.679688 300.789062 325.535156 C 298.53125 327.386719 296.230469 329.183594 293.882812 330.925781 C 291.539062 332.664062 289.148438 334.347656 286.722656 335.96875 C 284.292969 337.59375 281.824219 339.15625 279.320312 340.65625 C 276.8125 342.15625 274.273438 343.597656 271.695312 344.972656 C 269.121094 346.351562 266.511719 347.664062 263.871094 348.914062 C 261.230469 350.164062 258.558594 351.347656 255.859375 352.464844 C 253.160156 353.582031 250.4375 354.632812 247.6875 355.617188 C 244.9375 356.601562 242.164062 357.515625 239.367188 358.367188 C 236.570312 359.214844 233.757812 359.992188 230.921875 360.703125 C 228.089844 361.410156 225.242188 362.050781 222.375 362.621094 C 219.511719 363.191406 216.632812 363.691406 213.742188 364.121094 C 210.851562 364.546875 207.953125 364.90625 205.046875 365.191406 C 202.140625 365.476562 199.226562 365.691406 196.308594 365.835938 C 193.390625 365.980469 190.472656 366.050781 187.550781 366.050781 C 184.628906 366.050781 181.710938 365.980469 178.792969 365.835938 C 175.875 365.691406 172.960938 365.476562 170.054688 365.191406 C 167.148438 364.90625 164.25 364.546875 161.359375 364.121094 C 158.46875 363.691406 155.59375 363.191406 152.726562 362.621094 C 149.863281 362.050781 147.011719 361.410156 144.179688 360.703125 C 141.347656 359.992188 138.53125 359.214844 135.734375 358.367188 C 132.941406 357.515625 130.167969 356.601562 127.417969 355.617188 C 124.667969 354.632812 121.941406 353.582031 119.242188 352.464844 C 116.542969 351.347656 113.875 350.164062 111.234375 348.914062 C 108.59375 347.664062 105.984375 346.351562 103.40625 344.972656 C 100.832031 343.597656 98.289062 342.15625 95.785156 340.65625 C 93.277344 339.15625 90.8125 337.59375 88.382812 335.96875 C 85.953125 334.347656 83.566406 332.664062 81.21875 330.925781 C 78.871094 329.183594 76.570312 327.386719 74.3125 325.535156 C 72.054688 323.679688 69.84375 321.773438 67.679688 319.8125 C 65.515625 317.851562 63.398438 315.835938 61.332031 313.769531 C 59.265625 311.703125 57.253906 309.589844 55.292969 307.425781 C 53.332031 305.261719 51.421875 303.050781 49.570312 300.789062 C 47.714844 298.53125 45.917969 296.230469 44.179688 293.882812 C 42.4375 291.539062 40.757812 289.148438 39.132812 286.722656 C 37.511719 284.292969 35.949219 281.824219 34.445312 279.320312 C 32.945312 276.8125 31.507812 274.273438 30.128906 271.695312 C 28.75 269.121094 27.4375 266.511719 26.191406 263.871094 C 24.941406 261.230469 23.757812 258.558594 22.640625 255.859375 C 21.519531 253.160156 20.46875 250.4375 19.484375 247.6875 C 18.503906 244.9375 17.585938 242.164062 16.738281 239.367188 C 15.890625 236.570312 15.109375 233.757812 14.402344 230.921875 C 13.691406 228.089844 13.050781 225.242188 12.480469 222.375 C 11.910156 219.511719 11.414062 216.632812 10.984375 213.742188 C 10.554688 210.851562 10.199219 207.953125 9.910156 205.046875 C 9.625 202.140625 9.410156 199.226562 9.265625 196.308594 C 9.125 193.390625 9.050781 190.472656 9.050781 187.550781 C 9.050781 184.628906 9.125 181.710938 9.265625 178.792969 C 9.410156 175.875 9.625 172.960938 9.910156 170.054688 C 10.199219 167.148438 10.554688 164.25 10.984375 161.359375 C 11.414062 158.46875 11.910156 155.59375 12.480469 152.726562 C 13.050781 149.863281 13.691406 147.011719 14.402344 144.179688 C 15.109375 141.347656 15.890625 138.53125 16.738281 135.734375 C 17.585938 132.941406 18.503906 130.167969 19.484375 127.417969 C 20.46875 124.667969 21.519531 121.941406 22.640625 119.242188 C 23.757812 116.542969 24.941406 113.875 26.191406 111.234375 C 27.4375 108.59375 28.75 105.984375 30.128906 103.40625 C 31.507812 100.832031 32.945312 98.289062 34.445312 95.785156 C 35.949219 93.277344 37.511719 90.8125 39.132812 88.382812 C 40.757812 85.953125 42.4375 83.566406 44.179688 81.21875 C 45.917969 78.871094 47.714844 76.570312 49.570312 74.3125 C 51.421875 72.054688 53.332031 69.84375 55.292969 67.679688 C 57.253906 65.515625 59.265625 63.398438 61.332031 61.332031 C 63.398438 59.265625 65.515625 57.253906 67.679688 55.292969 C 69.84375 53.332031 72.054688 51.421875 74.3125 49.570312 C 76.570312 47.714844 78.871094 45.917969 81.21875 44.179688 C 83.566406 42.4375 85.953125 40.757812 88.382812 39.132812 C 90.8125 37.511719 93.277344 35.949219 95.785156 34.445312 C 98.289062 32.945312 100.832031 31.503906 103.40625 30.128906 C 105.984375 28.75 108.59375 27.4375 111.234375 26.191406 C 113.875 24.941406 116.542969 23.757812 119.242188 22.640625 C 121.941406 21.519531 124.667969 20.46875 127.417969 19.484375 C 130.167969 18.503906 132.941406 17.585938 135.734375 16.738281 C 138.53125 15.890625 141.347656 15.109375 144.179688 14.402344 C 147.011719 13.691406 149.863281 13.050781 152.726562 12.480469 C 155.59375 11.910156 158.46875 11.414062 161.359375 10.984375 C 164.25 10.554688 167.148438 10.199219 170.054688 9.910156 C 172.960938 9.625 175.875 9.410156 178.792969 9.265625 C 181.710938 9.125 184.628906 9.050781 187.550781 9.050781 C 190.472656 9.050781 193.390625 9.125 196.308594 9.265625 C 199.226562 9.410156 202.140625 9.625 205.046875 9.910156 C 207.953125 10.199219 210.851562 10.554688 213.742188 10.984375 C 216.632812 11.414062 219.511719 11.910156 222.375 12.480469 C 225.242188 13.050781 228.089844 13.691406 230.921875 14.402344 C 233.757812 15.109375 236.570312 15.890625 239.367188 16.738281 C 242.164062 17.585938 244.9375 18.503906 247.6875 19.484375 C 250.4375 20.46875 253.160156 21.519531 255.859375 22.640625 C 258.558594 23.757812 261.230469 24.941406 263.871094 26.191406 C 266.511719 27.4375 269.121094 28.75 271.695312 30.128906 C 274.273438 31.503906 276.8125 32.945312 279.320312 34.445312 C 281.824219 35.949219 284.292969 37.511719 286.722656 39.132812 C 289.148438 40.757812 291.539062 42.4375 293.882812 44.179688 C 296.230469 45.917969 298.53125 47.714844 300.789062 49.570312 C 303.050781 51.421875 305.261719 53.332031 307.425781 55.292969 C 309.589844 57.253906 311.703125 59.265625 313.769531 61.332031 C 315.835938 63.398438 317.851562 65.515625 319.8125 67.679688 C 321.773438 69.84375 323.679688 72.054688 325.535156 74.3125 C 327.386719 76.570312 329.183594 78.871094 330.925781 81.21875 C 332.664062 83.566406 334.347656 85.953125 335.96875 88.382812 C 337.59375 90.8125 339.15625 93.277344 340.65625 95.785156 C 342.15625 98.289062 343.597656 100.832031 344.972656 103.40625 C 346.351562 105.984375 347.664062 108.59375 348.914062 111.234375 C 350.164062 113.875 351.347656 116.542969 352.464844 119.242188 C 353.582031 121.941406 354.632812 124.667969 355.617188 127.417969 C 356.601562 130.167969 357.515625 132.941406 358.367188 135.734375 C 359.214844 138.53125 359.992188 141.347656 360.703125 144.179688 C 361.410156 147.011719 362.050781 149.863281 362.621094 152.726562 C 363.191406 155.59375 363.691406 158.46875 364.121094 161.359375 C 364.546875 164.25 364.90625 167.148438 365.191406 170.054688 C 365.476562 172.960938 365.691406 175.875 365.835938 178.792969 C 365.980469 181.710938 366.050781 184.628906 366.050781 187.550781 Z M 366.050781 187.550781 " fill-opacity="1" fill-rule="nonzero"/></g><path fill="#ffffff" d="M 175.097656 198.761719 C 145.625 170.53125 150.191406 157.25 150.191406 157.25 C 162.230469 145.625 160.570312 130.265625 160.570312 130.265625 C 154.34375 121.964844 148.117188 113.660156 141.890625 105.359375 C 141.890625 105.359375 133.585938 91.660156 120.71875 99.132812 C 86.261719 119.472656 97.054688 154.34375 97.054688 154.34375 C 97.054688 154.757812 106.605469 184.230469 150.191406 224.914062 C 193.777344 266.007812 225.328125 276.800781 225.328125 276.800781 C 225.328125 276.800781 261.027344 288.425781 278.046875 255.628906 C 284.273438 243.175781 270.160156 233.628906 270.160156 233.628906 C 261.441406 226.574219 252.726562 219.929688 244.007812 213.289062 C 244.007812 213.289062 228.234375 210.796875 217.441406 222.835938 C 217.441406 223.25 204.15625 226.988281 175.097656 198.761719 Z M 175.097656 198.761719 " fill-opacity="1" fill-rule="nonzero"/></svg>