<svg xmlns="http://www.w3.org/2000/svg" xmlns:xlink="http://www.w3.org/1999/xlink" width="600" zoomAndPan="magnify" viewBox="0 0 450 187.499995" height="250" preserveAspectRatio="xMidYMid meet" version="1.0"><defs><clipPath id="b9bda68236"><path d="M 0.597656 0 L 449.402344 0 L 449.402344 187 L 0.597656 187 Z M 0.597656 0 " clip-rule="nonzero"/></clipPath></defs><g clip-path="url(#b9bda68236)"><path fill="#ffffff" d="M 0.597656 0 L 449.402344 0 L 449.402344 187 L 0.597656 187 Z M 0.597656 0 " fill-opacity="1" fill-rule="nonzero"/><path fill="#ffffff" d="M 0.597656 0 L 449.402344 0 L 449.402344 187 L 0.597656 187 Z M 0.597656 0 " fill-opacity="1" fill-rule="nonzero"/></g><path fill="#c6c6c6" d="M 413.972656 78.519531 C 413.972656 81.4375 412.421875 84.277344 409.667969 85.746094 L 228.140625 184.761719 C 225.699219 186.113281 222.695312 186.113281 220.234375 184.761719 L 38.707031 85.746094 C 34.714844 83.550781 33.230469 78.535156 35.40625 74.558594 C 37.601562 70.546875 42.601562 69.078125 46.597656 71.257812 L 224.195312 168.144531 L 401.777344 71.273438 C 405.789062 69.09375 410.789062 70.5625 412.984375 74.574219 C 413.644531 75.8125 413.972656 77.164062 413.972656 78.519531 Z M 413.972656 78.519531 " fill-opacity="1" fill-rule="nonzero"/><path fill="#c6c6c6" d="M 413.972656 12.507812 C 413.972656 15.429688 412.421875 18.269531 409.667969 19.738281 L 228.140625 118.75 C 225.699219 120.105469 222.695312 120.105469 220.234375 118.75 L 38.707031 19.738281 C 34.714844 17.558594 33.230469 12.523438 35.40625 8.546875 C 37.601562 4.539062 42.601562 3.070312 46.597656 5.246094 L 224.195312 102.132812 L 401.777344 5.265625 C 405.789062 3.085938 410.789062 4.554688 412.984375 8.5625 C 413.644531 9.800781 413.972656 11.15625 413.972656 12.507812 Z M 413.972656 12.507812 " fill-opacity="1" fill-rule="nonzero"/></svg>