<svg xmlns="http://www.w3.org/2000/svg" xmlns:xlink="http://www.w3.org/1999/xlink" width="600" zoomAndPan="magnify" viewBox="0 0 450 30.000001" height="40" preserveAspectRatio="xMidYMid meet" version="1.0"><defs><clipPath id="c653655ad8"><path d="M 7.257812 0 L 442.742188 0 L 442.742188 29.03125 L 7.257812 29.03125 Z M 7.257812 0 " clip-rule="nonzero"/></clipPath><clipPath id="6b5703bdc9"><path d="M 7.257812 0.179688 L 442.742188 0.179688 L 442.742188 28 L 7.257812 28 Z M 7.257812 0.179688 " clip-rule="nonzero"/></clipPath><clipPath id="062470ae7b"><path d="M 439 14 L 442.742188 14 L 442.742188 16 L 439 16 Z M 439 14 " clip-rule="nonzero"/></clipPath></defs><g clip-path="url(#c653655ad8)"><path fill="#ffffff" d="M 7.257812 0 L 442.742188 0 L 442.742188 29.03125 L 7.257812 29.03125 Z M 7.257812 0 " fill-opacity="1" fill-rule="nonzero"/><path fill="#ffffff" d="M 7.257812 0 L 442.742188 0 L 442.742188 29.03125 L 7.257812 29.03125 Z M 7.257812 0 " fill-opacity="1" fill-rule="nonzero"/></g><path fill="#5271ff" d="M 286.816406 1.074219 C 286.855469 1.589844 286.0625 1.265625 285.828125 1.503906 C 286.03125 0.933594 286.371094 1.222656 286.816406 1.074219 Z M 286.816406 1.074219 " fill-opacity="1" fill-rule="evenodd"/><path fill="#5271ff" d="M 271.113281 1.925781 C 271.007812 1.699219 270.417969 1.957031 270.546875 1.503906 C 270.734375 1.292969 271.203125 1.429688 271.113281 1.925781 Z M 271.113281 1.925781 " fill-opacity="1" fill-rule="evenodd"/><path fill="#5271ff" d="M 323.882812 2.207031 C 324.316406 1.992188 324.316406 3.136719 323.882812 2.914062 Z M 323.882812 2.207031 " fill-opacity="1" fill-rule="evenodd"/><path fill="#5271ff" d="M 222.867188 3.480469 L 226.265625 3.480469 C 225.335938 3.710938 223.800781 4.074219 222.867188 3.480469 Z M 222.867188 3.480469 " fill-opacity="1" fill-rule="evenodd"/><path fill="#5271ff" d="M 231.074219 3.621094 C 232.351562 3.296875 234.234375 3.574219 235.730469 3.480469 C 234.46875 3.8125 232.566406 3.550781 231.074219 3.621094 Z M 231.074219 3.621094 " fill-opacity="1" fill-rule="evenodd"/><path fill="#5271ff" d="M 223.292969 5.035156 C 223.535156 4.714844 224.371094 4.984375 224.851562 4.894531 C 224.609375 5.21875 223.769531 4.949219 223.292969 5.035156 Z M 223.292969 5.035156 " fill-opacity="1" fill-rule="evenodd"/><path fill="#5271ff" d="M 229.375 4.894531 C 228.445312 5.417969 227.363281 4.972656 225.839844 5.035156 C 226.1875 4.722656 228.328125 4.980469 229.375 4.894531 Z M 229.375 4.894531 " fill-opacity="1" fill-rule="evenodd"/><path fill="#5271ff" d="M 146.472656 5.605469 C 146.714844 5.277344 147.554688 5.550781 148.027344 5.464844 C 147.785156 5.785156 146.949219 5.515625 146.472656 5.605469 Z M 146.472656 5.605469 " fill-opacity="1" fill-rule="evenodd"/><path fill="#5271ff" d="M 337.890625 6.171875 C 336.308594 6.589844 336.027344 5.996094 337.890625 6.171875 Z M 337.890625 6.171875 " fill-opacity="1" fill-rule="evenodd"/><path fill="#5271ff" d="M 346.945312 7.867188 C 345.371094 8.300781 345.050781 7.695312 346.945312 7.867188 Z M 346.945312 7.867188 " fill-opacity="1" fill-rule="evenodd"/><path fill="#5271ff" d="M 376.089844 8.148438 C 376.378906 7.824219 377.261719 8.097656 377.785156 8.011719 C 377.496094 8.332031 376.613281 8.0625 376.089844 8.148438 Z M 376.089844 8.148438 " fill-opacity="1" fill-rule="evenodd"/><path fill="#5271ff" d="M 287.382812 8.148438 C 287.382812 8.835938 285.726562 8.179688 285.683594 8.433594 C 285.546875 7.84375 286.960938 8.40625 287.382812 8.148438 Z M 287.382812 8.148438 " fill-opacity="1" fill-rule="evenodd"/><path fill="#5271ff" d="M 351.734375 8.433594 C 351.785156 8.269531 351.984375 8.074219 352.019531 8.289062 C 352.402344 8.347656 353.742188 8.164062 353.414062 8.433594 Z M 351.734375 8.433594 " fill-opacity="1" fill-rule="evenodd"/><path fill="#5271ff" d="M 295.875 8.433594 C 295.375 8.859375 294.902344 8.472656 294.011719 8.574219 C 294.53125 8.148438 295.007812 8.535156 295.875 8.433594 Z M 295.875 8.433594 " fill-opacity="1" fill-rule="evenodd"/><path fill="#5271ff" d="M 311.007812 8.996094 C 310.429688 9.429688 309.609375 8.882812 308.882812 8.996094 C 309.140625 8.71875 310.71875 8.917969 311.007812 8.996094 Z M 311.007812 8.996094 " fill-opacity="1" fill-rule="evenodd"/><path fill="#5271ff" d="M 244.230469 13.792969 C 243.65625 14.3125 242.113281 13.921875 241.542969 14.070312 C 242.339844 13.480469 243.519531 13.835938 244.230469 13.792969 Z M 244.230469 13.792969 " fill-opacity="1" fill-rule="evenodd"/><path fill="#5271ff" d="M 248.757812 13.667969 C 249.058594 14.132812 248.191406 13.964844 247.914062 14.089844 C 247.710938 13.464844 248.753906 14.089844 248.757812 13.667969 Z M 248.757812 13.667969 " fill-opacity="1" fill-rule="evenodd"/><path fill="#5271ff" d="M 252.011719 13.667969 C 252.480469 13.734375 252.945312 13.734375 253.410156 13.667969 C 253.25 14.105469 252.144531 14.0625 252.011719 13.667969 Z M 252.011719 13.667969 " fill-opacity="1" fill-rule="evenodd"/><path fill="#5271ff" d="M 241.410156 13.792969 C 241.007812 14.695312 240.128906 13.753906 239.285156 14.214844 C 239.613281 13.476562 240.640625 14.035156 241.410156 13.792969 Z M 241.410156 13.792969 " fill-opacity="1" fill-rule="evenodd"/><path fill="#5271ff" d="M 255.128906 14.089844 C 254.871094 13.828125 254.765625 14.207031 254.277344 14.089844 C 254.074219 13.652344 255.328125 13.652344 255.128906 14.089844 Z M 255.128906 14.089844 " fill-opacity="1" fill-rule="evenodd"/><path fill="#5271ff" d="M 302.097656 14.257812 C 302.308594 14.425781 302.726562 14.378906 302.660156 14.820312 C 302.550781 14.722656 302.273438 14.601562 302.238281 14.820312 C 302.046875 14.753906 302.121094 14.445312 302.097656 14.257812 Z M 302.097656 14.257812 " fill-opacity="1" fill-rule="evenodd"/><path fill="#5271ff" d="M 305.773438 14.375 C 306.203125 14.589844 306.324219 14.328125 306.621094 14.519531 C 306.527344 14.65625 306.296875 14.664062 306.339844 14.941406 C 306.152344 14.914062 306.078125 14.355469 306.058594 14.941406 C 305.59375 15.007812 305.425781 14.816406 305.492188 14.375 C 305.75 14.636719 305.980469 15.0625 305.773438 14.375 Z M 305.773438 14.375 " fill-opacity="1" fill-rule="evenodd"/><path fill="#5271ff" d="M 235.742188 14.519531 C 236.320312 14.554688 236.886719 14.648438 237.441406 14.796875 C 237.578125 14.332031 237.722656 14.957031 237.867188 14.941406 C 236.9375 15.105469 236.75 14.824219 235.601562 15.082031 C 235.621094 14.917969 235.859375 14.964844 236.027344 14.941406 C 235.933594 14.796875 235.703125 14.792969 235.742188 14.519531 Z M 235.742188 14.519531 " fill-opacity="1" fill-rule="evenodd"/><path fill="#5271ff" d="M 306.765625 14.65625 C 306.914062 14.335938 307.65625 14.601562 308.039062 14.519531 C 308.050781 14.546875 306.953125 15.1875 306.765625 14.65625 Z M 306.765625 14.65625 " fill-opacity="1" fill-rule="evenodd"/><path fill="#5271ff" d="M 279.460938 14.941406 C 277.695312 15.375 277.398438 14.773438 279.460938 14.941406 Z M 279.460938 14.941406 " fill-opacity="1" fill-rule="evenodd"/><path fill="#5271ff" d="M 282.007812 15.082031 C 282.527344 14.753906 283.652344 15.035156 284.414062 14.941406 L 286.816406 14.941406 C 285.492188 15.273438 283.5625 14.988281 282.007812 15.082031 Z M 282.007812 15.082031 " fill-opacity="1" fill-rule="evenodd"/><path fill="#5271ff" d="M 202.351562 17.050781 C 209.449219 16.4375 216.714844 16.585938 223.859375 16.484375 C 217.382812 16.839844 209.800781 17.050781 202.351562 17.050781 Z M 202.351562 17.050781 " fill-opacity="1" fill-rule="evenodd"/><path fill="#5271ff" d="M 237.015625 16.355469 C 236.195312 16.691406 234.179688 16.402344 236.027344 16.355469 C 236.359375 16.347656 236.675781 16.363281 237.015625 16.355469 Z M 237.015625 16.355469 " fill-opacity="1" fill-rule="evenodd"/><path fill="#5271ff" d="M 150.167969 16.78125 C 150.28125 16.371094 151.566406 16.390625 151.867188 16.636719 C 151.554688 17.058594 149.960938 17.210938 149.886719 16.636719 C 149.609375 16.695312 149.773438 17.1875 149.316406 17.066406 C 149.234375 16.441406 148.695312 17.347656 148.46875 16.921875 C 148.582031 16.585938 150.0625 16.25 150.167969 16.78125 Z M 150.167969 16.78125 " fill-opacity="1" fill-rule="evenodd"/><path fill="#5271ff" d="M 331.945312 16.78125 C 331.835938 16.242188 332.617188 16.597656 332.9375 16.496094 C 332.734375 16.921875 332.046875 16.71875 331.945312 16.78125 Z M 331.945312 16.78125 " fill-opacity="1" fill-rule="evenodd"/><path fill="#5271ff" d="M 144.488281 16.78125 C 144.488281 17.367188 143.507812 16.929688 143.09375 17.066406 C 143.554688 16.628906 143.796875 17.003906 144.488281 16.78125 Z M 144.488281 16.78125 " fill-opacity="1" fill-rule="evenodd"/><path fill="#5271ff" d="M 202.214844 17.050781 C 183.8125 17.441406 169.0625 17.917969 154.113281 17.898438 C 159.175781 17.515625 164.792969 17.554688 169.675781 17.332031 C 179.253906 16.898438 189.273438 17.152344 200.796875 16.90625 C 201.347656 16.910156 201.863281 16.511719 202.214844 17.050781 Z M 202.214844 17.050781 " fill-opacity="1" fill-rule="evenodd"/><path fill="#5271ff" d="M 341.429688 17.203125 C 341.101562 17.828125 340.894531 16.996094 340.296875 17.34375 C 340.269531 16.742188 341.183594 17.1875 341.429688 17.203125 Z M 341.429688 17.203125 " fill-opacity="1" fill-rule="evenodd"/><path fill="#5271ff" d="M 343.691406 17.203125 C 344.019531 17.414062 343.953125 17.503906 344.398438 17.34375 C 344.398438 17.707031 343.933594 17.628906 343.546875 17.628906 C 343.648438 17.503906 343.695312 17.363281 343.691406 17.203125 Z M 343.691406 17.203125 " fill-opacity="1" fill-rule="evenodd"/><path fill="#5271ff" d="M 345.246094 17.773438 C 344.8125 17.875 344.976562 17.382812 344.539062 17.488281 C 344.90625 17.253906 345.152344 17.460938 345.8125 17.34375 C 345.644531 17.515625 345.457031 17.660156 345.246094 17.773438 Z M 345.246094 17.773438 " fill-opacity="1" fill-rule="evenodd"/><path fill="#5271ff" d="M 315.675781 17.773438 C 315.964844 17.445312 316.855469 17.722656 317.375 17.628906 C 317.085938 17.953125 316.203125 17.679688 315.675781 17.773438 Z M 315.675781 17.773438 " fill-opacity="1" fill-rule="evenodd"/><path fill="#5271ff" d="M 151.707031 17.773438 C 151.574219 18.296875 150.570312 17.953125 150.007812 18.050781 C 150.285156 17.605469 151.101562 18.09375 151.707031 17.773438 Z M 151.707031 17.773438 " fill-opacity="1" fill-rule="evenodd"/><path fill="#5271ff" d="M 318.507812 17.910156 C 318.75 17.585938 319.585938 17.859375 320.0625 17.773438 C 319.820312 18.09375 318.980469 17.824219 318.507812 17.910156 Z M 318.507812 17.910156 " fill-opacity="1" fill-rule="evenodd"/><path fill="#5271ff" d="M 323.339844 17.910156 C 323.082031 18.378906 322.28125 17.890625 321.476562 18.050781 C 321.289062 17.761719 322.8125 17.980469 323.339844 17.910156 Z M 323.339844 17.910156 " fill-opacity="1" fill-rule="evenodd"/><path fill="#5271ff" d="M 140.527344 18.195312 C 140.816406 17.871094 141.707031 18.144531 142.226562 18.050781 C 141.9375 18.378906 141.050781 18.101562 140.527344 18.195312 Z M 140.527344 18.195312 " fill-opacity="1" fill-rule="evenodd"/><path fill="#5271ff" d="M 143.925781 18.195312 C 144.261719 17.871094 145.191406 18.144531 145.789062 18.050781 C 145.429688 18.378906 144.496094 18.101562 143.925781 18.195312 Z M 143.925781 18.195312 " fill-opacity="1" fill-rule="evenodd"/><path fill="#5271ff" d="M 323.460938 18.195312 C 325.210938 17.851562 327.042969 18.148438 328.269531 18.195312 C 326.695312 18.507812 325.636719 18.046875 323.460938 18.195312 Z M 323.460938 18.195312 " fill-opacity="1" fill-rule="evenodd"/><path fill="#5271ff" d="M 104.167969 18.757812 C 104.367188 18.4375 105.15625 18.707031 105.5625 18.621094 C 105.386719 18.941406 104.601562 18.671875 104.167969 18.757812 Z M 104.167969 18.757812 " fill-opacity="1" fill-rule="evenodd"/><path fill="#5271ff" d="M 99.359375 19.042969 C 99.554688 18.722656 100.347656 18.992188 100.753906 18.902344 C 100.578125 19.226562 99.789062 18.953125 99.359375 19.042969 Z M 99.359375 19.042969 " fill-opacity="1" fill-rule="evenodd"/><path fill="#5271ff" d="M 94.835938 19.1875 C 95.984375 19.367188 91.222656 19.308594 93.558594 19.1875 C 93.984375 19.121094 94.410156 19.121094 94.835938 19.1875 Z M 94.835938 19.1875 " fill-opacity="1" fill-rule="evenodd"/><path fill="#5271ff" d="M 45.894531 19.1875 C 45.753906 19.558594 44.214844 19.496094 43.773438 19.464844 C 44.460938 19.238281 45.171875 19.148438 45.894531 19.1875 Z M 45.894531 19.1875 " fill-opacity="1" fill-rule="evenodd"/><path fill="#5271ff" d="M 89.738281 19.464844 C 90.117188 19.140625 91.105469 19.421875 91.71875 19.328125 C 91.339844 19.652344 90.355469 19.378906 89.738281 19.464844 Z M 89.738281 19.464844 " fill-opacity="1" fill-rule="evenodd"/><path fill="#5271ff" d="M 86.203125 19.609375 C 86.492188 19.285156 87.375 19.558594 87.898438 19.464844 C 87.609375 19.792969 86.726562 19.519531 86.203125 19.609375 Z M 86.203125 19.609375 " fill-opacity="1" fill-rule="evenodd"/><path fill="#5271ff" d="M 430.277344 27.957031 C 430.289062 27.878906 430.335938 27.839844 430.417969 27.839844 C 430.496094 27.839844 430.546875 27.878906 430.558594 27.957031 C 432.179688 27.832031 430.984375 28.363281 430.277344 27.957031 Z M 430.277344 27.957031 " fill-opacity="1" fill-rule="evenodd"/><path fill="#5271ff" d="M 433.101562 28.382812 C 433.75 28.117188 434.753906 28.457031 435.652344 28.664062 C 436.457031 28.5625 436.457031 28.902344 435.652344 28.804688 C 434.808594 28.617188 433.960938 28.476562 433.101562 28.382812 Z M 433.101562 28.382812 " fill-opacity="1" fill-rule="evenodd"/><g clip-path="url(#6b5703bdc9)"><path fill="#5271ff" d="M 242.109375 1.503906 C 243.679688 0.851562 245.285156 0.757812 246.921875 1.222656 C 247.511719 0.785156 248.917969 0.839844 249.183594 1.222656 C 249.796875 0.53125 251.046875 1.308594 251.875 0.941406 C 250.820312 1.816406 252.910156 0.414062 252.582031 1.222656 C 253.871094 0.925781 255.105469 1.117188 256.6875 1.078125 C 256.878906 1.125 256.804688 1.433594 256.828125 1.648438 C 256.828125 0.667969 259.078125 0.859375 258.949219 1.222656 C 259.414062 1.246094 259.414062 0.847656 259.941406 0.941406 C 259.695312 1.941406 261.335938 0.636719 261.640625 1.507812 C 262.070312 1.625 262.535156 0.929688 262.347656 1.507812 C 262.4375 1.382812 263.277344 1.074219 262.628906 1.078125 C 262.800781 0.652344 263.195312 1.152344 263.195312 1.363281 C 263.398438 1.332031 263.242188 0.941406 263.480469 0.941406 C 264.621094 1.40625 266.386719 1.746094 267.71875 1.078125 C 267.570312 1.746094 268.25 0.796875 268.148438 1.507812 C 268.644531 1.507812 267.84375 1.042969 268.289062 1.078125 C 269.027344 1.152344 268.59375 1.128906 268.996094 1.648438 C 269.382812 1.25 269.300781 1.648438 269.417969 1.078125 C 269.574219 1.355469 269.6875 1.660156 270.265625 1.507812 C 270.417969 1.71875 270.464844 1.953125 270.410156 2.210938 C 271.339844 2.375 271.617188 1.796875 272.816406 2.070312 C 272.648438 1.652344 272.042969 1.859375 271.257812 1.785156 C 271.257812 1.226562 271.808594 1.203125 272.25 1.078125 C 272.308594 1.378906 272.152344 1.457031 272.109375 1.648438 C 272.222656 1.550781 272.496094 1.429688 272.53125 1.648438 C 272.878906 1.648438 272.5625 1.179688 272.390625 1.222656 C 273.113281 1.269531 273.230469 2.796875 274.371094 1.929688 C 273.988281 1.308594 273.507812 2.34375 273.097656 1.507812 C 273.65625 1.679688 274.335938 1.308594 274.796875 1.785156 C 274.738281 1.121094 275.84375 2.023438 276.070312 1.363281 C 275.925781 2.113281 276.964844 1.363281 276.917969 1.929688 C 277.28125 1.628906 277.078125 1.878906 277.625 1.648438 C 277.878906 1.75 277.625 1.902344 277.625 2.070312 C 278.492188 1.296875 278.960938 2.199219 279.886719 2.210938 C 283.148438 2.242188 279.050781 2.382812 280.03125 1.785156 C 279.894531 1.871094 281.5 1.785156 281.304688 1.785156 C 281.730469 1.757812 282.171875 2.148438 282.292969 1.648438 C 282.675781 1.648438 283.71875 2.289062 284.695312 1.785156 C 285.929688 2.910156 287.488281 1.296875 288.09375 2.355469 C 288.433594 2.410156 288.015625 1.710938 288.519531 1.929688 C 288.578125 2.207031 288.921875 1.699219 288.800781 2.355469 C 289.300781 1.796875 289.734375 2.355469 290.496094 2.070312 L 290.496094 2.496094 C 290.578125 2.308594 290.71875 2.214844 290.921875 2.214844 C 291.125 2.214844 291.265625 2.308594 291.347656 2.496094 C 291.480469 2.378906 291.574219 2.238281 291.632812 2.070312 C 291.835938 2.136719 291.632812 2.195312 291.632812 2.355469 C 292.0625 2.40625 291.871094 1.839844 292.195312 1.785156 C 294.332031 2.417969 296.296875 2.660156 297.710938 2.210938 C 297.878906 2.234375 297.832031 2.472656 297.855469 2.636719 C 297.855469 1.878906 299.71875 3.25 300.121094 2.070312 C 300.414062 2.148438 300.417969 2.292969 300.261719 2.496094 C 301.609375 2.089844 302.359375 2.539062 304.226562 2.355469 C 304.195312 2.464844 304.082031 2.496094 304.082031 2.636719 C 305.078125 2.304688 307.765625 2.351562 309.742188 2.777344 C 309.964844 2.484375 310.863281 2.863281 310.734375 2.210938 C 311.132812 2.476562 310.933594 2.675781 311.578125 2.496094 C 311.394531 2.429688 310.824219 2.027344 311.296875 1.785156 C 311.585938 2.035156 311.886719 1.941406 311.71875 2.636719 C 313.804688 2.851562 316.234375 2.707031 317.949219 2.917969 C 318.128906 2.398438 317.976562 2.378906 317.664062 2.070312 C 318.503906 2.070312 318.410156 3.722656 319.359375 2.777344 C 319.40625 2.199219 319.066406 2.703125 318.796875 2.636719 C 318.847656 2.453125 319.042969 2.414062 319.078125 2.210938 C 318.910156 2.332031 318.71875 2.382812 318.511719 2.355469 C 319.441406 1.96875 319.769531 2.222656 320.632812 2.496094 C 321.136719 2.496094 320.332031 2.027344 320.773438 2.070312 C 321.351562 2.035156 321.09375 2.121094 321.058594 2.496094 C 321.484375 2.148438 321.523438 2.414062 321.625 2.070312 C 322.21875 2.351562 322.722656 1.941406 323.75 2.355469 C 323.339844 2.886719 323.898438 2.679688 323.464844 3.0625 C 323.589844 3.1875 323.882812 3.0625 324.3125 3.203125 C 324.660156 3.066406 324.117188 2.660156 324.3125 2.210938 C 324.628906 2.625 324.890625 2.265625 325.585938 2.355469 C 325.503906 2.648438 325.289062 2.820312 325.160156 3.0625 C 325.648438 3.304688 326.167969 3.425781 326.714844 3.425781 C 327.261719 3.425781 327.78125 3.304688 328.273438 3.0625 C 327.6875 2.996094 326.777344 3.136719 325.585938 3.0625 C 325.5625 2.757812 325.6875 2.535156 325.960938 2.398438 C 326.234375 2.261719 326.488281 2.292969 326.71875 2.496094 C 326.179688 2.621094 326.875 2.78125 327.566406 2.917969 C 327.503906 2.289062 327.269531 2.707031 326.859375 2.496094 C 327.019531 2.164062 327.789062 2.398438 327.847656 2.636719 C 327.847656 2.398438 328.066406 2.285156 328.695312 2.355469 C 327.984375 2.898438 329.058594 2.496094 328.980469 3.347656 C 329.230469 3.054688 329.417969 3.21875 329.546875 3.0625 C 329.546875 2.597656 329.128906 3.011719 328.839844 2.636719 C 329.691406 2.535156 330.539062 2.535156 331.386719 2.636719 C 331.234375 2.902344 331.191406 3.183594 331.253906 3.480469 C 331.464844 3.234375 331.554688 2.945312 331.523438 2.621094 C 331.894531 2.574219 331.886719 2.914062 331.945312 3.183594 C 332.113281 3.183594 332.066406 2.925781 332.089844 2.757812 C 332.222656 2.914062 332.613281 2.804688 332.515625 3.183594 C 332.765625 2.578125 333.261719 2.679688 333.910156 2.757812 L 333.910156 3.621094 C 334.023438 2.546875 334.738281 2.851562 335.308594 3.339844 C 335.605469 3.296875 335.15625 2.847656 334.882812 2.914062 C 336.429688 2.800781 336.671875 3.03125 338.417969 2.914062 C 338.78125 2.914062 338.644531 3.445312 338.84375 3.621094 C 338.746094 3.15625 339.566406 2.792969 339.976562 3.339844 C 340.179688 3 340.191406 2.992188 340.398438 2.914062 C 340.824219 3.007812 340.265625 3.214844 340.398438 3.480469 C 340.507812 3.382812 340.863281 2.886719 340.824219 3.480469 C 341.378906 2.914062 340.949219 3.285156 341.816406 3.195312 C 341.761719 3.382812 341.5625 3.421875 341.53125 3.621094 C 342.203125 3.03125 343.515625 3.589844 344.359375 3.621094 C 345.15625 3.429688 345.957031 3.382812 346.769531 3.480469 C 346.660156 3.746094 346.34375 3.578125 346.625 3.90625 C 346.734375 3.90625 347.050781 3.4375 346.769531 3.480469 C 347.109375 3.421875 348.097656 3.152344 348.039062 4.050781 C 349.167969 3.0625 351.222656 4.085938 352.992188 3.765625 C 353.160156 3.953125 353.046875 3.988281 352.992188 4.1875 C 353.375 3.933594 355.035156 3.890625 356.101562 4.328125 C 356.796875 3.914062 358.246094 3.863281 358.507812 4.894531 C 358.972656 4.683594 358.214844 4.550781 358.367188 4.1875 C 358.671875 4.449219 359.15625 4.027344 358.792969 4.613281 C 362.980469 3.960938 365.945312 5.035156 370.675781 4.894531 C 370.929688 5 370.675781 5.152344 370.675781 5.320312 C 371.609375 4.671875 373.269531 5.320312 374.492188 5.179688 C 373.882812 5.707031 374.894531 5.144531 375.0625 5.605469 C 374.964844 5.480469 374.917969 5.339844 374.917969 5.179688 C 375.300781 5.394531 375.597656 5.46875 375.769531 5.179688 C 375.972656 5.300781 376.3125 5.292969 376.191406 5.742188 C 376.65625 4.925781 377.753906 5.855469 378.171875 5.464844 C 378.425781 5.566406 378.171875 5.71875 378.171875 5.886719 C 379.421875 5.015625 379.632812 6.011719 381 5.605469 C 381 5.804688 380.976562 6.003906 381.144531 6.027344 C 381.355469 5.96875 381.089844 5.847656 381.144531 5.605469 C 381.238281 5.628906 381.3125 5.683594 381.363281 5.761719 C 381.417969 5.84375 381.4375 5.933594 381.425781 6.027344 C 381.425781 5.617188 385.105469 5.695312 384.960938 6.449219 C 385.152344 6.410156 385.082031 6.097656 385.105469 5.886719 C 385.664062 6.203125 386.40625 5.847656 386.96875 6.027344 C 387 6.027344 387.15625 6.441406 387.253906 6.449219 C 387.179688 6.449219 390.226562 5.832031 390.648438 6.59375 C 390.898438 6.632812 390.933594 6.460938 390.785156 6.449219 C 391 6.527344 392.886719 6.144531 392.910156 6.875 C 393.46875 6.558594 395.789062 6.472656 396.730469 7.160156 C 399.007812 6.984375 401.269531 7.078125 403.523438 7.441406 C 403.578125 7.441406 403.167969 7.703125 403.09375 7.582031 C 403.363281 8.019531 403.488281 7.460938 403.664062 7.441406 C 405.671875 7.214844 409.410156 8.402344 411.445312 8.148438 C 411.445312 8.316406 411.183594 8.269531 411.015625 8.289062 C 414.207031 8.132812 416.90625 8.804688 420.355469 8.996094 C 420.257812 9.121094 420.210938 9.261719 420.214844 9.421875 C 422.28125 8.695312 425.730469 10.074219 427.996094 9.988281 C 427.9375 10.078125 427.890625 10.171875 427.855469 10.273438 C 432.015625 10.34375 437.792969 12.421875 442.710938 13.667969 C 440.160156 14.324219 437.25 13.09375 435.355469 13.667969 C 436.46875 14.089844 437.304688 14.65625 438.324219 14.519531 C 438.613281 15.039062 439.328125 14.257812 439.316406 15.082031 C 438.613281 14.679688 437.703125 15.015625 436.484375 14.796875 C 437.992188 15.929688 440.976562 15.160156 442.425781 16.074219 C 439.519531 16.59375 435.628906 15.089844 432.949219 15.503906 C 432.714844 16.085938 433.65625 15.398438 433.230469 15.789062 C 432.929688 16.292969 432.660156 15.863281 431.835938 16.074219 C 433.789062 16.8125 436.488281 16.539062 437.917969 17.46875 C 435.828125 17.53125 436.605469 17.273438 433.535156 17.1875 C 434.988281 18.140625 437.398438 18.117188 439.191406 18.742188 C 440.890625 18.742188 438.488281 19.136719 438.203125 18.742188 C 437.574219 18.914062 437.585938 19.671875 436.808594 19.308594 C 436.808594 19.472656 436.773438 19.558594 436.664062 19.59375 C 436.597656 19.894531 436.867188 19.863281 437.085938 19.871094 C 435.730469 20.613281 433.871094 19.773438 432.277344 19.730469 C 431.109375 19.703125 429.484375 19.847656 428.175781 19.871094 C 430.503906 20.453125 433.710938 20.296875 436.089844 20.722656 C 436.242188 21.839844 437.484375 21.886719 438.351562 22.277344 C 438.402344 22.652344 437.644531 23.210938 438.492188 23.128906 C 438.027344 23.457031 436.941406 23.175781 436.230469 23.269531 C 437.003906 24.050781 438.609375 24.003906 439.90625 24.261719 C 439.578125 24.667969 440.238281 24.382812 440.757812 24.539062 C 438.644531 24.777344 436.347656 23.847656 433.683594 23.832031 C 434.738281 25.089844 437.550781 24.585938 438.921875 25.53125 C 437.960938 25.578125 437.019531 25.484375 436.089844 25.25 C 436.023438 25.714844 436.390625 25.714844 436.796875 25.675781 C 436.601562 25.855469 436.578125 26.367188 436.9375 26.378906 C 436.226562 26.894531 434.882812 25.738281 434.8125 26.949219 C 433.789062 26.730469 432.75 26.585938 431.703125 26.523438 C 432.636719 27.222656 433.882812 27.023438 434.964844 27.371094 C 435.628906 27.300781 435.304688 27.628906 434.820312 27.515625 C 433.394531 27.152344 430.746094 27.136719 428.878906 26.949219 C 428.878906 27.085938 429.050781 27.058594 429.164062 27.085938 C 420.984375 26.882812 410.542969 24.757812 401.855469 23.976562 C 401.890625 23.824219 402.136719 23.878906 402.140625 23.695312 C 401.089844 24.132812 400.371094 23.257812 399.875 23.832031 C 399.515625 23.832031 399.699219 23.730469 399.734375 23.554688 C 399.0625 23.492188 398.761719 23.804688 398.035156 23.695312 C 398.625 23.226562 397.871094 23.589844 397.609375 23.554688 C 388.917969 22.207031 378.269531 21.707031 368.589844 21.164062 C 355.925781 20.496094 341.925781 19.117188 329.390625 18.335938 C 329.097656 18.25 328.460938 18.511719 328.402344 18.195312 L 329.535156 18.195312 C 346.363281 19.476562 364.019531 20.1875 380.742188 21.734375 C 385.703125 22.199219 390.757812 21.878906 395.171875 23.003906 C 396.101562 22.539062 400.0625 23.246094 400.972656 23.289062 C 398.53125 22.550781 396.039062 22.179688 393.492188 22.171875 C 394.074219 21.707031 394.886719 22.171875 395.894531 22.027344 C 391.238281 21.375 385.652344 21.023438 381.460938 20.757812 C 382.359375 20.257812 381.082031 20.542969 380.476562 20.332031 C 380.824219 20.9375 379.144531 20.273438 378.070312 20.472656 C 377.988281 19.601562 376.019531 20.347656 375.382812 19.625 C 374.871094 19.980469 372.808594 19.945312 372.125 19.339844 C 370.582031 19.839844 368.453125 19.398438 366.746094 19.058594 C 366.804688 19.523438 367.292969 18.679688 367.171875 19.339844 C 366.210938 19.066406 365.839844 19.421875 364.339844 19.203125 C 364.167969 19.171875 362.253906 18.636719 361.65625 19.339844 C 360.722656 18.410156 358.253906 19.488281 357.832031 18.347656 C 357.472656 19.039062 355.542969 18.710938 354.441406 18.347656 C 354.503906 18.878906 353.652344 18.347656 352.878906 18.492188 C 352.566406 18.289062 353.0625 18.144531 352.742188 18.066406 C 352.414062 18.367188 352.445312 18.292969 351.894531 17.925781 C 351.953125 18.050781 352.015625 18.175781 352.171875 18.210938 C 351.539062 18.457031 350.777344 18.390625 350.617188 17.640625 C 352.761719 18.050781 353.941406 17.992188 356.417969 18.066406 C 356.484375 18.367188 356.21875 18.335938 355.996094 18.347656 C 356.394531 18.921875 356.507812 18.027344 356.839844 18.066406 L 356.839844 18.492188 C 359.917969 17.90625 362.703125 18.808594 365.472656 18.632812 C 365.550781 18.925781 365.898438 18.425781 365.617188 18.917969 C 368.917969 18.476562 370.960938 19.382812 374.386719 19.203125 C 374.386719 19.402344 374.386719 19.601562 374.527344 19.625 C 374.734375 19.558594 374.46875 19.445312 374.527344 19.203125 C 374.816406 19.484375 375.691406 19.261719 376.363281 19.339844 C 376.363281 19.339844 376.109375 19.574219 375.941406 19.480469 C 376.371094 19.71875 376.253906 19.375 376.792969 19.339844 C 377.949219 19.269531 380.683594 20.042969 382.027344 19.765625 C 381.984375 19.851562 381.671875 20.308594 382.027344 20.332031 C 382.234375 20.265625 381.96875 20.152344 382.027344 19.90625 C 387.300781 20.035156 393.664062 20.90625 399.285156 21.179688 C 397.382812 20.515625 394.570312 21.179688 393.34375 20.046875 C 393.261719 20.0625 393.222656 20.109375 393.222656 20.191406 C 393.222656 20.269531 393.261719 20.316406 393.34375 20.332031 C 384.660156 19.9375 377.050781 18.9375 368.871094 18.46875 C 368.894531 18.375 368.949219 18.304688 369.027344 18.25 C 369.109375 18.195312 369.199219 18.175781 369.292969 18.1875 C 369.199219 18.042969 368.96875 18.039062 369.011719 17.761719 C 368.875 18.085938 368.933594 18.152344 368.585938 18.46875 C 366.09375 18.171875 363.59375 18.03125 361.085938 18.042969 C 361.003906 17.964844 360.964844 17.871094 360.964844 17.761719 C 360.964844 17.648438 361.003906 17.554688 361.085938 17.480469 C 360.738281 17.261719 360.671875 17.945312 360.949219 17.902344 C 356.449219 17.761719 351.304688 17.199219 347.914062 17.195312 C 348.074219 16.183594 349.078125 17.195312 349.46875 16.628906 C 345.695312 15.871094 341.050781 15.976562 337.582031 15.496094 C 338.113281 16.589844 339.980469 15.574219 340.414062 16.488281 C 340.492188 16.472656 340.53125 16.425781 340.53125 16.34375 C 340.53125 16.265625 340.492188 16.21875 340.414062 16.203125 C 341.972656 16.167969 343.523438 16.261719 345.070312 16.488281 C 346.074219 16.609375 347.476562 16.183594 347.898438 17.054688 C 347.535156 17.054688 347.726562 16.949219 347.753906 16.769531 C 347.582031 17.488281 345.640625 16.886719 343.9375 16.769531 C 339.914062 16.488281 335.777344 16.246094 332.054688 16.203125 C 331.378906 16.203125 330.679688 15.835938 329.929688 15.78125 C 326.941406 15.5625 323.371094 15.621094 320.453125 15.496094 C 317.257812 15.359375 313.757812 15.230469 312.101562 14.789062 C 311.996094 15.15625 310.984375 15.082031 310.121094 15.074219 C 309.65625 14.875 310.621094 14.933594 310.832031 14.933594 C 310.738281 14.789062 310.503906 14.785156 310.546875 14.507812 C 313.703125 14.898438 315.816406 14.835938 319.601562 14.933594 C 319.601562 15.019531 319.40625 15.105469 319.316406 15.074219 C 320.359375 15.429688 322.753906 15.269531 324.414062 15.355469 C 326.84375 15.480469 329.203125 15.214844 330.492188 15.355469 C 316.734375 14.039062 292.789062 13.40625 278.429688 13.515625 C 263.789062 13.628906 253.222656 13.136719 238.398438 13.65625 C 238.242188 14.078125 239.238281 13.765625 239.25 13.800781 C 238.535156 14.863281 235.847656 13.707031 234.71875 14.363281 C 234.960938 14.566406 235.433594 14.238281 235.289062 15.074219 C 232.960938 15.152344 229.992188 14.957031 228.496094 15.074219 C 228.496094 14.082031 230.503906 15.179688 230.195312 14.226562 C 230.917969 14.226562 231.792969 14.3125 231.464844 14.933594 C 232.0625 14.402344 232.75 14.429688 233.871094 14.226562 C 230.082031 14.03125 225.4375 13.898438 222.410156 14.363281 C 222.765625 14.789062 224.433594 14.769531 225.671875 14.789062 C 226.34375 14.796875 227.007812 14.703125 227.652344 14.507812 C 227.945312 14.589844 227.953125 14.726562 227.792969 14.933594 C 228.257812 15.003906 228.089844 14.230469 228.5 14.648438 C 228.421875 14.777344 228.105469 14.863281 228.355469 14.933594 C 227.996094 15.09375 226.367188 15.324219 226.238281 14.789062 C 224.8125 15.300781 222.492188 15.46875 221.707031 14.789062 C 221.542969 14.8125 221.585938 15.050781 221.570312 15.214844 C 218.136719 15.308594 214.738281 15.066406 211.792969 15.78125 C 211.792969 15.644531 211.964844 15.671875 212.074219 15.640625 C 211.117188 15.429688 210.175781 15.476562 209.246094 15.78125 C 208.179688 15.179688 203.054688 16.0625 201.179688 15.496094 C 200.082031 16.203125 198.667969 15.226562 197.503906 16.0625 C 197.761719 15.546875 195.984375 16.222656 195.378906 16.203125 C 195.140625 16.113281 195.292969 15.878906 195.523438 15.917969 C 194.691406 15.597656 192.730469 16.179688 191.984375 15.640625 C 191.761719 15.699219 191.863281 16.082031 191.417969 15.917969 C 191.417969 16.234375 192.019531 15.980469 192.269531 16.0625 C 192.164062 16.671875 190.789062 15.515625 190.285156 16.0625 C 190.203125 16.398438 191.132812 15.660156 190.996094 16.347656 C 184.308594 16.5625 174.421875 16.375 165.953125 16.769531 C 165.1875 16.808594 164.214844 17.238281 163.832031 16.628906 C 163.128906 16.972656 160.921875 17.320312 160.863281 16.628906 C 160.554688 17.273438 158.226562 17.121094 157.605469 16.488281 C 157.101562 16.488281 157.902344 16.953125 157.460938 16.910156 C 156.527344 16.53125 155.386719 17.308594 154.488281 16.488281 C 154.863281 16.914062 153.464844 17.074219 153.214844 16.628906 C 153.054688 16.816406 152.851562 16.925781 152.605469 16.953125 C 152.363281 16.980469 152.140625 16.917969 151.941406 16.769531 C 152.074219 16.175781 153.804688 16.691406 154.351562 16.488281 C 153.460938 15.757812 151.210938 16.316406 149.695312 16.347656 C 148.296875 16.375 147.058594 16.050781 146.296875 16.628906 C 146.597656 16.835938 147.152344 16.570312 147.148438 16.910156 C 147.3125 16.910156 147.265625 16.65625 147.289062 16.488281 C 147.753906 17.011719 147.488281 16.660156 148.28125 16.628906 C 147.78125 17.464844 146.832031 16.753906 146.15625 17.054688 C 146.179688 16.703125 145.933594 16.617188 145.871094 16.347656 C 143.945312 16.253906 141.371094 16.8125 138.65625 16.628906 C 137.46875 16.546875 136.328125 16.0625 135.121094 16.0625 C 132.570312 16.0625 129.761719 16.132812 127.765625 16.0625 C 121.773438 15.859375 113.367188 16.46875 108.378906 16.628906 C 91.449219 17.171875 68.503906 18.316406 49.386719 19.742188 C 49.386719 18.949219 47.714844 19.453125 46.128906 19.316406 C 46.128906 19.148438 46.382812 19.195312 46.550781 19.179688 C 39.730469 18.839844 29.71875 20.300781 22.78125 20.574219 C 23.183594 19.796875 25.933594 20.144531 27.167969 19.726562 C 27.125 19.535156 26.8125 19.609375 26.605469 19.585938 C 26.847656 19.371094 27.128906 19.277344 27.453125 19.304688 C 25.589844 19.015625 20.753906 20.152344 18.539062 19.164062 C 18.539062 19.300781 18.714844 19.269531 18.820312 19.304688 C 16.539062 18.78125 14.238281 18.648438 11.914062 18.914062 C 11.914062 18.449219 12.277344 18.449219 12.621094 18.34375 C 10.992188 18.042969 8.351562 17.902344 7.242188 16.644531 C 7.296875 15.359375 7.519531 15.0625 7.8125 13.960938 C 8.433594 13.953125 8.953125 13.71875 9.367188 13.253906 C 26.664062 9.835938 46.140625 8.324219 65.105469 7.027344 C 71.675781 6.5625 78.339844 5.984375 85.339844 5.632812 C 108.515625 4.398438 131.421875 3.425781 154.234375 2.375 C 157.589844 2.21875 160.988281 2.335938 164.277344 2.230469 C 172.109375 1.964844 181.296875 1.6875 189.335938 1.640625 C 206.585938 1.542969 227.019531 0.292969 239.28125 0.933594 C 240.476562 1.066406 242.234375 0.757812 242.109375 1.503906 Z M 325.15625 2.621094 C 325.015625 2.621094 324.988281 2.503906 324.875 2.476562 C 324.917969 2.753906 324.683594 2.757812 324.589844 2.898438 C 324.734375 2.898438 324.875 3.515625 325.015625 3.042969 C 324.929688 3.042969 324.847656 3.019531 324.875 2.898438 L 325.15625 2.898438 Z M 329.96875 3.042969 C 330.527344 2.933594 330.703125 3.105469 330.960938 2.898438 C 330.542969 2.9375 330.523438 2.582031 330.105469 2.621094 C 330.117188 2.785156 330.070312 2.929688 329.96875 3.058594 Z M 266.445312 2.066406 C 266.515625 2.125 266.59375 2.164062 266.683594 2.179688 C 266.773438 2.199219 266.863281 2.191406 266.949219 2.164062 C 267.035156 2.132812 267.109375 2.085938 267.171875 2.019531 C 267.230469 1.949219 267.273438 1.871094 267.292969 1.78125 C 267.042969 1.914062 266.589844 1.832031 266.445312 2.066406 Z M 304.644531 3.058594 C 303.511719 3.015625 302.34375 3.414062 302.238281 2.914062 C 302.199219 2.746094 301.738281 3.1875 301.667969 3.195312 C 301.390625 3.25 300.699219 2.792969 300.273438 2.773438 C 300.226562 2.773438 300.273438 3.109375 299.988281 3.058594 C 298.855469 2.929688 297.722656 2.929688 296.589844 3.058594 C 295.324219 3.109375 293.285156 3.007812 292.066406 2.914062 C 289.472656 2.730469 286.878906 2.683594 284.28125 2.773438 C 284.28125 2.617188 284.488281 2.554688 284.28125 2.488281 C 283.378906 2.824219 282.09375 2.539062 281.3125 2.632812 C 279.636719 2.824219 277.332031 2.335938 276.359375 2.351562 C 251.371094 2.675781 230.273438 2.523438 203.359375 3.058594 C 201.960938 3.085938 201.640625 2.539062 200.386719 3.480469 C 206.773438 3.054688 216.9375 3.480469 221.890625 3.621094 C 208.011719 4.214844 192.855469 4.421875 176.902344 5.015625 C 173.644531 5.144531 170.089844 5.269531 166.996094 5.160156 C 161.722656 4.976562 154.671875 5.761719 149.171875 5.585938 C 147.652344 5.535156 144.648438 4.960938 143.089844 5.585938 C 143.339844 5.664062 143.921875 5.414062 143.941406 5.726562 C 139.472656 5.761719 134.847656 6.277344 131.914062 5.726562 C 131.445312 6.480469 130.050781 6.105469 129.789062 5.871094 C 129.789062 6.652344 128.671875 5.5625 128.234375 6.007812 C 128.40625 6.007812 128.570312 6.050781 128.519531 6.292969 C 128.019531 5.984375 125.414062 6.726562 124.558594 6.007812 C 124.046875 6.8125 122.695312 6.277344 121.585938 6.292969 C 118.261719 6.335938 114.007812 7.394531 111.117188 6.714844 C 110.355469 7.507812 109.117188 6.902344 108.003906 6.855469 C 107.378906 6.832031 106.742188 7.265625 106.164062 7.285156 C 106.421875 7.285156 105.648438 6.992188 105.882812 7 C 105.15625 6.96875 104.152344 7.3125 103.050781 7.425781 C 101.785156 7.550781 100.332031 7.214844 99.65625 7.707031 C 94.210938 7.503906 86.339844 8.308594 78.710938 8.695312 C 76.289062 8.820312 72.945312 8.746094 71.210938 9.402344 C 71.792969 9.242188 72.359375 9.289062 72.910156 9.546875 C 77.597656 8.457031 83.238281 9.082031 88.609375 8.554688 C 88.84375 8.53125 89.074219 8.425781 89.316406 8.414062 C 100.398438 7.914062 111.058594 6.90625 119.738281 7.285156 C 119.972656 7.285156 120.113281 7.039062 120.441406 7 C 120.636719 7 123.574219 7.394531 124.6875 6.855469 C 126.335938 7.320312 130.847656 6.589844 134.027344 6.855469 C 134.050781 6.691406 134.003906 6.457031 134.167969 6.433594 C 135.101562 7.210938 136.964844 6.359375 138.269531 6.714844 C 139.289062 5.886719 141.4375 6.800781 143.363281 6.152344 C 143.320312 6.429688 143.554688 6.433594 143.648438 6.578125 C 144.046875 6.140625 144.820312 5.910156 144.917969 6.578125 C 146.902344 6.109375 150.308594 5.644531 152.703125 6.007812 C 153.5625 6.148438 153.902344 6.007812 154.964844 5.871094 C 157.21875 5.535156 159.871094 5.996094 162.464844 5.871094 C 166.300781 5.683594 170.125 5.4375 173.355469 5.871094 C 179.179688 5.402344 187.585938 5.015625 192.03125 5.445312 C 196.773438 4.3125 202.097656 5.757812 205.332031 4.738281 C 206.476562 5.007812 207.609375 4.960938 208.726562 4.59375 C 208.878906 5.058594 209.304688 4.660156 209.71875 5.015625 C 212.460938 4.359375 214.75 4.988281 218.773438 4.59375 C 219.335938 5.21875 220.167969 4.71875 220.894531 5.160156 C 208.152344 5.160156 192.898438 6.238281 179 6.558594 C 162.765625 6.953125 149.414062 6.722656 132.734375 7.40625 C 125.507812 7.703125 117.539062 8.363281 111.089844 8.113281 C 107.640625 8.675781 99.453125 8.214844 94.535156 9.246094 C 94.535156 8.964844 94.398438 8.949219 94.113281 8.960938 C 90.953125 9.089844 87.386719 9.453125 84.492188 9.8125 C 86.148438 10.375 88.117188 9.175781 89.445312 9.953125 C 103.410156 8.898438 114.886719 8.585938 129.476562 7.972656 C 130.109375 8.597656 130.792969 7.917969 131.738281 7.828125 C 131.738281 8.050781 131.738281 8.324219 132.023438 8.253906 C 134.765625 8.167969 137.308594 7.921875 140.085938 7.972656 C 148.023438 8.109375 156.015625 7.117188 164.5625 7.121094 C 170.613281 7.121094 176.855469 6.601562 182.957031 6.835938 C 194.53125 7.304688 204.976562 6.21875 215.210938 6.558594 C 218.058594 6.019531 221.261719 6.246094 223.839844 6.414062 C 229.15625 5.925781 239.035156 6.125 242.796875 6.132812 C 242.582031 6.132812 242.332031 6.515625 242.796875 6.414062 C 243.089844 6.253906 242.921875 6.414062 243.082031 6.132812 C 245.875 6.101562 248.570312 6.382812 251.855469 6.414062 C 253.09375 6.046875 255.113281 6.109375 257.085938 6.132812 C 258.859375 6.132812 260.453125 6.253906 262.464844 6.273438 C 269.988281 6.347656 278.039062 6.273438 287.082031 6.558594 C 287.480469 6.558594 288.035156 6.394531 288.636719 6.414062 C 290.347656 6.46875 291.488281 6.441406 292.171875 6.414062 C 292.855469 6.386719 293.351562 6.414062 293.734375 6.414062 C 295.492188 6.332031 297.710938 6.464844 299.671875 6.558594 C 303.023438 6.710938 306.535156 6.957031 310.28125 7.121094 C 316.371094 7.386719 323.082031 7.390625 329.101562 7.828125 C 329.472656 7.855469 330.292969 7.597656 330.5 8.113281 C 331.585938 7.921875 332.671875 7.921875 333.757812 8.113281 C 333.757812 8.28125 333.503906 8.433594 333.757812 8.535156 C 334.34375 7.730469 337.621094 8.453125 338.410156 8.535156 C 338.964844 8.070312 340.03125 8.679688 339.972656 8.675781 C 346.574219 8.925781 355.382812 9.652344 360.203125 9.667969 C 362.4375 9.667969 364.984375 10.277344 365.152344 9.527344 C 365.515625 9.808594 367.65625 10.242188 366.710938 9.667969 C 367.046875 9.757812 367.734375 9.492188 367.839844 9.8125 C 367.628906 9.8125 367.320312 9.761719 367.273438 9.953125 C 369.8125 10.203125 373.300781 10.5625 375.339844 10.375 C 376.769531 10.25 378.207031 10.839844 379.726562 10.941406 C 381.03125 11.023438 382.375 10.707031 383.6875 10.800781 C 385 10.890625 386.386719 11.386719 387.363281 11.367188 C 387.71875 11.367188 388.042969 11.097656 388.355469 11.226562 C 388.515625 11.289062 388.488281 11.644531 388.636719 11.652344 C 388.609375 11.652344 388.671875 11.246094 388.78125 11.226562 C 390.238281 10.972656 392.207031 11.753906 393.734375 11.933594 C 393.660156 11.933594 393.902344 11.636719 394.15625 11.652344 C 398.457031 11.875 403.53125 12.9375 407.734375 12.640625 C 406.980469 12.40625 406.183594 12.6875 405.332031 12.359375 C 405.539062 12.28125 406.066406 12.519531 406.042969 12.214844 C 405.484375 12.246094 404.644531 11.8125 404.179688 12.214844 C 404.46875 12.296875 405.109375 12.042969 405.167969 12.359375 C 402.917969 12.925781 401.585938 10.960938 400.640625 12.074219 C 399.0625 11.609375 398.574219 11.542969 396.257812 11.367188 C 396.257812 11.179688 396.503906 11.238281 396.535156 11.082031 C 394.027344 10.808594 392.863281 11.144531 391.019531 10.800781 C 391.1875 10.820312 391.417969 10.800781 391.441406 10.941406 C 390.875 10.558594 390.046875 11.117188 388.613281 10.800781 C 388.613281 10.800781 388.492188 10.4375 388.332031 10.375 C 387.242188 9.964844 385.113281 10.957031 386.472656 10.234375 C 385.648438 10.136719 385.417969 10.320312 385.195312 10.519531 C 385.269531 9.988281 384.578125 10.835938 384.910156 10.089844 C 384.375 10.347656 383.808594 10.441406 383.21875 10.375 C 383.21875 10.152344 383.21875 9.910156 382.933594 9.953125 C 382.878906 10.195312 383.144531 10.316406 382.933594 10.375 C 382.933594 9.824219 381.710938 9.8125 381.375 10.089844 C 381.667969 10.179688 382.304688 9.917969 382.367188 10.234375 C 380.871094 10.332031 378.398438 9.835938 377.710938 10.089844 C 377.636719 9.890625 378.265625 9.746094 377.855469 9.667969 C 374.25 9.804688 371.042969 9.140625 366.109375 8.960938 C 365.675781 8.859375 365.9375 9.449219 365.402344 9.246094 C 366.136719 8.597656 364.738281 9.117188 364.554688 9.105469 C 364.601562 9.105469 364.726562 8.875 364.410156 8.820312 C 363.050781 8.648438 361.683594 8.554688 360.308594 8.535156 C 344.480469 7.644531 328.535156 6.300781 314.332031 5.566406 C 315.851562 5.511719 320.4375 6.144531 322.816406 5.566406 C 325.015625 6.066406 327.394531 5.808594 329.1875 5.992188 C 330.632812 6.132812 332.265625 6.417969 333.285156 6.273438 C 333.722656 6.210938 333.625 5.945312 333.996094 5.992188 C 334.027344 5.992188 333.714844 6.273438 333.710938 6.273438 C 334.640625 6.773438 336.351562 6.09375 337.816406 6.414062 C 338.164062 6.492188 338.367188 6.785156 338.664062 6.835938 C 341.074219 7.257812 343.847656 6.203125 345.878906 7.40625 C 346.4375 6.652344 348.371094 7.488281 348.992188 7.121094 C 348.898438 7.136719 348.808594 7.113281 348.726562 7.0625 C 348.644531 7.007812 348.59375 6.933594 348.570312 6.835938 C 349.324219 7.074219 350.515625 6.871094 350.972656 7.40625 C 351.085938 6.996094 352.367188 7.015625 352.671875 7.265625 C 352.238281 7.355469 351.449219 7.085938 351.273438 7.40625 C 351.894531 7.308594 352.070312 7.648438 352.671875 7.546875 C 354.847656 6.84375 356.996094 7.609375 360.734375 7.828125 C 374.308594 8.628906 388.132812 9.722656 402.046875 10.660156 C 401.949219 10.671875 401.859375 10.652344 401.78125 10.597656 C 401.699219 10.542969 401.644531 10.46875 401.617188 10.375 C 401.8125 10.421875 401.894531 10.574219 402.1875 10.519531 C 402.320312 10.003906 401.550781 10.398438 401.617188 9.953125 C 404.828125 9.953125 407.203125 10.734375 410.109375 10.375 C 403.621094 9.496094 394.425781 8.820312 387.765625 8.113281 C 387.933594 8.113281 388.164062 8.089844 388.1875 8.253906 C 384.777344 7.679688 378.609375 8.183594 374.75 6.980469 C 374.75 7.652344 373.699219 6.921875 372.886719 7.265625 C 372.886719 7.050781 372.9375 6.738281 372.746094 6.699219 C 372.726562 6.875 372.746094 7.085938 372.605469 7.121094 C 371.207031 7.4375 368.265625 6.890625 366.941406 6.414062 C 366.855469 6.726562 367.347656 6.878906 366.804688 6.835938 C 366.523438 6.550781 366.523438 6.707031 366.804688 6.414062 C 366.351562 6.570312 365.886719 6.664062 365.40625 6.699219 C 365.40625 6.511719 365.652344 6.566406 365.691406 6.414062 C 363.828125 6.933594 362.320312 6.414062 360.3125 6.273438 C 359.214844 6.65625 356.640625 5.835938 355.789062 6.132812 C 355.785156 5.976562 355.832031 5.832031 355.929688 5.707031 C 354.960938 6.027344 353.972656 6.121094 352.960938 5.992188 C 352.121094 5.816406 352.566406 5.828125 351.828125 5.851562 C 350.375 5.898438 348.953125 5.386719 347.722656 5.566406 C 347.648438 5.363281 348.277344 5.222656 347.867188 5.144531 C 347.867188 5.507812 347.335938 5.371094 347.160156 5.566406 C 341.589844 4.921875 336 4.558594 330.390625 4.480469 C 330.457031 4.203125 330.007812 3.753906 329.96875 4.058594 C 330.128906 4.058594 330.121094 4.28125 330.105469 4.480469 C 326.847656 3.738281 323.945312 4.433594 320.914062 3.914062 C 320.375 3.824219 320.5625 3.699219 320.34375 3.773438 C 319.585938 4.027344 318.898438 3.644531 318.082031 3.628906 C 315.863281 3.59375 313.40625 3.628906 311.859375 3.492188 C 311.785156 3.285156 312.410156 3.144531 312 3.066406 C 311.320312 3.570312 309.671875 3.566406 309.453125 3.066406 C 308.304688 3.800781 306.367188 3.117188 304.644531 3.058594 Z M 322.613281 2.914062 C 322.339844 2.554688 321.679688 2.730469 321.335938 2.488281 L 321.335938 2.914062 C 321.78125 2.757812 321.738281 2.824219 321.90625 3.195312 C 322.503906 3.015625 323.460938 3.328125 323.175781 2.773438 C 323.144531 2.992188 322.941406 2.773438 322.890625 2.632812 C 323.183594 2.792969 323.566406 2.410156 323.175781 2.351562 C 322.875 2.414062 322.648438 2.503906 322.613281 2.914062 Z M 320.207031 3.339844 C 320.433594 2.945312 320.839844 2.992188 321.199219 3.058594 C 321.03125 2.296875 320.132812 3.109375 319.800781 2.488281 C 319.726562 2.96875 320.023438 3.085938 320.207031 3.339844 Z M 196.550781 3.195312 C 196.550781 3.738281 197.734375 3.332031 197.828125 3.058594 C 197.394531 3.015625 196.96875 3.0625 196.550781 3.195312 Z M 140.394531 5.742188 C 140.808594 5.679688 142.277344 5.945312 141.789062 5.464844 C 141.605469 5.730469 140.742188 5.179688 140.394531 5.742188 Z M 366.890625 11 C 362.199219 10.402344 356.882812 10.648438 353.027344 9.867188 C 351.191406 10.109375 350.304688 9.746094 348.785156 9.722656 C 348.867188 9.722656 348.949219 9.722656 348.921875 9.585938 C 347.8125 9.652344 346.660156 9.722656 345.664062 9.300781 C 345.675781 9.394531 345.65625 9.484375 345.605469 9.5625 C 345.550781 9.644531 345.476562 9.699219 345.386719 9.722656 C 343.058594 9.257812 340.386719 9.5 337.601562 8.875 C 337.484375 9.605469 337.21875 8.5 337.035156 9.160156 C 333.375 8.695312 329.875 8.550781 326.285156 8.308594 C 325.671875 8.265625 325.011719 8.480469 324.421875 8.453125 C 323.835938 8.425781 323.273438 8.050781 322.722656 8.027344 C 319.792969 7.898438 316.765625 8.28125 313.808594 7.886719 C 313.195312 7.773438 312.574219 7.726562 311.949219 7.746094 C 310.121094 7.847656 308.78125 7.429688 307.140625 7.320312 C 307.140625 7.320312 307.070312 7.601562 306.855469 7.601562 C 301.703125 7.601562 290.847656 6.832031 283.933594 7.039062 C 282.832031 7.070312 281.582031 6.6875 280.539062 6.753906 C 273.089844 7.21875 263.246094 6.632812 255.921875 6.613281 C 255.523438 6.585938 255.648438 7.078125 255.078125 6.894531 C 254.609375 6.46875 252.285156 6.582031 251.960938 6.613281 C 250.890625 6.714844 248.828125 6.242188 248.425781 7.039062 C 249.5 7.136719 250.414062 6.59375 251.539062 7.175781 C 251.121094 7.007812 250.574219 7.269531 249.839844 7.175781 C 250.457031 8.109375 251.871094 7.230469 252.667969 7.175781 C 252.339844 6.96875 252.058594 7.222656 251.960938 7.039062 C 252.339844 6.890625 252.714844 6.890625 253.09375 7.039062 C 252.921875 7.039062 252.757812 7.078125 252.808594 7.320312 C 257.191406 6.972656 262.273438 7.320312 267.523438 7.320312 C 267.523438 7.484375 267.5 7.722656 267.664062 7.746094 C 267.980469 7.539062 267.488281 7.402344 267.808594 7.320312 C 271.117188 7.273438 274.710938 7.515625 276.71875 7.320312 C 276.664062 7.789062 278.253906 7.320312 278.839844 7.320312 C 279.886719 7.320312 280.84375 7.683594 282.238281 7.460938 C 282.410156 7.488281 282.324219 7.621094 282.238281 7.746094 C 282.703125 7.917969 282.347656 7.28125 282.800781 7.460938 C 284.5625 7.367188 285.871094 7.597656 287.046875 7.601562 C 287.722656 7.601562 288.769531 7.078125 289.308594 7.886719 C 288.699219 7.582031 289.097656 7.71875 288.886719 8.027344 C 283.832031 7.515625 280.167969 7.984375 276.292969 8.167969 C 276.453125 7.964844 276.449219 7.824219 276.15625 7.746094 C 276.277344 8.210938 275.9375 8.1875 275.730469 8.308594 C 275.707031 8.097656 275.78125 7.789062 275.585938 7.746094 C 275.371094 8.675781 274.484375 7.484375 274.601562 8.308594 C 273.226562 7.90625 271.484375 8.230469 270.636719 8.027344 C 270.746094 7.996094 270.917969 8.027344 270.917969 7.886719 C 270.453125 7.722656 270.578125 8.109375 270.355469 8.167969 C 267.695312 8.167969 265.289062 8.128906 263 8.027344 C 254.695312 7.660156 246.707031 8.691406 236.117188 7.886719 C 234.042969 8.453125 230.910156 8.171875 228.617188 8.167969 C 227.957031 8.167969 226.910156 8.410156 226.636719 8.308594 C 226.523438 8.265625 226.738281 7.878906 226.496094 7.886719 C 226.53125 7.886719 226.441406 8.285156 226.355469 8.308594 C 225.214844 8.621094 222.773438 8.203125 220.695312 8.308594 C 214.824219 8.621094 208.554688 8.503906 205.554688 9.015625 C 209.625 8.894531 213.003906 9.015625 216.875 8.875 C 219.730469 8.773438 224.296875 9.019531 226.214844 8.730469 C 228.910156 8.335938 231.890625 8.875 233.992188 8.875 C 235.0625 8.875 236.457031 8.695312 237.671875 8.730469 C 239.179688 8.785156 240.847656 8.59375 242.625 8.59375 C 245.445312 8.59375 248.925781 8.039062 251.824219 8.59375 C 252.449219 8.714844 252.195312 8.558594 252.808594 8.453125 C 253.566406 8.40625 254.320312 8.40625 255.078125 8.453125 C 259.609375 8.453125 267.292969 8.714844 271.769531 8.730469 C 273.046875 8.730469 273.324219 8.570312 274.316406 8.59375 C 275.53125 8.625 276.542969 8.59375 277.144531 8.875 C 285.824219 8.535156 295.132812 9.226562 304.871094 9.441406 C 307.363281 9.496094 311.648438 9.585938 314.777344 9.722656 C 317.195312 9.835938 320.023438 9.644531 321.992188 10.007812 C 322.246094 10.054688 322.574219 10.425781 322.839844 10.429688 C 323.304688 10.429688 323.398438 10.011719 323.832031 10.148438 C 323.945312 10.183594 323.742188 10.570312 323.972656 10.574219 C 323.972656 10.574219 324.003906 10.171875 324.117188 10.148438 C 324.464844 10.085938 324.53125 10.382812 325.101562 10.429688 C 325.425781 10.460938 326.035156 10.160156 326.5 10.148438 C 327.894531 10.121094 329.515625 10.515625 330.039062 10.855469 C 329.90625 10.300781 330.785156 10.753906 330.890625 10.429688 C 342.609375 11.542969 356.074219 11.707031 368.945312 13.121094 C 374.796875 12.726562 382.3125 14.238281 388.328125 14.109375 C 385.421875 13.699219 383.769531 13.828125 380.546875 13.402344 C 381.324219 13.476562 382.40625 13.246094 382.953125 13.546875 C 382.402344 13.101562 380.675781 13.078125 379.980469 13.261719 C 380.144531 13.285156 380.382812 13.238281 380.40625 13.402344 C 378.242188 13.136719 375.921875 13.242188 374.039062 12.699219 C 374.25 12.671875 374.558594 12.746094 374.605469 12.554688 C 373.910156 12.300781 374.140625 12.664062 373.613281 12.839844 C 372.289062 11.90625 369.679688 13.144531 367.667969 12.554688 C 367.5 12.503906 367.300781 12.152344 367.105469 12.128906 C 366.910156 12.105469 366.71875 12.410156 366.539062 12.414062 C 365.257812 12.414062 363.0625 11.984375 361.882812 11.992188 C 361.203125 12.191406 358.5 12.152344 358.066406 11.5625 C 356.667969 12.066406 353.957031 11.328125 352.265625 11.5625 C 352.28125 11.320312 352.1875 11.132812 351.980469 11 C 351.925781 11.242188 352.191406 11.363281 351.980469 11.421875 C 349.683594 11.492188 346.59375 10.804688 344.90625 11 C 343.769531 11.039062 342.640625 10.992188 341.511719 10.855469 C 339.726562 10.695312 336.296875 10.4375 334.996094 10.292969 C 333.691406 10.148438 331.410156 10.226562 330.1875 9.722656 C 328.511719 10.234375 326.929688 9.496094 324.527344 9.722656 C 324.363281 9.636719 324.152344 9.652344 323.957031 9.300781 C 323.957031 9.46875 323.984375 9.699219 323.816406 9.722656 C 319.734375 9.140625 315.621094 9.578125 311.371094 9.015625 C 311.835938 8.644531 313.65625 9.480469 314.339844 8.730469 C 311.828125 8.304688 309.507812 9.152344 307.546875 8.59375 C 307.316406 8.527344 307.609375 8.324219 307.40625 8.308594 C 307.371094 8.308594 307.214844 8.597656 306.980469 8.59375 C 306.132812 8.59375 305.15625 8.335938 304.433594 8.453125 C 304.132812 8.5 303.96875 8.828125 303.726562 8.875 C 303.484375 8.921875 302.917969 8.535156 302.597656 8.59375 C 302.488281 8.59375 302.636719 8.898438 302.3125 8.875 C 302.3125 8.875 302.476562 8.632812 302.3125 8.59375 C 302.148438 8.550781 301.046875 8.933594 300.757812 8.59375 C 301 8.625 301.105469 8.433594 300.757812 8.453125 C 300.757812 8.53125 300.644531 8.609375 300.617188 8.453125 C 300.453125 8.046875 300.453125 8.679688 300.617188 8.730469 C 299.800781 8.445312 297.445312 8.796875 295.960938 8.453125 C 295.921875 8.074219 296.511719 8.828125 296.386719 8.167969 C 295.136719 7.917969 291.878906 8.214844 289.308594 7.886719 C 295.046875 7.34375 304.871094 8.042969 310.394531 8.167969 C 312.621094 8.21875 314.289062 8.238281 316.191406 8.308594 C 317.816406 8.375 319.996094 8.359375 320.011719 8.875 C 320.011719 8.707031 319.988281 8.476562 320.15625 8.453125 C 320.816406 9.039062 323.378906 8.183594 324.679688 9.015625 C 328.113281 8.796875 332.59375 9.15625 335.714844 9.300781 C 336.441406 9.332031 338.613281 9.605469 338.402344 9.867188 C 339.070312 9.109375 340.164062 9.957031 340.808594 10.007812 C 340.730469 10.007812 340.996094 9.726562 341.234375 9.722656 C 343.03125 9.699219 344.824219 9.796875 346.609375 10.007812 C 347.660156 10.144531 349.078125 10.683594 349.867188 10.574219 C 349.964844 10.574219 349.835938 10.269531 350.152344 10.292969 C 352.054688 10.425781 354.0625 10.414062 356.09375 10.574219 C 356.882812 10.636719 357.679688 11.085938 358.5 11.140625 C 358.5 11.140625 358.5625 10.855469 358.78125 10.855469 C 359.6875 10.855469 361.273438 11.152344 362.175781 11 C 362.199219 11.144531 362.175781 11.433594 362.320312 11.421875 C 363.460938 11.367188 365.699219 11.191406 366.421875 11.140625 C 366.445312 11.859375 366.488281 11.296875 366.84375 11.28125 C 367.203125 11.269531 367.972656 11.535156 368.542969 11.5625 C 371.917969 11.738281 374.171875 11.679688 376.457031 11.847656 C 377.5625 11.929688 378.972656 12.238281 378.859375 12.414062 C 384.835938 12.234375 393.457031 13.777344 398.667969 13.402344 C 390.023438 12.589844 384.375 12.046875 375.042969 11.5625 C 375.207031 11.273438 374.820312 10.886719 374.757812 11.28125 C 373.929688 11.464844 369.480469 11.058594 367.121094 10.855469 C 367.410156 11.019531 367.792969 10.636719 367.402344 10.574219 C 367.320312 10.746094 366.980469 10.738281 366.890625 11 Z M 231.78125 7.601562 C 237.039062 7.601562 242.371094 7.304688 247.203125 7.746094 C 247.632812 7.746094 247.539062 7.234375 248.050781 7.320312 C 248.085938 7.476562 248.285156 7.660156 248.335938 7.460938 C 247.871094 7.242188 248.65625 6.632812 248.050781 6.613281 C 247.925781 7.613281 245.722656 7.289062 244.230469 6.894531 C 231.070312 7.457031 210.765625 6.820312 194.574219 8.167969 C 206.066406 7.9375 218.933594 7.597656 231.78125 7.582031 Z M 246.921875 6.753906 C 246.640625 6.753906 246.082031 6.417969 246.070312 7.039062 C 246.445312 7.015625 246.902344 7.097656 246.921875 6.734375 Z M 191.882812 7.742188 C 191.8125 8.242188 193.15625 8.0625 193.28125 7.878906 C 192.683594 7.863281 192.355469 7.492188 191.882812 7.742188 Z M 124.964844 8.714844 C 126.191406 9.554688 127.640625 9.035156 129.066406 8.996094 C 135.449219 8.839844 143.125 8.71875 148.597656 8.148438 C 148.808594 8.117188 148.597656 7.917969 148.453125 7.867188 C 140.148438 8.292969 132.140625 8.519531 124.964844 8.714844 Z M 175.335938 8.574219 C 178.410156 8.476562 180.511719 8.730469 182.691406 8.289062 C 180.230469 8.214844 177.78125 8.308594 175.335938 8.574219 Z M 185.519531 8.148438 L 183.6875 8.148438 C 183.988281 8.621094 185.28125 8.671875 185.519531 8.148438 Z M 172.929688 8.574219 C 172.5 8.664062 171.707031 8.390625 171.53125 8.714844 C 171.941406 8.625 172.734375 8.894531 172.929688 8.574219 Z M 121.308594 8.996094 C 121.195312 8.96875 121.027344 8.996094 121.023438 8.859375 C 121.191406 8.859375 121.425781 8.882812 121.449219 8.714844 L 119.609375 8.714844 C 119.539062 9.03125 120.40625 9.101562 119.753906 8.996094 C 119.765625 9.816406 121.109375 9.328125 121.308594 8.996094 Z M 183.980469 9.28125 C 184.683594 9.90625 185.402344 9.605469 185.839844 9.566406 C 188.714844 9.277344 193.535156 9.359375 195.457031 9.28125 C 198.804688 9.144531 201.949219 9.433594 205.503906 8.859375 C 199.628906 8.789062 191.199219 9.136719 183.960938 9.28125 Z M 113.808594 9.28125 C 114.921875 8.847656 115.824219 9.542969 116.5 8.996094 C 116.027344 8.972656 113.777344 8.867188 113.789062 9.28125 Z M 118.761719 9.140625 C 118.789062 9.03125 118.878906 8.972656 119.046875 8.996094 C 120.203125 8.90625 117.398438 8.554688 117.648438 9.28125 C 118.117188 9.214844 118.296875 8.917969 118.742188 9.136719 Z M 149.886719 9.28125 C 150.988281 9.011719 151.71875 9.480469 152.714844 8.996094 C 152.109375 8.988281 150.355469 8.753906 149.867188 9.28125 Z M 111.828125 9.28125 C 112.296875 9.136719 113.367188 9.59375 113.386719 8.996094 C 112.71875 9.253906 112.261719 8.828125 111.8125 9.28125 Z M 48.289062 11 C 56 10.464844 63.8125 9.910156 71.066406 9.300781 C 63.683594 9.742188 54.105469 9.804688 48.289062 11 Z M 102.613281 9.867188 C 106.429688 9.515625 107.792969 9.726562 111.667969 9.441406 C 108.953125 8.980469 104.820312 9.324219 102.613281 9.847656 Z M 175.757812 9.867188 C 177.960938 9.542969 181.960938 10.003906 183.535156 9.441406 C 180.058594 9.550781 178.464844 9.238281 175.773438 9.847656 Z M 87.050781 10.558594 C 93.378906 10.285156 97.207031 10.355469 102.472656 9.566406 C 97.4375 10.039062 93.089844 9.746094 87.050781 10.558594 Z M 76.296875 10.273438 C 78.550781 10.21875 80.78125 10.027344 83.375 9.988281 C 81.59375 9.601562 77.625 9.90625 76.296875 10.273438 Z M 334.070312 12.113281 C 334.15625 12.113281 334.238281 12.113281 334.214844 12.25 C 327.902344 11.785156 321.789062 11.863281 314.96875 11.121094 C 314.546875 11.457031 313.1875 11.304688 312.136719 11.265625 C 303.476562 10.886719 292.765625 10.535156 283.84375 10.273438 C 283.925781 10.273438 284.007812 10.382812 283.84375 10.414062 C 281.265625 10.414062 279.691406 10.347656 277.476562 10.414062 C 277.488281 10.316406 277.46875 10.230469 277.417969 10.148438 C 277.363281 10.066406 277.289062 10.015625 277.199219 9.988281 C 277.199219 10.15625 277.199219 10.390625 277.054688 10.414062 C 271 10.0625 258.167969 10.484375 251.449219 10.128906 C 251.449219 10.351562 251.410156 10.402344 251.171875 10.414062 C 245.625 10.660156 239.84375 9.871094 235.179688 10.835938 C 236.65625 10.789062 239.109375 11.140625 239.835938 11.121094 C 243.378906 11.042969 247.144531 10.558594 249.3125 11.121094 C 250.8125 10.957031 253.355469 10.484375 255.542969 10.835938 C 255.605469 10.835938 255.421875 11.917969 255.683594 11.121094 C 255.71875 11.007812 255.683594 10.84375 255.824219 10.835938 C 259.132812 10.65625 262.433594 10.753906 265.726562 11.121094 C 266.960938 10.621094 270.074219 10.753906 269.972656 11.265625 C 269.972656 10.664062 270.289062 11.167969 270.394531 11.265625 C 270.777344 10.992188 271.199219 10.855469 271.667969 10.855469 C 272.136719 10.855469 272.5625 10.992188 272.941406 11.265625 C 272.941406 11.097656 272.941406 10.859375 273.082031 10.835938 C 273.082031 11.171875 273.75 10.800781 274.214844 10.835938 C 274.425781 11.050781 274.261719 11.644531 274.78125 11.542969 C 274.917969 11.28125 274.359375 11.078125 274.78125 10.980469 C 274.921875 11.445312 275.0625 10.824219 275.207031 10.835938 C 275.507812 11.480469 276.882812 10.476562 276.335938 11.121094 C 277.265625 10.539062 278.03125 11.21875 278.882812 11.121094 C 278.742188 11.121094 278.707031 10.875 278.882812 10.835938 C 280.082031 11.238281 282.015625 10.722656 284.257812 11.121094 C 284.101562 11.152344 284.039062 11.277344 283.976562 11.402344 C 285.484375 10.574219 288.019531 11.148438 288.929688 11.121094 C 288.929688 11.277344 288.722656 11.34375 288.929688 11.402344 C 289.394531 10.445312 290.402344 11.714844 290.484375 10.980469 C 290.621094 11.125 290.765625 11.265625 290.910156 11.402344 C 291.011719 11.292969 291.128906 11.207031 291.261719 11.148438 C 291.398438 11.085938 291.539062 11.054688 291.6875 11.054688 C 291.835938 11.054688 291.980469 11.085938 292.113281 11.148438 C 292.25 11.207031 292.367188 11.292969 292.464844 11.402344 C 292.433594 10.9375 293.332031 11.203125 294.019531 11.121094 C 294.066406 11.28125 294.191406 12.050781 294.304688 11.6875 C 294.441406 11.421875 293.882812 11.222656 294.304688 11.121094 C 294.292969 11.214844 294.316406 11.304688 294.367188 11.382812 C 294.421875 11.464844 294.496094 11.519531 294.589844 11.542969 C 294.644531 11.300781 294.378906 11.179688 294.589844 11.121094 C 295.054688 11 294.882812 11.488281 295.152344 11.542969 C 295.617188 10.65625 297.304688 11.628906 298.265625 11.265625 C 298.292969 11.46875 298.246094 11.65625 298.125 11.828125 C 298.484375 11.585938 298.621094 11.992188 298.835938 11.6875 C 298.667969 11.664062 298.679688 11.464844 298.691406 11.265625 C 299.429688 11.359375 299.679688 11.578125 300.390625 11.265625 C 300.074219 12.265625 300.453125 11.054688 300.953125 11.6875 C 301.238281 10.792969 302.4375 12.121094 302.226562 11.402344 L 302.796875 11.402344 C 302.957031 11.773438 302.359375 12.015625 302.933594 11.972656 C 302.933594 11.757812 302.882812 11.445312 303.074219 11.402344 C 304.234375 11.402344 304.6875 11.796875 305.480469 11.542969 C 305.191406 12.050781 306.136719 12.246094 305.765625 11.972656 C 305.597656 11.945312 305.613281 11.742188 305.621094 11.542969 C 306.628906 11.167969 306.226562 12.574219 306.472656 11.828125 C 306.636719 11.320312 307.40625 11.363281 307.746094 11.972656 C 307.878906 11.507812 307.957031 11.945312 308.027344 11.542969 C 308.414062 11.710938 308.382812 11.613281 308.875 11.542969 C 308.953125 11.753906 308.710938 12.28125 309.019531 12.25 C 309.410156 12.042969 308.773438 11.675781 309.160156 11.542969 C 309.3125 11.820312 309.972656 11.582031 310.011719 11.972656 C 310.519531 11.445312 311.550781 11.871094 312.273438 11.828125 C 312.242188 12 312.269531 12.164062 312.347656 12.324219 C 312.425781 12.480469 312.542969 12.597656 312.695312 12.679688 C 312.574219 12.238281 312.28125 12.070312 312.695312 11.6875 C 312.613281 12.257812 313.117188 11.617188 313.542969 11.828125 C 313.410156 12.894531 313.609375 12.429688 313.828125 11.828125 C 314.242188 11.789062 314.292969 12.09375 314.535156 12.25 C 314.644531 11.664062 314.878906 12.089844 315.242188 11.828125 C 315.285156 12.199219 314.695312 11.941406 314.820312 12.394531 C 315.234375 11.996094 315.972656 11.777344 316.214844 12.25 C 316.285156 11.539062 316.617188 12.460938 316.925781 12.394531 C 316.835938 11.464844 318.117188 12.296875 318.902344 12.113281 C 318.4375 12.480469 319.769531 12.445312 319.046875 12.113281 C 319.976562 12.210938 320.675781 11.886719 320.886719 12.535156 C 320.839844 11.660156 321.417969 12.390625 321.59375 12.535156 C 321.46875 12.152344 322.941406 12.070312 323.148438 12.535156 C 323.121094 11.820312 324.246094 13 323.570312 12.25 C 324.226562 12.105469 324.796875 12.511719 325.125 12.25 C 325.089844 12.578125 325.164062 12.785156 325.410156 12.820312 C 326.214844 11.886719 326.339844 12.957031 327.273438 12.394531 C 327.273438 12.554688 327.066406 12.613281 327.273438 12.679688 C 328.144531 12.28125 328.667969 12.433594 329.679688 12.820312 C 329.761719 12.128906 330.839844 13.246094 330.671875 12.535156 C 330.855469 12.535156 330.800781 12.78125 330.953125 12.820312 C 331.585938 12.519531 333.316406 12.542969 334.488281 12.820312 C 334.347656 12.820312 334.3125 13.066406 334.488281 13.101562 C 335.882812 12.457031 337.625 13.378906 340.148438 13.101562 C 340.441406 13.234375 340.269531 13.828125 340.714844 13.8125 C 340.714844 13.621094 340.964844 13.679688 340.996094 13.527344 C 340.667969 13.242188 340.84375 13.5625 340.570312 13.667969 C 340.578125 13.507812 340.53125 13.367188 340.433594 13.242188 C 341.652344 13.289062 342.804688 13.023438 344.109375 13.667969 C 344.988281 13.339844 347.214844 13.441406 347.933594 13.949219 C 348.359375 13.738281 348.8125 13.640625 349.292969 13.667969 C 349.773438 13.691406 350.214844 13.832031 350.617188 14.089844 C 350.476562 13.582031 351.363281 13.816406 350.902344 14.089844 C 351.167969 13.851562 355.269531 13.824219 355.710938 14.519531 C 356.015625 13.835938 358.039062 14.273438 358.402344 14.519531 C 358.402344 14.910156 358.132812 14.984375 358.539062 14.796875 C 358.796875 15.261719 358.230469 14.007812 358.964844 14.234375 C 358.921875 14.316406 358.613281 14.777344 358.964844 14.796875 L 358.964844 14.375 C 360.910156 14.414062 362.949219 14.734375 363.621094 14.65625 C 364.683594 14.542969 365.945312 14.894531 367.441406 14.796875 C 367.339844 15.03125 367.71875 15.417969 367.71875 15.082031 C 368.1875 14.898438 372.332031 14.917969 373.097656 15.367188 C 377.527344 15.277344 381.214844 15.886719 385.40625 16.074219 C 385.464844 16.238281 385.558594 16.378906 385.6875 16.496094 C 385.613281 15.765625 387.300781 16.207031 387.8125 16.496094 C 387.8125 15.90625 388.785156 16.417969 388.804688 16.355469 C 388.621094 16.546875 388.371094 16.636719 388.804688 16.78125 C 388.789062 16.683594 388.8125 16.597656 388.867188 16.515625 C 388.917969 16.433594 388.992188 16.382812 389.085938 16.355469 C 391.378906 16.617188 393.46875 16.660156 396.441406 17.066406 C 396.019531 16.320312 395.847656 16.800781 395.046875 16.636719 C 394.582031 16.542969 394.171875 16.171875 393.648438 16.074219 C 392.019531 15.84375 389.996094 15.949219 388.273438 15.789062 C 387.9375 15.789062 387.609375 15.835938 387.285156 15.929688 C 385.929688 15.6875 383.800781 15.566406 382.894531 15.082031 C 382.667969 15.714844 381.253906 15.273438 380.917969 15.082031 C 381.019531 15.648438 379.519531 15.34375 380.351562 15.082031 C 374.128906 14.945312 366.917969 14.242188 359.695312 13.8125 C 358.582031 13.742188 357.394531 13.8125 357.007812 13.8125 C 355.882812 13.8125 352.707031 13.683594 352.195312 13.382812 C 352.265625 13.425781 352.511719 13.320312 352.480469 13.242188 C 346.324219 13.183594 340.1875 12.808594 334.070312 12.113281 Z M 73.46875 10.558594 C 74.34375 10.089844 75.796875 10.890625 76.15625 10.128906 C 75.496094 10.308594 74.101562 10 73.46875 10.558594 Z M 71.914062 10.558594 C 73.726562 10.527344 71.445312 10.253906 70.359375 10.414062 C 69.488281 10.539062 68.496094 10.636719 67.667969 10.835938 C 69.089844 10.863281 70.503906 10.769531 71.914062 10.558594 Z M 405.800781 11 C 406.503906 11.105469 406.59375 10.949219 407.195312 11.140625 C 407.191406 10.980469 407.238281 10.839844 407.335938 10.714844 C 407.175781 10.71875 407.035156 10.671875 406.910156 10.574219 C 406.820312 11.042969 406.445312 10.511719 405.921875 10.574219 C 405.929688 10.730469 405.890625 10.871094 405.800781 11 Z M 61.441406 11.140625 C 60.363281 11.214844 59 11.027344 58.050781 11.707031 C 60.1875 11.335938 63.113281 11.28125 65.542969 11.140625 C 66.191406 11.101562 67.25 11.109375 67.40625 10.714844 C 65.664062 11 63.320312 11 61.441406 11.121094 Z M 413.015625 11.5625 C 413.796875 11.675781 415.90625 11.433594 416.976562 12.269531 C 416.902344 11.339844 418.371094 12.585938 418.675781 11.847656 C 416.589844 11.800781 414.851562 10.863281 413.015625 11.542969 Z M 51.398438 12.113281 C 53.554688 12.464844 55.675781 12.324219 57.765625 11.6875 C 55.632812 12.042969 52.878906 11.828125 51.398438 12.113281 Z M 420.371094 12.535156 C 420.691406 12.433594 421.472656 12.792969 421.359375 12.25 C 420.832031 12.464844 420.550781 12.101562 420.371094 12.535156 Z M 378.070312 12.820312 C 377.796875 12.84375 377.097656 12.5 376.9375 12.957031 C 377.375 12.582031 377.804688 13.480469 378.070312 12.820312 Z M 432.960938 13.382812 C 430.925781 13.261719 428.828125 12.917969 426.878906 12.957031 C 428.652344 13.261719 430.964844 13.792969 432.960938 13.382812 Z M 435.222656 13.8125 C 435.023438 13.257812 433.902344 13.625 433.363281 13.382812 C 433.730469 13.976562 434.855469 13.570312 435.222656 13.792969 Z M 401.414062 13.8125 C 401.253906 13.597656 399.699219 13.414062 399.148438 13.667969 C 399.898438 13.773438 400.65625 13.816406 401.414062 13.792969 Z M 401.691406 13.949219 C 402.425781 13.894531 402.910156 14.328125 403.675781 13.949219 C 402.976562 13.867188 401.949219 13.59375 401.691406 13.949219 Z M 399.007812 14.941406 C 395.53125 14.636719 392.226562 14.308594 389.230469 14.089844 C 392.460938 14.710938 395.71875 14.996094 399.007812 14.941406 Z M 405.523438 14.234375 C 405.242188 14.175781 404.476562 13.878906 404.253906 14.234375 C 404.71875 14.097656 405.207031 14.667969 405.515625 14.257812 Z M 401.421875 15.226562 C 401.054688 15.109375 400.027344 14.90625 399.722656 15.226562 C 400.3125 15.226562 402.535156 15.480469 401.414062 15.226562 Z M 334.070312 15.652344 C 334.492188 15.617188 334.929688 16.050781 335.058594 15.511719 C 334.789062 15.5 334.246094 15.1875 334.070312 15.652344 Z M 336.898438 15.652344 C 336.378906 15.5625 335.824219 15.5 335.34375 15.371094 C 335.128906 16.121094 336.683594 15.804688 336.898438 15.652344 Z M 154.960938 16.355469 C 156.355469 16.511719 158.488281 16.265625 160.476562 16.210938 L 161.339844 16.210938 C 161.808594 16.050781 160.960938 16.054688 160.773438 16.074219 C 158.292969 16.171875 155.742188 15.882812 154.550781 16.355469 Z M 349.914062 16.921875 C 350.332031 16.371094 351.242188 17.296875 351.46875 16.78125 C 351.503906 16.886719 351.46875 17.058594 351.613281 17.066406 L 351.613281 16.78125 C 351.328125 16.472656 349.648438 16.25 349.914062 16.921875 Z M 354.300781 17.066406 C 354.964844 17.53125 355.542969 16.992188 355.574219 17.488281 C 356.148438 17.25 356.183594 17.351562 356.566406 16.921875 C 355.761719 17.226562 354.695312 16.585938 354.300781 17.050781 Z M 362.929688 17.628906 C 362.761719 17.84375 362.324219 17.699219 362.082031 17.34375 C 362.085938 17.503906 362.035156 17.644531 361.9375 17.773438 C 362.246094 17.84375 363.136719 18.042969 362.929688 17.628906 Z M 406.082031 23.566406 C 404.6875 23.390625 402.972656 23.066406 401.128906 23.285156 C 402.675781 23.234375 404.804688 23.824219 406.082031 23.566406 Z M 406.082031 23.566406 " fill-opacity="1" fill-rule="evenodd"/></g><path fill="#5271ff" d="M 315.675781 2.066406 C 315.566406 2.09375 315.535156 2.210938 315.390625 2.207031 C 315.484375 2.351562 315.71875 2.355469 315.675781 2.632812 C 315.398438 2.632812 315.5 2.246094 315.113281 2.351562 C 315.207031 2.226562 315.253906 2.082031 315.253906 1.925781 L 315.820312 1.925781 C 315.941406 2.078125 316.496094 2.023438 317.089844 2.351562 C 316.96875 2.558594 316.625 2.554688 316.382812 2.632812 C 316.75 2.121094 315.71875 2.976562 315.675781 2.066406 Z M 315.675781 2.066406 " fill-opacity="1" fill-rule="evenodd"/><path fill="#5271ff" d="M 281.582031 1.222656 C 281.292969 1.6875 280.148438 1.066406 280.027344 1.363281 C 279.917969 1.003906 281.253906 1.144531 281.582031 1.222656 Z M 281.582031 1.222656 " fill-opacity="1" fill-rule="evenodd"/><path fill="#5271ff" d="M 285.261719 1.640625 C 285.046875 1.519531 285.296875 1.429688 285.121094 1.074219 C 285.246094 1.171875 285.386719 1.222656 285.542969 1.21875 C 285.667969 1.121094 285.808594 1.074219 285.96875 1.074219 C 285.820312 1.6875 285.40625 1.175781 285.261719 1.640625 Z M 285.261719 1.640625 " fill-opacity="1" fill-rule="evenodd"/><path fill="#5271ff" d="M 299.132812 1.359375 C 299.34375 1.417969 299.082031 1.539062 299.132812 1.78125 C 299.476562 1.84375 299.445312 1.527344 299.839844 1.640625 C 299.703125 1.929688 299.300781 1.949219 298.851562 1.925781 C 299.011719 1.722656 299.003906 1.582031 298.707031 1.503906 C 298.71875 1 299.167969 1.800781 299.132812 1.359375 Z M 299.132812 1.359375 " fill-opacity="1" fill-rule="evenodd"/><path fill="#5271ff" d="M 301.105469 1.503906 C 300.886719 1.660156 300.8125 1.96875 300.398438 1.925781 C 300.539062 1.734375 300.78125 1.648438 300.820312 1.359375 C 300.917969 1.347656 301.007812 1.367188 301.085938 1.421875 C 301.167969 1.476562 301.222656 1.546875 301.246094 1.640625 C 301.65625 1.800781 301.03125 1.796875 301.105469 1.503906 Z M 301.105469 1.503906 " fill-opacity="1" fill-rule="evenodd"/><path fill="#5271ff" d="M 310.445312 1.640625 C 310.992188 1.769531 309.980469 2.164062 310.445312 2.207031 C 310.382812 2.671875 309.667969 1.996094 309.738281 2.351562 C 309.214844 1.914062 310.648438 2.238281 310.445312 1.640625 Z M 310.445312 1.640625 " fill-opacity="1" fill-rule="evenodd"/><path fill="#5271ff" d="M 312.136719 1.78125 L 312.566406 1.78125 C 312.566406 2.003906 312.496094 2.320312 312.707031 2.351562 C 312.367188 2.554688 312.328125 2.15625 312.136719 1.78125 Z M 312.136719 1.78125 " fill-opacity="1" fill-rule="evenodd"/><path fill="#5271ff" d="M 312.847656 2.066406 C 312.847656 2.207031 313.023438 2.179688 313.128906 2.207031 C 313.503906 2.484375 312.371094 2.355469 312.707031 1.78125 C 313.308594 1.777344 313.875 1.917969 314.40625 2.207031 C 314.8125 2.441406 313.679688 2.320312 313.414062 2.351562 C 313.445312 2.195312 313.695312 2.253906 313.699219 2.066406 C 313.511719 1.929688 313.234375 2.003906 312.847656 2.066406 Z M 312.847656 2.066406 " fill-opacity="1" fill-rule="evenodd"/><path fill="#5271ff" d="M 333.222656 6.027344 C 333.609375 6.1875 332.289062 5.925781 331.824219 6.027344 C 331.519531 5.757812 332.859375 5.9375 333.222656 5.886719 Z M 333.222656 6.027344 " fill-opacity="1" fill-rule="evenodd"/><path fill="#5271ff" d="M 226.691406 3.621094 C 226.035156 3.476562 227.6875 3.480469 228.382812 3.480469 L 230.933594 3.480469 C 229.523438 3.671875 228.109375 3.71875 226.691406 3.621094 Z M 226.691406 3.621094 " fill-opacity="1" fill-rule="evenodd"/><path fill="#5271ff" d="M 290.492188 8.289062 C 290.359375 8.519531 290.117188 8.617188 289.929688 8.433594 L 288.652344 8.433594 C 288.1875 8.542969 287.582031 8.261719 288.375 8.289062 C 289.199219 8.207031 290.03125 8.429688 290.492188 8.289062 Z M 290.492188 8.289062 " fill-opacity="1" fill-rule="evenodd"/><path fill="#5271ff" d="M 281.867188 13.792969 C 282 13.792969 281.972656 13.964844 282.007812 14.070312 C 282.472656 14.25 282.113281 13.605469 282.574219 13.792969 L 282.574219 14.355469 C 282.375 14.164062 281.765625 14.332031 281.867188 13.792969 Z M 281.867188 13.792969 " fill-opacity="1" fill-rule="evenodd"/><path fill="#5271ff" d="M 285.683594 13.949219 C 285.570312 14.65625 283.910156 14.230469 285.683594 13.949219 Z M 285.683594 13.949219 " fill-opacity="1" fill-rule="evenodd"/><path fill="#5271ff" d="M 305.351562 14.375 C 305.050781 15.066406 303.390625 14.65625 302.945312 14.796875 C 302.824219 14.257812 304.378906 14.777344 305.351562 14.375 Z M 305.351562 14.375 " fill-opacity="1" fill-rule="evenodd"/><g clip-path="url(#062470ae7b)"><path fill="#5271ff" d="M 439.46875 14.65625 C 439.933594 15.03125 441.480469 14.945312 442.582031 15.082031 C 442.429688 15.15625 439.714844 15.414062 439.46875 14.65625 Z M 439.46875 14.65625 " fill-opacity="1" fill-rule="evenodd"/></g><path fill="#5271ff" d="M 224 16.636719 C 225.460938 16.171875 229.0625 16.339844 231.5 16.355469 C 231.78125 16.355469 234.292969 16.328125 232.773438 16.496094 L 231.214844 16.496094 C 229.304688 16.75 226.683594 16.550781 224 16.636719 Z M 224 16.636719 " fill-opacity="1" fill-rule="evenodd"/><path fill="#5271ff" d="M 329.96875 16.636719 C 330.433594 16.035156 331.019531 16.734375 331.363281 16.496094 C 331.765625 17.050781 330.527344 16.449219 329.96875 16.636719 Z M 329.96875 16.636719 " fill-opacity="1" fill-rule="evenodd"/><path fill="#5271ff" d="M 145.34375 16.636719 C 145.691406 16.636719 145.78125 16.859375 146.046875 16.921875 C 146.023438 17.082031 145.90625 17 145.90625 16.921875 C 145.441406 16.921875 145.203125 17.164062 144.632812 17.066406 C 144.890625 16.058594 145.199219 17.339844 145.34375 16.636719 Z M 145.34375 16.636719 " fill-opacity="1" fill-rule="evenodd"/><path fill="#5271ff" d="M 335.058594 16.921875 C 335.734375 16.558594 337.097656 16.921875 337.890625 16.921875 C 336.945312 17.109375 336.003906 17.109375 335.058594 16.921875 Z M 335.058594 16.921875 " fill-opacity="1" fill-rule="evenodd"/><path fill="#5271ff" d="M 341.707031 17.203125 C 341.707031 17.058594 343.105469 17.203125 342.558594 17.628906 C 342.421875 17.628906 342.449219 17.457031 342.414062 17.34375 C 342.246094 17.46875 342.058594 17.515625 341.851562 17.488281 C 341.875 17.324219 341.820312 17.238281 341.707031 17.203125 Z M 341.707031 17.203125 " fill-opacity="1" fill-rule="evenodd"/><path fill="#5271ff" d="M 153.828125 17.910156 C 153.921875 18.027344 151.5 18.207031 152.835938 17.910156 C 153.167969 17.78125 153.496094 17.78125 153.828125 17.910156 Z M 153.828125 17.910156 " fill-opacity="1" fill-rule="evenodd"/><path fill="#5271ff" d="M 95.238281 19.1875 C 95.402344 19.1875 95.492188 19.15625 95.523438 19.042969 L 97.785156 19.042969 C 96.945312 19.226562 96.097656 19.277344 95.238281 19.1875 Z M 95.238281 19.1875 " fill-opacity="1" fill-rule="evenodd"/><path fill="#5271ff" d="M 47.15625 19.609375 C 47.324219 19.410156 47.207031 19.609375 47.15625 19.75 C 46.734375 19.695312 45.328125 19.890625 45.597656 19.609375 C 46.117188 19.554688 46.636719 19.554688 47.15625 19.609375 Z M 47.15625 19.609375 " fill-opacity="1" fill-rule="evenodd"/><path fill="#5271ff" d="M 48.851562 19.75 C 48.339844 19.921875 47.734375 19.464844 47.582031 19.75 C 47.058594 19.480469 48.96875 19.167969 48.851562 19.75 Z M 48.851562 19.75 " fill-opacity="1" fill-rule="evenodd"/><path fill="#5271ff" d="M 255.265625 14.089844 C 257.558594 13.160156 260.734375 13.96875 263.179688 13.667969 C 262.160156 14.773438 258.421875 13.835938 257.238281 13.949219 C 256.585938 14.085938 255.929688 14.132812 255.265625 14.089844 Z M 255.265625 14.089844 " fill-opacity="1" fill-rule="evenodd"/><path fill="#5271ff" d="M 299.691406 14.257812 C 300.390625 14.546875 301.664062 13.792969 301.953125 14.679688 C 301.78125 14.523438 301.664062 14.554688 301.667969 14.820312 C 301.507812 14.796875 301.554688 14.566406 301.53125 14.398438 C 301.222656 14.375 301.0625 14.515625 301.105469 14.820312 C 300.105469 14.574219 300.058594 14.820312 299.242188 14.679688 C 299.210938 14.316406 299.910156 14.722656 299.691406 14.257812 Z M 299.691406 14.257812 " fill-opacity="1" fill-rule="evenodd"/><path fill="#5271ff" d="M 349.628906 17.628906 C 350.148438 17.578125 349.523438 18.199219 350.339844 18.050781 C 350.339844 17.890625 350.082031 17.933594 349.914062 17.910156 C 350.136719 17.277344 350.679688 17.988281 350.761719 18.335938 C 350.195312 17.90625 349.109375 18.464844 348.921875 17.910156 C 348.578125 18.269531 346.636719 18.121094 346.238281 17.628906 C 346.097656 17.871094 345.847656 17.992188 345.390625 17.910156 C 345.34375 17.738281 345.796875 17.421875 345.8125 17.773438 C 346.128906 17.691406 345.640625 17.550781 345.953125 17.34375 C 346.25 17.835938 346.824219 17.164062 346.945312 17.773438 C 347.699219 17.050781 349.445312 18.09375 349.628906 17.628906 Z M 349.628906 17.628906 " fill-opacity="1" fill-rule="evenodd"/></svg>