<svg xmlns="http://www.w3.org/2000/svg" xmlns:xlink="http://www.w3.org/1999/xlink" width="600" zoomAndPan="magnify" viewBox="0 0 450 112.499997" height="150" preserveAspectRatio="xMidYMid meet" version="1.0"><defs><g/><clipPath id="36e848a7da"><path d="M 153.996094 72 L 293.625 72 L 293.625 112.003906 L 153.996094 112.003906 Z M 153.996094 72 " clip-rule="nonzero"/></clipPath></defs><path fill="#ffffff" d="M 229.757812 72.773438 L 229.757812 -7.496094 C 229.757812 -9.121094 229.128906 -10.679688 227.964844 -11.839844 C 226.804688 -12.96875 225.246094 -13.632812 223.625 -13.632812 C 222 -13.632812 220.441406 -12.96875 219.28125 -11.839844 C 218.117188 -10.679688 217.488281 -9.121094 217.488281 -7.496094 L 217.488281 72.773438 C 217.488281 72.773438 205.785156 61.070312 199.253906 54.539062 C 198.09375 53.378906 196.535156 52.746094 194.910156 52.746094 C 193.285156 52.746094 191.726562 53.378906 190.566406 54.539062 C 188.179688 56.925781 188.179688 60.804688 190.566406 63.191406 L 219.511719 92.136719 C 220.605469 93.230469 222.066406 93.828125 223.625 93.828125 C 225.179688 93.828125 226.640625 93.230469 227.734375 92.136719 L 256.679688 63.191406 C 259.066406 60.804688 259.066406 56.925781 256.679688 54.539062 C 255.519531 53.378906 253.960938 52.746094 252.335938 52.746094 C 250.710938 52.746094 249.152344 53.378906 247.992188 54.539062 C 241.429688 61.070312 229.757812 72.773438 229.757812 72.773438 Z M 229.757812 72.773438 " fill-opacity="1" fill-rule="evenodd"/><g clip-path="url(#36e848a7da)"><path fill="#ffffff" d="M 153.996094 114.019531 C 153.996094 117.105469 155.222656 120.054688 157.410156 122.210938 C 159.597656 124.398438 162.550781 125.625 165.601562 125.625 L 281.644531 125.625 C 284.730469 125.625 287.679688 124.398438 289.835938 122.210938 C 292.023438 120.023438 293.25 117.070312 293.25 114.019531 L 293.25 78.90625 C 293.25 75.527344 290.5 72.773438 287.117188 72.773438 C 285.492188 72.773438 283.933594 73.4375 282.773438 74.566406 C 281.613281 75.726562 280.984375 77.285156 280.984375 78.90625 L 280.984375 107.589844 C 280.984375 110.804688 278.398438 113.390625 275.179688 113.390625 L 172.066406 113.390625 C 168.847656 113.390625 166.261719 110.804688 166.261719 107.589844 L 166.261719 78.90625 C 166.261719 77.285156 165.601562 75.726562 164.472656 74.566406 C 163.3125 73.402344 161.753906 72.773438 160.128906 72.773438 C 156.746094 72.773438 153.996094 75.527344 153.996094 78.90625 Z M 153.996094 114.019531 " fill-opacity="1" fill-rule="evenodd"/></g><path fill="#000000" d="M 438.78125 44.617188 C 433.378906 44.617188 429 40.320312 429 35.019531 C 429 29.71875 433.378906 25.417969 438.78125 25.417969 C 444.183594 25.417969 448.566406 29.71875 448.566406 35.019531 C 448.566406 40.320312 444.183594 44.617188 438.78125 44.617188 Z M 438.78125 42.875 C 443.203125 42.875 446.789062 39.355469 446.789062 35.019531 C 446.789062 30.679688 443.203125 27.164062 438.78125 27.164062 C 434.363281 27.164062 430.777344 30.679688 430.777344 35.019531 C 430.777344 39.355469 434.363281 42.875 438.78125 42.875 Z M 440.898438 33.5 C 440.839844 33.257812 440.75 33.035156 440.640625 32.835938 C 440.527344 32.636719 440.386719 32.457031 440.210938 32.308594 C 440.039062 32.164062 439.832031 32.050781 439.597656 31.96875 C 439.367188 31.886719 439.09375 31.84375 438.78125 31.84375 C 438.332031 31.84375 437.945312 31.929688 437.613281 32.113281 C 437.285156 32.289062 437.015625 32.53125 436.808594 32.832031 C 436.605469 33.132812 436.453125 33.46875 436.355469 33.851562 C 436.253906 34.230469 436.203125 34.621094 436.203125 35.019531 C 436.203125 35.414062 436.253906 35.804688 436.355469 36.1875 C 436.453125 36.566406 436.605469 36.90625 436.808594 37.203125 C 437.015625 37.503906 437.285156 37.746094 437.613281 37.921875 C 437.945312 38.105469 438.332031 38.191406 438.78125 38.191406 C 439.117188 38.191406 439.414062 38.136719 439.664062 38.023438 C 439.917969 37.910156 440.136719 37.753906 440.320312 37.554688 C 440.5 37.359375 440.644531 37.125 440.746094 36.863281 C 440.847656 36.59375 440.917969 36.3125 440.949219 36.007812 L 442.402344 36.007812 C 442.367188 36.507812 442.257812 36.964844 442.070312 37.375 C 441.886719 37.785156 441.636719 38.140625 441.316406 38.441406 C 441 38.742188 440.625 38.972656 440.199219 39.136719 C 439.769531 39.300781 439.300781 39.382812 438.78125 39.382812 C 438.152344 39.382812 437.582031 39.269531 437.078125 39.035156 C 436.574219 38.808594 436.144531 38.496094 435.800781 38.101562 C 435.453125 37.699219 435.183594 37.242188 434.996094 36.707031 C 434.8125 36.183594 434.71875 35.617188 434.71875 35.019531 C 434.71875 34.425781 434.8125 33.867188 434.996094 33.335938 C 435.183594 32.808594 435.453125 32.34375 435.800781 31.949219 C 436.144531 31.554688 436.574219 31.234375 437.078125 31.003906 C 437.582031 30.773438 438.152344 30.652344 438.78125 30.652344 C 439.257812 30.652344 439.707031 30.71875 440.125 30.84375 C 440.546875 30.976562 440.917969 31.164062 441.238281 31.410156 C 441.5625 31.648438 441.820312 31.949219 442.019531 32.300781 C 442.214844 32.648438 442.339844 33.050781 442.386719 33.5 Z M 440.898438 33.5 " fill-opacity="1" fill-rule="nonzero"/><g fill="#5271ff" fill-opacity="1"><g transform="translate(165.208839, 71.670234)"><g><path d="M 3.09375 -45.59375 L 31.5625 -45.59375 L 31.5625 -36.71875 L 12.859375 -36.71875 L 12.859375 -28.484375 L 29.3125 -28.484375 L 29.3125 -19.609375 L 12.859375 -19.609375 L 12.859375 -8.8125 L 31.5625 -8.8125 L 31.5625 0 L 3.09375 0 Z M 3.09375 -45.59375 "/></g></g></g><g fill="#5271ff" fill-opacity="1"><g transform="translate(195.682146, 71.670234)"><g><path d="M 5.40625 -34.59375 C 5.40625 -36.820312 5.734375 -38.738281 6.390625 -40.34375 C 7.054688 -41.945312 7.945312 -43.273438 9.0625 -44.328125 C 10.175781 -45.378906 11.460938 -46.148438 12.921875 -46.640625 C 14.378906 -47.140625 15.921875 -47.390625 17.546875 -47.390625 C 18.535156 -47.390625 19.519531 -47.300781 20.5 -47.125 C 21.488281 -46.957031 22.476562 -46.703125 23.46875 -46.359375 L 22.765625 -39.859375 L 20.640625 -40.1875 C 20.296875 -40.226562 19.984375 -40.257812 19.703125 -40.28125 C 19.429688 -40.300781 19.164062 -40.3125 18.90625 -40.3125 C 17.269531 -40.3125 16.078125 -39.914062 15.328125 -39.125 C 14.578125 -38.332031 14.203125 -37.1875 14.203125 -35.6875 L 14.203125 -31.890625 L 22.765625 -31.890625 L 22.765625 -23.984375 L 14.203125 -23.984375 L 14.203125 0 L 5.40625 0 L 5.40625 -23.984375 L 1.21875 -23.984375 L 1.21875 -28.671875 L 5.40625 -31.890625 Z M 5.40625 -34.59375 "/></g></g></g><g fill="#5271ff" fill-opacity="1"><g transform="translate(215.868658, 71.670234)"><g><path d="M 11.640625 -27.453125 C 12.066406 -28.140625 12.554688 -28.789062 13.109375 -29.40625 C 13.671875 -30.03125 14.335938 -30.585938 15.109375 -31.078125 C 15.878906 -31.578125 16.753906 -31.976562 17.734375 -32.28125 C 18.722656 -32.582031 19.84375 -32.734375 21.09375 -32.734375 C 22.550781 -32.734375 24.242188 -32.472656 26.171875 -31.953125 L 25.328125 -24.046875 C 24.859375 -24.128906 24.390625 -24.238281 23.921875 -24.375 C 23.535156 -24.457031 23.101562 -24.53125 22.625 -24.59375 C 22.15625 -24.65625 21.726562 -24.6875 21.34375 -24.6875 C 19.976562 -24.6875 18.703125 -24.492188 17.515625 -24.109375 C 16.335938 -23.722656 15.320312 -23.1875 14.46875 -22.5 C 13.613281 -21.8125 12.925781 -20.984375 12.40625 -20.015625 C 11.894531 -19.054688 11.640625 -18.019531 11.640625 -16.90625 L 11.640625 0 L 2.765625 0 L 2.765625 -31.890625 L 10.796875 -31.890625 Z M 11.640625 -27.453125 "/></g></g></g><g fill="#5271ff" fill-opacity="1"><g transform="translate(238.176813, 71.670234)"><g><path d="M 18.640625 -32.796875 C 21.046875 -32.796875 23.234375 -32.3125 25.203125 -31.34375 C 27.171875 -30.375 28.863281 -29.109375 30.28125 -27.546875 C 31.695312 -25.984375 32.789062 -24.179688 33.5625 -22.140625 C 34.332031 -20.109375 34.71875 -18.019531 34.71875 -15.875 C 34.71875 -14.59375 34.546875 -13.222656 34.203125 -11.765625 L 11.4375 -11.765625 C 12.300781 -10.304688 13.523438 -9.070312 15.109375 -8.0625 C 16.691406 -7.0625 18.40625 -6.5625 20.25 -6.5625 C 22.09375 -6.5625 23.710938 -6.707031 25.109375 -7 C 26.503906 -7.300781 27.820312 -7.691406 29.0625 -8.171875 L 32.015625 -2.703125 C 30.429688 -1.585938 28.617188 -0.726562 26.578125 -0.125 C 24.546875 0.46875 22.375 0.765625 20.0625 0.765625 C 17.53125 0.765625 15.171875 0.328125 12.984375 -0.546875 C 10.796875 -1.421875 8.890625 -2.609375 7.265625 -4.109375 C 5.640625 -5.609375 4.351562 -7.382812 3.40625 -9.4375 C 2.46875 -11.5 2 -13.691406 2 -16.015625 C 2 -18.285156 2.425781 -20.4375 3.28125 -22.46875 C 4.132812 -24.507812 5.320312 -26.289062 6.84375 -27.8125 C 8.363281 -29.332031 10.128906 -30.539062 12.140625 -31.4375 C 14.160156 -32.34375 16.328125 -32.796875 18.640625 -32.796875 Z M 25.90625 -18.640625 C 25.394531 -20.484375 24.472656 -21.984375 23.140625 -23.140625 C 21.816406 -24.304688 20.316406 -24.890625 18.640625 -24.890625 C 16.929688 -24.890625 15.378906 -24.304688 13.984375 -23.140625 C 12.585938 -21.984375 11.632812 -20.484375 11.125 -18.640625 Z M 25.90625 -18.640625 "/></g></g></g><g fill="#5271ff" fill-opacity="1"><g transform="translate(272.250503, 71.670234)"><g><path d="M 19.484375 -31.890625 C 20.679688 -31.890625 22.007812 -31.71875 23.46875 -31.375 C 24.925781 -31.03125 26.296875 -30.382812 27.578125 -29.4375 C 28.867188 -28.5 29.953125 -27.191406 30.828125 -25.515625 C 31.710938 -23.847656 32.15625 -21.6875 32.15625 -19.03125 L 32.15625 0 L 23.21875 0 L 23.21875 -18.703125 C 23.21875 -19.691406 23.054688 -20.53125 22.734375 -21.21875 C 22.410156 -21.90625 21.976562 -22.453125 21.4375 -22.859375 C 20.90625 -23.265625 20.296875 -23.5625 19.609375 -23.75 C 18.921875 -23.945312 18.234375 -24.046875 17.546875 -24.046875 C 16.992188 -24.046875 16.382812 -23.945312 15.71875 -23.75 C 15.050781 -23.5625 14.425781 -23.253906 13.84375 -22.828125 C 13.269531 -22.398438 12.789062 -21.84375 12.40625 -21.15625 C 12.019531 -20.46875 11.828125 -19.648438 11.828125 -18.703125 L 11.828125 0 L 2.953125 0 L 2.953125 -31.890625 L 10.546875 -31.890625 L 11.828125 -29.453125 C 12.859375 -30.179688 14.015625 -30.769531 15.296875 -31.21875 C 16.585938 -31.664062 17.984375 -31.890625 19.484375 -31.890625 Z M 19.484375 -31.890625 "/></g></g></g><g fill="#242424" fill-opacity="1"><g transform="translate(302.858649, 71.670234)"><g/></g></g><g fill="#242424" fill-opacity="1"><g transform="translate(316.358749, 71.670234)"><g><path d="M 12.796875 -8.8125 L 31.5 -8.8125 L 31.5 0 L 3.015625 0 L 3.015625 -45.59375 L 12.796875 -45.59375 Z M 12.796875 -8.8125 "/></g></g></g><g fill="#242424" fill-opacity="1"><g transform="translate(344.324646, 71.670234)"><g><path d="M 18.640625 -32.796875 C 21.046875 -32.796875 23.234375 -32.3125 25.203125 -31.34375 C 27.171875 -30.375 28.863281 -29.109375 30.28125 -27.546875 C 31.695312 -25.984375 32.789062 -24.179688 33.5625 -22.140625 C 34.332031 -20.109375 34.71875 -18.019531 34.71875 -15.875 C 34.71875 -14.59375 34.546875 -13.222656 34.203125 -11.765625 L 11.4375 -11.765625 C 12.300781 -10.304688 13.523438 -9.070312 15.109375 -8.0625 C 16.691406 -7.0625 18.40625 -6.5625 20.25 -6.5625 C 22.09375 -6.5625 23.710938 -6.707031 25.109375 -7 C 26.503906 -7.300781 27.820312 -7.691406 29.0625 -8.171875 L 32.015625 -2.703125 C 30.429688 -1.585938 28.617188 -0.726562 26.578125 -0.125 C 24.546875 0.46875 22.375 0.765625 20.0625 0.765625 C 17.53125 0.765625 15.171875 0.328125 12.984375 -0.546875 C 10.796875 -1.421875 8.890625 -2.609375 7.265625 -4.109375 C 5.640625 -5.609375 4.351562 -7.382812 3.40625 -9.4375 C 2.46875 -11.5 2 -13.691406 2 -16.015625 C 2 -18.285156 2.425781 -20.4375 3.28125 -22.46875 C 4.132812 -24.507812 5.320312 -26.289062 6.84375 -27.8125 C 8.363281 -29.332031 10.128906 -30.539062 12.140625 -31.4375 C 14.160156 -32.34375 16.328125 -32.796875 18.640625 -32.796875 Z M 25.90625 -18.640625 C 25.394531 -20.484375 24.472656 -21.984375 23.140625 -23.140625 C 21.816406 -24.304688 20.316406 -24.890625 18.640625 -24.890625 C 16.929688 -24.890625 15.378906 -24.304688 13.984375 -23.140625 C 12.585938 -21.984375 11.632812 -20.484375 11.125 -18.640625 Z M 25.90625 -18.640625 "/></g></g></g><g fill="#242424" fill-opacity="1"><g transform="translate(378.398337, 71.670234)"><g><path d="M 36.265625 -31.890625 L 36.265625 0 L 28.609375 0 L 27.71875 -3.40625 C 26.46875 -1.738281 24.972656 -0.625 23.234375 -0.0625 C 21.503906 0.488281 19.695312 0.765625 17.8125 0.765625 C 15.539062 0.765625 13.453125 0.328125 11.546875 -0.546875 C 9.640625 -1.421875 7.976562 -2.617188 6.5625 -4.140625 C 5.144531 -5.671875 4.039062 -7.453125 3.25 -9.484375 C 2.457031 -11.515625 2.0625 -13.691406 2.0625 -16.015625 C 2.0625 -18.328125 2.457031 -20.5 3.25 -22.53125 C 4.039062 -24.570312 5.144531 -26.351562 6.5625 -27.875 C 7.976562 -29.394531 9.640625 -30.59375 11.546875 -31.46875 C 13.453125 -32.351562 15.539062 -32.796875 17.8125 -32.796875 C 19.863281 -32.796875 21.75 -32.472656 23.46875 -31.828125 C 25.1875 -31.179688 26.601562 -30.148438 27.71875 -28.734375 L 28.609375 -31.890625 Z M 27.390625 -15.875 C 27.390625 -17.550781 27.164062 -18.957031 26.71875 -20.09375 C 26.269531 -21.226562 25.671875 -22.148438 24.921875 -22.859375 C 24.171875 -23.566406 23.289062 -24.082031 22.28125 -24.40625 C 21.269531 -24.726562 20.1875 -24.890625 19.03125 -24.890625 C 17.875 -24.890625 16.789062 -24.648438 15.78125 -24.171875 C 14.78125 -23.703125 13.890625 -23.070312 13.109375 -22.28125 C 12.335938 -21.488281 11.738281 -20.546875 11.3125 -19.453125 C 10.882812 -18.359375 10.671875 -17.210938 10.671875 -16.015625 C 10.671875 -14.765625 10.882812 -13.601562 11.3125 -12.53125 C 11.738281 -11.46875 12.335938 -10.535156 13.109375 -9.734375 C 13.890625 -8.941406 14.78125 -8.3125 15.78125 -7.84375 C 16.789062 -7.375 17.875 -7.140625 19.03125 -7.140625 C 21.34375 -7.140625 23.300781 -7.851562 24.90625 -9.28125 C 26.519531 -10.71875 27.347656 -12.914062 27.390625 -15.875 Z M 27.390625 -15.875 "/></g></g></g><g fill="#242424" fill-opacity="1"><g transform="translate(413.307824, 71.670234)"><g><path d="M 3.15625 -47 L 12.03125 -47 L 12.03125 0 L 3.15625 0 Z M 3.15625 -47 "/></g></g></g><g fill="#242424" fill-opacity="1"><g transform="translate(1.682541, 72.933525)"><g><path d="M 26.046875 -22.984375 C 24.941406 -24.335938 23.492188 -25.429688 21.703125 -26.265625 C 19.921875 -27.109375 18.140625 -27.53125 16.359375 -27.53125 C 14.003906 -27.53125 11.8125 -26.914062 9.78125 -25.6875 C 7.75 -24.46875 6.144531 -22.828125 4.96875 -20.765625 C 3.800781 -18.710938 3.21875 -16.539062 3.21875 -14.25 C 3.21875 -11.976562 3.828125 -9.859375 5.046875 -7.890625 C 6.273438 -5.921875 7.921875 -4.335938 9.984375 -3.140625 C 12.054688 -1.941406 14.179688 -1.34375 16.359375 -1.34375 C 18.085938 -1.34375 19.863281 -1.753906 21.6875 -2.578125 C 23.519531 -3.410156 24.972656 -4.46875 26.046875 -5.75 L 26.046875 -3.21875 C 23.109375 -0.8125 19.898438 0.390625 16.421875 0.390625 C 13.816406 0.390625 11.347656 -0.28125 9.015625 -1.625 C 6.679688 -2.96875 4.820312 -4.78125 3.4375 -7.0625 C 2.0625 -9.351562 1.375 -11.800781 1.375 -14.40625 C 1.375 -17.03125 2.046875 -19.484375 3.390625 -21.765625 C 4.734375 -24.054688 6.578125 -25.878906 8.921875 -27.234375 C 11.273438 -28.585938 13.789062 -29.265625 16.46875 -29.265625 C 18.175781 -29.265625 19.863281 -28.929688 21.53125 -28.265625 C 23.207031 -27.597656 24.710938 -26.675781 26.046875 -25.5 Z M 26.046875 -22.984375 "/></g></g></g><g fill="#242424" fill-opacity="1"><g transform="translate(28.095878, 72.933525)"><g><path d="M 9.53125 -16.125 C 9.125 -16.351562 8.71875 -16.46875 8.3125 -16.46875 C 7.03125 -16.46875 6.101562 -15.96875 5.53125 -14.96875 C 4.957031 -13.976562 4.671875 -12.242188 4.671875 -9.765625 L 4.671875 0 L 2.953125 0 L 2.953125 -17.6875 L 4.671875 -17.6875 L 4.671875 -15.390625 L 4.75 -15.390625 C 5.539062 -17.179688 6.816406 -18.078125 8.578125 -18.078125 C 9.160156 -18.078125 9.785156 -17.9375 10.453125 -17.65625 Z M 9.53125 -16.125 "/></g></g></g><g fill="#242424" fill-opacity="1"><g transform="translate(36.86146, 72.933525)"><g><path d="M 2.953125 -8.6875 L 2.953125 -8.46875 C 2.953125 -6.375 3.609375 -4.640625 4.921875 -3.265625 C 6.234375 -1.898438 7.9375 -1.21875 10.03125 -1.21875 C 11.332031 -1.21875 12.523438 -1.5625 13.609375 -2.25 C 14.691406 -2.945312 15.582031 -3.945312 16.28125 -5.25 L 17.734375 -4.40625 C 16.910156 -2.875 15.828125 -1.691406 14.484375 -0.859375 C 13.148438 -0.0234375 11.585938 0.390625 9.796875 0.390625 C 8.191406 0.390625 6.734375 -0.0078125 5.421875 -0.8125 C 4.109375 -1.625 3.078125 -2.738281 2.328125 -4.15625 C 1.585938 -5.570312 1.21875 -7.148438 1.21875 -8.890625 C 1.21875 -10.597656 1.585938 -12.148438 2.328125 -13.546875 C 3.078125 -14.953125 4.113281 -16.054688 5.4375 -16.859375 C 6.757812 -17.671875 8.210938 -18.078125 9.796875 -18.078125 C 12.328125 -18.078125 14.378906 -17.195312 15.953125 -15.4375 C 17.523438 -13.675781 18.3125 -11.425781 18.3125 -8.6875 Z M 16.578125 -10.296875 C 16.347656 -12.054688 15.585938 -13.523438 14.296875 -14.703125 C 13.015625 -15.878906 11.515625 -16.46875 9.796875 -16.46875 C 8.679688 -16.46875 7.601562 -16.1875 6.5625 -15.625 C 5.53125 -15.0625 4.6875 -14.296875 4.03125 -13.328125 C 3.382812 -12.359375 3.023438 -11.347656 2.953125 -10.296875 Z M 16.578125 -10.296875 "/></g></g></g><g fill="#242424" fill-opacity="1"><g transform="translate(54.508332, 72.933525)"><g><path d="M 16.78125 -14.625 L 16.78125 -17.6875 L 18.5 -17.6875 L 18.5 0 L 16.78125 0 L 16.78125 -3.171875 L 16.703125 -3.171875 C 16.054688 -2.097656 15.117188 -1.234375 13.890625 -0.578125 C 12.671875 0.0664062 11.359375 0.390625 9.953125 0.390625 C 8.265625 0.390625 6.757812 -0.00390625 5.4375 -0.796875 C 4.113281 -1.585938 3.078125 -2.703125 2.328125 -4.140625 C 1.585938 -5.585938 1.21875 -7.195312 1.21875 -8.96875 C 1.21875 -11.613281 2.015625 -13.789062 3.609375 -15.5 C 5.210938 -17.21875 7.300781 -18.078125 9.875 -18.078125 C 11.28125 -18.078125 12.585938 -17.769531 13.796875 -17.15625 C 15.015625 -16.539062 15.984375 -15.695312 16.703125 -14.625 Z M 9.921875 -1.21875 C 11.984375 -1.21875 13.660156 -1.953125 14.953125 -3.421875 C 16.242188 -4.890625 16.890625 -6.800781 16.890625 -9.15625 C 16.890625 -11.300781 16.21875 -13.054688 14.875 -14.421875 C 13.539062 -15.785156 11.835938 -16.46875 9.765625 -16.46875 C 8.535156 -16.46875 7.394531 -16.132812 6.34375 -15.46875 C 5.300781 -14.800781 4.472656 -13.878906 3.859375 -12.703125 C 3.253906 -11.535156 2.953125 -10.289062 2.953125 -8.96875 C 2.953125 -7.53125 3.253906 -6.21875 3.859375 -5.03125 C 4.472656 -3.84375 5.3125 -2.910156 6.375 -2.234375 C 7.4375 -1.554688 8.617188 -1.21875 9.921875 -1.21875 Z M 9.921875 -1.21875 "/></g></g></g><g fill="#242424" fill-opacity="1"><g transform="translate(74.069287, 72.933525)"><g><path d="M 3.140625 -24.015625 L 4.859375 -24.015625 L 4.859375 -17.6875 L 7.96875 -17.6875 L 7.96875 -16.078125 L 4.859375 -16.078125 L 4.859375 0 L 3.140625 0 L 3.140625 -16.078125 L 1.1875 -16.078125 L 1.1875 -17.6875 L 3.140625 -17.6875 Z M 3.140625 -24.015625 "/></g></g></g><g fill="#242424" fill-opacity="1"><g transform="translate(80.193443, 72.933525)"><g><path d="M 2.953125 -8.6875 L 2.953125 -8.46875 C 2.953125 -6.375 3.609375 -4.640625 4.921875 -3.265625 C 6.234375 -1.898438 7.9375 -1.21875 10.03125 -1.21875 C 11.332031 -1.21875 12.523438 -1.5625 13.609375 -2.25 C 14.691406 -2.945312 15.582031 -3.945312 16.28125 -5.25 L 17.734375 -4.40625 C 16.910156 -2.875 15.828125 -1.691406 14.484375 -0.859375 C 13.148438 -0.0234375 11.585938 0.390625 9.796875 0.390625 C 8.191406 0.390625 6.734375 -0.0078125 5.421875 -0.8125 C 4.109375 -1.625 3.078125 -2.738281 2.328125 -4.15625 C 1.585938 -5.570312 1.21875 -7.148438 1.21875 -8.890625 C 1.21875 -10.597656 1.585938 -12.148438 2.328125 -13.546875 C 3.078125 -14.953125 4.113281 -16.054688 5.4375 -16.859375 C 6.757812 -17.671875 8.210938 -18.078125 9.796875 -18.078125 C 12.328125 -18.078125 14.378906 -17.195312 15.953125 -15.4375 C 17.523438 -13.675781 18.3125 -11.425781 18.3125 -8.6875 Z M 16.578125 -10.296875 C 16.347656 -12.054688 15.585938 -13.523438 14.296875 -14.703125 C 13.015625 -15.878906 11.515625 -16.46875 9.796875 -16.46875 C 8.679688 -16.46875 7.601562 -16.1875 6.5625 -15.625 C 5.53125 -15.0625 4.6875 -14.296875 4.03125 -13.328125 C 3.382812 -12.359375 3.023438 -11.347656 2.953125 -10.296875 Z M 16.578125 -10.296875 "/></g></g></g><g fill="#242424" fill-opacity="1"><g transform="translate(97.840319, 72.933525)"><g><path d="M 16.78125 -31.59375 L 18.5 -31.59375 L 18.5 0 L 16.78125 0 L 16.78125 -3.171875 L 16.703125 -3.171875 C 16.035156 -2.097656 15.101562 -1.234375 13.90625 -0.578125 C 12.707031 0.0664062 11.390625 0.390625 9.953125 0.390625 C 8.265625 0.390625 6.757812 -0.00390625 5.4375 -0.796875 C 4.113281 -1.585938 3.078125 -2.695312 2.328125 -4.125 C 1.585938 -5.5625 1.21875 -7.175781 1.21875 -8.96875 C 1.21875 -11.613281 2.015625 -13.789062 3.609375 -15.5 C 5.210938 -17.21875 7.300781 -18.078125 9.875 -18.078125 C 11.28125 -18.078125 12.585938 -17.769531 13.796875 -17.15625 C 15.015625 -16.539062 15.984375 -15.695312 16.703125 -14.625 L 16.78125 -14.625 Z M 9.921875 -1.21875 C 11.984375 -1.21875 13.660156 -1.953125 14.953125 -3.421875 C 16.242188 -4.890625 16.890625 -6.800781 16.890625 -9.15625 C 16.890625 -11.300781 16.21875 -13.054688 14.875 -14.421875 C 13.539062 -15.785156 11.835938 -16.46875 9.765625 -16.46875 C 8.566406 -16.46875 7.4375 -16.128906 6.375 -15.453125 C 5.3125 -14.773438 4.472656 -13.847656 3.859375 -12.671875 C 3.253906 -11.503906 2.953125 -10.269531 2.953125 -8.96875 C 2.953125 -7.53125 3.253906 -6.21875 3.859375 -5.03125 C 4.472656 -3.84375 5.3125 -2.910156 6.375 -2.234375 C 7.4375 -1.554688 8.617188 -1.21875 9.921875 -1.21875 Z M 9.921875 -1.21875 "/></g></g></g><g fill="#242424" fill-opacity="1"><g transform="translate(117.401274, 72.933525)"><g/></g></g><g fill="#242424" fill-opacity="1"><g transform="translate(127.391857, 72.933525)"><g><path d="M 2.953125 -31.59375 L 4.671875 -31.59375 L 4.671875 -14.625 L 4.75 -14.625 C 5.46875 -15.695312 6.429688 -16.539062 7.640625 -17.15625 C 8.847656 -17.769531 10.15625 -18.078125 11.5625 -18.078125 C 13.226562 -18.078125 14.722656 -17.691406 16.046875 -16.921875 C 17.367188 -16.160156 18.394531 -15.078125 19.125 -13.671875 C 19.851562 -12.265625 20.21875 -10.695312 20.21875 -8.96875 C 20.21875 -6.226562 19.398438 -3.984375 17.765625 -2.234375 C 16.128906 -0.484375 14.035156 0.390625 11.484375 0.390625 C 10.035156 0.390625 8.703125 0.0546875 7.484375 -0.609375 C 6.273438 -1.273438 5.363281 -2.128906 4.75 -3.171875 L 4.671875 -3.171875 L 4.671875 0 L 2.953125 0 Z M 11.53125 -1.21875 C 12.832031 -1.21875 14.019531 -1.550781 15.09375 -2.21875 C 16.164062 -2.882812 17 -3.816406 17.59375 -5.015625 C 18.195312 -6.210938 18.5 -7.53125 18.5 -8.96875 C 18.5 -10.3125 18.191406 -11.554688 17.578125 -12.703125 C 16.960938 -13.859375 16.117188 -14.773438 15.046875 -15.453125 C 13.972656 -16.128906 12.8125 -16.46875 11.5625 -16.46875 C 9.5 -16.46875 7.816406 -15.773438 6.515625 -14.390625 C 5.210938 -13.015625 4.5625 -11.191406 4.5625 -8.921875 C 4.5625 -6.648438 5.210938 -4.796875 6.515625 -3.359375 C 7.816406 -1.929688 9.488281 -1.21875 11.53125 -1.21875 Z M 11.53125 -1.21875 "/></g></g></g><g fill="#242424" fill-opacity="1"><g transform="translate(146.952812, 72.933525)"><g><path d="M -0.265625 -17.6875 L 1.53125 -17.6875 L 9.078125 -1.6875 L 15.859375 -17.6875 L 17.609375 -17.6875 L 5.75 10.34375 L 3.984375 10.34375 L 8.234375 0.3125 Z M -0.265625 -17.6875 "/></g></g></g></svg>