<svg xmlns="http://www.w3.org/2000/svg" xmlns:xlink="http://www.w3.org/1999/xlink" width="600" zoomAndPan="magnify" viewBox="0 0 450 37.5" height="50" preserveAspectRatio="xMidYMid meet" version="1.0"><defs><clipPath id="5ec31557c2"><path d="M 2.960938 0 L 447.039062 0 L 447.039062 37.007812 L 2.960938 37.007812 Z M 2.960938 0 " clip-rule="nonzero"/></clipPath><clipPath id="a399b78c8f"><path d="M 8.328125 14 L 17 14 L 17 23 L 8.328125 23 Z M 8.328125 14 " clip-rule="nonzero"/></clipPath><clipPath id="6f682f3983"><path d="M 433 14 L 441.304688 14 L 441.304688 23 L 433 23 Z M 433 14 " clip-rule="nonzero"/></clipPath></defs><g clip-path="url(#5ec31557c2)"><path fill="#ffffff" d="M 2.960938 0 L 447.039062 0 L 447.039062 37.007812 L 2.960938 37.007812 Z M 2.960938 0 " fill-opacity="1" fill-rule="nonzero"/><path fill="#ffffff" d="M 2.960938 0 L 447.039062 0 L 447.039062 37.007812 L 2.960938 37.007812 Z M 2.960938 0 " fill-opacity="1" fill-rule="nonzero"/></g><path fill="#c6c6c6" d="M 235.210938 18.867188 C 234.980469 24.480469 230.246094 28.847656 224.628906 28.617188 C 219.015625 28.390625 214.652344 23.652344 214.878906 18.039062 C 215.105469 12.421875 219.84375 8.058594 225.457031 8.285156 C 231.074219 8.515625 235.4375 13.25 235.210938 18.867188 Z M 235.210938 18.867188 " fill-opacity="0.996" fill-rule="nonzero"/><path fill="#c6c6c6" d="M 214.878906 18.867188 C 215.105469 24.480469 219.84375 28.847656 225.457031 28.617188 C 231.074219 28.390625 235.4375 23.652344 235.210938 18.039062 C 234.980469 12.421875 230.246094 8.058594 224.628906 8.285156 C 219.015625 8.515625 214.652344 13.25 214.878906 18.867188 Z M 214.878906 18.867188 " fill-opacity="0.996" fill-rule="nonzero"/><path fill="#c6c6c6" d="M 203.398438 18.808594 C 203.199219 23.636719 199.128906 27.390625 194.300781 27.195312 C 189.472656 26.996094 185.714844 22.925781 185.914062 18.097656 L 185.914062 18.09375 C 186.109375 13.265625 190.183594 9.511719 195.011719 9.710938 C 199.839844 9.90625 203.59375 13.980469 203.398438 18.808594 Z M 203.398438 18.808594 " fill-opacity="0.996" fill-rule="nonzero"/><path fill="#c6c6c6" d="M 246.691406 18.808594 C 246.886719 23.636719 250.960938 27.390625 255.789062 27.195312 C 260.617188 26.996094 264.371094 22.925781 264.175781 18.097656 L 264.175781 18.09375 C 263.980469 13.265625 259.90625 9.511719 255.078125 9.710938 C 250.25 9.90625 246.496094 13.980469 246.691406 18.808594 Z M 246.691406 18.808594 " fill-opacity="0.996" fill-rule="nonzero"/><path fill="#c6c6c6" d="M 172.09375 18.769531 C 171.917969 23.09375 168.269531 26.457031 163.945312 26.277344 C 159.625 26.101562 156.261719 22.457031 156.4375 18.132812 C 156.613281 13.808594 160.261719 10.449219 164.582031 10.625 C 168.90625 10.800781 172.269531 14.445312 172.09375 18.769531 Z M 172.09375 18.769531 " fill-opacity="0.996" fill-rule="nonzero"/><path fill="#c6c6c6" d="M 277.996094 18.769531 C 278.171875 23.09375 281.820312 26.457031 286.140625 26.277344 C 290.464844 26.101562 293.828125 22.457031 293.652344 18.132812 C 293.476562 13.808594 289.828125 10.449219 285.503906 10.625 C 281.183594 10.800781 277.820312 14.445312 277.996094 18.769531 Z M 277.996094 18.769531 " fill-opacity="0.996" fill-rule="nonzero"/><path fill="#c6c6c6" d="M 141.09375 18.746094 C 140.929688 22.730469 137.566406 25.832031 133.582031 25.667969 C 129.597656 25.507812 126.496094 22.144531 126.660156 18.15625 C 126.820312 14.171875 130.183594 11.070312 134.167969 11.234375 C 138.15625 11.394531 141.253906 14.757812 141.09375 18.746094 Z M 141.09375 18.746094 " fill-opacity="0.996" fill-rule="nonzero"/><path fill="#c6c6c6" d="M 308.996094 18.746094 C 309.15625 22.730469 312.519531 25.832031 316.507812 25.667969 C 320.492188 25.507812 323.59375 22.144531 323.429688 18.15625 C 323.269531 14.171875 319.90625 11.070312 315.917969 11.234375 C 311.933594 11.394531 308.832031 14.757812 308.996094 18.746094 Z M 308.996094 18.746094 " fill-opacity="0.996" fill-rule="nonzero"/><path fill="#c6c6c6" d="M 109.6875 18.703125 C 109.546875 22.128906 106.660156 24.792969 103.234375 24.652344 C 99.808594 24.511719 97.144531 21.625 97.285156 18.199219 C 97.425781 14.773438 100.3125 12.109375 103.738281 12.25 C 107.164062 12.390625 109.828125 15.277344 109.6875 18.703125 Z M 109.6875 18.703125 " fill-opacity="0.996" fill-rule="nonzero"/><path fill="#c6c6c6" d="M 340.402344 18.703125 C 340.539062 22.128906 343.429688 24.792969 346.855469 24.652344 C 350.28125 24.511719 352.941406 21.625 352.804688 18.199219 C 352.664062 14.773438 349.773438 12.109375 346.351562 12.25 C 342.925781 12.390625 340.261719 15.277344 340.402344 18.703125 Z M 340.402344 18.703125 " fill-opacity="0.996" fill-rule="nonzero"/><path fill="#c6c6c6" d="M 78.585938 18.675781 C 78.460938 21.707031 75.90625 24.066406 72.875 23.941406 C 69.84375 23.816406 67.484375 21.261719 67.609375 18.226562 C 67.730469 15.195312 70.289062 12.839844 73.320312 12.960938 C 76.351562 13.085938 78.710938 15.644531 78.585938 18.675781 Z M 78.585938 18.675781 " fill-opacity="0.996" fill-rule="nonzero"/><path fill="#c6c6c6" d="M 371.503906 18.675781 C 371.625 21.707031 374.183594 24.066406 377.214844 23.941406 C 380.246094 23.816406 382.605469 21.261719 382.480469 18.226562 C 382.359375 15.195312 379.800781 12.839844 376.769531 12.960938 C 373.738281 13.085938 371.378906 15.644531 371.503906 18.675781 Z M 371.503906 18.675781 " fill-opacity="0.996" fill-rule="nonzero"/><path fill="#c6c6c6" d="M 47.484375 18.644531 C 47.378906 21.285156 45.152344 23.335938 42.511719 23.230469 C 39.875 23.121094 37.820312 20.894531 37.929688 18.257812 C 38.035156 15.617188 40.261719 13.566406 42.902344 13.671875 C 45.539062 13.78125 47.59375 16.007812 47.484375 18.644531 Z M 47.484375 18.644531 " fill-opacity="0.996" fill-rule="nonzero"/><path fill="#c6c6c6" d="M 402.605469 18.644531 C 402.710938 21.285156 404.9375 23.335938 407.574219 23.230469 C 410.214844 23.121094 412.265625 20.894531 412.160156 18.257812 C 412.050781 15.617188 409.824219 13.566406 407.1875 13.671875 C 404.546875 13.78125 402.496094 16.007812 402.605469 18.644531 Z M 402.605469 18.644531 " fill-opacity="0.996" fill-rule="nonzero"/><g clip-path="url(#a399b78c8f)"><path fill="#c6c6c6" d="M 16.179688 18.609375 C 16.09375 20.742188 14.292969 22.402344 12.160156 22.316406 C 10.027344 22.226562 8.367188 20.429688 8.453125 18.292969 C 8.542969 16.160156 10.339844 14.5 12.476562 14.589844 C 14.609375 14.675781 16.265625 16.476562 16.179688 18.609375 Z M 16.179688 18.609375 " fill-opacity="0.996" fill-rule="nonzero"/></g><g clip-path="url(#6f682f3983)"><path fill="#c6c6c6" d="M 433.90625 18.609375 C 433.996094 20.742188 435.792969 22.402344 437.929688 22.316406 C 440.0625 22.226562 441.71875 20.429688 441.632812 18.292969 C 441.546875 16.160156 439.746094 14.5 437.613281 14.589844 C 435.480469 14.675781 433.820312 16.476562 433.90625 18.609375 Z M 433.90625 18.609375 " fill-opacity="0.996" fill-rule="nonzero"/></g></svg>