<svg xmlns="http://www.w3.org/2000/svg" xmlns:xlink="http://www.w3.org/1999/xlink" width="1000" zoomAndPan="magnify" viewBox="0 0 750 187.499995" height="250" preserveAspectRatio="xMidYMid meet" version="1.0"><defs><g/><clipPath id="f2153d778e"><path d="M 0.996094 0 L 749 0 L 749 187 L 0.996094 187 Z M 0.996094 0 " clip-rule="nonzero"/></clipPath></defs><g clip-path="url(#f2153d778e)"><path fill="#ffffff" d="M 0.996094 0 L 749.003906 0 L 749.003906 187 L 0.996094 187 Z M 0.996094 0 " fill-opacity="1" fill-rule="nonzero"/><path fill="#ffffff" d="M 0.996094 0 L 749.003906 0 L 749.003906 187 L 0.996094 187 Z M 0.996094 0 " fill-opacity="1" fill-rule="nonzero"/></g><g fill="#5271ff" fill-opacity="1"><g transform="translate(7.627848, 144.771785)"><g><path d="M 8.625 -127.484375 L 88.28125 -127.484375 L 88.28125 -102.671875 L 35.96875 -102.671875 L 35.96875 -79.65625 L 82 -79.65625 L 82 -54.84375 L 35.96875 -54.84375 L 35.96875 -24.640625 L 88.28125 -24.640625 L 88.28125 0 L 8.625 0 Z M 8.625 -127.484375 "/></g></g></g><g fill="#5271ff" fill-opacity="1"><g transform="translate(92.84563, 144.771785)"><g><path d="M 15.109375 -96.734375 C 15.109375 -102.972656 16.035156 -108.335938 17.890625 -112.828125 C 19.742188 -117.328125 22.226562 -121.046875 25.34375 -123.984375 C 28.46875 -126.921875 32.066406 -129.078125 36.140625 -130.453125 C 40.210938 -131.828125 44.53125 -132.515625 49.09375 -132.515625 C 51.84375 -132.515625 54.597656 -132.273438 57.359375 -131.796875 C 60.117188 -131.316406 62.875 -130.597656 65.625 -129.640625 L 63.65625 -111.484375 L 57.71875 -112.375 C 56.757812 -112.5 55.890625 -112.59375 55.109375 -112.65625 C 54.328125 -112.71875 53.578125 -112.75 52.859375 -112.75 C 48.304688 -112.75 44.976562 -111.640625 42.875 -109.421875 C 40.78125 -107.203125 39.734375 -103.992188 39.734375 -99.796875 L 39.734375 -89.1875 L 63.65625 -89.1875 L 63.65625 -67.0625 L 39.734375 -67.0625 L 39.734375 0 L 15.109375 0 L 15.109375 -67.0625 L 3.421875 -67.0625 L 3.421875 -80.203125 L 15.109375 -89.1875 Z M 15.109375 -96.734375 "/></g></g></g><g fill="#5271ff" fill-opacity="1"><g transform="translate(149.296665, 144.771785)"><g><path d="M 32.546875 -76.78125 C 33.742188 -78.695312 35.117188 -80.523438 36.671875 -82.265625 C 38.234375 -84.003906 40.09375 -85.5625 42.25 -86.9375 C 44.414062 -88.3125 46.875 -89.421875 49.625 -90.265625 C 52.382812 -91.109375 55.503906 -91.53125 58.984375 -91.53125 C 63.054688 -91.53125 67.789062 -90.804688 73.1875 -89.359375 L 70.84375 -67.25 C 69.53125 -67.488281 68.210938 -67.789062 66.890625 -68.15625 C 65.804688 -68.394531 64.601562 -68.601562 63.28125 -68.78125 C 61.96875 -68.957031 60.773438 -69.046875 59.703125 -69.046875 C 55.859375 -69.046875 52.285156 -68.503906 48.984375 -67.421875 C 45.691406 -66.347656 42.847656 -64.851562 40.453125 -62.9375 C 38.054688 -61.019531 36.140625 -58.710938 34.703125 -56.015625 C 33.265625 -53.316406 32.546875 -50.410156 32.546875 -47.296875 L 32.546875 0 L 7.734375 0 L 7.734375 -89.1875 L 30.203125 -89.1875 Z M 32.546875 -76.78125 "/></g></g></g><g fill="#5271ff" fill-opacity="1"><g transform="translate(211.68082, 144.771785)"><g><path d="M 52.140625 -91.703125 C 58.859375 -91.703125 64.972656 -90.351562 70.484375 -87.65625 C 76.003906 -84.957031 80.738281 -81.421875 84.6875 -77.046875 C 88.644531 -72.671875 91.703125 -67.632812 93.859375 -61.9375 C 96.015625 -56.25 97.09375 -50.40625 97.09375 -44.40625 C 97.09375 -40.8125 96.613281 -36.976562 95.65625 -32.90625 L 32 -32.90625 C 34.40625 -28.832031 37.820312 -25.382812 42.25 -22.5625 C 46.6875 -19.75 51.484375 -18.34375 56.640625 -18.34375 C 61.796875 -18.34375 66.320312 -18.757812 70.21875 -19.59375 C 74.113281 -20.4375 77.800781 -21.519531 81.28125 -22.84375 L 89.546875 -7.546875 C 85.109375 -4.429688 80.039062 -2.035156 74.34375 -0.359375 C 68.65625 1.316406 62.570312 2.15625 56.09375 2.15625 C 49.03125 2.15625 42.441406 0.925781 36.328125 -1.53125 C 30.210938 -3.988281 24.875 -7.3125 20.3125 -11.5 C 15.757812 -15.695312 12.164062 -20.671875 9.53125 -26.421875 C 6.894531 -32.179688 5.578125 -38.296875 5.578125 -44.765625 C 5.578125 -51.117188 6.773438 -57.144531 9.171875 -62.84375 C 11.566406 -68.539062 14.890625 -73.515625 19.140625 -77.765625 C 23.398438 -82.023438 28.347656 -85.410156 33.984375 -87.921875 C 39.617188 -90.441406 45.671875 -91.703125 52.140625 -91.703125 Z M 72.46875 -52.140625 C 71.03125 -57.296875 68.453125 -61.492188 64.734375 -64.734375 C 61.015625 -67.972656 56.816406 -69.59375 52.140625 -69.59375 C 47.347656 -69.59375 43.003906 -67.972656 39.109375 -64.734375 C 35.210938 -61.492188 32.546875 -57.296875 31.109375 -52.140625 Z M 72.46875 -52.140625 "/></g></g></g><g fill="#5271ff" fill-opacity="1"><g transform="translate(306.966976, 144.771785)"><g><path d="M 54.484375 -89.1875 C 57.835938 -89.1875 61.550781 -88.707031 65.625 -87.75 C 69.707031 -86.789062 73.546875 -84.988281 77.140625 -82.34375 C 80.734375 -79.707031 83.757812 -76.050781 86.21875 -71.375 C 88.675781 -66.707031 89.90625 -60.65625 89.90625 -53.21875 L 89.90625 0 L 64.90625 0 L 64.90625 -52.328125 C 64.90625 -55.085938 64.457031 -57.425781 63.5625 -59.34375 C 62.664062 -61.257812 61.46875 -62.785156 59.96875 -63.921875 C 58.46875 -65.054688 56.757812 -65.894531 54.84375 -66.4375 C 52.925781 -66.976562 51.007812 -67.25 49.09375 -67.25 C 47.53125 -67.25 45.816406 -66.976562 43.953125 -66.4375 C 42.097656 -65.894531 40.363281 -65.023438 38.75 -63.828125 C 37.132812 -62.628906 35.785156 -61.070312 34.703125 -59.15625 C 33.617188 -57.238281 33.078125 -54.960938 33.078125 -52.328125 L 33.078125 0 L 8.265625 0 L 8.265625 -89.1875 L 29.484375 -89.1875 L 33.078125 -82.359375 C 35.960938 -84.390625 39.203125 -86.035156 42.796875 -87.296875 C 46.390625 -88.554688 50.285156 -89.1875 54.484375 -89.1875 Z M 54.484375 -89.1875 "/></g></g></g><g fill="#242424" fill-opacity="1"><g transform="translate(392.56183, 144.771785)"><g/></g></g><g fill="#242424" fill-opacity="1"><g transform="translate(430.314494, 144.771785)"><g><path d="M 35.78125 -24.640625 L 88.109375 -24.640625 L 88.109375 0 L 8.453125 0 L 8.453125 -127.484375 L 35.78125 -127.484375 Z M 35.78125 -24.640625 "/></g></g></g><g fill="#242424" fill-opacity="1"><g transform="translate(508.520371, 144.771785)"><g><path d="M 52.140625 -91.703125 C 58.859375 -91.703125 64.972656 -90.351562 70.484375 -87.65625 C 76.003906 -84.957031 80.738281 -81.421875 84.6875 -77.046875 C 88.644531 -72.671875 91.703125 -67.632812 93.859375 -61.9375 C 96.015625 -56.25 97.09375 -50.40625 97.09375 -44.40625 C 97.09375 -40.8125 96.613281 -36.976562 95.65625 -32.90625 L 32 -32.90625 C 34.40625 -28.832031 37.820312 -25.382812 42.25 -22.5625 C 46.6875 -19.75 51.484375 -18.34375 56.640625 -18.34375 C 61.796875 -18.34375 66.320312 -18.757812 70.21875 -19.59375 C 74.113281 -20.4375 77.800781 -21.519531 81.28125 -22.84375 L 89.546875 -7.546875 C 85.109375 -4.429688 80.039062 -2.035156 74.34375 -0.359375 C 68.65625 1.316406 62.570312 2.15625 56.09375 2.15625 C 49.03125 2.15625 42.441406 0.925781 36.328125 -1.53125 C 30.210938 -3.988281 24.875 -7.3125 20.3125 -11.5 C 15.757812 -15.695312 12.164062 -20.671875 9.53125 -26.421875 C 6.894531 -32.179688 5.578125 -38.296875 5.578125 -44.765625 C 5.578125 -51.117188 6.773438 -57.144531 9.171875 -62.84375 C 11.566406 -68.539062 14.890625 -73.515625 19.140625 -77.765625 C 23.398438 -82.023438 28.347656 -85.410156 33.984375 -87.921875 C 39.617188 -90.441406 45.671875 -91.703125 52.140625 -91.703125 Z M 72.46875 -52.140625 C 71.03125 -57.296875 68.453125 -61.492188 64.734375 -64.734375 C 61.015625 -67.972656 56.816406 -69.59375 52.140625 -69.59375 C 47.347656 -69.59375 43.003906 -67.972656 39.109375 -64.734375 C 35.210938 -61.492188 32.546875 -57.296875 31.109375 -52.140625 Z M 72.46875 -52.140625 "/></g></g></g><g fill="#242424" fill-opacity="1"><g transform="translate(603.806528, 144.771785)"><g><path d="M 101.421875 -89.1875 L 101.421875 0 L 80.015625 0 L 77.5 -9.53125 C 74.019531 -4.851562 69.851562 -1.734375 65 -0.171875 C 60.144531 1.378906 55.082031 2.15625 49.8125 2.15625 C 43.457031 2.15625 37.613281 0.925781 32.28125 -1.53125 C 26.945312 -3.988281 22.300781 -7.34375 18.34375 -11.59375 C 14.382812 -15.851562 11.296875 -20.828125 9.078125 -26.515625 C 6.859375 -32.210938 5.75 -38.296875 5.75 -44.765625 C 5.75 -51.242188 6.859375 -57.328125 9.078125 -63.015625 C 11.296875 -68.710938 14.382812 -73.6875 18.34375 -77.9375 C 22.300781 -82.195312 26.945312 -85.554688 32.28125 -88.015625 C 37.613281 -90.472656 43.457031 -91.703125 49.8125 -91.703125 C 55.5625 -91.703125 60.832031 -90.800781 65.625 -89 C 70.425781 -87.207031 74.382812 -84.332031 77.5 -80.375 L 80.015625 -89.1875 Z M 76.59375 -44.40625 C 76.59375 -49.082031 75.960938 -53.007812 74.703125 -56.1875 C 73.453125 -59.363281 71.773438 -61.941406 69.671875 -63.921875 C 67.578125 -65.898438 65.117188 -67.335938 62.296875 -68.234375 C 59.484375 -69.140625 56.457031 -69.59375 53.21875 -69.59375 C 49.988281 -69.59375 46.960938 -68.929688 44.140625 -67.609375 C 41.328125 -66.285156 38.835938 -64.515625 36.671875 -62.296875 C 34.515625 -60.085938 32.835938 -57.453125 31.640625 -54.390625 C 30.441406 -51.335938 29.84375 -48.128906 29.84375 -44.765625 C 29.84375 -41.296875 30.441406 -38.0625 31.640625 -35.0625 C 32.835938 -32.0625 34.515625 -29.453125 36.671875 -27.234375 C 38.835938 -25.023438 41.328125 -23.257812 44.140625 -21.9375 C 46.960938 -20.613281 49.988281 -19.953125 53.21875 -19.953125 C 59.695312 -19.953125 65.179688 -21.957031 69.671875 -25.96875 C 74.171875 -29.988281 76.476562 -36.132812 76.59375 -44.40625 Z M 76.59375 -44.40625 "/></g></g></g><g fill="#242424" fill-opacity="1"><g transform="translate(701.429966, 144.771785)"><g><path d="M 8.8125 -131.4375 L 33.625 -131.4375 L 33.625 0 L 8.8125 0 Z M 8.8125 -131.4375 "/></g></g></g></svg>