<svg xmlns="http://www.w3.org/2000/svg" xmlns:xlink="http://www.w3.org/1999/xlink" width="272" zoomAndPan="magnify" viewBox="0 0 204 58.499998" height="78" preserveAspectRatio="xMidYMid meet" version="1.0"><defs><g/><clipPath id="feb24cd39d"><path d="M 0.863281 0 L 203.132812 0 L 203.132812 58.003906 L 0.863281 58.003906 Z M 0.863281 0 " clip-rule="nonzero"/></clipPath><clipPath id="5820d49381"><path d="M 6.53125 42.007812 L 192.441406 42.007812 L 192.441406 49.445312 L 6.53125 49.445312 Z M 6.53125 42.007812 " clip-rule="nonzero"/></clipPath></defs><g clip-path="url(#feb24cd39d)"><path fill="#ffffff" d="M 0.863281 0 L 203.136719 0 L 203.136719 58.003906 L 0.863281 58.003906 Z M 0.863281 0 " fill-opacity="1" fill-rule="nonzero"/></g><g fill="#5271ff" fill-opacity="1"><g transform="translate(13.371627, 38.765171)"><g><path d="M 11.65625 -23.390625 C 12.570312 -23.390625 13.4375 -23.207031 14.25 -22.84375 C 15.070312 -22.488281 15.785156 -21.992188 16.390625 -21.359375 C 16.992188 -20.734375 17.46875 -20 17.8125 -19.15625 C 18.164062 -18.3125 18.34375 -17.40625 18.34375 -16.4375 C 18.34375 -15.46875 18.164062 -14.554688 17.8125 -13.703125 C 17.46875 -12.859375 16.992188 -12.117188 16.390625 -11.484375 C 15.785156 -10.847656 15.070312 -10.347656 14.25 -9.984375 C 13.4375 -9.617188 12.570312 -9.4375 11.65625 -9.4375 L 6.53125 -9.4375 L 6.53125 0 L 1.546875 0 L 1.546875 -23.390625 Z M 10.984375 -13.984375 C 11.628906 -13.984375 12.1875 -14.21875 12.65625 -14.6875 C 13.125 -15.164062 13.359375 -15.75 13.359375 -16.4375 C 13.359375 -17.09375 13.125 -17.65625 12.65625 -18.125 C 12.1875 -18.601562 11.628906 -18.84375 10.984375 -18.84375 L 6.53125 -18.84375 L 6.53125 -13.984375 Z M 10.984375 -13.984375 "/></g></g></g><g fill="#5271ff" fill-opacity="1"><g transform="translate(29.966132, 38.765171)"><g><path d="M 9.5625 -16.828125 C 10.800781 -16.828125 11.925781 -16.578125 12.9375 -16.078125 C 13.945312 -15.585938 14.8125 -14.941406 15.53125 -14.140625 C 16.257812 -13.335938 16.820312 -12.410156 17.21875 -11.359375 C 17.613281 -10.316406 17.8125 -9.25 17.8125 -8.15625 C 17.8125 -7.488281 17.726562 -6.78125 17.5625 -6.03125 L 5.875 -6.03125 C 6.3125 -5.289062 6.9375 -4.660156 7.75 -4.140625 C 8.5625 -3.617188 9.441406 -3.359375 10.390625 -3.359375 C 11.335938 -3.359375 12.164062 -3.4375 12.875 -3.59375 C 13.59375 -3.75 14.273438 -3.945312 14.921875 -4.1875 L 16.4375 -1.390625 C 15.625 -0.816406 14.691406 -0.375 13.640625 -0.0625 C 12.597656 0.238281 11.484375 0.390625 10.296875 0.390625 C 8.992188 0.390625 7.78125 0.164062 6.65625 -0.28125 C 5.539062 -0.726562 4.5625 -1.335938 3.71875 -2.109375 C 2.882812 -2.878906 2.222656 -3.789062 1.734375 -4.84375 C 1.253906 -5.90625 1.015625 -7.03125 1.015625 -8.21875 C 1.015625 -9.382812 1.234375 -10.488281 1.671875 -11.53125 C 2.117188 -12.570312 2.734375 -13.484375 3.515625 -14.265625 C 4.296875 -15.046875 5.203125 -15.664062 6.234375 -16.125 C 7.265625 -16.59375 8.375 -16.828125 9.5625 -16.828125 Z M 13.296875 -9.5625 C 13.035156 -10.507812 12.5625 -11.28125 11.875 -11.875 C 11.195312 -12.46875 10.425781 -12.765625 9.5625 -12.765625 C 8.6875 -12.765625 7.890625 -12.46875 7.171875 -11.875 C 6.460938 -11.28125 5.972656 -10.507812 5.703125 -9.5625 Z M 13.296875 -9.5625 "/></g></g></g><g fill="#5271ff" fill-opacity="1"><g transform="translate(47.451408, 38.765171)"><g><path d="M 5.96875 -14.09375 C 6.1875 -14.445312 6.4375 -14.78125 6.71875 -15.09375 C 7.007812 -15.414062 7.351562 -15.703125 7.75 -15.953125 C 8.144531 -16.203125 8.59375 -16.40625 9.09375 -16.5625 C 9.601562 -16.71875 10.179688 -16.796875 10.828125 -16.796875 C 11.578125 -16.796875 12.445312 -16.664062 13.4375 -16.40625 L 13 -12.34375 C 12.757812 -12.382812 12.519531 -12.4375 12.28125 -12.5 C 12.082031 -12.550781 11.859375 -12.59375 11.609375 -12.625 C 11.367188 -12.65625 11.148438 -12.671875 10.953125 -12.671875 C 10.253906 -12.671875 9.597656 -12.570312 8.984375 -12.375 C 8.378906 -12.175781 7.859375 -11.898438 7.421875 -11.546875 C 6.984375 -11.191406 6.628906 -10.765625 6.359375 -10.265625 C 6.097656 -9.773438 5.96875 -9.242188 5.96875 -8.671875 L 5.96875 0 L 1.421875 0 L 1.421875 -16.375 L 5.546875 -16.375 Z M 5.96875 -14.09375 "/></g></g></g><g fill="#5271ff" fill-opacity="1"><g transform="translate(58.899234, 38.765171)"><g><path d="M 2.765625 -17.75 C 2.765625 -18.894531 2.9375 -19.878906 3.28125 -20.703125 C 3.625 -21.523438 4.082031 -22.207031 4.65625 -22.75 C 5.226562 -23.289062 5.882812 -23.6875 6.625 -23.9375 C 7.375 -24.195312 8.171875 -24.328125 9.015625 -24.328125 C 9.515625 -24.328125 10.015625 -24.28125 10.515625 -24.1875 C 11.023438 -24.101562 11.535156 -23.972656 12.046875 -23.796875 L 11.6875 -20.453125 L 10.59375 -20.625 C 10.414062 -20.644531 10.253906 -20.660156 10.109375 -20.671875 C 9.972656 -20.679688 9.835938 -20.6875 9.703125 -20.6875 C 8.867188 -20.6875 8.257812 -20.484375 7.875 -20.078125 C 7.488281 -19.671875 7.296875 -19.082031 7.296875 -18.3125 L 7.296875 -16.375 L 11.6875 -16.375 L 11.6875 -12.3125 L 7.296875 -12.3125 L 7.296875 0 L 2.765625 0 L 2.765625 -12.3125 L 0.625 -12.3125 L 0.625 -14.71875 L 2.765625 -16.375 Z M 2.765625 -17.75 "/></g></g></g><g fill="#5271ff" fill-opacity="1"><g transform="translate(69.258341, 38.765171)"><g><path d="M 9.53125 -16.828125 C 10.695312 -16.828125 11.796875 -16.601562 12.828125 -16.15625 C 13.867188 -15.707031 14.773438 -15.09375 15.546875 -14.3125 C 16.316406 -13.53125 16.925781 -12.613281 17.375 -11.5625 C 17.820312 -10.519531 18.046875 -9.40625 18.046875 -8.21875 C 18.046875 -7.03125 17.820312 -5.910156 17.375 -4.859375 C 16.925781 -3.816406 16.316406 -2.90625 15.546875 -2.125 C 14.773438 -1.34375 13.867188 -0.726562 12.828125 -0.28125 C 11.796875 0.164062 10.695312 0.390625 9.53125 0.390625 C 8.34375 0.390625 7.234375 0.164062 6.203125 -0.28125 C 5.171875 -0.726562 4.269531 -1.34375 3.5 -2.125 C 2.726562 -2.90625 2.113281 -3.816406 1.65625 -4.859375 C 1.207031 -5.910156 0.984375 -7.03125 0.984375 -8.21875 C 0.984375 -9.40625 1.207031 -10.519531 1.65625 -11.5625 C 2.113281 -12.613281 2.726562 -13.53125 3.5 -14.3125 C 4.269531 -15.09375 5.171875 -15.707031 6.203125 -16.15625 C 7.234375 -16.601562 8.34375 -16.828125 9.53125 -16.828125 Z M 9.53125 -3.59375 C 10.082031 -3.59375 10.59375 -3.703125 11.0625 -3.921875 C 11.539062 -4.140625 11.960938 -4.441406 12.328125 -4.828125 C 12.691406 -5.210938 12.976562 -5.675781 13.1875 -6.21875 C 13.394531 -6.757812 13.5 -7.359375 13.5 -8.015625 C 13.5 -8.679688 13.394531 -9.296875 13.1875 -9.859375 C 12.976562 -10.429688 12.691406 -10.929688 12.328125 -11.359375 C 11.960938 -11.796875 11.539062 -12.140625 11.0625 -12.390625 C 10.59375 -12.640625 10.082031 -12.765625 9.53125 -12.765625 C 8.988281 -12.765625 8.472656 -12.640625 7.984375 -12.390625 C 7.503906 -12.140625 7.082031 -11.796875 6.71875 -11.359375 C 6.351562 -10.929688 6.066406 -10.429688 5.859375 -9.859375 C 5.648438 -9.296875 5.546875 -8.679688 5.546875 -8.015625 C 5.546875 -7.359375 5.648438 -6.757812 5.859375 -6.21875 C 6.066406 -5.675781 6.351562 -5.210938 6.71875 -4.828125 C 7.082031 -4.441406 7.503906 -4.140625 7.984375 -3.921875 C 8.472656 -3.703125 8.988281 -3.59375 9.53125 -3.59375 Z M 9.53125 -3.59375 "/></g></g></g><g fill="#5271ff" fill-opacity="1"><g transform="translate(86.050788, 38.765171)"><g><path d="M 5.96875 -14.09375 C 6.1875 -14.445312 6.4375 -14.78125 6.71875 -15.09375 C 7.007812 -15.414062 7.351562 -15.703125 7.75 -15.953125 C 8.144531 -16.203125 8.59375 -16.40625 9.09375 -16.5625 C 9.601562 -16.71875 10.179688 -16.796875 10.828125 -16.796875 C 11.578125 -16.796875 12.445312 -16.664062 13.4375 -16.40625 L 13 -12.34375 C 12.757812 -12.382812 12.519531 -12.4375 12.28125 -12.5 C 12.082031 -12.550781 11.859375 -12.59375 11.609375 -12.625 C 11.367188 -12.65625 11.148438 -12.671875 10.953125 -12.671875 C 10.253906 -12.671875 9.597656 -12.570312 8.984375 -12.375 C 8.378906 -12.175781 7.859375 -11.898438 7.421875 -11.546875 C 6.984375 -11.191406 6.628906 -10.765625 6.359375 -10.265625 C 6.097656 -9.773438 5.96875 -9.242188 5.96875 -8.671875 L 5.96875 0 L 1.421875 0 L 1.421875 -16.375 L 5.546875 -16.375 Z M 5.96875 -14.09375 "/></g></g></g><g fill="#5271ff" fill-opacity="1"><g transform="translate(97.498613, 38.765171)"><g><path d="M 19.703125 -16.375 C 20.296875 -16.375 20.929688 -16.273438 21.609375 -16.078125 C 22.296875 -15.878906 22.929688 -15.523438 23.515625 -15.015625 C 24.097656 -14.503906 24.578125 -13.804688 24.953125 -12.921875 C 25.328125 -12.046875 25.515625 -10.925781 25.515625 -9.5625 L 25.515625 0 L 20.953125 0 L 20.953125 -8.75 C 20.953125 -9.40625 20.878906 -9.960938 20.734375 -10.421875 C 20.597656 -10.890625 20.40625 -11.265625 20.15625 -11.546875 C 19.914062 -11.835938 19.632812 -12.039062 19.3125 -12.15625 C 19 -12.28125 18.675781 -12.34375 18.34375 -12.34375 C 18.039062 -12.34375 17.734375 -12.285156 17.421875 -12.171875 C 17.117188 -12.066406 16.84375 -11.878906 16.59375 -11.609375 C 16.351562 -11.347656 16.160156 -10.984375 16.015625 -10.515625 C 15.878906 -10.054688 15.8125 -9.476562 15.8125 -8.78125 L 15.8125 0 L 11.25 0 L 11.25 -8.75 C 11.25 -10.09375 11.015625 -11.023438 10.546875 -11.546875 C 10.085938 -12.078125 9.421875 -12.34375 8.546875 -12.34375 C 7.910156 -12.34375 7.335938 -12.046875 6.828125 -11.453125 C 6.328125 -10.859375 6.078125 -9.929688 6.078125 -8.671875 L 6.078125 0 L 1.515625 0 L 1.515625 -16.375 L 5.40625 -16.375 L 6.078125 -14.84375 C 6.578125 -15.332031 7.160156 -15.707031 7.828125 -15.96875 C 8.503906 -16.238281 9.226562 -16.375 10 -16.375 C 10.394531 -16.375 10.8125 -16.332031 11.25 -16.25 C 11.6875 -16.175781 12.113281 -16.039062 12.53125 -15.84375 C 12.957031 -15.644531 13.363281 -15.382812 13.75 -15.0625 C 14.132812 -14.75 14.476562 -14.347656 14.78125 -13.859375 C 15.050781 -14.273438 15.367188 -14.640625 15.734375 -14.953125 C 16.109375 -15.273438 16.515625 -15.539062 16.953125 -15.75 C 17.398438 -15.96875 17.859375 -16.125 18.328125 -16.21875 C 18.804688 -16.320312 19.265625 -16.375 19.703125 -16.375 Z M 19.703125 -16.375 "/></g></g></g><g fill="#5271ff" fill-opacity="1"><g transform="translate(122.275017, 38.765171)"><g><path d="M 18.609375 -16.375 L 18.609375 0 L 14.6875 0 L 14.21875 -1.75 C 13.582031 -0.894531 12.816406 -0.320312 11.921875 -0.03125 C 11.035156 0.25 10.109375 0.390625 9.140625 0.390625 C 7.972656 0.390625 6.898438 0.164062 5.921875 -0.28125 C 4.941406 -0.726562 4.085938 -1.34375 3.359375 -2.125 C 2.640625 -2.90625 2.078125 -3.816406 1.671875 -4.859375 C 1.265625 -5.910156 1.0625 -7.03125 1.0625 -8.21875 C 1.0625 -9.40625 1.265625 -10.519531 1.671875 -11.5625 C 2.078125 -12.613281 2.640625 -13.53125 3.359375 -14.3125 C 4.085938 -15.09375 4.941406 -15.707031 5.921875 -16.15625 C 6.898438 -16.601562 7.972656 -16.828125 9.140625 -16.828125 C 10.191406 -16.828125 11.15625 -16.660156 12.03125 -16.328125 C 12.914062 -16.003906 13.644531 -15.476562 14.21875 -14.75 L 14.6875 -16.375 Z M 14.0625 -8.15625 C 14.0625 -9.007812 13.941406 -9.726562 13.703125 -10.3125 C 13.472656 -10.894531 13.164062 -11.367188 12.78125 -11.734375 C 12.394531 -12.097656 11.941406 -12.359375 11.421875 -12.515625 C 10.910156 -12.679688 10.359375 -12.765625 9.765625 -12.765625 C 9.171875 -12.765625 8.613281 -12.644531 8.09375 -12.40625 C 7.582031 -12.164062 7.128906 -11.84375 6.734375 -11.4375 C 6.335938 -11.03125 6.03125 -10.546875 5.8125 -9.984375 C 5.59375 -9.421875 5.484375 -8.832031 5.484375 -8.21875 C 5.484375 -7.582031 5.59375 -6.988281 5.8125 -6.4375 C 6.03125 -5.882812 6.335938 -5.40625 6.734375 -5 C 7.128906 -4.59375 7.582031 -4.265625 8.09375 -4.015625 C 8.613281 -3.773438 9.171875 -3.65625 9.765625 -3.65625 C 10.953125 -3.65625 11.957031 -4.023438 12.78125 -4.765625 C 13.613281 -5.503906 14.039062 -6.632812 14.0625 -8.15625 Z M 14.0625 -8.15625 "/></g></g></g><g fill="#5271ff" fill-opacity="1"><g transform="translate(140.189188, 38.765171)"><g><path d="M 10 -16.375 C 10.613281 -16.375 11.296875 -16.285156 12.046875 -16.109375 C 12.796875 -15.929688 13.5 -15.597656 14.15625 -15.109375 C 14.8125 -14.628906 15.363281 -13.957031 15.8125 -13.09375 C 16.269531 -12.238281 16.5 -11.128906 16.5 -9.765625 L 16.5 0 L 11.90625 0 L 11.90625 -9.609375 C 11.90625 -10.109375 11.820312 -10.535156 11.65625 -10.890625 C 11.5 -11.242188 11.28125 -11.523438 11 -11.734375 C 10.726562 -11.941406 10.414062 -12.09375 10.0625 -12.1875 C 9.707031 -12.289062 9.359375 -12.34375 9.015625 -12.34375 C 8.722656 -12.34375 8.40625 -12.289062 8.0625 -12.1875 C 7.726562 -12.09375 7.410156 -11.9375 7.109375 -11.71875 C 6.816406 -11.5 6.570312 -11.210938 6.375 -10.859375 C 6.175781 -10.503906 6.078125 -10.085938 6.078125 -9.609375 L 6.078125 0 L 1.515625 0 L 1.515625 -16.375 L 5.40625 -16.375 L 6.078125 -15.109375 C 6.597656 -15.484375 7.1875 -15.785156 7.84375 -16.015625 C 8.507812 -16.253906 9.226562 -16.375 10 -16.375 Z M 10 -16.375 "/></g></g></g><g fill="#5271ff" fill-opacity="1"><g transform="translate(155.892921, 38.765171)"><g><path d="M 9.53125 -12.765625 C 8.988281 -12.765625 8.472656 -12.640625 7.984375 -12.390625 C 7.503906 -12.140625 7.082031 -11.796875 6.71875 -11.359375 C 6.351562 -10.929688 6.066406 -10.429688 5.859375 -9.859375 C 5.648438 -9.296875 5.546875 -8.679688 5.546875 -8.015625 C 5.546875 -7.359375 5.648438 -6.757812 5.859375 -6.21875 C 6.066406 -5.675781 6.351562 -5.210938 6.71875 -4.828125 C 7.082031 -4.441406 7.503906 -4.140625 7.984375 -3.921875 C 8.472656 -3.703125 8.988281 -3.59375 9.53125 -3.59375 C 10.21875 -3.59375 10.882812 -3.75 11.53125 -4.0625 C 12.175781 -4.382812 12.734375 -4.832031 13.203125 -5.40625 L 16 -2.640625 C 15.226562 -1.710938 14.28125 -0.972656 13.15625 -0.421875 C 12.039062 0.117188 10.832031 0.390625 9.53125 0.390625 C 8.34375 0.390625 7.234375 0.164062 6.203125 -0.28125 C 5.171875 -0.726562 4.269531 -1.34375 3.5 -2.125 C 2.726562 -2.90625 2.113281 -3.816406 1.65625 -4.859375 C 1.207031 -5.910156 0.984375 -7.03125 0.984375 -8.21875 C 0.984375 -9.40625 1.207031 -10.519531 1.65625 -11.5625 C 2.113281 -12.613281 2.726562 -13.53125 3.5 -14.3125 C 4.269531 -15.09375 5.171875 -15.707031 6.203125 -16.15625 C 7.234375 -16.601562 8.34375 -16.828125 9.53125 -16.828125 C 10.875 -16.828125 12.117188 -16.539062 13.265625 -15.96875 C 14.410156 -15.394531 15.378906 -14.613281 16.171875 -13.625 L 13 -11.1875 C 12.363281 -11.78125 11.785156 -12.191406 11.265625 -12.421875 C 10.753906 -12.648438 10.175781 -12.765625 9.53125 -12.765625 Z M 9.53125 -12.765625 "/></g></g></g><g fill="#5271ff" fill-opacity="1"><g transform="translate(170.738874, 38.765171)"><g><path d="M 9.5625 -16.828125 C 10.800781 -16.828125 11.925781 -16.578125 12.9375 -16.078125 C 13.945312 -15.585938 14.8125 -14.941406 15.53125 -14.140625 C 16.257812 -13.335938 16.820312 -12.410156 17.21875 -11.359375 C 17.613281 -10.316406 17.8125 -9.25 17.8125 -8.15625 C 17.8125 -7.488281 17.726562 -6.78125 17.5625 -6.03125 L 5.875 -6.03125 C 6.3125 -5.289062 6.9375 -4.660156 7.75 -4.140625 C 8.5625 -3.617188 9.441406 -3.359375 10.390625 -3.359375 C 11.335938 -3.359375 12.164062 -3.4375 12.875 -3.59375 C 13.59375 -3.75 14.273438 -3.945312 14.921875 -4.1875 L 16.4375 -1.390625 C 15.625 -0.816406 14.691406 -0.375 13.640625 -0.0625 C 12.597656 0.238281 11.484375 0.390625 10.296875 0.390625 C 8.992188 0.390625 7.78125 0.164062 6.65625 -0.28125 C 5.539062 -0.726562 4.5625 -1.335938 3.71875 -2.109375 C 2.882812 -2.878906 2.222656 -3.789062 1.734375 -4.84375 C 1.253906 -5.90625 1.015625 -7.03125 1.015625 -8.21875 C 1.015625 -9.382812 1.234375 -10.488281 1.671875 -11.53125 C 2.117188 -12.570312 2.734375 -13.484375 3.515625 -14.265625 C 4.296875 -15.046875 5.203125 -15.664062 6.234375 -16.125 C 7.265625 -16.59375 8.375 -16.828125 9.5625 -16.828125 Z M 13.296875 -9.5625 C 13.035156 -10.507812 12.5625 -11.28125 11.875 -11.875 C 11.195312 -12.46875 10.425781 -12.765625 9.5625 -12.765625 C 8.6875 -12.765625 7.890625 -12.46875 7.171875 -11.875 C 6.460938 -11.28125 5.972656 -10.507812 5.703125 -9.5625 Z M 13.296875 -9.5625 "/></g></g></g><g clip-path="url(#5820d49381)"><path fill="#242424" d="M 178.664062 46.128906 C 179.59375 46.390625 180.484375 46.722656 181.453125 46.871094 C 184.683594 47.429688 187.917969 47.914062 191.148438 48.433594 C 191.113281 48.65625 191.113281 48.839844 191.074219 49.0625 C 188.585938 48.839844 186.132812 48.617188 183.644531 48.320312 C 179.667969 47.875 175.691406 47.355469 171.679688 46.910156 C 171.160156 46.835938 170.378906 46.761719 170.15625 47.058594 C 168.96875 48.394531 167.554688 47.914062 166.179688 47.765625 C 151.320312 46.351562 136.382812 46.128906 121.484375 46.128906 C 111.378906 46.128906 101.308594 46.539062 91.203125 46.871094 C 83.363281 47.132812 75.523438 47.613281 67.683594 47.875 C 65.640625 47.949219 63.597656 47.429688 61.59375 47.429688 C 57.207031 47.429688 52.859375 47.578125 48.476562 47.652344 C 45.171875 47.726562 41.863281 47.839844 38.554688 47.914062 C 31.757812 48.097656 24.996094 48.285156 18.195312 48.46875 C 17.75 48.46875 17.304688 48.542969 16.859375 48.582031 C 15.816406 48.691406 14.742188 49.398438 13.847656 47.988281 C 13.589844 47.613281 12.363281 47.839844 11.546875 47.652344 C 17.789062 46.054688 24.253906 45.980469 30.566406 44.867188 C 26.925781 44.753906 23.285156 44.605469 19.644531 44.492188 C 16.785156 44.382812 13.921875 44.195312 11.097656 44.234375 C 9.613281 44.234375 8.089844 44.570312 6.53125 44.753906 C 6.679688 43.453125 7.753906 43.121094 8.945312 43.082031 C 11.804688 42.972656 14.667969 42.894531 17.527344 42.933594 C 20.90625 42.933594 24.328125 43.121094 27.707031 43.121094 C 31.832031 43.15625 35.917969 43.15625 40.042969 43.121094 C 64.453125 42.859375 88.828125 42.597656 113.199219 42.339844 C 120.890625 42.265625 128.582031 42.042969 136.234375 42.078125 C 145.261719 42.117188 154.292969 42.339844 163.285156 42.597656 C 171.125 42.859375 178.960938 43.269531 186.800781 43.675781 C 188.511719 43.75 190.332031 43.75 192.300781 45.3125 C 189.402344 45.421875 187.246094 46.6875 184.757812 46.390625 C 182.714844 46.128906 180.671875 46.242188 178.628906 46.203125 C 177.625 46.054688 176.585938 45.941406 175.582031 45.792969 C 175.582031 45.980469 175.582031 46.203125 175.542969 46.390625 C 176.585938 46.316406 177.625 46.203125 178.664062 46.128906 Z M 34.246094 46.167969 C 34.246094 46.351562 34.246094 46.5 34.246094 46.6875 C 45.429688 46.277344 56.613281 45.867188 67.796875 45.460938 C 67.796875 45.3125 67.796875 45.199219 67.796875 45.050781 C 56.578125 45.421875 45.429688 45.792969 34.246094 46.167969 Z M 77.753906 45.089844 C 77.753906 45.015625 77.753906 44.941406 77.753906 44.867188 C 75.785156 44.867188 73.816406 44.867188 71.847656 44.867188 C 71.847656 44.941406 71.847656 45.015625 71.847656 45.089844 C 73.816406 45.089844 75.785156 45.089844 77.753906 45.089844 Z M 82.25 44.792969 C 82.210938 44.828125 82.175781 44.867188 82.136719 44.902344 C 83.734375 44.902344 85.332031 44.902344 86.96875 44.902344 C 86.96875 44.867188 86.96875 44.828125 86.96875 44.792969 C 85.371094 44.792969 83.808594 44.792969 82.25 44.792969 Z M 68.726562 47.28125 C 68.761719 47.207031 68.761719 47.09375 68.800781 47.019531 C 67.796875 47.019531 66.757812 47.019531 65.753906 47.019531 C 65.753906 47.09375 65.753906 47.207031 65.753906 47.28125 C 66.71875 47.28125 67.722656 47.28125 68.726562 47.28125 Z M 30.792969 46.761719 C 30.753906 46.648438 30.753906 46.5 30.71875 46.390625 C 30.085938 46.425781 29.417969 46.464844 28.785156 46.464844 C 28.785156 46.574219 28.785156 46.648438 28.785156 46.761719 C 29.492188 46.761719 30.160156 46.761719 30.792969 46.761719 Z M 30.792969 46.761719 " fill-opacity="1" fill-rule="nonzero"/></g></svg>