<svg xmlns="http://www.w3.org/2000/svg" xmlns:xlink="http://www.w3.org/1999/xlink" width="450" zoomAndPan="magnify" viewBox="0 0 337.5 82.499998" height="110" preserveAspectRatio="xMidYMid meet" version="1.0"><defs><g/><clipPath id="e89e4b8c81"><path d="M 0.769531 0 L 336.234375 0 L 336.234375 82.003906 L 0.769531 82.003906 Z M 0.769531 0 " clip-rule="nonzero"/></clipPath><clipPath id="9325819a37"><path d="M 64 58.59375 L 266.773438 58.59375 L 266.773438 66.792969 L 64 66.792969 Z M 64 58.59375 " clip-rule="nonzero"/></clipPath><clipPath id="06c85cf34e"><path d="M 0.769531 26.648438 L 64.132812 26.648438 L 64.132812 54.976562 L 0.769531 54.976562 Z M 0.769531 26.648438 " clip-rule="nonzero"/></clipPath><clipPath id="ec76f7e646"><path d="M 272.714844 26.648438 L 335.941406 26.648438 L 335.941406 54.976562 L 272.714844 54.976562 Z M 272.714844 26.648438 " clip-rule="nonzero"/></clipPath></defs><g clip-path="url(#e89e4b8c81)"><path fill="#ffffff" d="M 0.769531 0 L 336.234375 0 L 336.234375 82.003906 L 0.769531 82.003906 Z M 0.769531 0 " fill-opacity="1" fill-rule="nonzero"/></g><g fill="#242424" fill-opacity="1"><g transform="translate(75.468166, 54.525944)"><g><path d="M 22.421875 -32.90625 L 36.15625 0 L 28.546875 0 L 25.5625 -7.046875 L 11.609375 -7.046875 L 8.671875 0 L 1.015625 0 L 14.75 -32.90625 Z M 22.921875 -13.453125 L 18.609375 -23.8125 L 14.296875 -13.453125 Z M 22.921875 -13.453125 "/></g></g></g><g fill="#242424" fill-opacity="1"><g transform="translate(109.621842, 54.525944)"><g><path d="M 15.40625 -23.671875 C 17.007812 -23.671875 18.507812 -23.351562 19.90625 -22.71875 C 21.300781 -22.082031 22.507812 -21.210938 23.53125 -20.109375 C 24.550781 -19.015625 25.347656 -17.734375 25.921875 -16.265625 C 26.492188 -14.796875 26.78125 -13.226562 26.78125 -11.5625 C 26.78125 -9.882812 26.492188 -8.3125 25.921875 -6.84375 C 25.347656 -5.375 24.550781 -4.085938 23.53125 -2.984375 C 22.507812 -1.890625 21.300781 -1.023438 19.90625 -0.390625 C 18.507812 0.242188 17.007812 0.5625 15.40625 0.5625 C 14.039062 0.5625 12.734375 0.320312 11.484375 -0.15625 C 10.234375 -0.632812 9.25 -1.25 8.53125 -2 L 7.609375 0 L 2.140625 0 L 2.140625 -33.875 L 8.53125 -33.875 L 8.53125 -21.15625 C 10.300781 -22.832031 12.59375 -23.671875 15.40625 -23.671875 Z M 14.53125 -5.15625 C 15.363281 -5.15625 16.140625 -5.320312 16.859375 -5.65625 C 17.585938 -6 18.226562 -6.457031 18.78125 -7.03125 C 19.34375 -7.601562 19.78125 -8.273438 20.09375 -9.046875 C 20.40625 -9.816406 20.5625 -10.65625 20.5625 -11.5625 C 20.5625 -12.425781 20.40625 -13.25 20.09375 -14.03125 C 19.78125 -14.820312 19.34375 -15.503906 18.78125 -16.078125 C 18.226562 -16.648438 17.585938 -17.101562 16.859375 -17.4375 C 16.140625 -17.78125 15.363281 -17.953125 14.53125 -17.953125 C 13.6875 -17.953125 12.898438 -17.835938 12.171875 -17.609375 C 11.453125 -17.378906 10.820312 -17.007812 10.28125 -16.5 C 9.738281 -15.988281 9.3125 -15.320312 9 -14.5 C 8.6875 -13.675781 8.53125 -12.664062 8.53125 -11.46875 C 8.53125 -10.382812 8.6875 -9.445312 9 -8.65625 C 9.3125 -7.863281 9.738281 -7.210938 10.28125 -6.703125 C 10.820312 -6.191406 11.453125 -5.804688 12.171875 -5.546875 C 12.898438 -5.285156 13.6875 -5.15625 14.53125 -5.15625 Z M 14.53125 -5.15625 "/></g></g></g><g fill="#242424" fill-opacity="1"><g transform="translate(134.030488, 54.525944)"><g><path d="M 13.40625 -23.671875 C 15.050781 -23.671875 16.597656 -23.351562 18.046875 -22.71875 C 19.503906 -22.082031 20.773438 -21.210938 21.859375 -20.109375 C 22.941406 -19.015625 23.800781 -17.734375 24.4375 -16.265625 C 25.070312 -14.796875 25.390625 -13.226562 25.390625 -11.5625 C 25.390625 -9.882812 25.070312 -8.3125 24.4375 -6.84375 C 23.800781 -5.375 22.941406 -4.085938 21.859375 -2.984375 C 20.773438 -1.890625 19.503906 -1.023438 18.046875 -0.390625 C 16.597656 0.242188 15.050781 0.5625 13.40625 0.5625 C 11.738281 0.5625 10.175781 0.242188 8.71875 -0.390625 C 7.269531 -1.023438 6.003906 -1.890625 4.921875 -2.984375 C 3.835938 -4.085938 2.976562 -5.375 2.34375 -6.84375 C 1.707031 -8.3125 1.390625 -9.882812 1.390625 -11.5625 C 1.390625 -13.226562 1.707031 -14.796875 2.34375 -16.265625 C 2.976562 -17.734375 3.835938 -19.015625 4.921875 -20.109375 C 6.003906 -21.210938 7.269531 -22.082031 8.71875 -22.71875 C 10.175781 -23.351562 11.738281 -23.671875 13.40625 -23.671875 Z M 13.40625 -5.0625 C 14.1875 -5.0625 14.90625 -5.210938 15.5625 -5.515625 C 16.226562 -5.828125 16.816406 -6.253906 17.328125 -6.796875 C 17.835938 -7.335938 18.238281 -7.988281 18.53125 -8.75 C 18.832031 -9.507812 18.984375 -10.351562 18.984375 -11.28125 C 18.984375 -12.207031 18.832031 -13.070312 18.53125 -13.875 C 18.238281 -14.675781 17.835938 -15.378906 17.328125 -15.984375 C 16.816406 -16.585938 16.226562 -17.066406 15.5625 -17.421875 C 14.90625 -17.773438 14.1875 -17.953125 13.40625 -17.953125 C 12.632812 -17.953125 11.90625 -17.773438 11.21875 -17.421875 C 10.539062 -17.066406 9.945312 -16.585938 9.4375 -15.984375 C 8.925781 -15.378906 8.523438 -14.675781 8.234375 -13.875 C 7.941406 -13.070312 7.796875 -12.207031 7.796875 -11.28125 C 7.796875 -10.351562 7.941406 -9.507812 8.234375 -8.75 C 8.523438 -7.988281 8.925781 -7.335938 9.4375 -6.796875 C 9.945312 -6.253906 10.539062 -5.828125 11.21875 -5.515625 C 11.90625 -5.210938 12.632812 -5.0625 13.40625 -5.0625 Z M 13.40625 -5.0625 "/></g></g></g><g fill="#242424" fill-opacity="1"><g transform="translate(157.650254, 54.525944)"><g><path d="M 16.65625 -23.015625 L 23.0625 -23.015625 L 23.0625 0 L 17.59375 0 L 16.65625 -1.765625 C 15.914062 -1.234375 15.070312 -0.804688 14.125 -0.484375 C 13.1875 -0.160156 12.175781 0 11.09375 0 C 10.257812 0 9.304688 -0.125 8.234375 -0.375 C 7.171875 -0.625 6.175781 -1.085938 5.25 -1.765625 C 4.320312 -2.441406 3.539062 -3.382812 2.90625 -4.59375 C 2.269531 -5.800781 1.953125 -7.363281 1.953125 -9.28125 L 1.953125 -23.015625 L 8.40625 -23.015625 L 8.40625 -9.515625 C 8.40625 -8.804688 8.519531 -8.203125 8.75 -7.703125 C 8.976562 -7.210938 9.285156 -6.816406 9.671875 -6.515625 C 10.054688 -6.222656 10.492188 -6.003906 10.984375 -5.859375 C 11.484375 -5.722656 12 -5.65625 12.53125 -5.65625 C 12.9375 -5.65625 13.378906 -5.722656 13.859375 -5.859375 C 14.335938 -6.003906 14.785156 -6.226562 15.203125 -6.53125 C 15.617188 -6.84375 15.960938 -7.25 16.234375 -7.75 C 16.515625 -8.25 16.65625 -8.835938 16.65625 -9.515625 Z M 16.65625 -23.015625 "/></g></g></g><g fill="#242424" fill-opacity="1"><g transform="translate(179.83147, 54.525944)"><g><path d="M 10.578125 -8.265625 C 10.578125 -7.179688 10.910156 -6.34375 11.578125 -5.75 C 12.242188 -5.164062 13.117188 -4.875 14.203125 -4.875 C 15.066406 -4.875 15.929688 -5.046875 16.796875 -5.390625 L 16.796875 0 C 16.023438 0.25 15.207031 0.457031 14.34375 0.625 C 13.476562 0.789062 12.609375 0.875 11.734375 0.875 C 10.742188 0.875 9.800781 0.75 8.90625 0.5 C 8.007812 0.257812 7.203125 -0.160156 6.484375 -0.765625 C 5.773438 -1.367188 5.210938 -2.171875 4.796875 -3.171875 C 4.378906 -4.179688 4.171875 -5.429688 4.171875 -6.921875 L 4.171875 -17.3125 L 0.875 -17.3125 L 0.875 -21.625 L 4.171875 -23.015625 L 4.171875 -28.171875 L 10.578125 -28.171875 L 10.578125 -23.015625 L 16.796875 -23.015625 L 16.796875 -17.3125 L 10.578125 -17.3125 Z M 10.578125 -8.265625 "/></g></g></g><g fill="#ff2344" fill-opacity="1"><g transform="translate(194.597161, 54.525944)"><g/></g></g><g fill="#5271ff" fill-opacity="1"><g transform="translate(204.343339, 54.525944)"><g><path d="M 31 -32.90625 L 37.640625 -32.90625 L 37.640625 0 L 30.625 0 L 30.625 -21.71875 L 22.78125 -10.71875 L 17.171875 -10.71875 L 9.234375 -21.390625 L 9.234375 0 L 2.1875 0 L 2.1875 -32.90625 L 8.859375 -32.90625 L 20 -17.734375 Z M 31 -32.90625 "/></g></g></g><g fill="#5271ff" fill-opacity="1"><g transform="translate(241.142098, 54.525944)"><g><path d="M 13.453125 -23.671875 C 15.191406 -23.671875 16.769531 -23.320312 18.1875 -22.625 C 19.613281 -21.925781 20.835938 -21.007812 21.859375 -19.875 C 22.878906 -18.75 23.664062 -17.453125 24.21875 -15.984375 C 24.78125 -14.515625 25.0625 -13.007812 25.0625 -11.46875 C 25.0625 -10.53125 24.9375 -9.539062 24.6875 -8.5 L 8.265625 -8.5 C 8.878906 -7.445312 9.757812 -6.554688 10.90625 -5.828125 C 12.050781 -5.097656 13.289062 -4.734375 14.625 -4.734375 C 15.945312 -4.734375 17.109375 -4.84375 18.109375 -5.0625 C 19.117188 -5.28125 20.070312 -5.554688 20.96875 -5.890625 L 23.109375 -1.953125 C 21.960938 -1.148438 20.65625 -0.53125 19.1875 -0.09375 C 17.71875 0.34375 16.148438 0.5625 14.484375 0.5625 C 12.648438 0.5625 10.941406 0.242188 9.359375 -0.390625 C 7.785156 -1.023438 6.410156 -1.882812 5.234375 -2.96875 C 4.066406 -4.050781 3.140625 -5.332031 2.453125 -6.8125 C 1.773438 -8.300781 1.4375 -9.882812 1.4375 -11.5625 C 1.4375 -13.195312 1.742188 -14.75 2.359375 -16.21875 C 2.984375 -17.6875 3.84375 -18.96875 4.9375 -20.0625 C 6.039062 -21.164062 7.316406 -22.039062 8.765625 -22.6875 C 10.222656 -23.34375 11.785156 -23.671875 13.453125 -23.671875 Z M 18.703125 -13.453125 C 18.328125 -14.785156 17.660156 -15.867188 16.703125 -16.703125 C 15.742188 -17.535156 14.660156 -17.953125 13.453125 -17.953125 C 12.222656 -17.953125 11.101562 -17.535156 10.09375 -16.703125 C 9.082031 -15.867188 8.394531 -14.785156 8.03125 -13.453125 Z M 18.703125 -13.453125 "/></g></g></g><g fill="#5271ff" fill-opacity="1"><g transform="translate(265.739609, 54.525944)"><g/></g></g><g clip-path="url(#9325819a37)"><path fill="#242424" d="M 251.738281 63.085938 C 252.75 63.367188 253.722656 63.734375 254.777344 63.894531 C 258.300781 64.503906 261.828125 65.03125 265.351562 65.597656 C 265.3125 65.839844 265.3125 66.042969 265.269531 66.285156 C 262.554688 66.042969 259.882812 65.800781 257.167969 65.476562 C 252.832031 64.988281 248.496094 64.421875 244.117188 63.9375 C 243.550781 63.855469 242.699219 63.773438 242.457031 64.097656 C 241.160156 65.558594 239.621094 65.03125 238.121094 64.867188 C 221.914062 63.328125 205.625 63.085938 189.375 63.085938 C 178.351562 63.085938 167.371094 63.53125 156.347656 63.894531 C 147.800781 64.179688 139.25 64.707031 130.699219 64.988281 C 128.46875 65.070312 126.242188 64.503906 124.054688 64.503906 C 119.273438 64.503906 114.53125 64.664062 109.75 64.746094 C 106.144531 64.828125 102.535156 64.949219 98.929688 65.03125 C 91.515625 65.234375 84.140625 65.433594 76.722656 65.636719 C 76.238281 65.636719 75.75 65.71875 75.265625 65.757812 C 74.128906 65.882812 72.957031 66.652344 71.984375 65.113281 C 71.699219 64.707031 70.363281 64.949219 69.472656 64.746094 C 76.277344 63.003906 83.328125 62.921875 90.21875 61.707031 C 86.246094 61.585938 82.277344 61.425781 78.304688 61.300781 C 75.183594 61.179688 72.0625 60.976562 68.984375 61.019531 C 67.363281 61.019531 65.703125 61.382812 64 61.585938 C 64.164062 60.167969 65.335938 59.804688 66.632812 59.761719 C 69.753906 59.640625 72.875 59.558594 75.996094 59.601562 C 79.683594 59.601562 83.410156 59.804688 87.097656 59.804688 C 91.59375 59.84375 96.054688 59.84375 100.550781 59.804688 C 127.171875 59.519531 153.753906 59.234375 180.339844 58.953125 C 188.726562 58.871094 197.113281 58.628906 205.460938 58.667969 C 215.308594 58.707031 225.15625 58.953125 234.960938 59.234375 C 243.511719 59.519531 252.0625 59.964844 260.609375 60.410156 C 262.476562 60.492188 264.460938 60.492188 266.609375 62.195312 C 263.449219 62.316406 261.097656 63.691406 258.382812 63.367188 C 256.152344 63.085938 253.925781 63.207031 251.695312 63.167969 C 250.601562 63.003906 249.46875 62.882812 248.375 62.71875 C 248.375 62.921875 248.375 63.167969 248.332031 63.367188 C 249.46875 63.289062 250.601562 63.167969 251.738281 63.085938 Z M 94.230469 63.125 C 94.230469 63.328125 94.230469 63.492188 94.230469 63.691406 C 106.425781 63.246094 118.625 62.800781 130.820312 62.355469 C 130.820312 62.195312 130.820312 62.070312 130.820312 61.910156 C 118.582031 62.316406 106.425781 62.71875 94.230469 63.125 Z M 141.679688 61.949219 C 141.679688 61.871094 141.679688 61.789062 141.679688 61.707031 C 139.53125 61.707031 137.386719 61.707031 135.238281 61.707031 C 135.238281 61.789062 135.238281 61.871094 135.238281 61.949219 C 137.386719 61.949219 139.53125 61.949219 141.679688 61.949219 Z M 146.582031 61.625 C 146.542969 61.667969 146.503906 61.707031 146.460938 61.75 C 148.203125 61.75 149.945312 61.75 151.730469 61.75 C 151.730469 61.707031 151.730469 61.667969 151.730469 61.625 C 149.988281 61.625 148.285156 61.625 146.582031 61.625 Z M 131.832031 64.339844 C 131.875 64.261719 131.875 64.140625 131.914062 64.058594 C 130.820312 64.058594 129.6875 64.058594 128.59375 64.058594 C 128.59375 64.140625 128.59375 64.261719 128.59375 64.339844 C 129.644531 64.339844 130.738281 64.339844 131.832031 64.339844 Z M 90.460938 63.773438 C 90.421875 63.652344 90.421875 63.492188 90.378906 63.367188 C 89.691406 63.410156 88.960938 63.449219 88.273438 63.449219 C 88.273438 63.570312 88.273438 63.652344 88.273438 63.773438 C 89.042969 63.773438 89.773438 63.773438 90.460938 63.773438 Z M 90.460938 63.773438 " fill-opacity="1" fill-rule="nonzero"/></g><path fill="#000000" d="M 32.316406 46.15625 C 32.214844 46.113281 32.050781 46.113281 31.953125 46.15625 C 31.851562 46.195312 31.933594 46.226562 32.132812 46.226562 C 32.335938 46.226562 32.417969 46.195312 32.316406 46.15625 Z M 32.316406 46.15625 " fill-opacity="1" fill-rule="nonzero"/><path fill="#000000" d="M 33.046875 46.007812 C 32.945312 45.96875 32.78125 45.96875 32.683594 46.007812 C 32.582031 46.050781 32.664062 46.082031 32.863281 46.082031 C 33.066406 46.082031 33.148438 46.050781 33.046875 46.007812 Z M 33.046875 46.007812 " fill-opacity="1" fill-rule="nonzero"/><path fill="#000000" d="M 31.476562 46.28125 C 31.316406 46.28125 31.019531 46.335938 30.820312 46.398438 C 30.53125 46.492188 30.515625 46.515625 30.746094 46.515625 C 30.90625 46.515625 31.203125 46.464844 31.402344 46.398438 C 31.691406 46.304688 31.707031 46.28125 31.476562 46.28125 Z M 31.476562 46.28125 " fill-opacity="1" fill-rule="nonzero"/><path fill="#000000" d="M 29.378906 46.574219 C 29.1875 46.542969 28.972656 46.582031 28.898438 46.652344 C 28.816406 46.734375 28.953125 46.757812 29.246094 46.707031 C 29.648438 46.640625 29.671875 46.621094 29.378906 46.574219 Z M 29.378906 46.574219 " fill-opacity="1" fill-rule="nonzero"/><path fill="#000000" d="M 28.664062 46.15625 C 28.566406 46.113281 28.398438 46.113281 28.300781 46.15625 C 28.199219 46.195312 28.28125 46.226562 28.480469 46.226562 C 28.683594 46.226562 28.765625 46.195312 28.664062 46.15625 Z M 28.664062 46.15625 " fill-opacity="1" fill-rule="nonzero"/><path fill="#000000" d="M 25.890625 46.742188 C 25.789062 46.699219 25.625 46.699219 25.523438 46.742188 C 25.425781 46.78125 25.507812 46.816406 25.707031 46.816406 C 25.90625 46.816406 25.988281 46.78125 25.890625 46.742188 Z M 25.890625 46.742188 " fill-opacity="1" fill-rule="nonzero"/><path fill="#000000" d="M 26.996094 46.445312 C 26.878906 46.492188 26.914062 46.527344 27.082031 46.535156 C 27.238281 46.539062 27.324219 46.503906 27.273438 46.457031 C 27.226562 46.40625 27.101562 46.402344 26.996094 46.445312 Z M 26.996094 46.445312 " fill-opacity="1" fill-rule="nonzero"/><path fill="#000000" d="M 20.667969 47.738281 C 21.144531 47.84375 21.316406 47.824219 21.222656 47.667969 C 21.167969 47.578125 21.300781 47.558594 21.574219 47.613281 C 21.816406 47.660156 22.207031 47.648438 22.4375 47.585938 L 22.859375 47.476562 L 22.421875 47.386719 C 21.921875 47.289062 20.199219 47.632812 20.667969 47.738281 Z M 20.667969 47.738281 " fill-opacity="1" fill-rule="nonzero"/><path fill="#000000" d="M 25.050781 46.835938 C 24.890625 46.769531 24.660156 46.710938 24.539062 46.710938 C 24.398438 46.710938 24.425781 46.757812 24.609375 46.835938 C 24.773438 46.90625 25.003906 46.964844 25.121094 46.964844 C 25.261719 46.964844 25.234375 46.917969 25.050781 46.835938 Z M 25.050781 46.835938 " fill-opacity="1" fill-rule="nonzero"/><path fill="#000000" d="M 24.363281 47.03125 C 24.25 47.078125 24.28125 47.113281 24.453125 47.121094 C 24.605469 47.125 24.691406 47.089844 24.644531 47.042969 C 24.597656 46.992188 24.46875 46.988281 24.363281 47.03125 Z M 24.363281 47.03125 " fill-opacity="1" fill-rule="nonzero"/><path fill="#000000" d="M 27.816406 46.238281 C 27.328125 46.046875 27.125 46.074219 27.339844 46.304688 C 27.441406 46.410156 27.652344 46.464844 27.8125 46.425781 C 28.097656 46.351562 28.097656 46.347656 27.816406 46.238281 Z M 27.816406 46.238281 " fill-opacity="1" fill-rule="nonzero"/><path fill="#000000" d="M 33.808594 45.371094 C 34.203125 45.375 33.917969 45.144531 33.375 45.015625 C 32.960938 44.921875 32.953125 44.925781 33.230469 45.140625 C 33.390625 45.265625 33.648438 45.367188 33.808594 45.371094 Z M 33.808594 45.371094 " fill-opacity="1" fill-rule="nonzero"/><g clip-path="url(#06c85cf34e)"><path fill="#000000" d="M 64.007812 38.355469 C 63.902344 38.347656 63.851562 38.285156 63.898438 38.214844 C 63.941406 38.144531 63.847656 38.050781 63.6875 38.007812 C 63.507812 37.960938 63.394531 37.808594 63.394531 37.613281 C 63.394531 37.339844 63.335938 37.308594 62.980469 37.386719 C 62.621094 37.46875 62.570312 37.4375 62.582031 37.144531 C 62.589844 36.847656 62.511719 36.800781 61.949219 36.761719 C 61.597656 36.734375 61.265625 36.769531 61.21875 36.835938 C 60.925781 37.25 59.746094 37.429688 58.710938 37.222656 C 58.289062 37.136719 58.261719 37.109375 58.507812 37.003906 C 58.703125 36.921875 58.644531 36.90625 58.324219 36.964844 C 58.023438 37.019531 57.277344 36.882812 56.207031 36.582031 C 50.933594 35.085938 46.234375 32.449219 45.699219 30.679688 C 45.375 29.617188 45.769531 29.484375 46.777344 30.324219 C 48.542969 31.796875 51.171875 33.121094 54.90625 34.410156 C 57.253906 35.21875 62.859375 36.589844 63.050781 36.398438 C 63.089844 36.359375 62.847656 36.277344 62.511719 36.21875 C 62.167969 36.164062 61.972656 36.070312 62.066406 36.011719 C 62.3125 35.859375 61.730469 35.628906 59.996094 35.1875 C 57.980469 34.675781 54.890625 33.632812 53.53125 33.003906 C 52.917969 32.722656 52.398438 32.488281 52.375 32.488281 C 52.246094 32.488281 48.910156 30.585938 48.304688 30.167969 C 46.914062 29.207031 46.035156 28.015625 46.429688 27.621094 C 46.554688 27.496094 46.597656 27.5 46.597656 27.632812 C 46.597656 27.914062 47.011719 27.832031 47.179688 27.519531 C 47.304688 27.28125 47.265625 27.1875 46.953125 26.984375 C 46.441406 26.644531 45.640625 26.851562 45.308594 27.40625 C 45.085938 27.78125 45.082031 27.859375 45.300781 28.464844 C 45.429688 28.824219 45.476562 29.082031 45.410156 29.039062 C 45.339844 28.996094 45.28125 29.023438 45.28125 29.097656 C 45.28125 29.265625 44.402344 29.648438 44.148438 29.589844 C 44.046875 29.566406 43.925781 29.652344 43.875 29.773438 C 43.828125 29.898438 43.730469 29.964844 43.660156 29.917969 C 43.585938 29.875 43.527344 29.902344 43.527344 29.984375 C 43.527344 30.0625 43.414062 30.164062 43.273438 30.210938 C 42.90625 30.328125 42.101562 31.582031 41.953125 32.269531 C 41.648438 33.683594 42.515625 34.675781 45.203125 36 C 46.894531 36.832031 49.324219 37.761719 50.394531 37.988281 C 50.675781 38.046875 50.824219 38.125 50.722656 38.160156 C 50.621094 38.195312 50.582031 38.292969 50.636719 38.378906 C 50.699219 38.484375 50.617188 38.503906 50.378906 38.433594 C 49.8125 38.261719 49.589844 38.261719 49.621094 38.433594 C 49.636719 38.53125 49.082031 38.664062 48.195312 38.777344 C 47.394531 38.878906 46.742188 39.027344 46.742188 39.105469 C 46.742188 39.183594 46.921875 39.210938 47.144531 39.167969 C 47.65625 39.066406 48.761719 38.914062 49.394531 38.859375 C 50.769531 38.734375 53.234375 38.621094 53.167969 38.683594 C 53.011719 38.839844 49.117188 39.375 48.863281 39.277344 C 48.695312 39.210938 48.628906 39.230469 48.6875 39.324219 C 48.746094 39.417969 48.566406 39.460938 48.203125 39.441406 C 47.886719 39.421875 47.65625 39.457031 47.691406 39.515625 C 47.726562 39.574219 47.464844 39.597656 47.105469 39.566406 C 46.738281 39.539062 46.449219 39.578125 46.449219 39.65625 C 46.449219 39.734375 46.355469 39.761719 46.242188 39.71875 C 46.128906 39.675781 44.796875 39.878906 43.285156 40.171875 C 41.773438 40.464844 39.351562 40.933594 37.90625 41.214844 C 34.539062 41.867188 34.472656 41.878906 33.996094 41.90625 C 33.777344 41.921875 33.59375 41.988281 33.59375 42.058594 C 33.59375 42.128906 33.394531 42.148438 33.148438 42.097656 C 32.835938 42.035156 32.734375 42.058594 32.808594 42.175781 C 32.878906 42.292969 32.773438 42.316406 32.441406 42.25 C 32.183594 42.195312 32.007812 42.210938 32.050781 42.277344 C 32.144531 42.429688 28.980469 43.082031 28.773438 42.957031 C 28.691406 42.90625 28.667969 42.964844 28.71875 43.097656 C 28.792969 43.292969 28.746094 43.304688 28.417969 43.175781 C 27.917969 42.988281 27.855469 42.992188 27.984375 43.195312 C 28.054688 43.3125 27.96875 43.339844 27.703125 43.289062 C 27.496094 43.25 27.355469 43.273438 27.398438 43.34375 C 27.441406 43.410156 27.34375 43.46875 27.183594 43.46875 C 27.023438 43.46875 26.855469 43.53125 26.804688 43.609375 C 26.757812 43.683594 26.628906 43.714844 26.519531 43.671875 C 26.410156 43.628906 26.277344 43.667969 26.21875 43.757812 C 26.164062 43.84375 25.996094 43.878906 25.839844 43.828125 C 25.6875 43.78125 25.5625 43.804688 25.5625 43.882812 C 25.5625 44.039062 25.191406 44.027344 25.027344 43.863281 C 24.972656 43.804688 24.863281 43.761719 24.78125 43.761719 C 24.703125 43.761719 24.679688 43.804688 24.730469 43.855469 C 24.890625 44.015625 24.0625 44.375 23.492188 44.394531 C 23.195312 44.40625 22.992188 44.472656 23.039062 44.546875 C 23.085938 44.625 22.941406 44.640625 22.699219 44.582031 C 22.367188 44.503906 22.324219 44.519531 22.492188 44.644531 C 22.667969 44.777344 22.632812 44.796875 22.316406 44.746094 C 22.09375 44.710938 21.933594 44.746094 21.953125 44.832031 C 21.96875 44.917969 21.804688 45.003906 21.589844 45.023438 C 21.375 45.042969 20.898438 45.160156 20.527344 45.289062 C 20.15625 45.414062 19.742188 45.519531 19.601562 45.519531 C 19.386719 45.519531 19.382812 45.542969 19.570312 45.664062 C 19.691406 45.742188 19.726562 45.808594 19.644531 45.808594 C 19.5625 45.8125 19.59375 45.875 19.710938 45.949219 C 19.828125 46.023438 19.980469 46.046875 20.054688 46 C 20.128906 45.957031 20.097656 45.863281 19.988281 45.792969 C 19.855469 45.710938 19.847656 45.667969 19.964844 45.664062 C 20.207031 45.664062 20.390625 46 20.179688 46.070312 C 20.085938 46.101562 20.007812 46.210938 20.007812 46.316406 C 20.007812 46.425781 19.691406 46.566406 19.242188 46.65625 C 18.363281 46.828125 18.140625 46.765625 18.8125 46.53125 C 19.257812 46.375 19.261719 46.363281 19 46.082031 C 18.671875 45.730469 17.972656 45.835938 18.03125 46.222656 C 18.050781 46.359375 17.996094 46.515625 17.90625 46.574219 C 17.804688 46.644531 17.84375 46.683594 18 46.6875 C 18.140625 46.6875 18.257812 46.761719 18.257812 46.851562 C 18.257812 46.941406 18.164062 46.976562 18.054688 46.933594 C 17.945312 46.890625 17.769531 46.933594 17.667969 47.027344 C 17.523438 47.164062 17.503906 47.140625 17.578125 46.925781 C 17.65625 46.707031 17.621094 46.667969 17.394531 46.726562 C 17.1875 46.78125 17.132812 46.742188 17.191406 46.582031 C 17.238281 46.464844 17.183594 46.308594 17.074219 46.234375 C 16.945312 46.152344 16.933594 46.105469 17.039062 46.105469 C 17.136719 46.101562 17.3125 46.199219 17.433594 46.320312 C 17.550781 46.441406 17.6875 46.542969 17.734375 46.542969 C 17.898438 46.542969 17.8125 46.125 17.636719 46.058594 C 17.527344 46.015625 17.601562 45.925781 17.816406 45.835938 C 18.328125 45.621094 17.871094 45.628906 17.140625 45.847656 C 16.640625 46 16.574219 46.0625 16.742188 46.21875 C 16.972656 46.433594 17.015625 46.898438 16.792969 46.761719 C 16.710938 46.710938 16.683594 46.605469 16.730469 46.53125 C 16.773438 46.457031 16.710938 46.394531 16.585938 46.394531 C 16.339844 46.394531 16.335938 46.691406 16.578125 46.871094 C 16.660156 46.929688 16.613281 46.976562 16.46875 46.980469 C 16.328125 46.980469 16.210938 46.882812 16.210938 46.761719 C 16.210938 46.640625 16.132812 46.542969 16.039062 46.542969 C 15.941406 46.542969 15.992188 46.445312 16.148438 46.328125 C 16.546875 46.023438 16.410156 46.046875 14.640625 46.566406 C 13.777344 46.820312 12.894531 47.035156 12.683594 47.039062 C 12.46875 47.046875 12.324219 47.105469 12.363281 47.164062 C 12.398438 47.226562 12.203125 47.273438 11.921875 47.273438 C 11.644531 47.273438 11.394531 47.335938 11.367188 47.414062 C 11.339844 47.492188 11.105469 47.574219 10.84375 47.59375 C 10.582031 47.613281 10.367188 47.679688 10.367188 47.746094 C 10.367188 47.808594 10.175781 47.859375 9.9375 47.859375 C 9.703125 47.859375 9.46875 47.925781 9.417969 48.007812 C 9.367188 48.085938 9.179688 48.152344 9 48.152344 C 8.820312 48.152344 8.609375 48.214844 8.53125 48.292969 C 8.453125 48.371094 8.257812 48.460938 8.101562 48.492188 C 7.941406 48.523438 7.703125 48.59375 7.566406 48.652344 C 7.433594 48.710938 7.234375 48.773438 7.128906 48.789062 C 7.023438 48.804688 6.855469 48.867188 6.761719 48.929688 C 6.664062 48.988281 6.3125 49.132812 5.980469 49.253906 C 5.414062 49.453125 5.378906 49.449219 5.460938 49.210938 C 5.542969 48.972656 5.535156 48.972656 5.355469 49.207031 C 5.230469 49.367188 5.03125 49.429688 4.804688 49.386719 C 4.496094 49.328125 4.488281 49.335938 4.742188 49.453125 C 5.015625 49.574219 5.003906 49.597656 4.597656 49.761719 C 4.355469 49.855469 4.039062 49.960938 3.890625 49.988281 C 3.742188 50.019531 3.527344 50.121094 3.414062 50.214844 C 3.257812 50.347656 3.210938 50.339844 3.207031 50.183594 C 3.207031 50.054688 3.167969 50.039062 3.097656 50.136719 C 2.921875 50.386719 1.894531 50.96875 1.894531 50.816406 C 1.894531 50.738281 2.097656 50.59375 2.34375 50.492188 C 2.679688 50.351562 2.742188 50.269531 2.597656 50.167969 C 2.449219 50.0625 2.453125 50.046875 2.625 50.09375 C 2.746094 50.128906 2.925781 50.050781 3.023438 49.921875 C 3.183594 49.71875 3.222656 49.714844 3.351562 49.910156 C 3.484375 50.109375 3.566406 50.015625 3.519531 49.722656 C 3.507812 49.664062 3.679688 49.648438 3.902344 49.691406 C 4.207031 49.75 4.238281 49.738281 4.019531 49.644531 C 3.785156 49.542969 3.925781 49.445312 4.789062 49.105469 C 5.367188 48.878906 5.816406 48.664062 5.78125 48.632812 C 5.710938 48.558594 3.878906 49.296875 2.222656 50.066406 C 1.476562 50.417969 1.019531 50.714844 1.019531 50.855469 C 1.019531 51.109375 1.246094 51.160156 1.382812 50.933594 C 1.433594 50.855469 1.539062 50.789062 1.621094 50.789062 C 1.699219 50.789062 1.582031 50.949219 1.355469 51.148438 C 0.988281 51.472656 0.976562 51.511719 1.238281 51.519531 C 1.46875 51.523438 1.488281 51.550781 1.320312 51.65625 C 1.121094 51.78125 1.066406 51.933594 0.96875 52.625 C 0.945312 52.789062 0.886719 52.988281 0.839844 53.066406 C 0.789062 53.144531 0.796875 53.4375 0.851562 53.71875 C 0.941406 54.15625 1.023438 54.234375 1.414062 54.273438 C 1.761719 54.308594 1.890625 54.25 1.960938 54.03125 C 2.011719 53.871094 2.164062 53.699219 2.300781 53.644531 C 5.230469 52.503906 9.78125 51.019531 14.238281 49.761719 C 16.859375 49.023438 17.8125 48.699219 17.734375 48.574219 C 17.628906 48.402344 17.773438 48.414062 18.121094 48.597656 C 18.332031 48.710938 18.484375 48.699219 18.707031 48.542969 C 18.929688 48.386719 18.957031 48.308594 18.816406 48.246094 C 18.707031 48.195312 18.84375 48.195312 19.113281 48.246094 C 19.476562 48.308594 19.578125 48.285156 19.5 48.15625 C 19.425781 48.035156 19.519531 47.992188 19.808594 48.011719 C 20.460938 48.054688 20.617188 48.019531 20.515625 47.855469 C 20.464844 47.769531 20.246094 47.730469 20.03125 47.769531 C 18.660156 48.011719 18.613281 48.015625 19.277344 47.808594 C 20.582031 47.402344 22.015625 47.121094 22.273438 47.222656 C 22.449219 47.289062 22.507812 47.269531 22.441406 47.167969 C 22.324219 46.976562 23.417969 46.757812 23.679688 46.921875 C 23.78125 46.984375 23.8125 46.964844 23.757812 46.875 C 23.652344 46.703125 24.601562 46.476562 24.832031 46.617188 C 24.910156 46.667969 24.976562 46.628906 24.976562 46.535156 C 24.976562 46.429688 25.140625 46.386719 25.40625 46.425781 C 25.644531 46.460938 25.808594 46.445312 25.777344 46.394531 C 25.6875 46.246094 28.855469 45.609375 29.136719 45.71875 C 29.289062 45.777344 29.339844 45.75 29.273438 45.644531 C 29.203125 45.53125 29.3125 45.5 29.621094 45.546875 C 29.894531 45.585938 30.039062 45.554688 29.984375 45.46875 C 29.929688 45.382812 30.101562 45.359375 30.433594 45.414062 C 30.753906 45.46875 30.9375 45.445312 30.886719 45.363281 C 30.789062 45.203125 31.207031 45.199219 31.609375 45.355469 C 31.800781 45.433594 31.515625 45.539062 30.65625 45.707031 C 29.984375 45.84375 29.300781 45.976562 29.140625 46.011719 C 28.953125 46.050781 29.007812 46.078125 29.285156 46.085938 C 29.527344 46.097656 30.25 46 30.890625 45.871094 C 31.535156 45.746094 32.292969 45.605469 32.574219 45.5625 C 33.363281 45.445312 33.386719 45.316406 32.644531 45.152344 C 32.3125 45.078125 32.261719 45.09375 32.425781 45.210938 C 32.609375 45.34375 32.597656 45.367188 32.351562 45.359375 C 32.191406 45.355469 31.9375 45.304688 31.789062 45.246094 C 31.59375 45.167969 31.792969 45.085938 32.46875 44.960938 C 32.992188 44.863281 33.523438 44.824219 33.652344 44.875 C 33.789062 44.925781 33.886719 44.890625 33.886719 44.789062 C 33.886719 44.671875 34.011719 44.640625 34.253906 44.699219 C 34.484375 44.757812 34.617188 44.730469 34.617188 44.625 C 34.617188 44.515625 34.773438 44.488281 35.0625 44.546875 C 35.378906 44.609375 35.476562 44.585938 35.40625 44.46875 C 35.332031 44.351562 35.4375 44.328125 35.761719 44.394531 C 36.054688 44.453125 36.222656 44.429688 36.222656 44.328125 C 36.222656 44.234375 36.402344 44.195312 36.65625 44.230469 C 36.910156 44.269531 37.050781 44.238281 36.996094 44.152344 C 36.941406 44.066406 37.113281 44.042969 37.445312 44.097656 C 37.777344 44.152344 37.976562 44.125 37.976562 44.027344 C 37.976562 43.933594 38.148438 43.90625 38.414062 43.960938 C 38.691406 44.015625 38.855469 43.988281 38.855469 43.886719 C 38.855469 43.785156 39.019531 43.757812 39.292969 43.816406 C 39.566406 43.871094 39.730469 43.84375 39.730469 43.742188 C 39.730469 43.640625 39.894531 43.613281 40.175781 43.667969 C 40.488281 43.734375 40.589844 43.710938 40.519531 43.59375 C 40.445312 43.472656 40.570312 43.449219 40.949219 43.511719 C 41.246094 43.558594 41.484375 43.539062 41.484375 43.460938 C 41.484375 43.386719 41.632812 43.328125 41.8125 43.332031 L 42.140625 43.34375 L 41.8125 43.472656 C 41.316406 43.671875 41.378906 44.097656 41.886719 44 C 43.015625 43.785156 43.855469 43.734375 43.757812 43.894531 C 43.703125 43.980469 43.511719 44.054688 43.332031 44.054688 C 43.027344 44.054688 35.316406 45.390625 34.398438 45.601562 C 34.15625 45.65625 33.832031 45.714844 33.675781 45.730469 C 33.519531 45.746094 33.371094 45.828125 33.34375 45.910156 C 33.3125 46 33.640625 45.984375 34.210938 45.863281 C 36 45.484375 44.945312 44.042969 46.816406 43.828125 C 47.21875 43.785156 48.097656 43.652344 48.769531 43.535156 C 49.445312 43.417969 50.121094 43.324219 50.277344 43.324219 C 50.476562 43.324219 50.027344 43.847656 48.804688 45.042969 C 47.265625 46.546875 46.980469 46.902344 46.527344 47.886719 C 45.890625 49.273438 45.863281 50.015625 46.382812 51.957031 C 46.75 53.332031 47.03125 53.949219 47.558594 54.570312 L 47.558594 54.566406 C 47.84375 54.898438 48.195312 54.972656 48.429688 54.753906 C 48.507812 54.683594 48.832031 54.542969 49.152344 54.4375 L 49.738281 54.25 L 49.308594 54.074219 C 48.898438 53.902344 48.894531 53.890625 49.203125 53.792969 C 49.382812 53.734375 49.480469 53.621094 49.421875 53.53125 C 49.359375 53.429688 49.410156 53.402344 49.558594 53.460938 C 49.757812 53.535156 49.785156 53.441406 49.742188 52.832031 L 49.695312 52.117188 L 50.980469 50.902344 C 52.640625 49.332031 53.320312 48.742188 55.363281 47.09375 C 56.292969 46.347656 57.207031 45.589844 57.394531 45.410156 C 57.585938 45.234375 57.808594 45.128906 57.890625 45.179688 C 57.96875 45.226562 57.992188 45.199219 57.941406 45.117188 C 57.890625 45.03125 57.996094 44.863281 58.175781 44.746094 C 58.355469 44.625 58.644531 44.402344 58.820312 44.253906 C 60.503906 42.796875 61.847656 41.929688 61.566406 42.480469 C 61.515625 42.578125 61.605469 42.496094 61.773438 42.296875 C 61.9375 42.09375 62.078125 41.996094 62.078125 42.078125 C 62.082031 42.15625 62.203125 42.042969 62.347656 41.820312 C 62.496094 41.597656 62.648438 41.449219 62.6875 41.488281 C 62.730469 41.53125 62.761719 41.472656 62.761719 41.363281 C 62.761719 41.25 62.902344 40.859375 63.078125 40.492188 C 63.25 40.125 63.433594 39.550781 63.488281 39.21875 C 63.554688 38.792969 63.675781 38.574219 63.890625 38.488281 C 64.0625 38.417969 64.113281 38.359375 64.007812 38.355469 Z M 61.421875 35.761719 C 61.539062 35.761719 61.597656 35.816406 61.554688 35.882812 C 61.511719 35.949219 61.453125 36.003906 61.421875 36.003906 C 61.394531 36.003906 61.335938 35.949219 61.292969 35.882812 C 61.25 35.816406 61.308594 35.761719 61.421875 35.761719 Z M 45.136719 31.320312 C 45.054688 31.320312 44.988281 31.253906 44.988281 31.175781 C 44.988281 31.09375 45.054688 31.027344 45.136719 31.027344 C 45.214844 31.027344 45.28125 31.09375 45.28125 31.175781 C 45.28125 31.253906 45.214844 31.320312 45.136719 31.320312 Z M 45.347656 30.746094 C 45.222656 30.949219 45.136719 30.910156 45.136719 30.652344 C 45.136719 30.527344 45.203125 30.46875 45.285156 30.519531 C 45.367188 30.570312 45.394531 30.671875 45.347656 30.746094 Z M 1.9375 51.617188 C 1.898438 51.722656 1.84375 51.8125 1.824219 51.8125 C 1.800781 51.8125 1.746094 51.722656 1.707031 51.617188 C 1.664062 51.507812 1.71875 51.421875 1.824219 51.421875 C 1.929688 51.421875 1.980469 51.507812 1.9375 51.617188 Z M 3.644531 50.988281 C 3.605469 51.023438 3.449219 50.964844 3.292969 50.847656 C 2.980469 50.621094 3.15625 50.5625 3.5 50.78125 C 3.617188 50.855469 3.683594 50.949219 3.644531 50.988281 Z M 4.378906 50.347656 C 4.257812 50.425781 4.0625 50.492188 3.941406 50.492188 C 3.746094 50.492188 3.746094 50.476562 3.941406 50.347656 C 4.0625 50.269531 4.257812 50.207031 4.378906 50.207031 C 4.574219 50.207031 4.574219 50.222656 4.378906 50.347656 Z M 6.867188 49.804688 C 6.703125 49.847656 6.535156 49.824219 6.488281 49.75 C 6.445312 49.675781 6.335938 49.617188 6.246094 49.617188 C 6.15625 49.617188 6.125 49.65625 6.171875 49.707031 C 6.363281 49.898438 5.820312 50.234375 5.4375 50.160156 C 5.1875 50.109375 4.988281 50.164062 4.882812 50.308594 C 4.738281 50.511719 4.71875 50.511719 4.71875 50.308594 C 4.71875 50.015625 5.351562 49.726562 5.730469 49.847656 C 5.910156 49.90625 5.988281 49.882812 5.933594 49.792969 C 5.8125 49.601562 6.210938 49.453125 6.519531 49.574219 C 6.683594 49.636719 6.730469 49.609375 6.660156 49.496094 C 6.511719 49.253906 6.789062 49.28125 6.992188 49.527344 C 7.125 49.683594 7.097656 49.742188 6.867188 49.804688 Z M 8.769531 49.152344 C 8.652344 49.191406 8.53125 49.144531 8.5 49.054688 C 8.46875 48.960938 8.378906 48.886719 8.300781 48.886719 C 8.222656 48.886719 8.191406 48.933594 8.226562 48.996094 C 8.261719 49.054688 8.21875 49.171875 8.125 49.25 C 7.894531 49.453125 7.203125 49.519531 7.097656 49.347656 C 6.976562 49.15625 7.351562 49.035156 7.746094 49.136719 C 7.957031 49.191406 8.042969 49.167969 7.980469 49.070312 C 7.835938 48.832031 8.308594 48.71875 8.664062 48.910156 C 8.902344 49.039062 8.929688 49.097656 8.769531 49.152344 Z M 9.652344 48.863281 C 9.554688 49.015625 9.515625 49.007812 9.445312 48.824219 C 9.394531 48.695312 9.285156 48.59375 9.195312 48.59375 C 9.109375 48.59375 9.078125 48.65625 9.125 48.738281 C 9.179688 48.820312 9.113281 48.84375 8.972656 48.789062 C 8.757812 48.707031 8.757812 48.679688 8.953125 48.570312 C 9.074219 48.5 9.308594 48.496094 9.472656 48.554688 L 9.472656 48.558594 C 9.675781 48.632812 9.734375 48.730469 9.652344 48.863281 Z M 13.648438 47.039062 C 13.765625 46.992188 13.949219 46.988281 14.050781 47.03125 C 14.175781 47.078125 14.15625 47.109375 13.996094 47.117188 C 13.828125 47.125 13.777344 47.21875 13.832031 47.421875 C 13.929688 47.796875 13.847656 47.792969 13.613281 47.417969 C 13.460938 47.171875 13.464844 47.109375 13.648438 47.039062 Z M 10.613281 48.519531 C 10.613281 48.808594 10.503906 48.78125 10.160156 48.410156 C 9.910156 48.136719 9.90625 48.113281 10.136719 48.199219 C 10.277344 48.253906 10.441406 48.300781 10.503906 48.300781 C 10.5625 48.300781 10.613281 48.398438 10.613281 48.519531 Z M 11.507812 48.316406 C 11.457031 48.46875 11.414062 48.460938 11.308594 48.28125 C 11.234375 48.152344 11.074219 48.011719 10.953125 47.964844 C 10.757812 47.894531 10.757812 47.882812 10.953125 47.875 C 11.074219 47.871094 11.261719 47.921875 11.371094 47.992188 C 11.480469 48.0625 11.542969 48.207031 11.507812 48.316406 Z M 11.902344 48.007812 C 11.851562 48.085938 11.78125 48.152344 11.746094 48.152344 C 11.710938 48.152344 11.683594 48.085938 11.683594 48.007812 C 11.683594 47.925781 11.753906 47.859375 11.835938 47.859375 C 11.921875 47.859375 11.953125 47.925781 11.902344 48.007812 Z M 12.082031 47.859375 C 11.945312 47.699219 11.890625 47.566406 11.964844 47.566406 C 12.101562 47.566406 12.558594 47.972656 12.558594 48.089844 C 12.558594 48.246094 12.308594 48.125 12.082031 47.859375 Z M 14.398438 47.824219 C 14.347656 47.875 14.214844 47.929688 14.105469 47.945312 C 14 47.960938 13.753906 48.015625 13.5625 48.0625 C 13.371094 48.109375 13.300781 48.113281 13.40625 48.0625 C 13.550781 48 13.554688 47.929688 13.425781 47.773438 C 13.332031 47.664062 13.1875 47.613281 13.105469 47.664062 C 13.015625 47.71875 12.996094 47.6875 13.058594 47.589844 C 13.117188 47.492188 13.070312 47.421875 12.945312 47.421875 C 12.804688 47.421875 12.753906 47.53125 12.792969 47.75 C 12.828125 47.9375 12.8125 47.984375 12.757812 47.859375 C 12.707031 47.738281 12.597656 47.597656 12.519531 47.546875 C 12.4375 47.496094 12.519531 47.40625 12.699219 47.351562 C 12.929688 47.277344 13.117188 47.339844 13.355469 47.558594 C 13.589844 47.78125 13.808594 47.851562 14.089844 47.800781 C 14.3125 47.761719 14.453125 47.769531 14.398438 47.824219 Z M 14.226562 47.410156 C 14.058594 47.402344 14.023438 47.367188 14.140625 47.320312 C 14.246094 47.277344 14.371094 47.285156 14.417969 47.332031 C 14.46875 47.382812 14.382812 47.417969 14.226562 47.410156 Z M 15.429688 47.523438 C 15.285156 47.667969 14.898438 47.710938 14.898438 47.582031 C 14.898438 47.523438 14.761719 47.332031 14.597656 47.15625 C 14.433594 46.980469 14.371094 46.835938 14.453125 46.835938 C 14.539062 46.835938 14.71875 46.96875 14.859375 47.128906 C 14.996094 47.289062 15.203125 47.421875 15.320312 47.421875 C 15.433594 47.421875 15.484375 47.46875 15.429688 47.523438 Z M 16.429688 47.261719 C 16.007812 47.464844 15.988281 47.457031 15.769531 47.050781 C 15.605469 46.742188 15.496094 46.691406 15.125 46.757812 C 14.714844 46.832031 14.707031 46.824219 15.027344 46.6875 C 15.472656 46.496094 15.867188 46.621094 15.960938 46.976562 C 16.011719 47.179688 16.128906 47.238281 16.378906 47.1875 C 16.691406 47.128906 16.695312 47.136719 16.429688 47.261719 Z M 16.933594 47.273438 C 16.847656 47.273438 16.820312 47.210938 16.867188 47.128906 C 16.917969 47.046875 16.988281 46.980469 17.023438 46.980469 C 17.058594 46.980469 17.089844 47.046875 17.089844 47.128906 C 17.089844 47.210938 17.019531 47.273438 16.933594 47.273438 Z M 18.800781 46.332031 C 18.863281 46.40625 18.855469 46.421875 18.78125 46.363281 C 18.707031 46.300781 18.570312 46.316406 18.476562 46.394531 C 18.359375 46.492188 18.304688 46.476562 18.304688 46.339844 C 18.304688 46.117188 18.621094 46.113281 18.800781 46.332031 Z M 18.257812 48.152344 C 17.757812 48.3125 17.375 48.3125 17.746094 48.152344 C 17.90625 48.085938 18.167969 48.03125 18.328125 48.03125 C 18.566406 48.035156 18.550781 48.058594 18.257812 48.152344 Z M 23.660156 44.785156 C 23.78125 44.707031 23.945312 44.644531 24.027344 44.644531 C 24.105469 44.644531 24.074219 44.707031 23.953125 44.785156 C 23.832031 44.863281 23.667969 44.929688 23.589844 44.929688 C 23.507812 44.929688 23.542969 44.863281 23.660156 44.785156 Z M 21.515625 46.089844 C 21.046875 46.191406 20.550781 46.304688 20.414062 46.34375 C 20.171875 46.410156 20.171875 46.390625 20.414062 45.929688 C 20.550781 45.664062 20.683594 45.417969 20.707031 45.382812 C 20.726562 45.347656 20.8125 45.386719 20.890625 45.464844 C 20.972656 45.546875 21.25 45.582031 21.511719 45.539062 C 21.96875 45.46875 21.972656 45.464844 21.617188 45.359375 C 21.277344 45.261719 21.285156 45.253906 21.726562 45.242188 C 22.058594 45.230469 22.199219 45.292969 22.199219 45.445312 C 22.199219 45.566406 22.269531 45.664062 22.355469 45.664062 C 22.785156 45.664062 22.257812 45.929688 21.515625 46.089844 Z M 23.660156 45.585938 C 23.378906 45.640625 23.027344 45.722656 22.875 45.765625 C 22.699219 45.816406 22.636719 45.785156 22.703125 45.679688 C 22.761719 45.585938 22.691406 45.515625 22.539062 45.507812 C 22.394531 45.5 22.351562 45.464844 22.449219 45.425781 C 22.542969 45.386719 22.589844 45.242188 22.546875 45.105469 C 22.492188 44.929688 22.554688 44.957031 22.761719 45.1875 C 23.136719 45.617188 23.199219 45.605469 23.105469 45.117188 C 23.039062 44.757812 23.058594 44.734375 23.265625 44.910156 C 23.394531 45.015625 23.628906 45.0625 23.78125 45.015625 C 23.941406 44.964844 24.132812 45.015625 24.234375 45.136719 C 24.4375 45.382812 24.351562 45.449219 23.660156 45.585938 Z M 24.464844 45.179688 C 24.230469 44.882812 24.230469 44.640625 24.464844 44.640625 C 24.585938 44.640625 24.683594 44.699219 24.683594 44.773438 C 24.683594 44.847656 24.722656 45.011719 24.773438 45.140625 C 24.878906 45.414062 24.671875 45.441406 24.464844 45.179688 Z M 25.671875 45.109375 C 25.449219 45.152344 25.269531 45.128906 25.269531 45.058594 C 25.269531 44.988281 25.152344 44.929688 25.011719 44.921875 C 24.859375 44.914062 24.832031 44.878906 24.941406 44.835938 C 25.042969 44.796875 25.085938 44.703125 25.042969 44.628906 C 24.914062 44.421875 25.222656 44.46875 25.445312 44.691406 C 25.550781 44.796875 25.738281 44.917969 25.855469 44.957031 C 25.988281 45.003906 25.917969 45.058594 25.671875 45.109375 Z M 27.347656 44.589844 C 27.195312 44.828125 26.285156 44.949219 25.890625 44.789062 C 25.671875 44.695312 25.59375 44.574219 25.65625 44.414062 C 25.722656 44.242188 25.777344 44.226562 25.855469 44.351562 C 25.917969 44.453125 26.089844 44.484375 26.265625 44.429688 C 26.433594 44.375 26.703125 44.402344 26.867188 44.488281 C 27.109375 44.617188 27.144531 44.605469 27.074219 44.425781 C 27.027344 44.300781 26.914062 44.195312 26.824219 44.191406 C 26.730469 44.183594 26.789062 44.125 26.949219 44.054688 C 27.351562 43.882812 27.582031 43.882812 27.3125 44.054688 C 27.167969 44.148438 27.15625 44.199219 27.277344 44.199219 C 27.484375 44.203125 27.507812 44.339844 27.347656 44.589844 Z M 28.019531 44.417969 C 27.929688 44.511719 27.683594 44.296875 27.640625 44.089844 C 27.589844 43.828125 27.890625 43.867188 27.992188 44.132812 C 28.042969 44.257812 28.054688 44.386719 28.019531 44.417969 Z M 31.003906 43.636719 C 30.933594 43.707031 30.417969 43.863281 29.859375 43.980469 C 28.582031 44.253906 28.386719 44.253906 28.386719 43.980469 C 28.386719 43.726562 28.566406 43.691406 28.707031 43.917969 C 28.769531 44.019531 28.890625 43.996094 29.054688 43.84375 C 29.195312 43.71875 29.347656 43.65625 29.398438 43.703125 C 29.445312 43.75 29.570312 43.738281 29.671875 43.675781 C 29.9375 43.511719 31.164062 43.476562 31.003906 43.636719 Z M 31.695312 43.46875 C 31.414062 43.652344 31.257812 43.652344 31.257812 43.46875 C 31.257812 43.390625 31.40625 43.324219 31.585938 43.324219 C 31.851562 43.328125 31.875 43.355469 31.695312 43.46875 Z M 42.726562 43.324219 C 42.324219 43.496094 42.09375 43.496094 42.359375 43.324219 C 42.480469 43.246094 42.679688 43.183594 42.796875 43.1875 C 42.941406 43.195312 42.917969 43.238281 42.726562 43.324219 Z M 43.617188 43.199219 C 43.578125 43.140625 43.675781 43.082031 43.832031 43.070312 C 43.984375 43.058594 44.113281 43.070312 44.113281 43.097656 C 44.113281 43.210938 43.679688 43.300781 43.617188 43.199219 Z M 44.257812 43.910156 C 43.988281 43.910156 43.949219 43.871094 44.082031 43.734375 C 44.21875 43.597656 44.296875 43.597656 44.433594 43.734375 C 44.570312 43.871094 44.53125 43.910156 44.257812 43.910156 Z M 45.648438 43.734375 C 45.40625 43.730469 45.324219 43.699219 45.46875 43.660156 C 45.609375 43.625 45.804688 43.625 45.90625 43.667969 C 46.003906 43.707031 45.886719 43.738281 45.648438 43.734375 Z M 45.648438 43.734375 " fill-opacity="1" fill-rule="nonzero"/></g><path fill="#000000" d="M 20.820312 45.902344 C 20.695312 45.949219 20.59375 46.015625 20.59375 46.046875 C 20.59375 46.164062 20.871094 46.097656 20.957031 45.960938 C 21.007812 45.875 20.949219 45.851562 20.820312 45.902344 Z M 20.820312 45.902344 " fill-opacity="1" fill-rule="nonzero"/><path fill="#000000" d="M 44.734375 39.421875 C 44.632812 39.382812 44.46875 39.382812 44.367188 39.421875 C 44.269531 39.464844 44.351562 39.496094 44.550781 39.496094 C 44.753906 39.496094 44.835938 39.464844 44.734375 39.421875 Z M 44.734375 39.421875 " fill-opacity="1" fill-rule="nonzero"/><path fill="#000000" d="M 34.488281 45.226562 C 34.648438 45.226562 34.742188 45.160156 34.691406 45.082031 C 34.640625 45 34.46875 44.933594 34.308594 44.933594 C 34.148438 44.933594 34.058594 45 34.105469 45.082031 C 34.15625 45.160156 34.328125 45.226562 34.488281 45.226562 Z M 34.488281 45.226562 " fill-opacity="1" fill-rule="nonzero"/><path fill="#000000" d="M 35.285156 45.082031 C 35.398438 45.082031 35.496094 45.015625 35.496094 44.933594 C 35.496094 44.855469 35.359375 44.789062 35.195312 44.789062 C 35.027344 44.789062 34.933594 44.855469 34.984375 44.933594 C 35.03125 45.015625 35.167969 45.082031 35.285156 45.082031 Z M 35.285156 45.082031 " fill-opacity="1" fill-rule="nonzero"/><path fill="#000000" d="M 19.132812 45.960938 C 19.132812 46.027344 19.25 46.113281 19.390625 46.152344 C 19.851562 46.273438 19.867188 46.253906 19.5625 45.949219 C 19.304688 45.695312 19.289062 45.609375 19.453125 45.410156 C 19.617188 45.203125 19.609375 45.1875 19.375 45.273438 C 19.230469 45.328125 19.011719 45.375 18.890625 45.375 C 18.703125 45.375 18.707031 45.40625 18.902344 45.605469 C 19.03125 45.730469 19.132812 45.890625 19.132812 45.960938 Z M 19.132812 45.960938 " fill-opacity="1" fill-rule="nonzero"/><path fill="#000000" d="M 7.664062 48.003906 C 7.746094 48.003906 7.910156 47.941406 8.03125 47.863281 C 8.152344 47.785156 8.183594 47.71875 8.105469 47.71875 C 8.023438 47.71875 7.859375 47.785156 7.738281 47.863281 C 7.617188 47.941406 7.585938 48.003906 7.664062 48.003906 Z M 7.664062 48.003906 " fill-opacity="1" fill-rule="nonzero"/><path fill="#000000" d="M 7.167969 48.195312 C 7.363281 48.140625 7.429688 48.078125 7.320312 48.039062 C 7.214844 48.003906 7.058594 48.046875 6.976562 48.128906 C 6.867188 48.238281 6.921875 48.257812 7.167969 48.195312 Z M 7.167969 48.195312 " fill-opacity="1" fill-rule="nonzero"/><path fill="#000000" d="M 6.058594 48.589844 C 6.140625 48.589844 6.304688 48.527344 6.425781 48.449219 C 6.542969 48.371094 6.578125 48.304688 6.496094 48.304688 C 6.417969 48.304688 6.253906 48.371094 6.132812 48.449219 C 6.011719 48.527344 5.980469 48.589844 6.058594 48.589844 Z M 6.058594 48.589844 " fill-opacity="1" fill-rule="nonzero"/><path fill="#000000" d="M 36.371094 44.835938 C 36.492188 44.792969 36.886719 44.734375 37.246094 44.703125 C 37.609375 44.671875 38.132812 44.609375 38.414062 44.566406 C 38.695312 44.523438 39.449219 44.402344 40.085938 44.304688 C 41.203125 44.128906 41.628906 43.867188 41.117188 43.667969 C 40.980469 43.617188 40.828125 43.640625 40.773438 43.722656 C 40.722656 43.804688 39.792969 44.019531 38.707031 44.199219 C 37.625 44.378906 36.636719 44.5625 36.515625 44.609375 C 36.394531 44.652344 36.1875 44.671875 36.054688 44.65625 C 35.921875 44.640625 35.777344 44.6875 35.734375 44.757812 C 35.644531 44.902344 36.035156 44.949219 36.371094 44.835938 Z M 36.371094 44.835938 " fill-opacity="1" fill-rule="nonzero"/><path fill="#000000" d="M 63.457031 36.582031 C 63.609375 36.585938 63.695312 36.554688 63.648438 36.503906 C 63.601562 36.457031 63.472656 36.449219 63.367188 36.492188 C 63.25 36.539062 63.285156 36.574219 63.457031 36.582031 Z M 63.457031 36.582031 " fill-opacity="1" fill-rule="nonzero"/><path fill="#000000" d="M 304.394531 46.15625 C 304.496094 46.113281 304.660156 46.113281 304.757812 46.15625 C 304.859375 46.195312 304.777344 46.226562 304.578125 46.226562 C 304.375 46.226562 304.292969 46.195312 304.394531 46.15625 Z M 304.394531 46.15625 " fill-opacity="1" fill-rule="nonzero"/><path fill="#000000" d="M 303.664062 46.007812 C 303.765625 45.96875 303.929688 45.96875 304.027344 46.007812 C 304.128906 46.050781 304.046875 46.082031 303.847656 46.082031 C 303.644531 46.082031 303.5625 46.050781 303.664062 46.007812 Z M 303.664062 46.007812 " fill-opacity="1" fill-rule="nonzero"/><path fill="#000000" d="M 305.234375 46.28125 C 305.394531 46.28125 305.691406 46.335938 305.890625 46.398438 C 306.179688 46.492188 306.195312 46.515625 305.964844 46.515625 C 305.804688 46.515625 305.507812 46.464844 305.308594 46.398438 C 305.019531 46.304688 305.003906 46.28125 305.234375 46.28125 Z M 305.234375 46.28125 " fill-opacity="1" fill-rule="nonzero"/><path fill="#000000" d="M 307.332031 46.574219 C 307.523438 46.542969 307.738281 46.582031 307.8125 46.652344 C 307.894531 46.734375 307.757812 46.757812 307.464844 46.707031 C 307.0625 46.640625 307.039062 46.621094 307.332031 46.574219 Z M 307.332031 46.574219 " fill-opacity="1" fill-rule="nonzero"/><path fill="#000000" d="M 308.046875 46.15625 C 308.144531 46.113281 308.3125 46.113281 308.410156 46.15625 C 308.511719 46.195312 308.429688 46.226562 308.230469 46.226562 C 308.027344 46.226562 307.945312 46.195312 308.046875 46.15625 Z M 308.046875 46.15625 " fill-opacity="1" fill-rule="nonzero"/><path fill="#000000" d="M 310.820312 46.742188 C 310.921875 46.699219 311.085938 46.699219 311.1875 46.742188 C 311.289062 46.78125 311.203125 46.816406 311.003906 46.816406 C 310.804688 46.816406 310.722656 46.78125 310.820312 46.742188 Z M 310.820312 46.742188 " fill-opacity="1" fill-rule="nonzero"/><path fill="#000000" d="M 309.714844 46.445312 C 309.832031 46.492188 309.796875 46.527344 309.628906 46.535156 C 309.472656 46.539062 309.386719 46.503906 309.4375 46.457031 C 309.484375 46.40625 309.609375 46.402344 309.714844 46.445312 Z M 309.714844 46.445312 " fill-opacity="1" fill-rule="nonzero"/><path fill="#000000" d="M 316.042969 47.738281 C 315.570312 47.84375 315.394531 47.824219 315.488281 47.667969 C 315.542969 47.578125 315.410156 47.558594 315.136719 47.613281 C 314.894531 47.660156 314.503906 47.648438 314.273438 47.585938 L 313.851562 47.476562 L 314.289062 47.386719 C 314.789062 47.289062 316.511719 47.632812 316.042969 47.738281 Z M 316.042969 47.738281 " fill-opacity="1" fill-rule="nonzero"/><path fill="#000000" d="M 311.660156 46.835938 C 311.820312 46.769531 312.050781 46.710938 312.171875 46.710938 C 312.3125 46.710938 312.285156 46.757812 312.101562 46.835938 C 311.9375 46.90625 311.707031 46.964844 311.589844 46.964844 C 311.449219 46.964844 311.476562 46.917969 311.660156 46.835938 Z M 311.660156 46.835938 " fill-opacity="1" fill-rule="nonzero"/><path fill="#000000" d="M 312.347656 47.03125 C 312.460938 47.078125 312.429688 47.113281 312.257812 47.121094 C 312.105469 47.125 312.019531 47.089844 312.066406 47.042969 C 312.113281 46.992188 312.242188 46.988281 312.347656 47.03125 Z M 312.347656 47.03125 " fill-opacity="1" fill-rule="nonzero"/><path fill="#000000" d="M 308.894531 46.238281 C 309.382812 46.046875 309.585938 46.074219 309.371094 46.304688 C 309.269531 46.410156 309.058594 46.464844 308.898438 46.425781 C 308.613281 46.351562 308.613281 46.347656 308.894531 46.238281 Z M 308.894531 46.238281 " fill-opacity="1" fill-rule="nonzero"/><path fill="#000000" d="M 302.902344 45.371094 C 302.507812 45.375 302.792969 45.144531 303.335938 45.015625 C 303.75 44.921875 303.757812 44.925781 303.480469 45.140625 C 303.320312 45.265625 303.0625 45.367188 302.902344 45.371094 Z M 302.902344 45.371094 " fill-opacity="1" fill-rule="nonzero"/><g clip-path="url(#ec76f7e646)"><path fill="#000000" d="M 272.703125 38.355469 C 272.808594 38.347656 272.859375 38.285156 272.8125 38.214844 C 272.769531 38.144531 272.863281 38.050781 273.023438 38.007812 C 273.203125 37.960938 273.316406 37.808594 273.316406 37.613281 C 273.316406 37.339844 273.375 37.308594 273.730469 37.386719 C 274.09375 37.46875 274.140625 37.4375 274.128906 37.144531 C 274.121094 36.847656 274.199219 36.800781 274.761719 36.761719 C 275.113281 36.734375 275.445312 36.769531 275.492188 36.835938 C 275.785156 37.25 276.964844 37.429688 278 37.222656 C 278.421875 37.136719 278.449219 37.109375 278.203125 37.003906 C 278.007812 36.921875 278.066406 36.90625 278.386719 36.964844 C 278.6875 37.019531 279.433594 36.882812 280.503906 36.582031 C 285.777344 35.085938 290.476562 32.449219 291.011719 30.679688 C 291.335938 29.617188 290.941406 29.484375 289.933594 30.324219 C 288.167969 31.796875 285.539062 33.121094 281.804688 34.410156 C 279.457031 35.21875 273.851562 36.589844 273.660156 36.398438 C 273.621094 36.359375 273.863281 36.277344 274.199219 36.21875 C 274.542969 36.164062 274.738281 36.070312 274.644531 36.011719 C 274.398438 35.859375 274.980469 35.628906 276.714844 35.1875 C 278.730469 34.675781 281.820312 33.632812 283.179688 33.003906 C 283.792969 32.722656 284.3125 32.488281 284.335938 32.488281 C 284.464844 32.488281 287.800781 30.585938 288.40625 30.167969 C 289.796875 29.207031 290.675781 28.015625 290.28125 27.621094 C 290.15625 27.496094 290.113281 27.5 290.113281 27.632812 C 290.113281 27.914062 289.699219 27.832031 289.53125 27.519531 C 289.40625 27.28125 289.445312 27.1875 289.757812 26.984375 C 290.269531 26.644531 291.070312 26.851562 291.402344 27.40625 C 291.625 27.78125 291.628906 27.859375 291.410156 28.464844 C 291.28125 28.824219 291.234375 29.082031 291.300781 29.039062 C 291.371094 28.996094 291.429688 29.023438 291.429688 29.097656 C 291.429688 29.265625 292.308594 29.648438 292.5625 29.589844 C 292.664062 29.566406 292.785156 29.652344 292.835938 29.773438 C 292.882812 29.898438 292.980469 29.964844 293.050781 29.917969 C 293.125 29.875 293.183594 29.902344 293.183594 29.984375 C 293.183594 30.0625 293.296875 30.164062 293.4375 30.210938 C 293.804688 30.328125 294.609375 31.582031 294.757812 32.269531 C 295.0625 33.683594 294.195312 34.675781 291.507812 36 C 289.816406 36.832031 287.386719 37.761719 286.316406 37.988281 C 286.035156 38.046875 285.886719 38.125 285.988281 38.160156 C 286.089844 38.195312 286.128906 38.292969 286.074219 38.378906 C 286.011719 38.484375 286.09375 38.503906 286.332031 38.433594 C 286.898438 38.261719 287.121094 38.261719 287.089844 38.433594 C 287.074219 38.53125 287.628906 38.664062 288.515625 38.777344 C 289.316406 38.878906 289.96875 39.027344 289.96875 39.105469 C 289.96875 39.183594 289.789062 39.210938 289.566406 39.167969 C 289.054688 39.066406 287.949219 38.914062 287.316406 38.859375 C 285.941406 38.734375 283.476562 38.621094 283.542969 38.683594 C 283.699219 38.839844 287.59375 39.375 287.847656 39.277344 C 288.015625 39.210938 288.082031 39.230469 288.023438 39.324219 C 287.964844 39.417969 288.144531 39.460938 288.507812 39.441406 C 288.824219 39.421875 289.054688 39.457031 289.019531 39.515625 C 288.984375 39.574219 289.246094 39.597656 289.605469 39.566406 C 289.972656 39.539062 290.261719 39.578125 290.261719 39.65625 C 290.261719 39.734375 290.355469 39.761719 290.46875 39.71875 C 290.582031 39.675781 291.914062 39.878906 293.425781 40.171875 C 294.9375 40.464844 297.359375 40.933594 298.804688 41.214844 C 302.171875 41.867188 302.238281 41.878906 302.714844 41.90625 C 302.933594 41.921875 303.117188 41.988281 303.117188 42.058594 C 303.117188 42.128906 303.316406 42.148438 303.5625 42.097656 C 303.875 42.035156 303.976562 42.058594 303.902344 42.175781 C 303.832031 42.292969 303.9375 42.316406 304.269531 42.25 C 304.527344 42.195312 304.703125 42.210938 304.660156 42.277344 C 304.566406 42.429688 307.730469 43.082031 307.9375 42.957031 C 308.019531 42.90625 308.042969 42.964844 307.992188 43.097656 C 307.917969 43.292969 307.964844 43.304688 308.292969 43.175781 C 308.792969 42.988281 308.855469 42.992188 308.726562 43.195312 C 308.65625 43.3125 308.742188 43.339844 309.007812 43.289062 C 309.214844 43.25 309.355469 43.273438 309.3125 43.34375 C 309.269531 43.410156 309.367188 43.46875 309.527344 43.46875 C 309.6875 43.46875 309.855469 43.53125 309.90625 43.609375 C 309.953125 43.683594 310.082031 43.714844 310.191406 43.671875 C 310.300781 43.628906 310.433594 43.667969 310.492188 43.757812 C 310.546875 43.84375 310.714844 43.878906 310.871094 43.828125 C 311.023438 43.78125 311.148438 43.804688 311.148438 43.882812 C 311.148438 44.039062 311.519531 44.027344 311.683594 43.863281 C 311.738281 43.804688 311.847656 43.761719 311.929688 43.761719 C 312.011719 43.761719 312.03125 43.804688 311.980469 43.855469 C 311.820312 44.015625 312.648438 44.375 313.21875 44.394531 C 313.515625 44.40625 313.71875 44.472656 313.671875 44.546875 C 313.625 44.625 313.769531 44.640625 314.015625 44.582031 C 314.34375 44.503906 314.386719 44.519531 314.21875 44.644531 C 314.042969 44.777344 314.078125 44.796875 314.394531 44.746094 C 314.617188 44.710938 314.777344 44.746094 314.757812 44.832031 C 314.742188 44.917969 314.90625 45.003906 315.121094 45.023438 C 315.335938 45.042969 315.8125 45.160156 316.183594 45.289062 C 316.554688 45.414062 316.96875 45.519531 317.109375 45.519531 C 317.324219 45.519531 317.328125 45.542969 317.140625 45.664062 C 317.019531 45.742188 316.984375 45.808594 317.066406 45.808594 C 317.148438 45.8125 317.117188 45.875 317 45.949219 C 316.882812 46.023438 316.730469 46.046875 316.65625 46 C 316.582031 45.957031 316.613281 45.863281 316.722656 45.792969 C 316.855469 45.710938 316.863281 45.667969 316.746094 45.664062 C 316.503906 45.664062 316.320312 46 316.53125 46.070312 C 316.625 46.101562 316.703125 46.210938 316.703125 46.316406 C 316.703125 46.425781 317.019531 46.566406 317.46875 46.65625 C 318.347656 46.828125 318.570312 46.765625 317.898438 46.53125 C 317.453125 46.375 317.449219 46.363281 317.710938 46.082031 C 318.039062 45.730469 318.738281 45.835938 318.679688 46.222656 C 318.660156 46.359375 318.714844 46.515625 318.804688 46.574219 C 318.90625 46.644531 318.867188 46.683594 318.710938 46.6875 C 318.570312 46.6875 318.453125 46.761719 318.453125 46.851562 C 318.453125 46.941406 318.546875 46.976562 318.65625 46.933594 C 318.765625 46.890625 318.941406 46.933594 319.042969 47.027344 C 319.1875 47.164062 319.207031 47.140625 319.132812 46.925781 C 319.054688 46.707031 319.089844 46.667969 319.316406 46.726562 C 319.523438 46.78125 319.578125 46.742188 319.519531 46.582031 C 319.472656 46.464844 319.527344 46.308594 319.636719 46.234375 C 319.765625 46.152344 319.777344 46.105469 319.671875 46.105469 C 319.574219 46.101562 319.398438 46.199219 319.277344 46.320312 C 319.160156 46.441406 319.023438 46.542969 318.976562 46.542969 C 318.8125 46.542969 318.898438 46.125 319.074219 46.058594 C 319.183594 46.015625 319.109375 45.925781 318.894531 45.835938 C 318.382812 45.621094 318.839844 45.628906 319.570312 45.847656 C 320.070312 46 320.136719 46.0625 319.96875 46.21875 C 319.738281 46.433594 319.695312 46.898438 319.917969 46.761719 C 320 46.710938 320.027344 46.605469 319.980469 46.53125 C 319.9375 46.457031 320 46.394531 320.125 46.394531 C 320.371094 46.394531 320.375 46.691406 320.132812 46.871094 C 320.050781 46.929688 320.097656 46.976562 320.242188 46.980469 C 320.382812 46.980469 320.5 46.882812 320.5 46.761719 C 320.5 46.640625 320.578125 46.542969 320.671875 46.542969 C 320.769531 46.542969 320.71875 46.445312 320.5625 46.328125 C 320.164062 46.023438 320.300781 46.046875 322.070312 46.566406 C 322.933594 46.820312 323.816406 47.035156 324.027344 47.039062 C 324.242188 47.046875 324.386719 47.105469 324.347656 47.164062 C 324.3125 47.226562 324.507812 47.273438 324.789062 47.273438 C 325.066406 47.273438 325.316406 47.335938 325.34375 47.414062 C 325.371094 47.492188 325.605469 47.574219 325.867188 47.59375 C 326.128906 47.613281 326.34375 47.679688 326.34375 47.746094 C 326.34375 47.808594 326.535156 47.859375 326.773438 47.859375 C 327.007812 47.859375 327.242188 47.925781 327.292969 48.007812 C 327.34375 48.085938 327.53125 48.152344 327.710938 48.152344 C 327.890625 48.152344 328.101562 48.214844 328.179688 48.292969 C 328.257812 48.371094 328.453125 48.460938 328.609375 48.492188 C 328.769531 48.523438 329.007812 48.59375 329.144531 48.652344 C 329.277344 48.710938 329.476562 48.773438 329.582031 48.789062 C 329.6875 48.804688 329.855469 48.867188 329.949219 48.929688 C 330.046875 48.988281 330.398438 49.132812 330.730469 49.253906 C 331.296875 49.453125 331.332031 49.449219 331.25 49.210938 C 331.167969 48.972656 331.175781 48.972656 331.355469 49.207031 C 331.480469 49.367188 331.679688 49.429688 331.90625 49.386719 C 332.214844 49.328125 332.222656 49.335938 331.96875 49.453125 C 331.695312 49.574219 331.707031 49.597656 332.113281 49.761719 C 332.355469 49.855469 332.671875 49.960938 332.820312 49.988281 C 332.96875 50.019531 333.183594 50.121094 333.296875 50.214844 C 333.453125 50.347656 333.5 50.339844 333.503906 50.183594 C 333.503906 50.054688 333.542969 50.039062 333.613281 50.136719 C 333.789062 50.386719 334.816406 50.96875 334.816406 50.816406 C 334.816406 50.738281 334.613281 50.59375 334.367188 50.492188 C 334.03125 50.351562 333.96875 50.269531 334.113281 50.167969 C 334.261719 50.0625 334.257812 50.046875 334.085938 50.09375 C 333.964844 50.128906 333.785156 50.050781 333.6875 49.921875 C 333.527344 49.71875 333.488281 49.714844 333.359375 49.910156 C 333.226562 50.109375 333.144531 50.015625 333.191406 49.722656 C 333.203125 49.664062 333.03125 49.648438 332.808594 49.691406 C 332.503906 49.75 332.472656 49.738281 332.691406 49.644531 C 332.925781 49.542969 332.785156 49.445312 331.921875 49.105469 C 331.34375 48.878906 330.894531 48.664062 330.929688 48.632812 C 331 48.558594 332.832031 49.296875 334.488281 50.066406 C 335.234375 50.417969 335.691406 50.714844 335.691406 50.855469 C 335.691406 51.109375 335.464844 51.160156 335.328125 50.933594 C 335.277344 50.855469 335.171875 50.789062 335.089844 50.789062 C 335.011719 50.789062 335.128906 50.949219 335.355469 51.148438 C 335.722656 51.472656 335.734375 51.511719 335.472656 51.519531 C 335.242188 51.523438 335.222656 51.550781 335.390625 51.65625 C 335.589844 51.78125 335.644531 51.933594 335.742188 52.625 C 335.765625 52.789062 335.824219 52.988281 335.871094 53.066406 C 335.921875 53.144531 335.914062 53.4375 335.859375 53.71875 C 335.769531 54.15625 335.6875 54.234375 335.296875 54.273438 C 334.949219 54.308594 334.820312 54.25 334.75 54.03125 C 334.699219 53.871094 334.546875 53.699219 334.410156 53.644531 C 331.480469 52.503906 326.929688 51.019531 322.472656 49.761719 C 319.851562 49.023438 318.898438 48.699219 318.976562 48.574219 C 319.082031 48.402344 318.9375 48.414062 318.589844 48.597656 C 318.378906 48.710938 318.226562 48.699219 318.003906 48.542969 C 317.78125 48.386719 317.753906 48.308594 317.894531 48.246094 C 318.003906 48.195312 317.867188 48.195312 317.597656 48.246094 C 317.234375 48.308594 317.132812 48.285156 317.210938 48.15625 C 317.285156 48.035156 317.191406 47.992188 316.902344 48.011719 C 316.25 48.054688 316.09375 48.019531 316.195312 47.855469 C 316.246094 47.769531 316.464844 47.730469 316.679688 47.769531 C 318.050781 48.011719 318.097656 48.015625 317.433594 47.808594 C 316.128906 47.402344 314.695312 47.121094 314.4375 47.222656 C 314.261719 47.289062 314.203125 47.269531 314.269531 47.167969 C 314.386719 46.976562 313.292969 46.757812 313.03125 46.921875 C 312.929688 46.984375 312.898438 46.964844 312.953125 46.875 C 313.058594 46.703125 312.109375 46.476562 311.878906 46.617188 C 311.800781 46.667969 311.734375 46.628906 311.734375 46.535156 C 311.734375 46.429688 311.570312 46.386719 311.304688 46.425781 C 311.066406 46.460938 310.902344 46.445312 310.933594 46.394531 C 311.023438 46.246094 307.855469 45.609375 307.574219 45.71875 C 307.421875 45.777344 307.371094 45.75 307.4375 45.644531 C 307.507812 45.53125 307.398438 45.5 307.089844 45.546875 C 306.816406 45.585938 306.671875 45.554688 306.726562 45.46875 C 306.78125 45.382812 306.609375 45.359375 306.277344 45.414062 C 305.957031 45.46875 305.773438 45.445312 305.824219 45.363281 C 305.921875 45.203125 305.503906 45.199219 305.105469 45.355469 C 304.910156 45.433594 305.195312 45.539062 306.054688 45.707031 C 306.726562 45.84375 307.410156 45.976562 307.570312 46.011719 C 307.757812 46.050781 307.703125 46.078125 307.425781 46.085938 C 307.183594 46.097656 306.460938 46 305.820312 45.871094 C 305.175781 45.746094 304.417969 45.605469 304.136719 45.5625 C 303.347656 45.445312 303.324219 45.316406 304.066406 45.152344 C 304.398438 45.078125 304.449219 45.09375 304.285156 45.210938 C 304.101562 45.34375 304.113281 45.367188 304.359375 45.359375 C 304.519531 45.355469 304.773438 45.304688 304.921875 45.246094 C 305.117188 45.167969 304.917969 45.085938 304.242188 44.960938 C 303.71875 44.863281 303.1875 44.824219 303.058594 44.875 C 302.921875 44.925781 302.824219 44.890625 302.824219 44.789062 C 302.824219 44.671875 302.699219 44.640625 302.457031 44.699219 C 302.226562 44.757812 302.09375 44.730469 302.09375 44.625 C 302.09375 44.515625 301.9375 44.488281 301.648438 44.546875 C 301.332031 44.609375 301.234375 44.585938 301.304688 44.46875 C 301.378906 44.351562 301.273438 44.328125 300.949219 44.394531 C 300.65625 44.453125 300.488281 44.429688 300.488281 44.328125 C 300.488281 44.234375 300.308594 44.195312 300.054688 44.230469 C 299.800781 44.269531 299.660156 44.238281 299.714844 44.152344 C 299.769531 44.066406 299.597656 44.042969 299.265625 44.097656 C 298.933594 44.152344 298.734375 44.125 298.734375 44.027344 C 298.734375 43.933594 298.5625 43.90625 298.296875 43.960938 C 298.019531 44.015625 297.855469 43.988281 297.855469 43.886719 C 297.855469 43.785156 297.691406 43.757812 297.417969 43.816406 C 297.144531 43.871094 296.980469 43.84375 296.980469 43.742188 C 296.980469 43.640625 296.816406 43.613281 296.535156 43.667969 C 296.222656 43.734375 296.121094 43.710938 296.191406 43.59375 C 296.265625 43.472656 296.140625 43.449219 295.761719 43.511719 C 295.464844 43.558594 295.226562 43.539062 295.226562 43.460938 C 295.226562 43.386719 295.078125 43.328125 294.898438 43.332031 L 294.570312 43.34375 L 294.898438 43.472656 C 295.394531 43.671875 295.332031 44.097656 294.824219 44 C 293.699219 43.785156 292.855469 43.734375 292.953125 43.894531 C 293.007812 43.980469 293.199219 44.054688 293.378906 44.054688 C 293.683594 44.054688 301.394531 45.390625 302.3125 45.601562 C 302.554688 45.65625 302.878906 45.714844 303.035156 45.730469 C 303.191406 45.746094 303.339844 45.828125 303.367188 45.910156 C 303.398438 46 303.070312 45.984375 302.5 45.863281 C 300.710938 45.484375 291.765625 44.042969 289.894531 43.828125 C 289.492188 43.785156 288.613281 43.652344 287.941406 43.535156 C 287.265625 43.417969 286.589844 43.324219 286.433594 43.324219 C 286.234375 43.324219 286.683594 43.847656 287.90625 45.042969 C 289.445312 46.546875 289.730469 46.902344 290.183594 47.886719 C 290.820312 49.273438 290.847656 50.015625 290.328125 51.957031 C 289.960938 53.332031 289.679688 53.949219 289.152344 54.570312 L 289.152344 54.566406 C 288.867188 54.898438 288.515625 54.972656 288.28125 54.753906 C 288.203125 54.683594 287.878906 54.542969 287.558594 54.4375 L 286.972656 54.25 L 287.402344 54.074219 C 287.8125 53.902344 287.816406 53.890625 287.507812 53.792969 C 287.328125 53.734375 287.230469 53.621094 287.289062 53.53125 C 287.351562 53.429688 287.300781 53.402344 287.152344 53.460938 C 286.953125 53.535156 286.925781 53.441406 286.96875 52.832031 L 287.015625 52.117188 L 285.730469 50.902344 C 284.070312 49.332031 283.390625 48.742188 281.347656 47.09375 C 280.417969 46.347656 279.503906 45.589844 279.316406 45.410156 C 279.125 45.234375 278.902344 45.128906 278.820312 45.179688 C 278.742188 45.226562 278.71875 45.199219 278.769531 45.117188 C 278.820312 45.03125 278.714844 44.863281 278.535156 44.746094 C 278.355469 44.625 278.066406 44.402344 277.890625 44.253906 C 276.207031 42.796875 274.863281 41.929688 275.144531 42.480469 C 275.195312 42.578125 275.105469 42.496094 274.9375 42.296875 C 274.773438 42.09375 274.632812 41.996094 274.632812 42.078125 C 274.628906 42.15625 274.507812 42.042969 274.363281 41.820312 C 274.214844 41.597656 274.0625 41.449219 274.023438 41.488281 C 273.980469 41.53125 273.949219 41.472656 273.949219 41.363281 C 273.949219 41.25 273.808594 40.859375 273.632812 40.492188 C 273.460938 40.125 273.277344 39.550781 273.222656 39.21875 C 273.15625 38.792969 273.035156 38.574219 272.820312 38.488281 C 272.648438 38.417969 272.597656 38.359375 272.703125 38.355469 Z M 275.289062 35.761719 C 275.171875 35.761719 275.113281 35.816406 275.15625 35.882812 C 275.199219 35.949219 275.257812 36.003906 275.289062 36.003906 C 275.316406 36.003906 275.375 35.949219 275.417969 35.882812 C 275.460938 35.816406 275.402344 35.761719 275.289062 35.761719 Z M 291.574219 31.320312 C 291.65625 31.320312 291.722656 31.253906 291.722656 31.175781 C 291.722656 31.09375 291.65625 31.027344 291.574219 31.027344 C 291.496094 31.027344 291.429688 31.09375 291.429688 31.175781 C 291.429688 31.253906 291.496094 31.320312 291.574219 31.320312 Z M 291.363281 30.746094 C 291.488281 30.949219 291.574219 30.910156 291.574219 30.652344 C 291.574219 30.527344 291.507812 30.46875 291.425781 30.519531 C 291.34375 30.570312 291.316406 30.671875 291.363281 30.746094 Z M 334.773438 51.617188 C 334.8125 51.722656 334.867188 51.8125 334.886719 51.8125 C 334.910156 51.8125 334.964844 51.722656 335.003906 51.617188 C 335.046875 51.507812 334.992188 51.421875 334.886719 51.421875 C 334.785156 51.421875 334.730469 51.507812 334.773438 51.617188 Z M 333.066406 50.988281 C 333.105469 51.023438 333.261719 50.964844 333.417969 50.847656 C 333.730469 50.621094 333.554688 50.5625 333.210938 50.78125 C 333.09375 50.855469 333.027344 50.949219 333.066406 50.988281 Z M 332.332031 50.347656 C 332.453125 50.425781 332.648438 50.492188 332.769531 50.492188 C 332.964844 50.492188 332.964844 50.476562 332.769531 50.347656 C 332.648438 50.269531 332.453125 50.207031 332.332031 50.207031 C 332.136719 50.207031 332.136719 50.222656 332.332031 50.347656 Z M 329.84375 49.804688 C 330.007812 49.847656 330.175781 49.824219 330.222656 49.75 C 330.265625 49.675781 330.375 49.617188 330.464844 49.617188 C 330.554688 49.617188 330.585938 49.65625 330.539062 49.707031 C 330.347656 49.898438 330.890625 50.234375 331.273438 50.160156 C 331.523438 50.109375 331.722656 50.164062 331.828125 50.308594 C 331.972656 50.511719 331.992188 50.511719 331.992188 50.308594 C 331.992188 50.015625 331.359375 49.726562 330.980469 49.847656 C 330.804688 49.90625 330.722656 49.882812 330.777344 49.792969 C 330.898438 49.601562 330.5 49.453125 330.191406 49.574219 C 330.027344 49.636719 329.980469 49.609375 330.050781 49.496094 C 330.199219 49.253906 329.921875 49.28125 329.71875 49.527344 C 329.585938 49.683594 329.613281 49.742188 329.84375 49.804688 Z M 327.941406 49.152344 C 328.058594 49.191406 328.179688 49.144531 328.210938 49.054688 C 328.242188 48.960938 328.332031 48.886719 328.410156 48.886719 C 328.488281 48.886719 328.519531 48.933594 328.484375 48.996094 C 328.449219 49.054688 328.492188 49.171875 328.585938 49.25 C 328.816406 49.453125 329.507812 49.519531 329.613281 49.347656 C 329.734375 49.15625 329.359375 49.035156 328.964844 49.136719 C 328.753906 49.191406 328.667969 49.167969 328.730469 49.070312 C 328.875 48.832031 328.402344 48.71875 328.050781 48.910156 C 327.808594 49.039062 327.78125 49.097656 327.941406 49.152344 Z M 327.058594 48.863281 C 327.15625 49.015625 327.195312 49.007812 327.265625 48.824219 C 327.316406 48.695312 327.425781 48.59375 327.515625 48.59375 C 327.601562 48.59375 327.632812 48.65625 327.585938 48.738281 C 327.53125 48.820312 327.597656 48.84375 327.738281 48.789062 C 327.953125 48.707031 327.953125 48.679688 327.757812 48.570312 C 327.636719 48.5 327.402344 48.496094 327.238281 48.554688 L 327.238281 48.558594 C 327.035156 48.632812 326.976562 48.730469 327.058594 48.863281 Z M 323.0625 47.039062 C 322.945312 46.992188 322.761719 46.988281 322.660156 47.03125 C 322.535156 47.078125 322.554688 47.109375 322.714844 47.117188 C 322.882812 47.125 322.933594 47.21875 322.878906 47.421875 C 322.78125 47.796875 322.863281 47.792969 323.097656 47.417969 C 323.25 47.171875 323.246094 47.109375 323.0625 47.039062 Z M 326.097656 48.519531 C 326.097656 48.808594 326.207031 48.78125 326.550781 48.410156 C 326.800781 48.136719 326.804688 48.113281 326.574219 48.199219 C 326.433594 48.253906 326.269531 48.300781 326.207031 48.300781 C 326.148438 48.300781 326.097656 48.398438 326.097656 48.519531 Z M 325.203125 48.316406 C 325.253906 48.46875 325.296875 48.460938 325.402344 48.28125 C 325.476562 48.152344 325.636719 48.011719 325.757812 47.964844 C 325.953125 47.894531 325.953125 47.882812 325.757812 47.875 C 325.636719 47.871094 325.449219 47.921875 325.339844 47.992188 C 325.230469 48.0625 325.167969 48.207031 325.203125 48.316406 Z M 324.808594 48.007812 C 324.859375 48.085938 324.929688 48.152344 324.964844 48.152344 C 325 48.152344 325.027344 48.085938 325.027344 48.007812 C 325.027344 47.925781 324.957031 47.859375 324.875 47.859375 C 324.789062 47.859375 324.757812 47.925781 324.808594 48.007812 Z M 324.628906 47.859375 C 324.765625 47.699219 324.820312 47.566406 324.746094 47.566406 C 324.609375 47.566406 324.152344 47.972656 324.152344 48.089844 C 324.152344 48.246094 324.402344 48.125 324.628906 47.859375 Z M 322.3125 47.824219 C 322.363281 47.875 322.496094 47.929688 322.605469 47.945312 C 322.710938 47.960938 322.957031 48.015625 323.148438 48.0625 C 323.339844 48.109375 323.410156 48.113281 323.304688 48.0625 C 323.160156 48 323.15625 47.929688 323.285156 47.773438 C 323.378906 47.664062 323.523438 47.613281 323.605469 47.664062 C 323.695312 47.71875 323.714844 47.6875 323.652344 47.589844 C 323.59375 47.492188 323.640625 47.421875 323.765625 47.421875 C 323.90625 47.421875 323.957031 47.53125 323.917969 47.75 C 323.882812 47.9375 323.898438 47.984375 323.953125 47.859375 C 324.003906 47.738281 324.113281 47.597656 324.191406 47.546875 C 324.273438 47.496094 324.191406 47.40625 324.011719 47.351562 C 323.78125 47.277344 323.59375 47.339844 323.355469 47.558594 C 323.121094 47.78125 322.902344 47.851562 322.621094 47.800781 C 322.398438 47.761719 322.257812 47.769531 322.3125 47.824219 Z M 322.484375 47.410156 C 322.652344 47.402344 322.6875 47.367188 322.570312 47.320312 C 322.464844 47.277344 322.339844 47.285156 322.292969 47.332031 C 322.242188 47.382812 322.328125 47.417969 322.484375 47.410156 Z M 321.28125 47.523438 C 321.425781 47.667969 321.8125 47.710938 321.8125 47.582031 C 321.8125 47.523438 321.949219 47.332031 322.113281 47.15625 C 322.277344 46.980469 322.339844 46.835938 322.257812 46.835938 C 322.171875 46.835938 321.992188 46.96875 321.851562 47.128906 C 321.714844 47.289062 321.507812 47.421875 321.390625 47.421875 C 321.277344 47.421875 321.226562 47.46875 321.28125 47.523438 Z M 320.28125 47.261719 C 320.703125 47.464844 320.722656 47.457031 320.941406 47.050781 C 321.105469 46.742188 321.214844 46.691406 321.585938 46.757812 C 321.996094 46.832031 322.003906 46.824219 321.683594 46.6875 C 321.238281 46.496094 320.84375 46.621094 320.75 46.976562 C 320.699219 47.179688 320.582031 47.238281 320.332031 47.1875 C 320.019531 47.128906 320.015625 47.136719 320.28125 47.261719 Z M 319.777344 47.273438 C 319.863281 47.273438 319.890625 47.210938 319.84375 47.128906 C 319.792969 47.046875 319.722656 46.980469 319.6875 46.980469 C 319.652344 46.980469 319.621094 47.046875 319.621094 47.128906 C 319.621094 47.210938 319.691406 47.273438 319.777344 47.273438 Z M 317.910156 46.332031 C 317.847656 46.40625 317.855469 46.421875 317.929688 46.363281 C 318.003906 46.300781 318.140625 46.316406 318.234375 46.394531 C 318.351562 46.492188 318.40625 46.476562 318.40625 46.339844 C 318.40625 46.117188 318.089844 46.113281 317.910156 46.332031 Z M 318.453125 48.152344 C 318.953125 48.3125 319.335938 48.3125 318.964844 48.152344 C 318.804688 48.085938 318.542969 48.03125 318.382812 48.03125 C 318.144531 48.035156 318.160156 48.058594 318.453125 48.152344 Z M 313.050781 44.785156 C 312.929688 44.707031 312.765625 44.644531 312.683594 44.644531 C 312.605469 44.644531 312.636719 44.707031 312.757812 44.785156 C 312.878906 44.863281 313.042969 44.929688 313.121094 44.929688 C 313.203125 44.929688 313.167969 44.863281 313.050781 44.785156 Z M 315.199219 46.089844 L 315.195312 46.089844 C 315.664062 46.191406 316.160156 46.304688 316.296875 46.34375 C 316.539062 46.410156 316.539062 46.390625 316.296875 45.929688 C 316.160156 45.664062 316.027344 45.417969 316.003906 45.382812 C 315.984375 45.347656 315.898438 45.386719 315.820312 45.464844 C 315.738281 45.546875 315.460938 45.582031 315.199219 45.539062 C 314.742188 45.46875 314.738281 45.464844 315.09375 45.359375 C 315.433594 45.261719 315.425781 45.253906 314.984375 45.242188 C 314.652344 45.230469 314.511719 45.292969 314.511719 45.445312 C 314.511719 45.566406 314.441406 45.664062 314.355469 45.664062 C 313.925781 45.664062 314.453125 45.929688 315.199219 46.089844 Z M 313.050781 45.585938 C 313.332031 45.640625 313.683594 45.722656 313.835938 45.765625 C 314.011719 45.816406 314.074219 45.785156 314.007812 45.679688 C 313.949219 45.585938 314.019531 45.515625 314.171875 45.507812 C 314.316406 45.5 314.359375 45.464844 314.261719 45.425781 C 314.167969 45.386719 314.121094 45.242188 314.164062 45.105469 C 314.21875 44.929688 314.15625 44.957031 313.949219 45.1875 C 313.574219 45.617188 313.511719 45.605469 313.605469 45.117188 C 313.671875 44.757812 313.652344 44.734375 313.445312 44.910156 C 313.316406 45.015625 313.082031 45.0625 312.929688 45.015625 C 312.769531 44.964844 312.578125 45.015625 312.476562 45.136719 C 312.273438 45.382812 312.359375 45.449219 313.050781 45.585938 Z M 312.246094 45.179688 C 312.480469 44.882812 312.480469 44.640625 312.246094 44.640625 C 312.125 44.640625 312.027344 44.699219 312.027344 44.773438 C 312.027344 44.847656 311.988281 45.011719 311.9375 45.140625 C 311.832031 45.414062 312.039062 45.441406 312.246094 45.179688 Z M 311.039062 45.109375 C 311.261719 45.152344 311.441406 45.128906 311.441406 45.058594 C 311.441406 44.988281 311.558594 44.929688 311.699219 44.921875 C 311.851562 44.914062 311.878906 44.878906 311.769531 44.835938 C 311.667969 44.796875 311.625 44.703125 311.667969 44.628906 C 311.796875 44.421875 311.488281 44.46875 311.265625 44.691406 C 311.160156 44.796875 310.972656 44.917969 310.855469 44.957031 C 310.722656 45.003906 310.792969 45.058594 311.039062 45.109375 Z M 309.363281 44.589844 C 309.515625 44.828125 310.425781 44.949219 310.820312 44.789062 C 311.039062 44.695312 311.117188 44.574219 311.054688 44.414062 C 310.988281 44.242188 310.933594 44.226562 310.855469 44.351562 C 310.792969 44.453125 310.621094 44.484375 310.445312 44.429688 C 310.277344 44.375 310.007812 44.402344 309.84375 44.488281 C 309.601562 44.617188 309.566406 44.605469 309.636719 44.425781 C 309.683594 44.300781 309.796875 44.195312 309.886719 44.191406 C 309.980469 44.183594 309.921875 44.125 309.761719 44.054688 C 309.359375 43.882812 309.128906 43.882812 309.398438 44.054688 C 309.542969 44.148438 309.554688 44.199219 309.433594 44.199219 C 309.226562 44.203125 309.203125 44.339844 309.363281 44.589844 Z M 308.691406 44.417969 C 308.78125 44.511719 309.027344 44.296875 309.070312 44.089844 C 309.121094 43.828125 308.820312 43.867188 308.71875 44.132812 C 308.667969 44.257812 308.65625 44.386719 308.691406 44.417969 Z M 305.707031 43.636719 C 305.777344 43.707031 306.292969 43.863281 306.851562 43.980469 C 308.128906 44.253906 308.324219 44.253906 308.324219 43.980469 C 308.324219 43.726562 308.144531 43.691406 308.003906 43.917969 C 307.941406 44.019531 307.820312 43.996094 307.65625 43.84375 C 307.515625 43.71875 307.363281 43.65625 307.3125 43.703125 C 307.265625 43.75 307.140625 43.738281 307.039062 43.675781 C 306.773438 43.511719 305.546875 43.476562 305.707031 43.636719 Z M 305.015625 43.46875 C 305.296875 43.652344 305.453125 43.652344 305.453125 43.46875 C 305.453125 43.390625 305.304688 43.324219 305.125 43.324219 C 304.859375 43.328125 304.835938 43.355469 305.015625 43.46875 Z M 293.984375 43.324219 C 294.386719 43.496094 294.617188 43.496094 294.351562 43.324219 C 294.230469 43.246094 294.03125 43.183594 293.914062 43.1875 C 293.769531 43.195312 293.792969 43.238281 293.984375 43.324219 Z M 293.09375 43.199219 C 293.132812 43.140625 293.035156 43.082031 292.878906 43.070312 C 292.726562 43.058594 292.597656 43.070312 292.597656 43.097656 C 292.597656 43.210938 293.03125 43.300781 293.09375 43.199219 Z M 292.453125 43.910156 C 292.722656 43.910156 292.761719 43.871094 292.628906 43.734375 C 292.492188 43.597656 292.414062 43.597656 292.277344 43.734375 C 292.140625 43.871094 292.179688 43.910156 292.453125 43.910156 Z M 291.0625 43.734375 C 291.304688 43.730469 291.386719 43.699219 291.242188 43.660156 C 291.101562 43.625 290.90625 43.625 290.804688 43.667969 C 290.707031 43.707031 290.824219 43.738281 291.0625 43.734375 Z M 291.0625 43.734375 " fill-opacity="1" fill-rule="nonzero"/></g><path fill="#000000" d="M 315.890625 45.902344 C 316.015625 45.949219 316.117188 46.015625 316.117188 46.046875 C 316.117188 46.164062 315.839844 46.097656 315.753906 45.960938 C 315.703125 45.875 315.761719 45.851562 315.890625 45.902344 Z M 315.890625 45.902344 " fill-opacity="1" fill-rule="nonzero"/><path fill="#000000" d="M 291.976562 39.421875 C 292.078125 39.382812 292.242188 39.382812 292.34375 39.421875 C 292.441406 39.464844 292.359375 39.496094 292.160156 39.496094 C 291.957031 39.496094 291.875 39.464844 291.976562 39.421875 Z M 291.976562 39.421875 " fill-opacity="1" fill-rule="nonzero"/><path fill="#000000" d="M 302.222656 45.226562 C 302.0625 45.226562 301.96875 45.160156 302.019531 45.082031 C 302.070312 45 302.242188 44.933594 302.402344 44.933594 C 302.5625 44.933594 302.652344 45 302.605469 45.082031 C 302.554688 45.160156 302.382812 45.226562 302.222656 45.226562 Z M 302.222656 45.226562 " fill-opacity="1" fill-rule="nonzero"/><path fill="#000000" d="M 301.425781 45.082031 C 301.3125 45.082031 301.214844 45.015625 301.214844 44.933594 C 301.214844 44.855469 301.351562 44.789062 301.515625 44.789062 C 301.683594 44.789062 301.777344 44.855469 301.726562 44.933594 C 301.679688 45.015625 301.542969 45.082031 301.425781 45.082031 Z M 301.425781 45.082031 " fill-opacity="1" fill-rule="nonzero"/><path fill="#000000" d="M 317.578125 45.960938 C 317.578125 46.027344 317.460938 46.113281 317.320312 46.152344 C 316.859375 46.273438 316.84375 46.253906 317.148438 45.949219 C 317.40625 45.695312 317.421875 45.609375 317.257812 45.410156 C 317.09375 45.203125 317.101562 45.1875 317.335938 45.273438 C 317.480469 45.328125 317.699219 45.375 317.820312 45.375 C 318.007812 45.375 318.003906 45.40625 317.808594 45.605469 C 317.679688 45.730469 317.578125 45.890625 317.578125 45.960938 Z M 317.578125 45.960938 " fill-opacity="1" fill-rule="nonzero"/><path fill="#000000" d="M 329.046875 48.003906 C 328.964844 48.003906 328.800781 47.941406 328.679688 47.863281 C 328.558594 47.785156 328.527344 47.71875 328.605469 47.71875 C 328.6875 47.71875 328.851562 47.785156 328.972656 47.863281 C 329.09375 47.941406 329.125 48.003906 329.046875 48.003906 Z M 329.046875 48.003906 " fill-opacity="1" fill-rule="nonzero"/><path fill="#000000" d="M 329.542969 48.195312 C 329.347656 48.140625 329.28125 48.078125 329.390625 48.039062 C 329.496094 48.003906 329.652344 48.046875 329.734375 48.128906 C 329.84375 48.238281 329.789062 48.257812 329.542969 48.195312 Z M 329.542969 48.195312 " fill-opacity="1" fill-rule="nonzero"/><path fill="#000000" d="M 330.652344 48.589844 C 330.570312 48.589844 330.40625 48.527344 330.285156 48.449219 C 330.167969 48.371094 330.132812 48.304688 330.214844 48.304688 C 330.292969 48.304688 330.457031 48.371094 330.578125 48.449219 C 330.699219 48.527344 330.730469 48.589844 330.652344 48.589844 Z M 330.652344 48.589844 " fill-opacity="1" fill-rule="nonzero"/><path fill="#000000" d="M 300.339844 44.835938 C 300.21875 44.792969 299.824219 44.734375 299.464844 44.703125 C 299.101562 44.671875 298.578125 44.609375 298.296875 44.566406 C 298.015625 44.523438 297.261719 44.402344 296.625 44.304688 C 295.507812 44.128906 295.082031 43.867188 295.59375 43.667969 C 295.730469 43.617188 295.882812 43.640625 295.9375 43.722656 C 295.988281 43.804688 296.917969 44.019531 298.003906 44.199219 C 299.085938 44.378906 300.074219 44.5625 300.195312 44.609375 C 300.316406 44.652344 300.523438 44.671875 300.65625 44.65625 C 300.789062 44.640625 300.933594 44.6875 300.976562 44.757812 C 301.066406 44.902344 300.675781 44.949219 300.339844 44.835938 Z M 300.339844 44.835938 " fill-opacity="1" fill-rule="nonzero"/><path fill="#000000" d="M 273.253906 36.582031 C 273.101562 36.585938 273.015625 36.554688 273.0625 36.503906 C 273.109375 36.457031 273.238281 36.449219 273.34375 36.492188 C 273.460938 36.539062 273.425781 36.574219 273.253906 36.582031 Z M 273.253906 36.582031 " fill-opacity="1" fill-rule="nonzero"/></svg>