<svg xmlns="http://www.w3.org/2000/svg" xmlns:xlink="http://www.w3.org/1999/xlink" width="207" zoomAndPan="magnify" viewBox="0 0 155.25 59.249999" height="79" preserveAspectRatio="xMidYMid meet" version="1.0"><defs><g/><clipPath id="afe4388536"><path d="M 0.601562 0 L 153.910156 0 L 153.910156 58.507812 L 0.601562 58.507812 Z M 0.601562 0 " clip-rule="nonzero"/></clipPath><clipPath id="35809af3ed"><path d="M 8.53125 41.691406 L 144.0625 41.691406 L 144.0625 46.875 L 8.53125 46.875 Z M 8.53125 41.691406 " clip-rule="nonzero"/></clipPath></defs><g clip-path="url(#afe4388536)"><path fill="#ffffff" d="M 0.601562 0 L 153.910156 0 L 153.910156 58.507812 L 0.601562 58.507812 Z M 0.601562 0 " fill-opacity="1" fill-rule="nonzero"/></g><g fill="#5271ff" fill-opacity="1"><g transform="translate(12.279092, 38.518925)"><g><path d="M 16.140625 -12.6875 C 17.054688 -12.050781 17.785156 -11.234375 18.328125 -10.234375 C 18.878906 -9.234375 19.15625 -8.132812 19.15625 -6.9375 C 19.15625 -5.96875 18.96875 -5.0625 18.59375 -4.21875 C 18.226562 -3.375 17.726562 -2.640625 17.09375 -2.015625 C 16.457031 -1.390625 15.71875 -0.894531 14.875 -0.53125 C 14.03125 -0.175781 13.125 0 12.15625 0 L 1.578125 0 L 1.578125 -23.296875 L 11.828125 -23.296875 C 12.703125 -23.296875 13.519531 -23.125 14.28125 -22.78125 C 15.050781 -22.445312 15.726562 -21.992188 16.3125 -21.421875 C 16.894531 -20.847656 17.347656 -20.175781 17.671875 -19.40625 C 18.003906 -18.644531 18.171875 -17.828125 18.171875 -16.953125 C 18.171875 -16.015625 17.988281 -15.1875 17.625 -14.46875 C 17.269531 -13.757812 16.773438 -13.164062 16.140625 -12.6875 Z M 6.578125 -14.5625 L 11.828125 -14.5625 C 12.421875 -14.5625 12.925781 -14.769531 13.34375 -15.1875 C 13.757812 -15.601562 13.96875 -16.101562 13.96875 -16.6875 C 13.96875 -17.28125 13.757812 -17.773438 13.34375 -18.171875 C 12.925781 -18.566406 12.421875 -18.765625 11.828125 -18.765625 L 6.578125 -18.765625 Z M 12.15625 -4.5 C 12.8125 -4.5 13.367188 -4.773438 13.828125 -5.328125 C 14.296875 -5.890625 14.53125 -6.546875 14.53125 -7.296875 C 14.53125 -8.054688 14.296875 -8.695312 13.828125 -9.21875 C 13.367188 -9.75 12.8125 -10.015625 12.15625 -10.015625 L 6.578125 -10.015625 L 6.578125 -4.5 Z M 12.15625 -4.5 "/></g></g></g><g fill="#5271ff" fill-opacity="1"><g transform="translate(30.47957, 38.518925)"><g><path d="M 18.53125 -16.296875 L 18.53125 0 L 14.625 0 L 14.15625 -1.734375 C 13.519531 -0.878906 12.757812 -0.3125 11.875 -0.03125 C 10.988281 0.25 10.066406 0.390625 9.109375 0.390625 C 7.941406 0.390625 6.867188 0.164062 5.890625 -0.28125 C 4.921875 -0.726562 4.070312 -1.335938 3.34375 -2.109375 C 2.625 -2.890625 2.0625 -3.800781 1.65625 -4.84375 C 1.25 -5.882812 1.046875 -7 1.046875 -8.1875 C 1.046875 -9.363281 1.25 -10.472656 1.65625 -11.515625 C 2.0625 -12.554688 2.625 -13.460938 3.34375 -14.234375 C 4.070312 -15.015625 4.921875 -15.628906 5.890625 -16.078125 C 6.867188 -16.535156 7.941406 -16.765625 9.109375 -16.765625 C 10.148438 -16.765625 11.109375 -16.597656 11.984375 -16.265625 C 12.867188 -15.929688 13.59375 -15.40625 14.15625 -14.6875 L 14.625 -16.296875 Z M 14 -8.109375 C 14 -8.960938 13.882812 -9.679688 13.65625 -10.265625 C 13.425781 -10.847656 13.117188 -11.316406 12.734375 -11.671875 C 12.347656 -12.035156 11.894531 -12.300781 11.375 -12.46875 C 10.863281 -12.632812 10.3125 -12.71875 9.71875 -12.71875 C 9.132812 -12.71875 8.582031 -12.597656 8.0625 -12.359375 C 7.550781 -12.117188 7.097656 -11.796875 6.703125 -11.390625 C 6.304688 -10.984375 6 -10.5 5.78125 -9.9375 C 5.5625 -9.382812 5.453125 -8.800781 5.453125 -8.1875 C 5.453125 -7.550781 5.5625 -6.957031 5.78125 -6.40625 C 6 -5.863281 6.304688 -5.390625 6.703125 -4.984375 C 7.097656 -4.578125 7.550781 -4.25 8.0625 -4 C 8.582031 -3.757812 9.132812 -3.640625 9.71875 -3.640625 C 10.90625 -3.640625 11.910156 -4.003906 12.734375 -4.734375 C 13.554688 -5.472656 13.976562 -6.597656 14 -8.109375 Z M 14 -8.109375 "/></g></g></g><g fill="#5271ff" fill-opacity="1"><g transform="translate(48.318662, 38.518925)"><g><path d="M 9.5 -12.71875 C 8.945312 -12.71875 8.429688 -12.585938 7.953125 -12.328125 C 7.472656 -12.078125 7.050781 -11.738281 6.6875 -11.3125 C 6.320312 -10.882812 6.035156 -10.382812 5.828125 -9.8125 C 5.617188 -9.25 5.515625 -8.640625 5.515625 -7.984375 C 5.515625 -7.328125 5.617188 -6.726562 5.828125 -6.1875 C 6.035156 -5.65625 6.320312 -5.195312 6.6875 -4.8125 C 7.050781 -4.425781 7.472656 -4.125 7.953125 -3.90625 C 8.429688 -3.6875 8.945312 -3.578125 9.5 -3.578125 C 10.175781 -3.578125 10.835938 -3.734375 11.484375 -4.046875 C 12.128906 -4.367188 12.679688 -4.816406 13.140625 -5.390625 L 15.9375 -2.625 C 15.164062 -1.707031 14.222656 -0.972656 13.109375 -0.421875 C 11.992188 0.117188 10.789062 0.390625 9.5 0.390625 C 8.3125 0.390625 7.203125 0.164062 6.171875 -0.28125 C 5.148438 -0.726562 4.253906 -1.335938 3.484375 -2.109375 C 2.710938 -2.890625 2.101562 -3.800781 1.65625 -4.84375 C 1.207031 -5.882812 0.984375 -7 0.984375 -8.1875 C 0.984375 -9.363281 1.207031 -10.472656 1.65625 -11.515625 C 2.101562 -12.554688 2.710938 -13.460938 3.484375 -14.234375 C 4.253906 -15.015625 5.148438 -15.628906 6.171875 -16.078125 C 7.203125 -16.535156 8.3125 -16.765625 9.5 -16.765625 C 10.832031 -16.765625 12.066406 -16.476562 13.203125 -15.90625 C 14.347656 -15.332031 15.3125 -14.554688 16.09375 -13.578125 L 12.953125 -11.140625 C 12.316406 -11.734375 11.738281 -12.144531 11.21875 -12.375 C 10.707031 -12.601562 10.132812 -12.71875 9.5 -12.71875 Z M 9.5 -12.71875 "/></g></g></g><g fill="#5271ff" fill-opacity="1"><g transform="translate(63.102349, 38.518925)"><g><path d="M 10.515625 -9.53125 L 17.375 0 L 11.953125 0 L 7.65625 -6.5 L 6.046875 -4.765625 L 6.046875 0 L 1.515625 0 L 1.515625 -23.984375 L 6.046875 -23.984375 L 6.046875 -10.671875 L 11.34375 -16.296875 L 16.859375 -16.296875 Z M 10.515625 -9.53125 "/></g></g></g><g fill="#242424" fill-opacity="1"><g transform="translate(78.576598, 38.518925)"><g><path d="M 11.234375 -7.484375 L 1.578125 -7.484375 L 1.578125 -10.578125 L 11.234375 -10.578125 Z M 11.234375 -7.484375 "/></g></g></g><g fill="#242424" fill-opacity="1"><g transform="translate(89.220725, 38.518925)"><g><path d="M 9.53125 -16.765625 C 10.757812 -16.765625 11.875 -16.515625 12.875 -16.015625 C 13.882812 -15.523438 14.75 -14.878906 15.46875 -14.078125 C 16.195312 -13.273438 16.757812 -12.351562 17.15625 -11.3125 C 17.550781 -10.28125 17.75 -9.210938 17.75 -8.109375 C 17.75 -7.453125 17.660156 -6.753906 17.484375 -6.015625 L 5.84375 -6.015625 C 6.28125 -5.265625 6.90625 -4.632812 7.71875 -4.125 C 8.53125 -3.613281 9.40625 -3.359375 10.34375 -3.359375 C 11.289062 -3.359375 12.117188 -3.429688 12.828125 -3.578125 C 13.546875 -3.734375 14.222656 -3.929688 14.859375 -4.171875 L 16.359375 -1.375 C 15.546875 -0.8125 14.617188 -0.375 13.578125 -0.0625 C 12.546875 0.238281 11.4375 0.390625 10.25 0.390625 C 8.957031 0.390625 7.753906 0.164062 6.640625 -0.28125 C 5.523438 -0.726562 4.550781 -1.332031 3.71875 -2.09375 C 2.882812 -2.863281 2.222656 -3.773438 1.734375 -4.828125 C 1.253906 -5.878906 1.015625 -7 1.015625 -8.1875 C 1.015625 -9.34375 1.234375 -10.441406 1.671875 -11.484375 C 2.109375 -12.523438 2.71875 -13.429688 3.5 -14.203125 C 4.28125 -14.984375 5.179688 -15.601562 6.203125 -16.0625 C 7.234375 -16.53125 8.34375 -16.765625 9.53125 -16.765625 Z M 13.25 -9.53125 C 12.976562 -10.46875 12.503906 -11.234375 11.828125 -11.828125 C 11.148438 -12.421875 10.382812 -12.71875 9.53125 -12.71875 C 8.65625 -12.71875 7.859375 -12.421875 7.140625 -11.828125 C 6.429688 -11.234375 5.945312 -10.46875 5.6875 -9.53125 Z M 13.25 -9.53125 "/></g></g></g><g fill="#242424" fill-opacity="1"><g transform="translate(106.632717, 38.518925)"><g><path d="M 9.953125 -16.296875 C 10.566406 -16.296875 11.242188 -16.207031 11.984375 -16.03125 C 12.734375 -15.851562 13.4375 -15.523438 14.09375 -15.046875 C 14.75 -14.566406 15.300781 -13.898438 15.75 -13.046875 C 16.195312 -12.191406 16.421875 -11.082031 16.421875 -9.71875 L 16.421875 0 L 11.859375 0 L 11.859375 -9.5625 C 11.859375 -10.0625 11.773438 -10.488281 11.609375 -10.84375 C 11.453125 -11.195312 11.234375 -11.476562 10.953125 -11.6875 C 10.679688 -11.894531 10.367188 -12.046875 10.015625 -12.140625 C 9.671875 -12.242188 9.320312 -12.296875 8.96875 -12.296875 C 8.6875 -12.296875 8.375 -12.242188 8.03125 -12.140625 C 7.695312 -12.046875 7.378906 -11.890625 7.078125 -11.671875 C 6.785156 -11.453125 6.539062 -11.164062 6.34375 -10.8125 C 6.144531 -10.457031 6.046875 -10.039062 6.046875 -9.5625 L 6.046875 0 L 1.515625 0 L 1.515625 -16.296875 L 5.390625 -16.296875 L 6.046875 -15.046875 C 6.566406 -15.421875 7.15625 -15.722656 7.8125 -15.953125 C 8.476562 -16.179688 9.191406 -16.296875 9.953125 -16.296875 Z M 9.953125 -16.296875 "/></g></g></g><g fill="#242424" fill-opacity="1"><g transform="translate(122.270605, 38.518925)"><g><path d="M 17.90625 -23.984375 L 17.90625 0 L 14.03125 0 L 13.375 -1.40625 C 12.875 -0.882812 12.175781 -0.453125 11.28125 -0.109375 C 10.394531 0.222656 9.472656 0.390625 8.515625 0.390625 C 7.347656 0.390625 6.269531 0.164062 5.28125 -0.28125 C 4.300781 -0.726562 3.453125 -1.335938 2.734375 -2.109375 C 2.023438 -2.890625 1.46875 -3.800781 1.0625 -4.84375 C 0.65625 -5.882812 0.453125 -7 0.453125 -8.1875 C 0.453125 -9.363281 0.65625 -10.472656 1.0625 -11.515625 C 1.46875 -12.554688 2.023438 -13.460938 2.734375 -14.234375 C 3.453125 -15.015625 4.300781 -15.628906 5.28125 -16.078125 C 6.269531 -16.535156 7.347656 -16.765625 8.515625 -16.765625 C 9.546875 -16.765625 10.457031 -16.640625 11.25 -16.390625 C 12.050781 -16.148438 12.757812 -15.75 13.375 -15.1875 L 13.375 -23.984375 Z M 13.375 -8.109375 C 13.375 -8.960938 13.265625 -9.679688 13.046875 -10.265625 C 12.828125 -10.847656 12.519531 -11.316406 12.125 -11.671875 C 11.726562 -12.035156 11.269531 -12.300781 10.75 -12.46875 C 10.238281 -12.632812 9.691406 -12.71875 9.109375 -12.71875 C 8.515625 -12.71875 7.957031 -12.597656 7.4375 -12.359375 C 6.925781 -12.117188 6.476562 -11.796875 6.09375 -11.390625 C 5.707031 -10.984375 5.40625 -10.5 5.1875 -9.9375 C 4.96875 -9.382812 4.859375 -8.800781 4.859375 -8.1875 C 4.859375 -7.550781 4.96875 -6.957031 5.1875 -6.40625 C 5.40625 -5.863281 5.707031 -5.390625 6.09375 -4.984375 C 6.476562 -4.578125 6.925781 -4.25 7.4375 -4 C 7.957031 -3.757812 8.515625 -3.640625 9.109375 -3.640625 C 10.285156 -3.640625 11.285156 -4.003906 12.109375 -4.734375 C 12.929688 -5.472656 13.351562 -6.597656 13.375 -8.109375 Z M 13.375 -8.109375 "/></g></g></g><g clip-path="url(#35809af3ed)"><path fill="#242424" d="M 134.179688 44.699219 C 134.859375 44.886719 135.507812 45.132812 136.214844 45.242188 C 138.574219 45.648438 140.933594 46 143.292969 46.378906 C 143.265625 46.542969 143.265625 46.679688 143.238281 46.839844 C 141.421875 46.679688 139.632812 46.515625 137.8125 46.296875 C 134.914062 45.972656 132.011719 45.59375 129.082031 45.269531 C 128.703125 45.214844 128.132812 45.160156 127.96875 45.375 C 127.101562 46.351562 126.070312 46 125.066406 45.890625 C 114.21875 44.859375 103.316406 44.699219 92.441406 44.699219 C 85.066406 44.699219 77.714844 44.996094 70.339844 45.242188 C 64.617188 45.429688 58.894531 45.78125 53.171875 45.972656 C 51.679688 46.027344 50.1875 45.648438 48.722656 45.648438 C 45.523438 45.648438 42.347656 45.753906 39.148438 45.808594 C 36.734375 45.863281 34.320312 45.945312 31.90625 46 C 26.945312 46.136719 22.007812 46.269531 17.046875 46.40625 C 16.71875 46.40625 16.394531 46.460938 16.070312 46.488281 C 15.308594 46.570312 14.523438 47.085938 13.871094 46.054688 C 13.683594 45.78125 12.789062 45.945312 12.191406 45.808594 C 16.746094 44.644531 21.464844 44.589844 26.078125 43.777344 C 23.417969 43.695312 20.761719 43.585938 18.101562 43.503906 C 16.015625 43.421875 13.925781 43.289062 11.867188 43.316406 C 10.78125 43.316406 9.667969 43.558594 8.53125 43.695312 C 8.636719 42.746094 9.425781 42.5 10.292969 42.472656 C 12.382812 42.394531 14.46875 42.339844 16.558594 42.367188 C 19.027344 42.367188 21.519531 42.5 23.988281 42.5 C 27 42.527344 29.980469 42.527344 32.992188 42.5 C 50.8125 42.3125 68.601562 42.121094 86.394531 41.933594 C 92.007812 41.878906 97.621094 41.714844 103.207031 41.742188 C 109.796875 41.769531 116.390625 41.933594 122.953125 42.121094 C 128.675781 42.3125 134.398438 42.609375 140.121094 42.90625 C 141.367188 42.960938 142.695312 42.960938 144.132812 44.101562 C 142.019531 44.183594 140.445312 45.105469 138.628906 44.886719 C 137.136719 44.699219 135.644531 44.78125 134.152344 44.753906 C 133.421875 44.644531 132.660156 44.5625 131.929688 44.453125 C 131.929688 44.589844 131.929688 44.753906 131.902344 44.886719 C 132.660156 44.832031 133.421875 44.753906 134.179688 44.699219 Z M 28.761719 44.726562 C 28.761719 44.859375 28.761719 44.96875 28.761719 45.105469 C 36.925781 44.804688 45.089844 44.507812 53.25 44.210938 C 53.25 44.101562 53.25 44.019531 53.25 43.910156 C 45.0625 44.183594 36.925781 44.453125 28.761719 44.726562 Z M 60.519531 43.9375 C 60.519531 43.882812 60.519531 43.832031 60.519531 43.777344 C 59.082031 43.777344 57.644531 43.777344 56.207031 43.777344 C 56.207031 43.832031 56.207031 43.882812 56.207031 43.9375 C 57.644531 43.9375 59.082031 43.9375 60.519531 43.9375 Z M 63.800781 43.722656 C 63.773438 43.75 63.746094 43.777344 63.71875 43.804688 C 64.886719 43.804688 66.054688 43.804688 67.246094 43.804688 C 67.246094 43.777344 67.246094 43.75 67.246094 43.722656 C 66.078125 43.722656 64.941406 43.722656 63.800781 43.722656 Z M 53.929688 45.539062 C 53.957031 45.484375 53.957031 45.402344 53.984375 45.347656 C 53.25 45.347656 52.492188 45.347656 51.761719 45.347656 C 51.761719 45.402344 51.761719 45.484375 51.761719 45.539062 C 52.464844 45.539062 53.199219 45.539062 53.929688 45.539062 Z M 26.238281 45.160156 C 26.210938 45.078125 26.210938 44.96875 26.183594 44.886719 C 25.722656 44.914062 25.234375 44.941406 24.773438 44.941406 C 24.773438 45.023438 24.773438 45.078125 24.773438 45.160156 C 25.289062 45.160156 25.777344 45.160156 26.238281 45.160156 Z M 26.238281 45.160156 " fill-opacity="1" fill-rule="nonzero"/></g></svg>