<svg xmlns="http://www.w3.org/2000/svg" xmlns:xlink="http://www.w3.org/1999/xlink" width="850" zoomAndPan="magnify" viewBox="0 0 637.5 374.999991" height="500" preserveAspectRatio="xMidYMid meet" version="1.0"><defs><clipPath id="0e815a2d97"><path d="M 0 0.148438 L 637 0.148438 L 637 374.851562 L 0 374.851562 Z M 0 0.148438 " clip-rule="nonzero"/></clipPath><clipPath id="6778c52296"><path d="M 48.957031 9.386719 L 530 9.386719 L 530 365.355469 L 48.957031 365.355469 Z M 48.957031 9.386719 " clip-rule="nonzero"/></clipPath></defs><g clip-path="url(#0e815a2d97)"><path fill="#ffffff" d="M 0 0.148438 L 637 0.148438 L 637 374.851562 L 0 374.851562 Z M 0 0.148438 " fill-opacity="1" fill-rule="nonzero"/><path fill="#ffffff" d="M 0 0.148438 L 637 0.148438 L 637 374.851562 L 0 374.851562 Z M 0 0.148438 " fill-opacity="1" fill-rule="nonzero"/></g><path fill="#242424" d="M 253.785156 276.554688 C 248.886719 276.554688 244.878906 280.5625 244.878906 285.460938 C 244.878906 290.359375 248.886719 294.367188 253.785156 294.367188 L 325.03125 294.367188 C 329.929688 294.367188 333.9375 290.359375 333.9375 285.460938 C 333.9375 280.5625 329.929688 276.554688 325.03125 276.554688 Z M 253.785156 276.554688 " fill-opacity="1" fill-rule="nonzero"/><path fill="#242424" d="M 129.550781 282.789062 C 129.550781 283.289062 129.503906 283.78125 129.40625 284.265625 C 129.308594 284.753906 129.167969 285.226562 128.976562 285.6875 C 128.785156 286.144531 128.550781 286.582031 128.277344 286.996094 C 128 287.410156 127.6875 287.792969 127.335938 288.144531 C 126.984375 288.496094 126.601562 288.808594 126.1875 289.085938 C 125.773438 289.359375 125.339844 289.59375 124.878906 289.785156 C 124.421875 289.972656 123.945312 290.117188 123.460938 290.214844 C 122.972656 290.3125 122.480469 290.359375 121.984375 290.359375 C 121.484375 290.359375 120.992188 290.3125 120.503906 290.214844 C 120.019531 290.117188 119.542969 289.972656 119.085938 289.785156 C 118.625 289.59375 118.191406 289.359375 117.777344 289.085938 C 117.363281 288.808594 116.980469 288.496094 116.628906 288.144531 C 116.277344 287.792969 115.964844 287.410156 115.6875 286.996094 C 115.414062 286.582031 115.179688 286.144531 114.988281 285.6875 C 114.796875 285.226562 114.65625 284.753906 114.558594 284.265625 C 114.460938 283.78125 114.414062 283.289062 114.414062 282.789062 C 114.414062 282.292969 114.460938 281.800781 114.558594 281.3125 C 114.65625 280.824219 114.796875 280.351562 114.988281 279.894531 C 115.179688 279.433594 115.414062 278.996094 115.6875 278.585938 C 115.964844 278.171875 116.277344 277.789062 116.628906 277.4375 C 116.980469 277.085938 117.363281 276.773438 117.777344 276.496094 C 118.191406 276.21875 118.625 275.988281 119.085938 275.796875 C 119.542969 275.605469 120.019531 275.460938 120.503906 275.367188 C 120.992188 275.269531 121.484375 275.21875 121.984375 275.21875 C 122.480469 275.21875 122.972656 275.269531 123.460938 275.367188 C 123.945312 275.460938 124.421875 275.605469 124.878906 275.796875 C 125.339844 275.988281 125.773438 276.21875 126.1875 276.496094 C 126.601562 276.773438 126.984375 277.085938 127.335938 277.4375 C 127.6875 277.789062 128 278.171875 128.277344 278.585938 C 128.550781 278.996094 128.785156 279.433594 128.976562 279.894531 C 129.167969 280.351562 129.308594 280.824219 129.40625 281.3125 C 129.503906 281.800781 129.550781 282.292969 129.550781 282.789062 Z M 129.550781 282.789062 " fill-opacity="1" fill-rule="nonzero"/><path fill="#242424" d="M 99.71875 282.789062 C 99.71875 283.289062 99.667969 283.78125 99.574219 284.265625 C 99.476562 284.753906 99.332031 285.226562 99.140625 285.6875 C 98.953125 286.144531 98.71875 286.582031 98.441406 286.996094 C 98.167969 287.410156 97.851562 287.792969 97.5 288.144531 C 97.148438 288.496094 96.765625 288.808594 96.355469 289.085938 C 95.941406 289.359375 95.503906 289.59375 95.046875 289.785156 C 94.585938 289.972656 94.113281 290.117188 93.625 290.214844 C 93.136719 290.3125 92.644531 290.359375 92.148438 290.359375 C 91.652344 290.359375 91.160156 290.3125 90.671875 290.214844 C 90.183594 290.117188 89.710938 289.972656 89.25 289.785156 C 88.792969 289.59375 88.355469 289.359375 87.941406 289.085938 C 87.53125 288.808594 87.148438 288.496094 86.796875 288.144531 C 86.445312 287.792969 86.128906 287.410156 85.855469 286.996094 C 85.578125 286.582031 85.34375 286.144531 85.15625 285.6875 C 84.964844 285.226562 84.820312 284.753906 84.722656 284.265625 C 84.628906 283.78125 84.578125 283.289062 84.578125 282.789062 C 84.578125 282.292969 84.628906 281.800781 84.722656 281.3125 C 84.820312 280.824219 84.964844 280.351562 85.15625 279.894531 C 85.34375 279.433594 85.578125 278.996094 85.855469 278.585938 C 86.128906 278.171875 86.445312 277.789062 86.796875 277.4375 C 87.148438 277.085938 87.53125 276.773438 87.941406 276.496094 C 88.355469 276.21875 88.792969 275.988281 89.25 275.796875 C 89.710938 275.605469 90.183594 275.460938 90.671875 275.367188 C 91.160156 275.269531 91.652344 275.21875 92.148438 275.21875 C 92.644531 275.21875 93.136719 275.269531 93.625 275.367188 C 94.113281 275.460938 94.585938 275.605469 95.046875 275.796875 C 95.503906 275.988281 95.941406 276.21875 96.355469 276.496094 C 96.765625 276.773438 97.148438 277.085938 97.5 277.4375 C 97.851562 277.789062 98.167969 278.171875 98.441406 278.585938 C 98.71875 278.996094 98.953125 279.433594 99.140625 279.894531 C 99.332031 280.351562 99.476562 280.824219 99.574219 281.3125 C 99.667969 281.800781 99.71875 282.292969 99.71875 282.789062 Z M 99.71875 282.789062 " fill-opacity="1" fill-rule="nonzero"/><path fill="#242424" d="M 247.996094 80.1875 C 245.324219 76.179688 239.539062 74.84375 235.53125 77.515625 L 155.378906 130.949219 C 152.707031 132.730469 151.371094 135.402344 151.371094 138.519531 C 151.371094 141.636719 152.707031 144.308594 155.378906 146.089844 C 155.378906 146.089844 235.53125 199.523438 235.53125 199.523438 C 239.539062 202.195312 245.324219 201.304688 247.996094 196.851562 C 250.667969 192.84375 249.777344 187.054688 245.324219 184.382812 L 176.308594 138.519531 L 245.324219 92.652344 C 249.332031 89.980469 250.667969 84.195312 247.996094 80.1875 Z M 247.996094 80.1875 " fill-opacity="1" fill-rule="nonzero"/><path fill="#242424" d="M 330.820312 196.851562 C 333.492188 200.859375 339.28125 202.195312 343.289062 199.523438 L 423.441406 146.089844 C 426.109375 144.308594 427.445312 141.636719 427.445312 138.519531 C 427.445312 135.402344 426.109375 132.730469 423.441406 130.949219 L 343.289062 77.515625 C 339.28125 74.84375 333.492188 75.734375 330.820312 80.1875 C 328.148438 84.195312 329.039062 89.980469 333.492188 92.652344 L 402.511719 138.519531 L 333.492188 184.382812 C 329.484375 187.054688 328.148438 192.84375 330.820312 196.851562 Z M 330.820312 196.851562 " fill-opacity="1" fill-rule="nonzero"/><path fill="#242424" d="M 298.761719 69.5 L 263.136719 203.085938 C 261.800781 207.984375 264.917969 212.878906 269.371094 213.769531 C 270.261719 213.769531 270.707031 214.214844 271.597656 214.214844 C 275.605469 214.214844 279.167969 211.542969 280.058594 207.539062 L 315.679688 73.953125 C 317.015625 69.054688 313.898438 64.15625 309.445312 63.265625 C 304.992188 61.929688 300.097656 64.601562 298.761719 69.5 Z M 298.761719 69.5 " fill-opacity="1" fill-rule="nonzero"/><g clip-path="url(#6778c52296)"><path fill="#242424" d="M 253.785156 347.800781 L 227.070312 347.800781 C 222.171875 347.800781 218.164062 351.808594 218.164062 356.707031 C 218.164062 361.605469 222.171875 365.613281 227.070312 365.613281 L 351.75 365.613281 C 356.648438 365.613281 360.65625 361.605469 360.65625 356.707031 C 360.65625 351.808594 356.648438 347.800781 351.75 347.800781 L 325.03125 347.800781 L 325.03125 321.085938 L 503.144531 321.085938 C 514.722656 321.085938 524.519531 313.515625 528.082031 303.273438 L 518.730469 303.273438 C 514.722656 303.273438 511.160156 302.828125 507.597656 301.492188 C 506.261719 302.382812 504.480469 303.273438 502.699219 303.273438 L 75.671875 303.273438 C 70.773438 303.273438 66.765625 299.265625 66.765625 294.367188 L 66.765625 267.652344 L 443.476562 267.652344 L 442.140625 266.316406 C 437.6875 261.863281 434.125 256.074219 432.34375 249.839844 L 66.765625 249.839844 L 66.765625 36.101562 C 66.765625 31.203125 70.773438 27.199219 75.671875 27.199219 L 503.144531 27.199219 C 508.042969 27.199219 512.050781 31.203125 512.050781 36.101562 L 512.050781 81.523438 C 514.277344 81.078125 516.503906 80.632812 519.175781 80.632812 L 529.863281 80.632812 L 529.863281 36.101562 C 529.863281 21.410156 517.839844 9.386719 503.144531 9.386719 L 75.671875 9.386719 C 60.980469 9.386719 48.957031 21.410156 48.957031 36.101562 L 48.957031 294.367188 C 48.957031 309.0625 60.980469 321.085938 75.671875 321.085938 L 253.785156 321.085938 Z M 271.597656 321.085938 L 307.21875 321.085938 L 307.21875 347.800781 L 271.597656 347.800781 Z M 271.597656 321.085938 " fill-opacity="1" fill-rule="nonzero"/></g><path fill="#242424" d="M 601.554688 163.898438 C 600.664062 161.671875 599.773438 159.890625 598.882812 157.664062 C 604.671875 149.207031 603.78125 137.628906 596.210938 130.058594 L 587.304688 121.152344 C 583.296875 117.144531 577.507812 114.917969 571.71875 114.917969 C 567.265625 114.917969 563.257812 116.253906 559.695312 118.480469 C 557.914062 117.589844 555.6875 116.699219 553.460938 115.808594 C 551.234375 105.566406 542.332031 98.441406 532.089844 98.441406 L 519.621094 98.441406 C 508.933594 98.441406 500.027344 106.011719 498.246094 115.808594 C 496.019531 116.699219 494.238281 117.589844 492.011719 118.480469 C 488.449219 116.253906 484.445312 114.917969 479.992188 114.917969 C 474.203125 114.917969 468.414062 117.144531 464.40625 121.152344 L 455.5 130.058594 C 447.929688 137.628906 447.039062 149.207031 452.828125 157.664062 C 451.9375 159.445312 451.046875 161.671875 450.15625 163.898438 C 439.914062 166.125 432.789062 175.03125 432.789062 185.273438 L 432.789062 197.742188 C 432.789062 208.429688 440.359375 217.332031 450.15625 219.113281 C 451.046875 221.339844 451.9375 223.121094 452.828125 225.347656 C 450.601562 228.910156 449.265625 232.917969 449.265625 237.371094 C 449.265625 243.160156 451.492188 248.949219 455.5 252.957031 L 464.40625 261.863281 C 468.414062 265.871094 474.203125 268.097656 479.992188 268.097656 C 484.445312 268.097656 488.449219 266.761719 492.011719 264.535156 C 493.792969 265.425781 496.019531 266.316406 498.246094 267.207031 C 500.472656 277.445312 509.378906 284.570312 519.621094 284.570312 L 532.089844 284.570312 C 542.777344 284.570312 551.679688 277 553.460938 267.207031 C 555.6875 266.316406 557.46875 265.425781 559.695312 264.535156 C 563.257812 266.761719 567.265625 268.097656 571.71875 268.097656 C 577.507812 268.097656 583.296875 265.871094 587.304688 261.863281 L 596.210938 252.957031 C 600.21875 248.949219 602.445312 243.160156 602.445312 237.371094 C 602.445312 232.917969 601.109375 228.910156 598.882812 225.347656 C 599.773438 223.566406 600.664062 221.339844 601.554688 219.113281 C 611.792969 216.886719 618.917969 207.984375 618.917969 197.742188 L 618.917969 185.273438 C 618.917969 175.03125 611.347656 166.125 601.554688 163.898438 Z M 601.109375 198.1875 C 601.109375 200.414062 599.328125 202.195312 597.101562 202.195312 L 587.75 202.195312 C 585.96875 211.988281 582.40625 220.449219 577.0625 228.019531 L 583.742188 234.699219 C 585.523438 236.480469 585.523438 239.152344 583.742188 240.488281 L 574.835938 249.394531 C 573.945312 250.285156 573.054688 250.730469 571.71875 250.730469 C 570.382812 250.730469 569.492188 250.285156 568.601562 249.394531 L 561.921875 242.714844 C 554.351562 248.058594 545.449219 252.066406 536.097656 253.402344 L 536.097656 262.753906 C 536.097656 264.980469 534.316406 266.761719 532.089844 266.761719 L 519.621094 266.761719 C 517.394531 266.761719 515.613281 264.980469 515.613281 262.753906 L 515.613281 254.292969 C 505.816406 252.511719 497.355469 248.949219 489.785156 243.605469 L 482.21875 249.839844 C 481.328125 250.730469 480.4375 251.175781 479.101562 251.175781 C 477.765625 251.175781 477.320312 250.730469 476.429688 249.839844 L 467.523438 240.933594 C 465.742188 239.152344 465.742188 236.480469 467.523438 235.144531 L 474.203125 228.464844 C 468.859375 220.894531 464.851562 211.988281 463.515625 202.640625 L 454.164062 202.640625 C 451.9375 202.640625 450.15625 200.859375 450.15625 198.632812 L 450.15625 186.164062 C 450.15625 183.9375 451.9375 182.15625 454.164062 182.15625 L 463.070312 182.15625 C 464.851562 172.359375 468.414062 163.898438 473.757812 156.328125 L 467.523438 148.761719 C 465.742188 146.980469 465.742188 144.308594 467.523438 142.972656 L 476.429688 134.066406 C 477.320312 133.175781 478.210938 132.730469 479.546875 132.730469 C 480.882812 132.730469 481.773438 133.175781 482.664062 134.066406 L 489.339844 140.746094 C 496.910156 135.402344 505.816406 131.394531 515.167969 130.058594 L 515.167969 120.707031 C 515.167969 118.480469 516.949219 116.699219 519.175781 116.699219 L 531.644531 116.699219 C 533.871094 116.699219 535.652344 118.480469 535.652344 120.707031 L 535.652344 129.613281 C 545.449219 131.394531 553.90625 134.957031 561.476562 140.300781 L 568.15625 133.621094 C 569.046875 132.730469 569.9375 132.285156 571.273438 132.285156 C 572.609375 132.285156 573.5 132.730469 574.390625 133.621094 L 583.296875 142.527344 C 585.078125 144.308594 585.078125 146.980469 583.296875 148.316406 L 576.617188 154.992188 C 581.960938 162.5625 585.96875 171.46875 587.304688 180.820312 L 596.65625 180.820312 C 598.882812 180.820312 600.664062 182.601562 600.664062 184.828125 L 600.664062 198.1875 Z M 601.109375 198.1875 " fill-opacity="1" fill-rule="nonzero"/><path fill="#242424" d="M 525.410156 156.328125 C 505.816406 156.328125 489.785156 172.359375 489.785156 191.953125 C 489.785156 211.542969 505.816406 227.574219 525.410156 227.574219 C 545.003906 227.574219 561.03125 211.542969 561.03125 191.953125 C 561.03125 172.359375 545.003906 156.328125 525.410156 156.328125 Z M 525.410156 209.765625 C 515.613281 209.765625 507.597656 201.75 507.597656 191.953125 C 507.597656 182.15625 515.613281 174.140625 525.410156 174.140625 C 535.207031 174.140625 543.222656 182.15625 543.222656 191.953125 C 543.222656 201.75 535.207031 209.765625 525.410156 209.765625 Z M 525.410156 209.765625 " fill-opacity="1" fill-rule="nonzero"/></svg>