<svg xmlns="http://www.w3.org/2000/svg" xmlns:xlink="http://www.w3.org/1999/xlink" width="500" zoomAndPan="magnify" viewBox="0 0 375 374.999991" height="500" preserveAspectRatio="xMidYMid meet" version="1.0"><defs><clipPath id="31ff36c0c7"><path d="M 1 7 L 368.25 7 L 368.25 375 L 1 375 Z M 1 7 " clip-rule="nonzero"/></clipPath></defs><g clip-path="url(#31ff36c0c7)"><path fill="#000000" d="M 264.035156 375.277344 C 263.433594 375.277344 262.832031 375.246094 262.230469 375.1875 C 261.628906 375.128906 261.035156 375.039062 260.441406 374.921875 C 259.851562 374.804688 259.265625 374.660156 258.691406 374.484375 C 258.113281 374.308594 257.546875 374.105469 256.988281 373.875 C 256.433594 373.644531 255.886719 373.386719 255.355469 373.101562 C 254.824219 372.816406 254.308594 372.507812 253.804688 372.171875 C 253.304688 371.835938 252.820312 371.480469 252.355469 371.097656 C 251.886719 370.714844 251.441406 370.308594 251.015625 369.882812 C 250.589844 369.457031 250.183594 369.011719 249.800781 368.542969 C 249.417969 368.078125 249.0625 367.59375 248.726562 367.09375 C 248.390625 366.589844 248.082031 366.074219 247.796875 365.542969 C 247.511719 365.011719 247.253906 364.464844 247.023438 363.910156 C 246.792969 363.351562 246.589844 362.785156 246.414062 362.207031 C 246.242188 361.628906 246.09375 361.046875 245.976562 360.453125 C 245.859375 359.863281 245.769531 359.265625 245.710938 358.667969 C 245.652344 358.066406 245.621094 357.464844 245.621094 356.863281 L 245.621094 308.984375 C 245.910156 306.230469 245.90625 303.480469 245.613281 300.726562 C 245.324219 297.972656 244.75 295.28125 243.894531 292.648438 C 243.035156 290.015625 241.917969 287.5 240.53125 285.101562 C 239.148438 282.703125 237.53125 280.476562 235.679688 278.417969 C 234.535156 277.175781 233.578125 275.800781 232.808594 274.292969 C 232.042969 272.785156 231.492188 271.203125 231.160156 269.546875 C 230.828125 267.886719 230.730469 266.214844 230.859375 264.53125 C 230.988281 262.84375 231.339844 261.207031 231.921875 259.617188 C 232.5 258.03125 233.285156 256.550781 234.273438 255.175781 C 235.261719 253.804688 236.417969 252.589844 237.738281 251.539062 C 239.0625 250.484375 240.5 249.628906 242.058594 248.96875 C 243.617188 248.3125 245.234375 247.878906 246.910156 247.667969 C 291.839844 242.328125 333.265625 227.964844 333.265625 150.070312 C 333.269531 146.453125 333.007812 142.859375 332.480469 139.28125 C 331.957031 135.703125 331.171875 132.179688 330.125 128.71875 C 329.082031 125.257812 327.789062 121.890625 326.246094 118.617188 C 324.707031 115.34375 322.933594 112.203125 320.929688 109.191406 C 319.089844 106.433594 317.535156 103.519531 316.265625 100.453125 C 314.996094 97.386719 314.039062 94.230469 313.390625 90.976562 C 312.742188 87.722656 312.417969 84.433594 312.417969 81.117188 C 312.414062 77.800781 312.738281 74.515625 313.378906 71.257812 C 315.054688 62.605469 315.054688 53.949219 313.378906 45.296875 C 299.511719 49.984375 286.683594 56.675781 274.898438 65.367188 C 273.792969 66.152344 272.613281 66.808594 271.359375 67.335938 C 270.105469 67.859375 268.8125 68.242188 267.476562 68.480469 C 266.136719 68.71875 264.789062 68.808594 263.433594 68.75 C 262.078125 68.691406 260.742188 68.484375 259.433594 68.128906 C 251.164062 65.792969 242.777344 64.035156 234.265625 62.855469 C 225.753906 61.675781 217.203125 61.085938 208.613281 61.085938 C 200.023438 61.085938 191.472656 61.675781 182.960938 62.855469 C 174.453125 64.035156 166.0625 65.792969 157.796875 68.128906 C 156.484375 68.484375 155.148438 68.691406 153.792969 68.75 C 152.4375 68.808594 151.089844 68.71875 149.753906 68.480469 C 148.414062 68.242188 147.121094 67.859375 145.867188 67.335938 C 144.617188 66.808594 143.4375 66.152344 142.328125 65.367188 C 130.464844 56.570312 117.515625 49.878906 103.476562 45.296875 C 101.710938 53.949219 101.710938 62.605469 103.476562 71.257812 C 104.074219 74.554688 104.355469 77.878906 104.3125 81.230469 C 104.273438 84.582031 103.914062 87.898438 103.234375 91.179688 C 102.554688 94.460938 101.570312 97.644531 100.28125 100.738281 C 98.992188 103.832031 97.417969 106.769531 95.5625 109.5625 C 93.566406 112.59375 91.800781 115.753906 90.265625 119.042969 C 88.726562 122.332031 87.4375 125.714844 86.394531 129.191406 C 85.347656 132.667969 84.5625 136.203125 84.03125 139.792969 C 83.5 143.382812 83.230469 146.992188 83.222656 150.625 C 83.222656 222.253906 117.839844 241.40625 169.761719 248.035156 C 170.609375 248.140625 171.441406 248.300781 172.265625 248.523438 C 173.089844 248.742188 173.890625 249.019531 174.675781 249.351562 C 175.460938 249.683594 176.21875 250.070312 176.949219 250.507812 C 177.679688 250.945312 178.378906 251.429688 179.039062 251.964844 C 179.703125 252.496094 180.328125 253.074219 180.910156 253.695312 C 181.496094 254.316406 182.03125 254.976562 182.523438 255.671875 C 183.015625 256.367188 183.457031 257.089844 183.851562 257.847656 C 184.242188 258.605469 184.578125 259.382812 184.863281 260.1875 C 185.398438 261.753906 185.714844 263.363281 185.816406 265.015625 C 185.917969 266.667969 185.796875 268.304688 185.457031 269.925781 C 185.117188 271.546875 184.570312 273.09375 183.8125 274.566406 C 183.054688 276.039062 182.113281 277.382812 180.996094 278.601562 C 179.203125 280.515625 177.628906 282.59375 176.269531 284.835938 C 174.910156 287.074219 173.792969 289.433594 172.921875 291.902344 C 172.050781 294.375 171.441406 296.910156 171.09375 299.507812 C 170.75 302.109375 170.671875 304.714844 170.867188 307.328125 L 170.867188 356.863281 C 170.867188 357.464844 170.839844 358.066406 170.78125 358.667969 C 170.71875 359.265625 170.632812 359.863281 170.515625 360.453125 C 170.398438 361.046875 170.25 361.628906 170.074219 362.207031 C 169.898438 362.785156 169.695312 363.351562 169.464844 363.910156 C 169.234375 364.464844 168.976562 365.011719 168.695312 365.542969 C 168.410156 366.074219 168.101562 366.589844 167.765625 367.09375 C 167.429688 367.59375 167.070312 368.078125 166.6875 368.542969 C 166.304688 369.011719 165.902344 369.457031 165.476562 369.882812 C 165.046875 370.308594 164.601562 370.714844 164.136719 371.097656 C 163.671875 371.480469 163.1875 371.835938 162.683594 372.171875 C 162.183594 372.507812 161.667969 372.816406 161.136719 373.101562 C 160.601562 373.386719 160.058594 373.644531 159.5 373.875 C 158.945312 374.105469 158.378906 374.308594 157.800781 374.484375 C 157.222656 374.660156 156.640625 374.804688 156.046875 374.921875 C 155.457031 375.039062 154.859375 375.128906 154.261719 375.1875 C 153.660156 375.246094 153.058594 375.277344 152.457031 375.277344 C 151.851562 375.277344 151.25 375.246094 150.652344 375.1875 C 150.050781 375.128906 149.453125 375.039062 148.863281 374.921875 C 148.273438 374.804688 147.6875 374.660156 147.109375 374.484375 C 146.535156 374.308594 145.964844 374.105469 145.410156 373.875 C 144.851562 373.644531 144.308594 373.386719 143.777344 373.101562 C 143.242188 372.816406 142.726562 372.507812 142.226562 372.171875 C 141.726562 371.835938 141.242188 371.480469 140.773438 371.097656 C 140.308594 370.714844 139.863281 370.308594 139.4375 369.882812 C 139.007812 369.457031 138.605469 369.011719 138.222656 368.542969 C 137.839844 368.078125 137.480469 367.59375 137.144531 367.09375 C 136.8125 366.589844 136.5 366.074219 136.21875 365.542969 C 135.933594 365.011719 135.675781 364.464844 135.445312 363.910156 C 135.214844 363.351562 135.011719 362.785156 134.835938 362.207031 C 134.660156 361.628906 134.515625 361.046875 134.398438 360.453125 C 134.277344 359.863281 134.191406 359.265625 134.132812 358.667969 C 134.074219 358.066406 134.042969 357.464844 134.042969 356.863281 L 134.042969 346.367188 C 129.535156 346.882812 125.015625 347.125 120.480469 347.085938 C 115.945312 347.046875 111.429688 346.730469 106.933594 346.136719 C 102.4375 345.539062 97.992188 344.671875 93.601562 343.53125 C 89.214844 342.386719 84.910156 340.980469 80.695312 339.308594 C 76.476562 337.636719 72.378906 335.710938 68.402344 333.535156 C 64.421875 331.355469 60.589844 328.945312 56.910156 326.296875 C 53.226562 323.644531 49.722656 320.78125 46.390625 317.699219 C 43.0625 314.621094 39.933594 311.347656 37.007812 307.878906 C 30.914062 301.125 23.796875 295.726562 15.652344 291.675781 C 15.066406 291.527344 14.488281 291.347656 13.921875 291.140625 C 13.355469 290.933594 12.796875 290.699219 12.253906 290.4375 C 11.710938 290.175781 11.179688 289.886719 10.664062 289.570312 C 10.144531 289.257812 9.648438 288.917969 9.164062 288.554688 C 8.679688 288.191406 8.21875 287.808594 7.773438 287.398438 C 7.328125 286.988281 6.902344 286.558594 6.5 286.109375 C 6.097656 285.660156 5.71875 285.191406 5.359375 284.703125 C 5.003906 284.214844 4.671875 283.710938 4.367188 283.191406 C 4.058594 282.671875 3.777344 282.136719 3.523438 281.589844 C 3.269531 281.039062 3.039062 280.480469 2.839844 279.910156 C 2.640625 279.339844 2.46875 278.761719 2.328125 278.175781 C 2.183594 277.585938 2.070312 276.996094 1.984375 276.398438 C 1.902344 275.796875 1.847656 275.199219 1.820312 274.59375 C 1.792969 273.988281 1.796875 273.386719 1.832031 272.785156 C 1.867188 272.179688 1.929688 271.578125 2.023438 270.984375 C 2.113281 270.386719 2.238281 269.792969 2.386719 269.210938 C 2.539062 268.625 2.71875 268.046875 2.925781 267.480469 C 3.132812 266.914062 3.367188 266.355469 3.628906 265.8125 C 3.890625 265.269531 4.179688 264.738281 4.492188 264.222656 C 4.808594 263.707031 5.144531 263.207031 5.507812 262.722656 C 5.871094 262.242188 6.257812 261.777344 6.667969 261.332031 C 7.078125 260.886719 7.507812 260.464844 7.957031 260.058594 C 8.40625 259.65625 8.875 259.277344 9.363281 258.921875 C 9.851562 258.566406 10.355469 258.234375 10.875 257.925781 C 11.398438 257.617188 11.929688 257.339844 12.480469 257.082031 C 13.027344 256.828125 13.585938 256.601562 14.15625 256.402344 C 14.726562 256.203125 15.304688 256.03125 15.890625 255.890625 C 16.480469 255.746094 17.070312 255.632812 17.671875 255.546875 C 18.269531 255.464844 18.871094 255.410156 19.472656 255.382812 C 20.078125 255.359375 20.679688 255.363281 21.285156 255.398438 C 21.886719 255.429688 22.488281 255.492188 23.082031 255.585938 C 23.679688 255.679688 24.273438 255.800781 24.855469 255.953125 C 31.9375 258.53125 38.597656 261.941406 44.828125 266.179688 C 51.0625 270.417969 56.679688 275.359375 61.683594 280.996094 C 80.09375 299.410156 98.507812 315.613281 133.492188 308.984375 C 133.183594 304.042969 133.386719 299.121094 134.097656 294.21875 C 134.8125 289.316406 136.023438 284.542969 137.726562 279.890625 C 99.796875 270.316406 45.664062 243.0625 45.664062 150.992188 C 45.652344 145.570312 46.035156 140.175781 46.816406 134.808594 C 47.601562 129.441406 48.769531 124.164062 50.332031 118.96875 C 51.890625 113.777344 53.820312 108.726562 56.125 103.816406 C 58.429688 98.90625 61.078125 94.191406 64.074219 89.671875 C 65.195312 87.996094 65.960938 86.171875 66.375 84.195312 C 66.789062 82.222656 66.820312 80.242188 66.46875 78.257812 C 65.542969 73.3125 64.976562 68.328125 64.769531 63.304688 C 64.5625 58.277344 64.714844 53.265625 65.230469 48.261719 C 65.742188 43.257812 66.613281 38.320312 67.839844 33.441406 C 69.066406 28.5625 70.632812 23.800781 72.546875 19.148438 C 73.066406 17.902344 73.71875 16.726562 74.5 15.621094 C 75.28125 14.519531 76.171875 13.511719 77.175781 12.605469 C 78.175781 11.699219 79.265625 10.914062 80.441406 10.246094 C 81.617188 9.578125 82.851562 9.046875 84.144531 8.652344 C 90.40625 6.808594 112.867188 3.128906 155.402344 30.75 C 163.980469 28.683594 172.648438 27.132812 181.410156 26.09375 C 190.171875 25.054688 198.960938 24.535156 207.785156 24.535156 C 216.609375 24.535156 225.398438 25.054688 234.160156 26.09375 C 242.921875 27.132812 251.589844 28.683594 260.167969 30.75 C 302.703125 3.128906 325.164062 6.625 331.242188 8.652344 C 332.535156 9.046875 333.769531 9.578125 334.945312 10.246094 C 336.121094 10.914062 337.207031 11.699219 338.210938 12.605469 C 339.214844 13.511719 340.105469 14.519531 340.886719 15.621094 C 341.667969 16.726562 342.320312 17.902344 342.839844 19.148438 C 344.757812 23.8125 346.328125 28.59375 347.554688 33.488281 C 348.78125 38.378906 349.652344 43.335938 350.167969 48.355469 C 350.683594 53.371094 350.835938 58.402344 350.625 63.441406 C 350.414062 68.484375 349.847656 73.484375 348.917969 78.441406 C 348.535156 80.253906 348.523438 82.074219 348.871094 83.894531 C 349.222656 85.714844 349.914062 87.394531 350.941406 88.9375 C 353.949219 93.46875 356.605469 98.195312 358.914062 103.121094 C 361.21875 108.042969 363.152344 113.113281 364.714844 118.320312 C 366.273438 123.53125 367.441406 128.828125 368.21875 134.210938 C 368.996094 139.589844 369.375 145 369.355469 150.441406 C 369.355469 243.800781 315.589844 270.867188 277.292969 279.339844 C 278.980469 284.277344 280.164062 289.335938 280.84375 294.511719 C 281.527344 299.6875 281.691406 304.882812 281.34375 310.089844 L 281.34375 356.863281 C 281.34375 358.027344 281.238281 359.179688 281.019531 360.324219 C 280.804688 361.46875 280.480469 362.582031 280.054688 363.664062 C 279.625 364.746094 279.101562 365.777344 278.476562 366.761719 C 277.855469 367.742188 277.144531 368.660156 276.347656 369.507812 C 275.550781 370.355469 274.679688 371.121094 273.738281 371.804688 C 272.792969 372.488281 271.796875 373.074219 270.742188 373.570312 C 269.6875 374.0625 268.597656 374.453125 267.46875 374.742188 C 266.34375 375.027344 265.195312 375.207031 264.035156 375.277344 Z M 264.035156 375.277344 " fill-opacity="1" fill-rule="nonzero"/></g></svg>